<svg width="250" height="250" viewBox="0 0 250 250" fill="none" xmlns="http://www.w3.org/2000/svg">
<rect width="250" height="250" rx="20" fill="#B2CDFC"/>
<rect x="146.783" y="49.5033" width="54" height="53" rx="4.5" transform="rotate(10 146.783 49.5033)" fill="#ECECEC" stroke="#100C41"/>
<path d="M153.39 72.4999L186.873 78.404" stroke="black" stroke-width="2" stroke-linecap="round"/>
<path d="M151.827 81.3632L185.311 87.2673" stroke="black" stroke-width="2" stroke-linecap="round"/>
<path d="M150.264 90.2265L183.747 96.1305" stroke="black" stroke-width="2" stroke-linecap="round"/>
<circle cx="179.86" cy="54.8281" r="4.5" transform="rotate(10 179.86 54.8281)" fill="white" stroke="#100C41"/>
<path d="M169.608 61.1437C169.369 61.281 169.286 61.5865 169.423 61.8261C169.56 62.0657 169.866 62.1487 170.105 62.0114L169.608 61.1437ZM176.385 57.2616L169.608 61.1437L170.105 62.0114L176.882 58.1293L176.385 57.2616Z" fill="#100C41"/>
<rect x="100.5" y="27.5" width="54" height="53" rx="4.5" fill="#ECECEC" stroke="#100C41"/>
<path d="M111 49H145" stroke="black" stroke-width="2" stroke-linecap="round"/>
<path d="M111 58H145" stroke="black" stroke-width="2" stroke-linecap="round"/>
<path d="M111 67H145" stroke="black" stroke-width="2" stroke-linecap="round"/>
<circle cx="134" cy="27" r="4.5" fill="white" stroke="#100C41"/>
<path d="M125 35C124.788 35.1768 124.759 35.492 124.936 35.7042C125.113 35.9163 125.428 35.945 125.64 35.7682L125 35ZM131 30L125 35L125.64 35.7682L131.64 30.7682L131 30Z" fill="#100C41"/>
<path d="M53 90.5C49.9624 90.5 47.5 92.9624 47.5 96V221C47.5 224.038 49.9624 226.5 53 226.5H142C145.038 226.5 147.5 224.038 147.5 221V96C147.5 92.9624 145.038 90.5 142 90.5H53Z" fill="white" stroke="#100C41"/>
<circle cx="66.5" cy="135.5" r="7" fill="#B2CDFC" stroke="#100C41"/>
<circle cx="66.5" cy="158.5" r="7" fill="#B2CDFC" stroke="#100C41"/>
<circle cx="66.5" cy="181.5" r="7" fill="#B2CDFC" stroke="#100C41"/>
<circle cx="66.5" cy="204.5" r="7" fill="#B2CDFC" stroke="#100C41"/>
<line x1="69" y1="112" x2="126" y2="112" stroke="#100C41" stroke-width="2"/>
<line x1="81" y1="131" x2="138" y2="131" stroke="#100C41" stroke-width="2"/>
<line x1="81" y1="154" x2="138" y2="154" stroke="#100C41" stroke-width="2"/>
<line x1="81" y1="177" x2="138" y2="177" stroke="#100C41" stroke-width="2"/>
<line x1="81" y1="200" x2="138" y2="200" stroke="#100C41" stroke-width="2"/>
<line x1="81" y1="139" x2="116" y2="139" stroke="#100C41" stroke-width="2"/>
<line x1="81" y1="162" x2="116" y2="162" stroke="#100C41" stroke-width="2"/>
<line x1="81" y1="185" x2="116" y2="185" stroke="#100C41" stroke-width="2"/>
<line x1="81" y1="208" x2="116" y2="208" stroke="#100C41" stroke-width="2"/>
<circle cx="159" cy="197" r="31" fill="#B0BEC5"/>
<circle cx="163" cy="197" r="31" fill="#3ECF7A" stroke="#100C41"/>
<path d="M150 196L160.5 205L175.5 189" stroke="black" stroke-width="5" stroke-linecap="round"/>
</svg>
