<svg width="50" height="50" viewBox="0 0 50 50" fill="none" xmlns="http://www.w3.org/2000/svg">
<g id="Group 72">
<path id="Ellipse 20" d="M48.4053 25C48.4053 38.1339 37.916 48.75 25.0147 48.75C12.1134 48.75 1.62402 38.1339 1.62402 25C1.62402 11.8661 12.1134 1.25 25.0147 1.25C37.916 1.25 48.4053 11.8661 48.4053 25Z" fill="white" stroke="#100C41" stroke-width="2.5"/>
<path id="Vector" d="M13.0641 20.3986C11.9242 20.3981 11.0003 21.2026 11 22.1921L11.0014 29.7016C11.0012 29.9372 11.0545 30.1706 11.1582 30.3883C11.2619 30.606 11.414 30.8038 11.6058 30.9705C11.7976 31.1371 12.0253 31.2692 12.2759 31.3593C12.5265 31.4495 12.7951 31.4958 13.0663 31.4956C13.3375 31.4959 13.6061 31.4497 13.8567 31.3596C14.1073 31.2695 14.335 31.1374 14.5267 30.9708C14.7185 30.8041 14.8704 30.6063 14.974 30.3885C15.0775 30.1708 15.1306 29.9374 15.1302 29.7018V22.1912C15.1296 21.7155 14.9116 21.2595 14.5242 20.9234C14.1368 20.5873 13.6116 20.3985 13.0641 20.3986ZM29.7121 13.6548L31.153 11.3692C31.1897 11.3112 31.1984 11.2429 31.1773 11.1794C31.1561 11.1158 31.1068 11.0621 31.0402 11.0301C30.9734 10.9987 30.8951 10.9915 30.8222 11.0102C30.7494 11.0288 30.688 11.0717 30.6515 11.1295L29.196 13.4391C27.9715 12.9656 26.6009 12.7002 25.1508 12.7015C23.7046 12.7002 22.3347 12.9648 21.1152 13.4357L19.658 11.1319C19.6402 11.1032 19.616 11.0778 19.5869 11.0572C19.5577 11.0366 19.5241 11.0213 19.4881 11.0121C19.452 11.0028 19.4142 10.9999 19.3769 11.0035C19.3395 11.007 19.3033 11.017 19.2704 11.0328C19.2372 11.0482 19.2079 11.0692 19.1841 11.0946C19.1604 11.12 19.1427 11.1492 19.1321 11.1806C19.1216 11.212 19.1183 11.2449 19.1225 11.2774C19.1268 11.3099 19.1384 11.3414 19.1568 11.3699L20.5982 13.6541C17.766 14.9228 15.8524 17.3392 15.8541 20.1134L34.4498 20.1115C34.4503 17.3382 32.5401 14.9267 29.7121 13.6548ZM20.9214 17.187C20.7146 17.1869 20.5163 17.1154 20.3701 16.9883C20.224 16.8612 20.1419 16.6889 20.142 16.5092C20.1421 16.3296 20.2244 16.1573 20.3707 16.0303C20.517 15.9034 20.7154 15.8321 20.9222 15.8322C21.129 15.8325 21.3273 15.904 21.4736 16.0311C21.6199 16.1581 21.7022 16.3303 21.7027 16.5099C21.7023 16.6897 21.6198 16.862 21.4733 16.9889C21.3268 17.1159 21.1283 17.1871 20.9214 17.187ZM29.3887 17.1857C29.2863 17.1858 29.1849 17.1683 29.0903 17.1343C28.9957 17.1003 28.9097 17.0505 28.8373 16.9876C28.7649 16.9247 28.7075 16.8501 28.6683 16.7679C28.6292 16.6857 28.609 16.5977 28.6091 16.5087C28.6102 16.3292 28.6926 16.1573 28.8386 16.0303C28.9846 15.9032 29.1823 15.8313 29.389 15.83C29.5954 15.8315 29.7929 15.9036 29.9386 16.0307C30.0842 16.1578 30.1664 16.3296 30.1672 16.509C30.1673 16.5978 30.1472 16.6858 30.1082 16.768C30.0691 16.8501 30.0118 16.9247 29.9395 16.9876C29.8671 17.0504 29.7813 17.1003 29.6868 17.1343C29.5923 17.1683 29.491 17.1858 29.3887 17.1857ZM15.93 20.7374L15.9331 32.3757C15.9328 32.627 15.9895 32.876 16.1001 33.1083C16.2107 33.3405 16.373 33.5516 16.5776 33.7293C16.7822 33.907 17.0251 34.048 17.2925 34.144C17.5599 34.24 17.8465 34.2893 18.1359 34.289L19.6358 34.2895L19.6375 38.2631C19.6372 39.2526 20.5631 40.0569 21.7004 40.0569C22.8412 40.0569 23.7654 39.2519 23.7657 38.2619L23.7645 34.2892L26.5514 34.2885L26.5526 38.2619C26.5526 39.2506 27.4787 40.0567 28.6164 40.0547C29.7571 40.0554 30.6819 39.2504 30.6816 38.2604L30.6802 34.288L32.1854 34.287C32.4748 34.287 32.7614 34.2376 33.0287 34.1414C33.2961 34.0452 33.539 33.9042 33.7437 33.7265C33.9483 33.5488 34.1107 33.3378 34.2215 33.1055C34.3322 32.8733 34.3893 32.6244 34.3893 32.373L34.3868 20.7348L15.93 20.7374ZM39.3115 22.1894C39.3115 21.9539 39.2581 21.7207 39.1544 21.5031C39.0506 21.2855 38.8985 21.0878 38.7068 20.9213C38.5151 20.7548 38.2874 20.6227 38.0369 20.5327C37.7864 20.4426 37.5179 20.3963 37.2468 20.3964C36.1069 20.3954 35.1833 21.1995 35.1833 22.1902L35.185 29.7001C35.1848 29.9356 35.238 30.1689 35.3417 30.3865C35.4454 30.6041 35.5974 30.8018 35.7891 30.9684C35.9808 31.1349 36.2084 31.267 36.4589 31.357C36.7095 31.4471 36.978 31.4934 37.2491 31.4932C37.5202 31.4932 37.7887 31.4468 38.0392 31.3567C38.2897 31.2665 38.5173 31.1343 38.709 30.9677C38.9006 30.8011 39.0526 30.6033 39.1563 30.3856C39.2599 30.168 39.3131 29.9347 39.3129 29.6992L39.3115 22.1894Z" fill="#100C41"/>
</g>
</svg>
