<svg width="30" height="30" viewBox="0 0 30 30" fill="none" xmlns="http://www.w3.org/2000/svg">
<g id="mdi:web">
<path id="Vector" d="M20.3854 17.5C20.4839 16.675 20.5578 15.85 20.5578 15C20.5578 14.15 20.4839 13.325 20.3854 12.5H24.5496C24.7467 13.3 24.87 14.1375 24.87 15C24.87 15.8625 24.7467 16.7 24.5496 17.5M18.2047 24.45C18.9439 23.0625 19.5106 21.5625 19.9049 20H23.5394C22.3457 22.0853 20.452 23.665 18.2047 24.45ZM17.8966 17.5H12.1307C12.0075 16.675 11.9336 15.85 11.9336 15C11.9336 14.15 12.0075 13.3125 12.1307 12.5H17.8966C18.0075 13.3125 18.0938 14.15 18.0938 15C18.0938 15.85 18.0075 16.675 17.8966 17.5ZM15.0137 24.95C13.9911 23.45 13.1656 21.7875 12.6605 20H17.3669C16.8617 21.7875 16.0363 23.45 15.0137 24.95ZM10.0856 10H6.48802C7.66936 7.90902 9.56169 6.32686 11.8104 5.55C11.0712 6.9375 10.5168 8.4375 10.0856 10ZM6.48802 20H10.0856C10.5168 21.5625 11.0712 23.0625 11.8104 24.45C9.56641 23.6646 7.67674 22.0846 6.48802 20ZM5.47775 17.5C5.28063 16.7 5.15743 15.8625 5.15743 15C5.15743 14.1375 5.28063 13.3 5.47775 12.5H9.64202C9.54346 13.325 9.46954 14.15 9.46954 15C9.46954 15.85 9.54346 16.675 9.64202 17.5M15.0137 5.0375C16.0363 6.5375 16.8617 8.2125 17.3669 10H12.6605C13.1656 8.2125 13.9911 6.5375 15.0137 5.0375ZM23.5394 10H19.9049C19.5193 8.45182 18.9483 6.95737 18.2047 5.55C20.4716 6.3375 22.3566 7.925 23.5394 10ZM15.0137 2.5C8.20055 2.5 2.69336 8.125 2.69336 15C2.69336 18.3152 3.99139 21.4946 6.3019 23.8388C7.44595 24.9996 8.80413 25.9203 10.2989 26.5485C11.7937 27.1767 13.3958 27.5 15.0137 27.5C18.2812 27.5 21.415 26.183 23.7255 23.8388C26.036 21.4946 27.334 18.3152 27.334 15C27.334 13.3585 27.0153 11.733 26.3962 10.2165C25.777 8.69989 24.8695 7.3219 23.7255 6.16117C22.5814 5.00043 21.2232 4.07969 19.7285 3.45151C18.2337 2.82332 16.6316 2.5 15.0137 2.5Z" fill="#100C41"/>
</g>
</svg>
