<svg width="30" height="30" viewBox="0 0 30 30" fill="none" xmlns="http://www.w3.org/2000/svg">
<g id="mingcute:code-fill" clip-path="url(#clip0_1333_3569)">
<g id="Group">
<path id="Vector" d="M18.2431 3.32798C18.4769 3.39436 18.6956 3.50685 18.8866 3.65902C19.0776 3.81119 19.2371 4.00006 19.3561 4.21482C19.4751 4.42958 19.5512 4.66603 19.5801 4.91066C19.609 5.15528 19.59 5.40328 19.5244 5.64048L14.0653 25.3742C13.9329 25.8531 13.6185 26.259 13.1912 26.5027C12.7639 26.7464 12.2586 26.8079 11.7866 26.6736C11.3146 26.5393 10.9145 26.2203 10.6743 25.7868C10.4342 25.3532 10.3736 24.8406 10.5059 24.3617L15.9651 4.62548C16.0306 4.38833 16.1416 4.16661 16.2916 3.97299C16.4417 3.77936 16.6278 3.61763 16.8395 3.49702C17.0512 3.37641 17.2842 3.2993 17.5252 3.27008C17.7663 3.24086 18.0106 3.26011 18.2443 3.32673M9.54493 8.37173C9.89101 8.72329 10.0854 9.19985 10.0854 9.69673C10.0854 10.1936 9.89101 10.6702 9.54493 11.0217L5.62707 15.0005L9.5474 18.978C9.89392 19.3297 10.0885 19.8067 10.0884 20.304C10.0883 20.8014 9.89347 21.2783 9.54678 21.6299C9.20009 21.9814 8.72995 22.1789 8.23977 22.1788C7.7496 22.1786 7.27955 21.981 6.93302 21.6292L1.70551 16.3255C1.35943 15.9739 1.16504 15.4974 1.16504 15.0005C1.16504 14.5036 1.35943 14.027 1.70551 13.6755L6.93179 8.37173C7.10341 8.19749 7.30719 8.05927 7.53149 7.96497C7.75578 7.87067 7.99619 7.82213 8.23898 7.82213C8.48177 7.82213 8.72218 7.87067 8.94647 7.96497C9.17076 8.05927 9.37331 8.19749 9.54493 8.37173ZM20.4866 11.0217C20.305 10.8501 20.1594 10.6431 20.0584 10.4131C19.9574 10.1831 19.9031 9.93479 19.8987 9.68304C19.8943 9.43128 19.94 9.18121 20.0329 8.94774C20.1259 8.71427 20.2642 8.50218 20.4397 8.32413C20.6152 8.14609 20.8242 8.00573 21.0543 7.91142C21.2845 7.81712 21.5309 7.77081 21.7791 7.77525C22.0272 7.77969 22.2719 7.8348 22.4986 7.93728C22.7253 8.03976 22.9293 8.18751 23.0985 8.37173L28.326 13.6742C28.6725 14.0258 28.8671 14.5027 28.8671 14.9999C28.8671 15.497 28.6725 15.9739 28.326 16.3255L23.0998 21.6292C22.7532 21.981 22.2832 22.1786 21.793 22.1788C21.3028 22.1789 20.8327 21.9814 20.486 21.6299C20.1393 21.2783 19.9445 20.8014 19.9444 20.304C19.9443 19.8067 20.1389 19.3297 20.4854 18.978L24.4045 15.0005L20.4866 11.0217Z" fill="#100C41"/>
</g>
</g>
<defs>
<clipPath id="clip0_1333_3569">
<rect width="29.5688" height="30" fill="white" transform="translate(0.230469)"/>
</clipPath>
</defs>
</svg>
