<svg width="439" height="293" viewBox="0 0 439 293" fill="none" xmlns="http://www.w3.org/2000/svg">
<path d="M340.618 218.406H98.3805C91.9149 218.406 86.6738 213.165 86.6738 206.699V62.609C86.6738 56.1434 91.9149 50.9023 98.3805 50.9023H340.619C347.085 50.9023 352.326 56.1434 352.326 62.609V206.699C352.325 213.165 347.084 218.406 340.618 218.406Z" fill="#B8C9EA"/>
<path d="M255.983 218.406H183.018V271.066H255.983V218.406Z" fill="#B8C9EA"/>
<path d="M276.212 259.051H162.787C159.469 259.051 156.779 261.74 156.779 265.059C156.779 268.376 159.469 271.066 162.787 271.066H276.212C279.53 271.066 282.22 268.377 282.22 265.059C282.22 261.741 279.53 259.051 276.212 259.051Z" fill="#B8C9EA"/>
<path d="M343.596 68.4627V200.438C343.596 203.669 340.974 206.291 337.743 206.291H101.257C98.0256 206.291 95.4033 203.669 95.4033 200.438V68.4627C95.4033 65.2258 98.0256 62.6094 101.257 62.6094H337.743C340.974 62.6094 343.596 65.2258 343.596 68.4627Z" fill="#D6E0F4"/>
<path d="M183.018 259.268H255.983" stroke="#92A9D1" stroke-width="0.585333" stroke-miterlimit="10" stroke-linecap="round" stroke-linejoin="round"/>
<path d="M337.741 206.289H101.258" stroke="#92A9D1" stroke-width="0.585333" stroke-miterlimit="10" stroke-linecap="round" stroke-linejoin="round"/>
<path d="M255.983 230.373V218.406L198.427 218.205L255.983 230.373Z" fill="#92A9D1"/>
<path d="M21.1777 271.066H417.822" stroke="#252126" stroke-width="0.439" stroke-miterlimit="10" stroke-linecap="round" stroke-linejoin="round"/>
<path opacity="0.6" d="M343.596 170.5V200.439C343.596 203.671 340.974 206.293 337.743 206.293H101.257C98.0256 206.293 95.4033 203.671 95.4033 200.439V178.431C98.3241 177.734 101.415 177.752 104.306 178.577C110.534 180.363 115.006 185.894 116.259 192.251C116.159 189.031 117.863 185.812 120.584 184.091C123.3 182.364 126.941 182.195 129.809 183.664C132.677 185.127 135.364 188.405 135.563 191.618C140.96 186.374 145.028 179.766 147.305 172.589H174.3C175.822 179.174 179.779 185.291 185.158 189.336C186.663 185.572 190.649 182.405 194.693 182.142C198.744 181.879 202.847 184.109 204.831 187.644C204.316 181.533 208.197 174.896 213.049 171.155C217.902 167.409 224.223 165.876 230.346 166.133C235.45 166.35 240.642 167.836 244.529 171.149C248.415 174.468 250.768 179.801 249.709 184.799C253.004 179.953 259.905 177.208 265.63 178.484C271.355 179.76 276.055 184.758 276.98 190.547C278.7 184.899 284.864 180.234 290.758 180.07C296.658 179.9 302.453 183.828 304.484 189.365C304.648 181.955 309.758 175.416 316.378 172.074C322.993 168.726 330.766 168.322 338.112 169.364C339.956 169.628 341.811 169.979 343.596 170.5Z" fill="white"/>
<g opacity="0.8">
<path d="M248.871 204.143C248.871 204.869 248.83 205.583 248.754 206.292H208.933C208.857 205.583 208.816 204.869 208.816 204.143C208.816 193.086 217.784 184.119 228.841 184.119C239.903 184.119 248.871 193.086 248.871 204.143Z" fill="white"/>
<path d="M113.337 204.144C113.337 204.875 113.273 205.595 113.144 206.292H101.256C98.0246 206.292 95.4023 203.67 95.4023 200.439V193.584C97.1349 192.619 99.1309 192.068 101.256 192.068C107.928 192.068 113.337 197.477 113.337 204.144Z" fill="white"/>
<path d="M343.596 192.144V200.438C343.596 203.669 340.973 206.292 337.742 206.292H311.888C311.484 204.822 311.273 203.283 311.273 201.691C311.273 191.986 319.14 184.119 328.845 184.119C335.032 184.119 340.47 187.315 343.596 192.144Z" fill="white"/>
<path d="M195.14 200.52C198.075 200.52 200.455 198.141 200.455 195.205C200.455 192.27 198.075 189.891 195.14 189.891C192.205 189.891 189.825 192.27 189.825 195.205C189.825 198.141 192.205 200.52 195.14 200.52Z" fill="white"/>
<path d="M340.921 176.702C341.301 174.365 339.715 172.163 337.378 171.783C335.042 171.403 332.839 172.989 332.459 175.326C332.079 177.663 333.666 179.865 336.002 180.245C338.339 180.625 340.541 179.038 340.921 176.702Z" fill="white"/>
<path d="M166.999 178.604C166.999 176.713 168.531 175.182 170.421 175.182C172.311 175.182 173.843 176.713 173.843 178.604C173.843 180.494 172.31 182.025 170.421 182.025C168.531 182.026 166.999 180.494 166.999 178.604Z" fill="white"/>
<path d="M126.791 201.265C130.136 201.265 132.849 198.552 132.849 195.207C132.849 191.861 130.136 189.148 126.791 189.148C123.445 189.148 120.732 191.861 120.732 195.207C120.732 198.552 123.445 201.265 126.791 201.265Z" fill="white"/>
<path d="M167.655 194.122C168.705 189.896 166.131 185.619 161.905 184.569C157.679 183.518 153.401 186.093 152.351 190.319C151.301 194.545 153.875 198.822 158.101 199.872C162.327 200.923 166.604 198.348 167.655 194.122Z" fill="white"/>
</g>
<path opacity="0.4" d="M201.065 163.547H120.869C116.04 163.547 112.089 159.596 112.089 154.767V81.8054C112.089 76.9764 116.04 73.0254 120.869 73.0254H201.065C205.894 73.0254 209.845 76.9764 209.845 81.8054V154.767C209.845 159.596 205.894 163.547 201.065 163.547Z" fill="white"/>
<path opacity="0.4" d="M267.559 157.319H227.129C222.3 157.319 218.349 153.368 218.349 148.539V81.8054C218.349 76.9764 222.3 73.0254 227.129 73.0254H267.559C272.388 73.0254 276.339 76.9764 276.339 81.8054V148.539C276.339 153.368 272.388 157.319 267.559 157.319Z" fill="white"/>
<path opacity="0.4" d="M322.999 157.319H293.035C288.997 157.319 285.692 154.015 285.692 149.976V80.3684C285.692 76.3296 288.997 73.0254 293.035 73.0254H321.561C326.39 73.0254 330.341 76.9764 330.341 81.8054V149.976C330.341 154.015 327.037 157.319 322.999 157.319Z" fill="white"/>
<path d="M223.169 100.297H271.519" stroke="#B8C9EA" stroke-width="0.585333" stroke-miterlimit="10" stroke-linecap="round" stroke-linejoin="round"/>
<path d="M228.621 80.4707V100.297" stroke="#B8C9EA" stroke-width="0.585333" stroke-miterlimit="10" stroke-linecap="round" stroke-linejoin="round"/>
<path d="M237.235 87.7812V100.297" stroke="#B8C9EA" stroke-width="0.585333" stroke-miterlimit="10" stroke-linecap="round" stroke-linejoin="round"/>
<path d="M245.475 83.2012V100.296" stroke="#B8C9EA" stroke-width="0.585333" stroke-miterlimit="10" stroke-linecap="round" stroke-linejoin="round"/>
<path d="M265.301 82.082V100.298" stroke="#B8C9EA" stroke-width="0.585333" stroke-miterlimit="10" stroke-linecap="round" stroke-linejoin="round"/>
<path d="M256.627 84.0645V100.298" stroke="#B8C9EA" stroke-width="0.585333" stroke-miterlimit="10" stroke-linecap="round" stroke-linejoin="round"/>
<path d="M223.169 115.254H271.519" stroke="#B8C9EA" stroke-width="0.585333" stroke-miterlimit="10" stroke-linecap="round" stroke-linejoin="round"/>
<path d="M223.169 126.961H271.519" stroke="#B8C9EA" stroke-width="0.585333" stroke-miterlimit="10" stroke-linecap="round" stroke-linejoin="round"/>
<path d="M223.169 144.521H271.519" stroke="#B8C9EA" stroke-width="0.585333" stroke-miterlimit="10" stroke-linecap="round" stroke-linejoin="round"/>
<path d="M228.621 117.137C229.661 117.137 230.504 116.294 230.504 115.254C230.504 114.214 229.661 113.371 228.621 113.371C227.581 113.371 226.738 114.214 226.738 115.254C226.738 116.294 227.581 117.137 228.621 117.137Z" fill="#B8C9EA"/>
<path d="M240.903 128.844C241.943 128.844 242.786 128.001 242.786 126.961C242.786 125.921 241.943 125.078 240.903 125.078C239.863 125.078 239.02 125.921 239.02 126.961C239.02 128.001 239.863 128.844 240.903 128.844Z" fill="#B8C9EA"/>
<path d="M228.621 146.315C229.661 146.315 230.504 145.472 230.504 144.432C230.504 143.392 229.661 142.549 228.621 142.549C227.581 142.549 226.738 143.392 226.738 144.432C226.738 145.472 227.581 146.315 228.621 146.315Z" fill="#B8C9EA"/>
<path d="M299.389 79.3789L290.253 106.767H308.526L299.389 79.3789Z" stroke="#B8C9EA" stroke-width="0.585333" stroke-miterlimit="10" stroke-linecap="round" stroke-linejoin="round"/>
<path d="M317.174 87.4121L308.566 106.767H325.782L317.174 87.4121Z" stroke="#B8C9EA" stroke-width="0.585333" stroke-miterlimit="10" stroke-linecap="round" stroke-linejoin="round"/>
<path d="M299.389 79.3789L294.111 95.2005H304.667L299.389 79.3789Z" fill="#B8C9EA"/>
<path d="M291.185 146.315L300.767 132.533L310.223 138.71L323.462 116.016" stroke="#B8C9EA" stroke-width="0.585333" stroke-miterlimit="10" stroke-linecap="round" stroke-linejoin="round"/>
<path d="M323.462 121.148V116.016L318.725 118.423" stroke="#B8C9EA" stroke-width="0.585333" stroke-miterlimit="10" stroke-linecap="round" stroke-linejoin="round"/>
<path d="M327.433 116.016V148.444H290.253" stroke="#B8C9EA" stroke-width="0.585333" stroke-miterlimit="10" stroke-linecap="round" stroke-linejoin="round"/>
<path d="M21.3125 110.115C30.9769 100.8 40.6952 91.4226 48.6037 80.5763C56.5121 69.7295 62.5937 57.2262 64.0494 43.8824C64.6096 38.7478 64.4574 33.4248 62.6089 28.6017C60.7605 23.7785 57.0266 19.5026 52.1174 17.8977C47.5834 16.415 42.5314 17.3346 38.2427 19.4225C30.3026 23.288 24.4926 31.2409 23.2254 39.9805C21.9575 48.7201 25.2682 57.9965 31.7829 63.9587C37.223 68.9376 44.4958 71.513 51.7838 72.6433C65.2792 74.7359 79.4566 72.1423 91.3371 65.4074C103.218 58.6726 112.725 47.8404 117.861 35.1861" stroke="#92A9D1" stroke-width="0.585333" stroke-miterlimit="10" stroke-linecap="round" stroke-linejoin="round" stroke-dasharray="7.02 5.85"/>
<path d="M108.929 38.9885L124.274 25.002L119.159 45.4436L116.601 38.8556L108.929 38.9885Z" fill="#B8C9EA"/>
<path d="M408.284 114.735C414.896 102.585 414.003 87.1824 407.752 74.843C401.5 62.5036 390.429 53.0657 378.073 46.8477C363.098 39.3115 344.302 36.4393 329.943 45.0905C326.579 47.1175 323.49 49.8118 321.744 53.3296C319.998 56.8481 319.79 61.2826 321.891 64.6008C325.607 70.4682 334.829 70.2838 340.342 66.0618C346.883 61.0525 349.491 51.8968 347.75 43.8437C346.01 35.7907 340.429 28.9078 333.557 24.3621C326.685 19.8164 318.6 17.4101 310.476 16.0357C290.227 12.6098 268.973 15.3819 250.28 23.8862C231.587 32.3905 212.216 47.8164 203.522 66.7572" stroke="#92A9D1" stroke-width="0.585333" stroke-miterlimit="10" stroke-linecap="round" stroke-linejoin="round" stroke-dasharray="7.02 5.85"/>
<path d="M197.328 63.6738L201.008 70.9683L209.897 68.5385L194.906 85.1093L197.328 63.6738Z" fill="#B8C9EA"/>
<path d="M184.713 99.9014C184.438 110.988 183.168 122.015 181.283 132.645C179.451 143.029 177.039 153.038 174.417 162.362L179.433 172.588H142.499L147.515 162.362C145.32 154.566 143.277 146.295 141.597 137.72C141.269 136.04 140.948 134.348 140.649 132.645C135.82 105.345 134.977 75.4579 144.793 48.5559C148.522 38.3302 153.79 28.5375 160.966 19.4824C168.142 28.5375 173.41 38.3302 177.139 48.5559C183.133 64.9804 185.152 82.517 184.713 99.9014Z" fill="white"/>
<path d="M144.492 150.872C137.017 157.943 131.533 167.103 128.887 177.048C126.868 167.513 125.925 157.474 127.81 147.91C129.484 139.405 133.347 131.187 139.417 125.053C140.711 133.932 142.478 142.601 144.492 150.872Z" fill="#46CA8B"/>
<path d="M177.438 150.872C184.912 157.943 190.397 167.103 193.042 177.048C195.062 167.513 196.004 157.474 194.12 147.91C192.445 139.405 188.582 131.187 182.512 125.053C181.219 133.932 179.451 142.601 177.438 150.872Z" fill="#46CA8B"/>
<path d="M177.138 48.5559H144.793C148.522 38.3302 153.79 28.5375 160.966 19.4824C168.142 28.5375 173.41 38.3302 177.138 48.5559Z" fill="#46CA8B"/>
<path d="M174.417 162.362L179.434 172.588H142.499L147.515 162.362C144.893 153.038 142.482 143.028 140.649 132.645H181.283C179.451 143.028 177.04 153.038 174.417 162.362Z" fill="#C8C3CA"/>
<path d="M171.919 71.3279C172.926 65.2814 168.841 59.5633 162.795 58.5562C156.748 57.5491 151.03 61.6343 150.023 67.6808C149.016 73.7273 153.101 79.4454 159.147 80.4525C165.194 81.4596 170.912 77.3744 171.919 71.3279Z" fill="#46CA8B"/>
<path d="M168.347 69.4982C168.347 73.578 165.046 76.8793 160.966 76.8793C160.398 76.8793 159.848 76.8149 159.321 76.692C158.683 76.5515 158.074 76.3232 157.513 76.0247C156.652 75.5681 155.891 74.9477 155.282 74.2043C154.896 73.7419 154.568 73.2385 154.311 72.6942C154.1 72.2552 153.93 71.7927 153.813 71.3069C153.749 71.0845 153.708 70.8562 153.673 70.6221V70.6162C153.614 70.2533 153.585 69.8787 153.585 69.4982C153.585 65.4185 156.886 62.1172 160.966 62.1172C161.346 62.1172 161.721 62.1465 162.09 62.205C162.324 62.2401 162.552 62.2811 162.775 62.3455C163.266 62.4625 163.74 62.6381 164.185 62.8547C164.73 63.1181 165.233 63.44 165.69 63.8322C166.415 64.4293 167.03 65.1785 167.475 66.0214C167.779 66.5833 168.008 67.192 168.154 67.83C168.283 68.3627 168.347 68.9246 168.347 69.4982Z" fill="#C8C3CA"/>
<path d="M174.992 105.376C176.279 97.6335 171.046 90.3133 163.303 89.0261C155.56 87.7389 148.24 92.9722 146.953 100.715C145.666 108.458 150.899 115.778 158.642 117.065C166.384 118.352 173.704 113.119 174.992 105.376Z" fill="#46CA8B"/>
<path d="M170.419 103.051C170.419 108.272 166.187 112.504 160.966 112.504C160.755 112.504 160.544 112.498 160.334 112.481C159.608 112.434 158.905 112.305 158.238 112.1C157.425 111.86 156.664 111.509 155.961 111.07C155.124 110.549 154.375 109.899 153.743 109.144C153.21 108.518 152.765 107.827 152.408 107.078C152.133 106.493 151.917 105.872 151.77 105.228C151.63 104.66 151.548 104.075 151.524 103.478C151.519 103.338 151.513 103.197 151.513 103.051C151.513 102.916 151.513 102.782 151.524 102.653C151.723 97.7535 155.651 93.8201 160.55 93.6094C160.685 93.6035 160.825 93.5977 160.966 93.5977C161.106 93.5977 161.247 93.6035 161.381 93.6094C161.984 93.6328 162.575 93.7147 163.143 93.8552C163.787 94.0015 164.402 94.2181 164.987 94.4932C165.748 94.8503 166.445 95.301 167.077 95.8453C167.826 96.4716 168.476 97.2267 168.997 98.0638C169.424 98.7544 169.769 99.4978 170.009 100.294C170.214 100.961 170.349 101.669 170.396 102.395C170.413 102.612 170.419 102.828 170.419 103.051Z" fill="#C8C3CA"/>
<g opacity="0.5">
<path d="M167.475 66.0214L157.513 76.0248C158.075 76.3233 158.683 76.5516 159.321 76.6921C162.266 73.7361 165.21 70.7861 168.154 67.8301C168.008 67.1921 167.779 66.5834 167.475 66.0214ZM164.185 62.8548C160.89 66.1327 157.6 69.4164 154.311 72.6943C154.568 73.2386 154.896 73.742 155.283 74.2044L165.69 63.8323C165.233 63.4401 164.73 63.1182 164.185 62.8548ZM162.775 62.3456C162.552 62.2812 162.324 62.2402 162.09 62.2051C159.286 65.0088 156.477 67.8126 153.673 70.6163V70.6222C153.708 70.8563 153.749 71.0846 153.813 71.307L161.265 63.8557C161.768 63.3523 162.271 62.8489 162.775 62.3456Z" fill="#FFF9F2"/>
<path d="M170.009 100.292C166.087 104.225 162.16 108.165 158.238 112.098C158.905 112.303 159.608 112.432 160.334 112.479C163.693 109.119 167.042 105.753 170.396 102.393C170.349 101.667 170.214 100.959 170.009 100.292ZM167.077 95.8434C162.634 100.274 158.185 104.711 153.743 109.142C154.375 109.897 155.124 110.547 155.961 111.068L168.997 98.0618C168.476 97.2248 167.826 96.4697 167.077 95.8434ZM163.143 93.8533L151.77 105.226C151.917 105.87 152.133 106.491 152.408 107.076C156.599 102.879 160.796 98.6822 164.987 94.4913C164.402 94.2162 163.787 93.9996 163.143 93.8533ZM161.381 93.6074C161.247 93.6016 161.106 93.5957 160.966 93.5957C160.825 93.5957 160.685 93.6016 160.55 93.6074L151.524 102.651C151.513 102.78 151.513 102.914 151.513 103.049C151.513 103.195 151.519 103.336 151.524 103.476C154.106 100.889 156.693 98.3018 159.274 95.7146C159.977 95.0122 160.679 94.3098 161.381 93.6074Z" fill="#FFF9F2"/>
</g>
<path d="M174.418 162.361H147.516" stroke="#ADA7B0" stroke-width="0.585333" stroke-miterlimit="10"/>
<path d="M181.283 132.645H140.649" stroke="#ADA7B0" stroke-width="0.585333" stroke-miterlimit="10"/>
<path d="M178.509 146.332H143.424" stroke="#ADA7B0" stroke-width="0.585333" stroke-miterlimit="10"/>
<path d="M160.966 143.484C163.173 143.484 164.962 141.695 164.962 139.488C164.962 137.281 163.173 135.492 160.966 135.492C158.759 135.492 156.97 137.281 156.97 139.488C156.97 141.695 158.759 143.484 160.966 143.484Z" stroke="#ADA7B0" stroke-width="0.585333" stroke-miterlimit="10"/>
<path d="M148.089 143.484C150.296 143.484 152.085 141.695 152.085 139.488C152.085 137.281 150.296 135.492 148.089 135.492C145.882 135.492 144.093 137.281 144.093 139.488C144.093 141.695 145.882 143.484 148.089 143.484Z" stroke="#ADA7B0" stroke-width="0.585333" stroke-miterlimit="10"/>
<path d="M173.844 143.484C176.051 143.484 177.84 141.695 177.84 139.488C177.84 137.281 176.051 135.492 173.844 135.492C171.637 135.492 169.848 137.281 169.848 139.488C169.848 141.695 171.637 143.484 173.844 143.484Z" stroke="#ADA7B0" stroke-width="0.585333" stroke-miterlimit="10"/>
<path d="M150.293 49.4238C141.487 75.5584 139.654 104.007 145.033 131.056" stroke="#E1DEE2" stroke-width="0.585333" stroke-miterlimit="10"/>
<path d="M174.195 49.7715C180.036 76.3052 180.737 103.961 176.247 130.757" stroke="#E1DEE2" stroke-width="0.585333" stroke-miterlimit="10"/>
<path opacity="0.15" d="M184.713 99.9004C184.438 110.987 183.168 122.014 181.283 132.644C179.451 143.028 177.04 153.037 174.417 162.361H147.515C145.32 154.565 143.278 146.294 141.598 137.719C151.946 134.306 161.727 129.144 169.74 121.809C176.32 115.798 181.617 108.224 184.713 99.9004Z" fill="#522840"/>
<path d="M160.966 46.2815C162.264 46.2815 163.317 45.229 163.317 43.9308C163.317 42.6325 162.264 41.5801 160.966 41.5801C159.668 41.5801 158.615 42.6325 158.615 43.9308C158.615 45.229 159.668 46.2815 160.966 46.2815Z" stroke="#32BA71" stroke-width="0.439" stroke-miterlimit="10" stroke-linecap="round" stroke-linejoin="round"/>
<path d="M136.731 140.053C138.029 140.053 139.081 139.001 139.081 137.702C139.081 136.404 138.029 135.352 136.731 135.352C135.432 135.352 134.38 136.404 134.38 137.702C134.38 139.001 135.432 140.053 136.731 140.053Z" stroke="#32BA71" stroke-width="0.439" stroke-miterlimit="10" stroke-linecap="round" stroke-linejoin="round"/>
<path d="M185.301 140.053C186.599 140.053 187.652 139.001 187.652 137.702C187.652 136.404 186.599 135.352 185.301 135.352C184.003 135.352 182.95 136.404 182.95 137.702C182.95 139.001 184.003 140.053 185.301 140.053Z" stroke="#32BA71" stroke-width="0.439" stroke-miterlimit="10" stroke-linecap="round" stroke-linejoin="round"/>
<path d="M191.142 159.026C192.44 159.026 193.492 157.973 193.492 156.675C193.492 155.377 192.44 154.324 191.142 154.324C189.843 154.324 188.791 155.377 188.791 156.675C188.791 157.973 189.843 159.026 191.142 159.026Z" stroke="#32BA71" stroke-width="0.439" stroke-miterlimit="10" stroke-linecap="round" stroke-linejoin="round"/>
<path d="M135.642 145.835C135.642 147.133 134.589 148.186 133.291 148.186C131.993 148.186 130.94 147.133 130.94 145.835C130.94 144.537 131.993 143.484 133.291 143.484C134.589 143.484 135.642 144.537 135.642 145.835Z" stroke="#32BA71" stroke-width="0.439" stroke-miterlimit="10" stroke-linecap="round" stroke-linejoin="round"/>
<path d="M191.684 146.694C191.684 147.993 190.631 149.045 189.333 149.045C188.035 149.045 186.982 147.993 186.982 146.694C186.982 145.396 188.035 144.344 189.333 144.344C190.631 144.344 191.684 145.396 191.684 146.694Z" stroke="#32BA71" stroke-width="0.439" stroke-miterlimit="10" stroke-linecap="round" stroke-linejoin="round"/>
<path d="M133.769 154.966C133.769 156.264 132.716 157.317 131.418 157.317C130.12 157.317 129.067 156.264 129.067 154.966C129.067 153.668 130.12 152.615 131.418 152.615C132.716 152.615 133.769 153.668 133.769 154.966Z" stroke="#32BA71" stroke-width="0.439" stroke-miterlimit="10" stroke-linecap="round" stroke-linejoin="round"/>
<path d="M152.772 46.2815C154.07 46.2815 155.122 45.229 155.122 43.9308C155.122 42.6325 154.07 41.5801 152.772 41.5801C151.473 41.5801 150.421 42.6325 150.421 43.9308C150.421 45.229 151.473 46.2815 152.772 46.2815Z" stroke="#32BA71" stroke-width="0.439" stroke-miterlimit="10" stroke-linecap="round" stroke-linejoin="round"/>
<path d="M169.16 46.2815C170.459 46.2815 171.511 45.229 171.511 43.9308C171.511 42.6325 170.459 41.5801 169.16 41.5801C167.862 41.5801 166.81 42.6325 166.81 43.9308C166.81 45.229 167.862 46.2815 169.16 46.2815Z" stroke="#32BA71" stroke-width="0.439" stroke-miterlimit="10" stroke-linecap="round" stroke-linejoin="round"/>
<path d="M382.833 264.424L383.307 259.572H376.727L377.43 264.895L378.328 267.922L381.009 268.465L382.445 267.22L382.833 264.424Z" fill="#B1705B"/>
<path d="M383.503 271.066H368.758C368.218 271.066 367.779 270.628 367.779 270.088V269.35C367.779 268.968 368.001 268.622 368.346 268.462L376.37 264.74C376.722 264.577 377.138 264.637 377.429 264.894L379.287 266.535C379.666 266.869 380.236 266.86 380.605 266.515L382.833 264.423C383.015 264.253 383.254 264.158 383.503 264.158C384.043 264.158 384.482 264.597 384.482 265.137V270.087C384.481 270.628 384.043 271.066 383.503 271.066Z" fill="#444145"/>
<path d="M397.579 249.833L394.22 246.301L389.915 251.278L394.401 254.228L397.279 255.529L399.442 253.856L399.441 251.955L397.579 249.833Z" fill="#B1705B"/>
<path d="M403.042 253.67L393.397 264.823C393.044 265.232 392.426 265.277 392.017 264.924L391.459 264.441C391.171 264.191 391.053 263.797 391.158 263.431L393.591 254.928C393.698 254.555 394.015 254.28 394.401 254.228L396.857 253.896C397.357 253.828 397.724 253.391 397.703 252.886L397.579 249.832C397.569 249.584 397.654 249.341 397.817 249.153C398.17 248.744 398.788 248.699 399.197 249.053L402.941 252.29C403.351 252.644 403.395 253.262 403.042 253.67Z" fill="#444145"/>
<path d="M368.82 107.902C367.826 106.153 367.288 104.174 367.305 102.192C367.322 100.211 367.898 98.2318 368.989 96.5332C369.224 96.1656 369.492 95.8026 369.871 95.5597C370.248 95.3168 370.758 95.2144 371.172 95.3976C371.586 95.5808 371.826 96.1012 371.592 96.4705C371.829 95.9484 372.265 95.4766 372.794 95.198C373.146 95.0125 373.584 94.9018 373.95 95.0604C374.284 95.2056 374.481 95.5498 374.523 95.8922C374.565 96.2346 374.477 96.5788 374.374 96.9101C374.684 96.4483 375.188 95.9677 375.695 95.6979C375.973 95.5498 376.286 95.4351 376.604 95.4591C377.099 95.4971 377.517 95.8881 377.629 96.3406C377.74 96.793 377.577 97.28 377.267 97.6435C377.658 97.3029 378.171 96.94 378.697 96.8469C379.222 96.7538 379.837 96.9458 380.064 97.3983C380.19 97.6482 380.183 97.9426 380.103 98.2084C380.024 98.4741 379.876 98.7176 379.725 98.9553C379.938 98.7966 380.195 98.6761 380.453 98.5953C380.712 98.5145 381.001 98.4999 381.254 98.5953C381.705 98.7656 381.946 99.2544 381.938 99.7103C381.93 100.166 381.722 100.596 381.504 101.003C381.717 100.575 382.315 100.461 382.789 100.625C383.263 100.789 383.591 101.218 383.721 101.674C383.851 102.131 383.809 102.615 383.727 103.081C383.312 105.44 381.909 107.565 380.179 109.326C376.378 109.387 372.448 108.967 368.82 107.902Z" fill="#444145"/>
<path d="M379.973 111.879C379.218 113.483 378.217 114.993 376.9 116.181C375.589 117.37 373.944 118.23 372.183 118.452C371.351 118.558 370.427 118.493 369.783 117.955C369.151 117.422 368.928 116.55 368.788 115.737C368.577 114.519 368.454 113.29 368.413 112.055C368.39 111.493 368.384 110.925 368.396 110.357C368.419 108.648 368.565 106.933 368.77 105.224C371.984 103.86 375.706 103.889 378.908 105.329C378.861 106.529 379.095 107.741 379.587 108.835C379.845 108.794 380.085 108.759 380.319 108.695C380.448 109.807 380.436 110.902 379.973 111.879Z" fill="#B1705B"/>
<path d="M380.389 113.069C381.803 113.069 382.95 111.922 382.95 110.508C382.95 109.094 381.803 107.947 380.389 107.947C378.975 107.947 377.828 109.094 377.828 110.508C377.828 111.922 378.975 113.069 380.389 113.069Z" fill="#B1705B"/>
<path d="M381.26 122.4C380.476 124.402 378.456 125.883 376.314 126C374.166 126.117 372.135 124.648 371.14 122.746C371.321 122.213 371.473 121.68 371.596 121.148C371.795 120.27 371.924 119.38 371.988 118.467C372.053 118.467 372.117 118.461 372.182 118.449C373.943 118.227 375.588 117.366 376.899 116.178C377.613 115.534 378.234 114.791 378.767 113.995C379.042 113.597 379.287 113.187 379.516 112.766C379.732 116.026 380.318 119.269 381.26 122.4Z" fill="#B1705B"/>
<path d="M371.806 108.215C371.776 108.97 371.746 109.726 371.716 110.481C371.452 110.348 371.099 110.433 370.924 110.67C370.749 110.908 370.772 111.27 370.977 111.483C371.181 111.695 371.542 111.734 371.787 111.568" stroke="#252126" stroke-width="0.439" stroke-miterlimit="10" stroke-linecap="round" stroke-linejoin="round"/>
<path d="M375.125 107.512C375.054 106.991 374.588 106.551 374.063 106.511C373.539 106.47 373.011 106.833 372.86 107.336" stroke="#252126" stroke-width="0.439" stroke-miterlimit="10" stroke-linecap="round" stroke-linejoin="round"/>
<path d="M371.194 107.485C371.01 107.054 370.568 106.746 370.1 106.72C369.632 106.696 369.16 106.956 368.932 107.365" stroke="#252126" stroke-width="0.439" stroke-miterlimit="10" stroke-linecap="round" stroke-linejoin="round"/>
<path d="M374.059 112.775C373.715 112.655 373.311 112.796 373.008 112.967C372.699 113.141 372.437 113.392 372.206 113.658C371.674 113.532 370.991 113.624 370.901 114.246C370.852 114.591 371.076 114.918 371.383 115.06C371.672 115.194 372.013 115.21 372.326 115.177C372.95 115.112 373.54 114.853 374 114.422C374.243 114.195 374.477 113.907 374.519 113.567C374.562 113.227 374.391 112.891 374.059 112.775Z" fill="white"/>
<path d="M373.873 111.203C373.873 111.679 374.534 112.065 375.35 112.065C376.166 112.065 376.827 111.679 376.827 111.203C376.827 110.728 376.166 110.342 375.35 110.342C374.534 110.342 373.873 110.728 373.873 111.203Z" fill="#9E5942"/>
<path d="M370.063 111.202C370.063 111.676 369.401 112.063 368.588 112.063C368.529 112.063 368.471 112.063 368.412 112.051C368.389 111.489 368.383 110.921 368.395 110.354C368.459 110.342 368.523 110.342 368.588 110.342C369.401 110.342 370.063 110.728 370.063 111.202Z" fill="#9E5942"/>
<path d="M378.767 113.996C378.685 115.928 377.743 117.795 376.291 119.088C374.992 120.247 373.323 120.944 371.597 121.149C371.796 120.271 371.924 119.381 371.989 118.468C372.053 118.468 372.118 118.462 372.182 118.45C373.944 118.228 375.589 117.368 376.9 116.179C377.614 115.536 378.234 114.792 378.767 113.996Z" fill="#9E5942"/>
<path d="M381.499 109.344C380.541 109.756 379.81 110.658 379.604 111.681C379.99 111.206 380.594 110.915 381.205 110.912" stroke="#9E5942" stroke-width="0.439" stroke-miterlimit="10" stroke-linecap="round" stroke-linejoin="round"/>
<path d="M373.68 108.494C373.409 108.707 373.221 109.024 373.167 109.364C373.624 109 374.228 108.828 374.808 108.896" stroke="#252126" stroke-width="0.439" stroke-miterlimit="10" stroke-linecap="round" stroke-linejoin="round"/>
<path d="M370.108 108.416C370.356 108.586 370.548 108.836 370.647 109.118C370.181 109.032 369.7 109.03 369.232 109.111" stroke="#252126" stroke-width="0.439" stroke-miterlimit="10" stroke-linecap="round" stroke-linejoin="round"/>
<path d="M379.736 128.441C379.445 133.754 379.771 139.192 380.966 144.377C385.61 144.366 390.407 143.437 394.74 141.768C394.385 139.07 394.32 136.337 393.876 133.652C393.432 130.967 392.571 128.274 390.835 126.179C388.582 123.461 384.792 122.4 381.261 122.4L379.736 128.441Z" fill="#5ACC8E"/>
<path d="M363.397 145.797C360.139 144.793 357.184 143.293 354.48 141.216C356.06 137.131 357.673 132.986 360.325 129.501C362.977 126.016 366.772 123.077 371.14 122.746C369.498 130.581 366.952 138.623 363.397 145.797Z" fill="#5ACC8E"/>
<path d="M394.519 171.529C394.174 171.635 393.829 171.734 393.483 171.828C392.535 172.097 391.575 172.337 390.609 172.548C387.618 173.203 384.569 173.596 381.507 173.754C381.051 173.777 380.588 173.795 380.132 173.8C380.085 173.8 380.044 173.8 379.997 173.806C379.535 173.818 379.066 173.824 378.604 173.824C377.474 173.824 376.345 173.789 375.221 173.724C374.94 173.713 374.665 173.695 374.384 173.672C373.822 173.631 373.26 173.584 372.704 173.525C372.429 173.502 372.154 173.473 371.884 173.438C371.65 173.414 371.416 173.385 371.188 173.356C370.942 173.326 370.69 173.291 370.444 173.256C369.526 173.133 368.612 172.981 367.705 172.811C367.43 172.764 367.155 172.712 366.88 172.653C366.605 172.601 366.33 172.542 366.054 172.483C365.779 172.425 365.51 172.366 365.235 172.302H365.229C364.784 172.202 364.345 172.097 363.906 171.986C363.309 168.357 362.859 164.728 362.537 161.099C361.7 151.447 361.823 141.783 362.882 132.072C365.387 128.706 368.045 125.581 371.141 122.748C372.136 124.65 374.167 126.119 376.315 126.002C378.458 125.885 380.477 124.404 381.261 122.402C384.885 126.195 388.256 130.48 389.755 135.514C391.089 139.992 392.073 144.645 392.793 149.369C393.916 156.726 394.396 164.26 394.519 171.529Z" fill="#5ACC8E"/>
<path d="M393.05 156.71C391.593 167.527 390.141 178.42 386.096 188.558L381.747 183.448C381.261 176.313 381.138 164.963 384.112 156.078C383.24 152.22 382.965 148.252 383.146 144.307C386.494 144.096 389.866 143.434 393.044 142.369C393.694 147.122 393.694 151.957 393.05 156.71Z" fill="#B1705B"/>
<path d="M362.022 151.553C360.178 153.683 358.042 155.556 355.695 157.108C354.612 157.822 353.383 158.495 352.095 158.343C350.825 158.202 349.789 157.289 348.887 156.37C344.333 151.722 340.808 144.62 337.841 138.831C338.701 137.824 339.752 137.876 340.969 137.355C344.967 140.358 349.32 143.961 352.92 147.432C353.705 145.594 354.758 143.867 356.034 142.322C357.907 143.575 359.897 144.57 362.028 145.336C361.975 147.409 361.975 149.481 362.022 151.553Z" fill="#B1705B"/>
<path d="M336.908 130.723L334.466 132.087C333.839 132.437 333.047 132.213 332.697 131.586L328.846 124.691C328.496 124.064 328.72 123.272 329.347 122.922L331.788 121.558C332.415 121.208 333.208 121.432 333.558 122.059L337.409 128.954C337.759 129.58 337.535 130.373 336.908 130.723Z" fill="#A29AA5"/>
<path d="M338.803 127.791L337.246 128.661L333.722 122.351L335.279 121.481C337.021 120.508 339.223 121.131 340.196 122.874C341.169 124.617 340.545 126.818 338.803 127.791Z" fill="#A29AA5"/>
<path d="M321.486 143.754L332.697 131.584L328.846 124.689L312.604 127.853C311.525 128.063 310.967 129.266 311.503 130.225L318.889 143.448C319.425 144.407 320.742 144.563 321.486 143.754Z" fill="#A29AA5"/>
<path d="M341.549 141.899C340.874 142.275 340.023 142.034 339.646 141.36L332.697 131.585L337.41 128.953L342.088 139.996C342.464 140.671 342.223 141.523 341.549 141.899Z" fill="#A29AA5"/>
<path d="M332.698 131.584L328.847 124.689" stroke="#8A7F8F" stroke-width="0.439" stroke-miterlimit="10" stroke-linecap="round" stroke-linejoin="round"/>
<path d="M333.722 122.35L337.247 128.66" stroke="#8A7F8F" stroke-width="0.439" stroke-miterlimit="10" stroke-linecap="round" stroke-linejoin="round"/>
<path d="M337.517 139.007C337.258 139.141 336.943 139.125 336.705 138.957C336.087 138.521 335.517 138.015 335.01 137.454C334.495 136.882 334.022 136.173 334.1 135.407C334.21 134.336 335.365 133.625 336.25 133.011C336.557 132.798 336.917 132.601 337.287 132.659C337.667 132.718 337.953 133.031 338.177 133.345C338.761 134.163 339.145 135.125 339.286 136.12C339.354 136.594 339.364 137.092 339.181 137.535C339.016 137.938 338.702 138.265 338.345 138.514C338.11 138.68 337.809 138.856 337.517 139.007Z" fill="#B1705B"/>
<path d="M338.714 132.171C338.708 131.849 338.824 131.503 339.095 131.33C339.364 131.156 339.735 131.198 340.004 131.373C340.272 131.549 340.45 131.836 340.563 132.137C340.673 132.43 340.727 132.757 340.632 133.055C340.55 133.315 340.347 133.511 340.09 133.598C339.844 133.681 339.625 133.571 339.418 133.431C339.006 133.152 338.723 132.672 338.714 132.171Z" fill="#B1705B"/>
<path d="M379.899 129.35C379.223 134.311 379.574 139.41 380.923 144.233C381.956 144.315 383.075 144.295 384.093 144.096" stroke="#4572BA" stroke-width="0.439" stroke-miterlimit="10" stroke-linecap="round" stroke-linejoin="round"/>
<path d="M362.966 132.168C362.354 136.592 362.062 141.061 362.093 145.527" stroke="#4572BA" stroke-width="0.439" stroke-miterlimit="10" stroke-linecap="round" stroke-linejoin="round"/>
<path d="M382.841 122.988C382.092 124.368 381.106 125.643 379.832 126.56C378.558 127.477 376.976 128.016 375.413 127.873C373.04 127.657 370.984 125.857 370.087 123.65" stroke="#4572BA" stroke-width="0.439" stroke-miterlimit="10" stroke-linecap="round" stroke-linejoin="round"/>
<path d="M366.499 139.262C367.571 148.989 372.476 158.242 379.924 164.59" stroke="#4572BA" stroke-width="0.439" stroke-miterlimit="10" stroke-linecap="round" stroke-linejoin="round"/>
<path d="M365.23 159.5C367.773 162.074 371.22 163.734 374.817 164.118" stroke="#4572BA" stroke-width="0.439" stroke-miterlimit="10" stroke-linecap="round" stroke-linejoin="round"/>
<path d="M395.644 246.23C394.11 248.729 392.009 251.275 389.82 253.23C388.21 252.095 386.759 250.754 385.728 249.075C385.635 253.271 385.477 256.344 385.383 260.512C385.377 260.571 385.377 260.635 385.377 260.699C385.254 260.717 385.131 260.729 385.008 260.74C381.684 261.144 378.271 261.127 374.947 260.752C373.659 253.792 372.787 247.904 372.02 241.19C371.622 237.608 371.247 233.792 370.861 229.454C368.192 225.275 365.476 220.99 364.399 216.155C363.696 212.977 363.726 209.687 363.784 206.433C363.849 202.728 363.942 199.005 364.071 195.282C364.323 187.609 364.709 179.917 365.23 172.302H365.236C365.511 172.367 365.78 172.425 366.055 172.484C366.33 172.542 366.606 172.601 366.881 172.653C367.156 172.712 367.431 172.765 367.706 172.811C368.613 172.981 369.526 173.133 370.445 173.256C370.691 173.291 370.943 173.327 371.189 173.356C371.417 173.385 371.651 173.414 371.885 173.438C372.155 173.473 372.43 173.502 372.705 173.526C373.261 173.584 373.823 173.631 374.385 173.672C374.666 173.695 374.941 173.713 375.222 173.725C376.346 173.789 377.475 173.824 378.605 173.824C379.067 173.824 379.536 173.818 379.998 173.807C380.045 173.801 380.086 173.801 380.133 173.801C380.589 173.789 381.052 173.771 381.508 173.748V173.754C381.426 177.36 381.561 180.708 381.748 183.447L386.097 188.557C388.163 183.377 389.551 178.009 390.61 172.548V172.542C391.576 172.332 392.536 172.092 393.484 171.828C395.849 177.968 394.561 185.665 390.885 191.121C390.622 200.515 388.556 209.898 386.899 219.006C387.344 222.284 387.356 225.755 387.034 229.044C390.575 234.312 393.285 240.336 395.644 246.23Z" fill="#444145"/>
<path d="M373.632 173.459C370.981 191.751 368.585 209.625 370.862 229.451" stroke="#626063" stroke-width="0.439" stroke-miterlimit="10" stroke-linecap="round" stroke-linejoin="round"/>
<path d="M387.337 227.912C386.903 235.137 386.47 242.363 386.037 249.588" stroke="#626063" stroke-width="0.439" stroke-miterlimit="10" stroke-linecap="round" stroke-linejoin="round"/>
<path d="M379.618 179.709C381.593 183.403 384.164 186.778 387.201 189.663" stroke="#626063" stroke-width="0.439" stroke-miterlimit="10" stroke-linecap="round" stroke-linejoin="round"/>
<path d="M369.955 173.756C369.848 176.084 369.741 178.411 369.634 180.739C369.588 181.739 369.558 182.805 370.071 183.664C370.44 184.283 371.059 184.723 371.722 185.005C372.386 185.286 373.099 185.425 373.807 185.562" stroke="#626063" stroke-width="0.439" stroke-miterlimit="10" stroke-linecap="round" stroke-linejoin="round"/>
<path d="M384.089 190.488C383.606 201.064 382.599 211.616 381.073 222.092" stroke="#626063" stroke-width="0.439" stroke-miterlimit="10" stroke-linecap="round" stroke-linejoin="round"/>
<path d="M381.069 226.031C381.856 237.501 382.144 249.004 381.932 260.499" stroke="#626063" stroke-width="0.439" stroke-miterlimit="10" stroke-linecap="round" stroke-linejoin="round"/>
<path opacity="0.15" d="M395.644 246.231C394.11 248.73 392.009 251.276 389.819 253.231C388.21 252.096 386.758 250.755 385.728 249.075C385.634 253.272 385.476 256.345 385.383 260.513C385.377 260.571 385.377 260.636 385.377 260.7C385.254 260.718 385.131 260.729 385.008 260.741C381.683 261.145 378.271 261.127 374.946 260.753C373.658 253.793 372.786 247.905 372.02 241.191C378.792 235.285 382.608 225.949 381.461 216.999C380.22 207.341 373.102 198.865 364.071 195.283C364.322 187.609 364.709 179.918 365.23 172.303C364.785 172.204 364.346 172.098 363.907 171.987C363.31 168.358 362.859 164.729 362.537 161.1C370 161.334 377.51 159.426 384.054 155.802C384.072 155.896 384.089 155.984 384.112 156.078C381.139 164.963 381.262 176.313 381.748 183.448L386.097 188.558C390.141 178.42 391.593 167.527 393.051 156.71C393.191 155.691 393.296 154.667 393.372 153.643C394.087 159.619 394.42 165.659 394.52 171.53C394.174 171.636 393.829 171.735 393.484 171.829C395.848 177.969 394.561 185.666 390.885 191.121C390.621 200.516 388.555 209.899 386.899 219.007C387.344 222.285 387.355 225.756 387.033 229.045C390.575 234.313 393.285 240.336 395.644 246.231Z" fill="#522840"/>
<path d="M289.042 107.909C290.195 106.749 291.05 105.296 291.506 103.725C291.775 102.799 291.902 101.792 291.594 100.879C291.286 99.965 290.456 99.1789 289.492 99.1643C288.661 99.152 287.929 99.6794 287.294 100.214C287.204 102.871 287.917 105.501 289.042 107.909Z" fill="#663F3F"/>
<path d="M274.914 100.811C274.354 103.206 274.921 105.84 276.415 107.795C276.919 106.279 277.119 104.585 276.968 102.995C276.881 102.07 275.659 101.367 274.914 100.811Z" fill="#663F3F"/>
<path d="M287.803 110.395C287.048 111.999 286.047 113.509 284.73 114.697C283.419 115.885 281.775 116.746 280.013 116.968C279.182 117.073 278.257 117.009 277.613 116.47C276.981 115.938 276.758 115.066 276.618 114.252C276.407 113.035 276.284 111.805 276.243 110.57C276.22 110.008 276.214 109.441 276.226 108.873C276.255 106.631 276.495 104.377 276.805 102.147C278.637 101.246 280.902 100.725 282.875 101.252C284.848 101.773 287.482 102.703 287.774 104.723C288.043 106.602 288.611 108.68 287.803 110.395Z" fill="#B1705B"/>
<path d="M288.22 111.587C289.634 111.587 290.781 110.44 290.781 109.026C290.781 107.611 289.634 106.465 288.22 106.465C286.806 106.465 285.659 107.611 285.659 109.026C285.659 110.44 286.806 111.587 288.22 111.587Z" fill="#B1705B"/>
<path d="M289.091 120.92C288.307 122.922 286.287 124.402 284.145 124.52C281.997 124.637 279.966 123.167 278.971 121.265C279.152 120.732 279.304 120.2 279.427 119.667C279.626 118.789 279.755 117.899 279.819 116.986C279.884 116.986 279.948 116.98 280.013 116.969C281.774 116.746 283.419 115.886 284.73 114.698C285.444 114.054 286.065 113.31 286.598 112.514C286.873 112.116 287.119 111.707 287.347 111.285C287.563 114.545 288.149 117.788 289.091 120.92Z" fill="#B1705B"/>
<path d="M279.638 106.732C279.607 107.488 279.577 108.243 279.547 108.998C279.284 108.866 278.93 108.951 278.755 109.188C278.58 109.426 278.603 109.788 278.808 110C279.012 110.213 279.373 110.251 279.618 110.086" stroke="#252126" stroke-width="0.439" stroke-miterlimit="10" stroke-linecap="round" stroke-linejoin="round"/>
<path d="M281.407 107.154C281.394 107.356 281.388 107.441 281.375 107.642" stroke="#252126" stroke-width="0.878" stroke-miterlimit="10" stroke-linecap="round" stroke-linejoin="round"/>
<path d="M277.739 107.154C277.726 107.356 277.72 107.441 277.707 107.642" stroke="#252126" stroke-width="0.878" stroke-miterlimit="10" stroke-linecap="round" stroke-linejoin="round"/>
<path d="M282.956 106.029C282.885 105.508 282.419 105.069 281.894 105.028C281.37 104.988 280.842 105.35 280.691 105.854" stroke="#252126" stroke-width="0.439" stroke-miterlimit="10" stroke-linecap="round" stroke-linejoin="round"/>
<path d="M279.025 106C278.841 105.57 278.399 105.261 277.931 105.236C277.463 105.211 276.992 105.471 276.763 105.88" stroke="#252126" stroke-width="0.439" stroke-miterlimit="10" stroke-linecap="round" stroke-linejoin="round"/>
<path d="M281.889 111.293C281.545 111.173 281.141 111.314 280.838 111.484C280.529 111.659 280.267 111.91 280.036 112.175C279.504 112.05 278.821 112.142 278.732 112.763C278.682 113.109 278.906 113.436 279.213 113.578C279.502 113.712 279.843 113.727 280.156 113.694C280.78 113.629 281.37 113.371 281.83 112.94C282.073 112.712 282.307 112.425 282.349 112.084C282.392 111.745 282.222 111.409 281.889 111.293Z" fill="white"/>
<path d="M281.704 109.721C281.704 110.197 282.366 110.583 283.181 110.583C283.997 110.583 284.659 110.197 284.659 109.721C284.659 109.245 283.997 108.859 283.181 108.859C282.366 108.859 281.704 109.245 281.704 109.721Z" fill="#9E5942"/>
<path d="M277.894 109.722C277.894 110.196 277.232 110.582 276.419 110.582C276.36 110.582 276.302 110.582 276.243 110.571C276.22 110.009 276.214 109.441 276.226 108.873C276.29 108.861 276.354 108.861 276.419 108.861C277.232 108.861 277.894 109.248 277.894 109.722Z" fill="#9E5942"/>
<path d="M286.598 112.514C286.516 114.445 285.574 116.312 284.122 117.606C282.823 118.765 281.154 119.462 279.428 119.666C279.627 118.788 279.756 117.899 279.82 116.986C279.884 116.986 279.949 116.98 280.013 116.968C281.775 116.746 283.42 115.885 284.731 114.697C285.445 114.053 286.065 113.31 286.598 112.514Z" fill="#9E5942"/>
<path d="M289.33 107.861C288.372 108.274 287.641 109.176 287.436 110.199C287.821 109.723 288.425 109.433 289.036 109.43" stroke="#9E5942" stroke-width="0.439" stroke-miterlimit="10" stroke-linecap="round" stroke-linejoin="round"/>
<path d="M289.518 106.165C289.506 106.37 289.477 106.569 289.436 106.768C289.073 106.575 288.657 106.463 288.218 106.463C287.972 106.463 287.727 106.498 287.498 106.569C286.808 105.62 286.357 104.497 286.205 103.332C284.297 104.093 282.184 104.292 280.147 104.058C278.631 103.882 277.12 103.42 275.897 102.506C274.68 101.593 273.766 100.206 273.644 98.6842C273.573 97.8238 273.813 96.858 274.527 96.3722C275.23 95.8922 276.184 96.0151 276.974 96.3253C277.764 96.6414 278.49 97.1331 279.304 97.3672C280.732 97.7828 282.266 97.3848 283.635 96.7995C284.42 96.4658 285.204 96.0619 286.053 95.9624C286.907 95.8629 287.867 96.1497 288.289 96.8931C288.558 97.3731 288.564 97.9584 288.429 98.4852C288.289 99.012 288.013 99.4978 287.744 99.972C289.003 101.751 289.67 103.987 289.518 106.165Z" fill="#663F3F"/>
<path d="M302.347 172.272C301.961 172.46 301.574 172.635 301.182 172.799C300.931 172.905 300.679 173.01 300.421 173.109C300.17 173.209 299.912 173.303 299.655 173.396C299.461 173.466 299.268 173.531 299.075 173.595C298.683 173.718 298.291 173.841 297.899 173.952C297.7 174.005 297.501 174.058 297.302 174.11C297.038 174.181 296.775 174.245 296.506 174.309C295.973 174.432 295.434 174.538 294.896 174.631C294.627 174.684 294.357 174.725 294.082 174.766C293.813 174.807 293.544 174.848 293.269 174.877C293.075 174.906 292.882 174.93 292.689 174.947C292.484 174.971 292.274 174.994 292.063 175.012C292.004 175.018 291.946 175.023 291.881 175.029C291.624 175.053 291.36 175.07 291.097 175.088C291.079 175.094 291.062 175.094 291.038 175.094C290.149 175.152 289.253 175.182 288.358 175.182C287.62 175.182 286.883 175.164 286.145 175.129C285.618 175.105 285.097 175.076 284.571 175.041C284.126 175.012 283.675 174.982 283.23 174.942C282.908 174.918 282.586 174.889 282.258 174.86C281.591 174.801 280.924 174.731 280.257 174.655C279.976 174.62 279.695 174.579 279.42 174.543C279.379 174.538 279.338 174.532 279.303 174.532C279.022 174.491 278.746 174.45 278.471 174.409C278.425 174.403 278.378 174.391 278.331 174.385C278.044 174.344 277.763 174.298 277.488 174.245C277.271 174.21 277.061 174.175 276.844 174.134C276.505 174.075 276.165 174.005 275.826 173.935C275.627 173.894 275.428 173.853 275.234 173.806C275.018 173.759 274.801 173.712 274.591 173.66C274.275 173.589 273.964 173.507 273.648 173.425C273.367 173.355 273.092 173.279 272.811 173.197C272.6 173.139 272.39 173.074 272.179 173.01C271.74 172.881 271.307 172.741 270.874 172.588C270.534 172.477 270.201 172.354 269.867 172.226C269.574 169.662 269.34 167.098 269.17 164.528C268.491 154.654 268.696 144.773 269.996 134.928C264.33 132.534 259.068 128.688 253.366 126.388C245.406 123.175 238.92 116.929 232.78 110.935C233.366 108.623 234.782 106.498 236.661 105.029C243.427 107.54 250.334 111.287 255.878 114.927C263.838 115.636 271.722 117.895 278.969 121.266C279.964 123.169 281.995 124.638 284.143 124.521C286.286 124.404 288.305 122.923 289.089 120.921C292.754 122.162 298.109 125.241 299.374 128.091C300.808 137.07 301.335 145.64 301.68 154.326C301.92 160.203 302.066 166.132 302.347 172.272Z" fill="#46CA8B"/>
<path d="M299.375 128.088C300.839 131.434 301.851 138.512 300.658 143.618C299.466 148.724 296.658 153.439 292.739 156.922C286.277 162.664 277.37 164.767 269.035 167.058C267.516 165.221 266.361 162.913 265.913 160.572C271.385 156.074 277.59 152.296 284.19 149.725C286.363 143.12 289.278 136.481 292.675 130.415C292.674 130.413 297.123 128.43 299.375 128.088Z" fill="#46CA8B"/>
<path d="M300.136 145.516C298.745 149.886 296.168 153.878 292.738 156.925C286.358 162.594 277.594 164.716 269.351 166.974" stroke="#32BA71" stroke-width="0.439" stroke-miterlimit="10" stroke-linecap="round" stroke-linejoin="round"/>
<path d="M268.858 158.276C273.574 154.788 278.747 151.846 284.189 149.726C286.362 143.122 289.277 136.482 292.674 130.416" stroke="#32BA71" stroke-width="0.439" stroke-miterlimit="10" stroke-linecap="round" stroke-linejoin="round"/>
<path d="M272.033 126.426C270.466 131.266 269.573 136.326 269.388 141.41" stroke="#32BA71" stroke-width="0.439" stroke-miterlimit="10" stroke-linecap="round" stroke-linejoin="round"/>
<path d="M254.77 115.16C253.658 116.408 252.998 118.05 252.937 119.72" stroke="#32BA71" stroke-width="0.439" stroke-miterlimit="10" stroke-linecap="round" stroke-linejoin="round"/>
<path d="M284.271 149.76C285.009 151.314 286.317 152.589 287.89 153.285" stroke="#32BA71" stroke-width="0.439" stroke-miterlimit="10" stroke-linecap="round" stroke-linejoin="round"/>
<path d="M291.062 122.356C290.004 124.074 288.483 125.536 286.635 126.345C284.787 127.154 282.606 127.267 280.752 126.471C278.898 125.674 277.438 123.927 277.165 121.928" stroke="#32BA71" stroke-width="0.439" stroke-miterlimit="10" stroke-linecap="round" stroke-linejoin="round"/>
<path d="M274.656 134.299C275.669 139.138 278.125 143.665 281.628 147.154" stroke="#32BA71" stroke-width="0.439" stroke-miterlimit="10" stroke-linecap="round" stroke-linejoin="round"/>
<path d="M298.601 150.65C299.384 157.938 299.81 165.263 299.878 172.593" stroke="#32BA71" stroke-width="0.439" stroke-miterlimit="10" stroke-linecap="round" stroke-linejoin="round"/>
<path d="M301.682 169.029C296.822 171.083 291.489 171.867 286.213 171.822C280.936 171.777 275.697 170.926 270.539 169.814" stroke="#32BA71" stroke-width="0.439" stroke-miterlimit="10" stroke-linecap="round" stroke-linejoin="round"/>
<path d="M266.051 161.191C265.612 161.027 265.155 160.899 264.693 160.817C264.131 160.717 263.452 160.588 262.896 160.799C262.387 160.992 262.035 161.496 262.059 162.046C262.071 162.426 262.258 162.778 262.539 163.023C262.158 163.293 261.784 163.603 261.532 163.989C261.163 164.539 261.193 165.201 261.286 165.827C261.468 167.062 261.872 168.485 262.89 169.292C263.967 170.147 265.319 169.866 266.408 169.187C267.38 168.578 268.135 167.712 268.831 166.805C267.543 165.177 266.542 163.211 266.051 161.191Z" fill="#B1705B"/>
<path d="M236.427 105.216C234.882 106.498 233.676 108.225 233.026 110.121C231.37 110.016 229.666 109.46 228.49 108.336C227.764 106.592 228.045 104.473 229.157 102.945C228.103 102.003 227.149 100.943 226.33 99.7845C226.172 99.5679 226.014 99.2752 226.148 99.0411C226.236 98.8831 226.424 98.807 226.605 98.8128C226.781 98.8187 226.95 98.8889 227.114 98.9533C230.585 100.417 233.764 102.559 236.427 105.216Z" fill="#B1705B"/>
<path d="M271.035 264.424L271.509 259.572H264.929L265.632 264.895L266.53 267.922L269.212 268.465L270.647 267.22L271.035 264.424Z" fill="#B1705B"/>
<path d="M271.705 271.066H256.96C256.42 271.066 255.981 270.628 255.981 270.088V269.35C255.981 268.968 256.203 268.622 256.548 268.462L264.572 264.74C264.924 264.577 265.34 264.637 265.631 264.894L267.489 266.535C267.868 266.869 268.438 266.86 268.807 266.515L271.036 264.423C271.217 264.253 271.456 264.158 271.705 264.158C272.246 264.158 272.684 264.597 272.684 265.137V270.087C272.683 270.628 272.246 271.066 271.705 271.066Z" fill="#444145"/>
<path d="M302.058 264.424L302.531 259.572H295.951L296.654 264.895L297.553 267.922L300.234 268.465L301.67 267.22L302.058 264.424Z" fill="#B1705B"/>
<path d="M302.727 271.066H287.983C287.442 271.066 287.004 270.628 287.004 270.088V269.35C287.004 268.968 287.225 268.622 287.571 268.462L295.594 264.74C295.947 264.577 296.363 264.637 296.654 264.894L298.512 266.535C298.89 266.869 299.46 266.86 299.829 266.515L302.058 264.423C302.24 264.253 302.479 264.158 302.728 264.158C303.268 264.158 303.706 264.597 303.706 265.137V270.087C303.706 270.628 303.268 271.066 302.727 271.066Z" fill="#444145"/>
<path d="M304.285 260.331C301.078 261.76 297.396 261.777 294.2 260.32C291.952 251.744 289.909 243.55 288.083 235.361C285.853 225.393 283.933 215.425 282.323 204.748C281.709 210.35 279.947 215.466 277.149 220.365C277.822 228.676 277.799 236.116 276.979 243.602C276.371 249.222 275.317 254.864 273.783 260.923C270.16 262.011 266.069 261.601 262.656 259.963C262.896 254.636 263.148 249.643 263.405 244.738C263.862 235.923 264.336 227.412 264.763 217.842C265.08 210.812 265.963 203.741 267.029 196.682C268.258 188.616 269.727 180.556 270.874 172.59C271.307 172.742 271.741 172.883 272.18 173.011C272.39 173.076 272.601 173.14 272.812 173.199C273.093 173.281 273.368 173.357 273.649 173.427C273.965 173.509 274.275 173.591 274.591 173.661C274.802 173.714 275.018 173.761 275.235 173.807C275.428 173.854 275.627 173.895 275.826 173.936C276.166 174.006 276.505 174.077 276.845 174.135C277.061 174.176 277.272 174.211 277.489 174.246C277.764 174.299 278.045 174.346 278.331 174.387C278.378 174.393 278.425 174.404 278.472 174.41C278.747 174.451 279.022 174.492 279.303 174.533C279.338 174.533 279.379 174.539 279.42 174.545C279.695 174.58 279.976 174.621 280.257 174.656C280.924 174.732 281.592 174.802 282.259 174.861C282.587 174.89 282.909 174.919 283.231 174.943C283.676 174.984 284.126 175.013 284.571 175.042C285.098 175.078 285.619 175.107 286.146 175.13C286.883 175.165 287.621 175.183 288.358 175.183C289.254 175.183 290.149 175.154 291.039 175.095C291.062 175.095 291.08 175.095 291.098 175.089C291.361 175.072 291.624 175.054 291.882 175.031C291.946 175.025 292.005 175.019 292.063 175.013C292.274 174.996 292.485 174.972 292.69 174.949C292.883 174.931 293.076 174.908 293.269 174.878C293.544 174.849 293.814 174.808 294.083 174.767C294.358 174.726 294.627 174.685 294.896 174.633C295.435 174.539 295.973 174.434 296.506 174.311C296.775 174.246 297.039 174.182 297.302 174.112C297.501 174.059 297.7 174.006 297.899 173.954C298.291 173.842 298.684 173.72 299.076 173.597C299.269 173.532 299.462 173.468 299.655 173.398C299.913 173.304 300.17 173.21 300.422 173.111C300.679 173.011 300.931 172.906 301.183 172.801C301.95 178.344 301.037 184.062 298.525 189.067C299.842 198.081 300.082 207.247 298.912 216.279C302.348 231.176 304.671 244.72 304.285 260.331Z" fill="#444145"/>
<path d="M282.656 205.463C280.053 195.475 277.8 185.396 275.904 175.25" stroke="#626063" stroke-width="0.439" stroke-miterlimit="10" stroke-linecap="round" stroke-linejoin="round"/>
<path d="M273.441 174.83C273.609 177.049 273.875 179.26 274.237 181.456C274.397 182.428 274.599 183.446 275.234 184.199C275.875 184.96 276.881 185.337 277.873 185.423C278.865 185.509 279.858 185.335 280.838 185.162" stroke="#626063" stroke-width="0.439" stroke-miterlimit="10" stroke-linecap="round" stroke-linejoin="round"/>
<path d="M292.326 176.016C292.381 177.934 292.465 179.888 293.108 181.696C293.751 183.504 295.047 185.177 296.86 185.811" stroke="#626063" stroke-width="0.439" stroke-miterlimit="10" stroke-linecap="round" stroke-linejoin="round"/>
<path d="M300.526 176.314C291.018 179.368 280.586 179.471 271.02 176.605" stroke="#626063" stroke-width="0.439" stroke-miterlimit="10" stroke-linecap="round" stroke-linejoin="round"/>
<path d="M285.509 218.37C287.447 218.738 289.466 218.682 291.381 218.207" stroke="#626063" stroke-width="0.439" stroke-miterlimit="10" stroke-linecap="round" stroke-linejoin="round"/>
<path d="M265.698 217.205C267.596 217.903 269.647 218.177 271.662 218.003" stroke="#626063" stroke-width="0.439" stroke-miterlimit="10" stroke-linecap="round" stroke-linejoin="round"/>
<path d="M281.067 204.148C280.195 209.55 278.082 214.748 274.937 219.226" stroke="#626063" stroke-width="0.439" stroke-miterlimit="10" stroke-linecap="round" stroke-linejoin="round"/>
<path d="M275.056 221.494C276.296 235.194 275.342 246.354 272.085 259.719" stroke="#626063" stroke-width="0.439" stroke-miterlimit="10" stroke-linecap="round" stroke-linejoin="round"/>
<path d="M296.823 189.803C298.19 198.82 298.265 208.033 297.046 217.072" stroke="#626063" stroke-width="0.439" stroke-miterlimit="10" stroke-linecap="round" stroke-linejoin="round"/>
<path d="M297.58 219.842C300.883 233.693 302.427 245.726 302.521 259.966" stroke="#626063" stroke-width="0.439" stroke-miterlimit="10" stroke-linecap="round" stroke-linejoin="round"/>
<g opacity="0.15">
<path d="M276.979 243.602C276.371 249.221 275.317 254.863 273.783 260.922C270.16 262.01 266.069 261.601 262.656 259.962C262.896 254.635 263.148 249.642 263.405 244.737C267.901 245.627 272.66 245.188 276.979 243.602Z" fill="#522840"/>
<path d="M304.285 260.33C301.077 261.758 297.395 261.776 294.199 260.318C291.952 251.743 289.909 243.549 288.083 235.36C294.094 227.071 294.123 214.844 288.03 206.585C283.353 200.251 275.042 196.564 267.028 196.681C268.258 188.615 269.727 180.555 270.874 172.589C270.534 172.477 270.201 172.354 269.867 172.226C269.668 170.476 269.493 168.725 269.358 166.969C271.875 166.285 274.444 165.606 276.973 164.839C280.075 164.657 283.148 164.125 286.128 163.229C291.893 161.491 297.249 158.406 301.68 154.326C301.92 160.203 302.066 166.132 302.347 172.272C301.961 172.46 301.575 172.635 301.183 172.799C301.949 178.342 301.036 184.061 298.525 189.066C299.842 198.08 300.082 207.246 298.911 216.278C302.347 231.175 304.671 244.719 304.285 260.33Z" fill="#522840"/>
</g>
<path d="M55.1054 264.424L54.6318 259.572H61.2122L60.5092 264.895L59.6107 267.922L56.9299 268.465L55.4934 267.22L55.1054 264.424Z" fill="#B1705B"/>
<path d="M54.4357 271.066H69.1803C69.7205 271.066 70.1589 270.628 70.1589 270.088V269.35C70.1589 268.968 69.9377 268.622 69.5923 268.462L61.5692 264.74C61.2168 264.577 60.8006 264.637 60.5097 264.894L58.6519 266.535C58.2732 266.869 57.703 266.86 57.3343 266.515L55.1053 264.423C54.9239 264.253 54.6845 264.158 54.4357 264.158C53.8954 264.158 53.457 264.597 53.457 265.137V270.087C53.457 270.628 53.8949 271.066 54.4357 271.066Z" fill="#444145"/>
<path d="M93.7372 264.424L92.5156 259.572H99.0239L99.141 264.895L98.2425 267.922L95.5617 268.465L94.1253 267.22L93.7372 264.424Z" fill="#B1705B"/>
<path d="M93.0675 271.066H107.812C108.352 271.066 108.791 270.628 108.791 270.088V269.35C108.791 268.968 108.57 268.622 108.224 268.462L100.201 264.74C99.8486 264.577 99.4325 264.637 99.1415 264.894L97.2837 266.535C96.905 266.869 96.3349 266.86 95.9661 266.515L93.7372 264.423C93.5557 264.253 93.3163 264.158 93.0675 264.158C92.5273 264.158 92.0889 264.597 92.0889 265.137V270.087C92.0889 270.628 92.5267 271.066 93.0675 271.066Z" fill="#444145"/>
<path d="M60.662 108.436C59.938 111.105 57.8893 113.379 55.3103 114.377C53.9916 114.887 52.5247 115.074 51.148 114.75C49.7713 114.425 48.5 113.559 47.8262 112.316C47.207 111.172 47.1244 109.808 47.2649 108.515C47.5318 106.062 48.6024 103.714 50.4725 102.104C48.8916 100 48.5146 97.0521 49.5144 94.6189C50.5147 92.185 52.8554 90.3547 55.4584 89.9707C58.0614 89.5867 60.7926 90.6234 62.4526 92.6644C63.0174 91.5985 63.8304 90.6526 64.8501 90.0088C65.8703 89.3649 67.1019 89.0359 68.3 89.1735C70.1368 89.3848 71.7541 90.7077 72.5168 92.3923C73.2795 94.0768 73.2391 96.0629 72.6093 97.8013C71.9789 99.5398 70.7953 101.042 69.3899 102.243C66.7015 104.543 63.5647 106.412 60.662 108.436Z" fill="#444145"/>
<path d="M70.674 106.065C70.3931 105.711 70.1332 105.366 69.95 104.95C69.8382 104.696 69.7656 104.426 69.7112 104.154C69.6485 102.262 69.4677 100.375 69.1569 98.5098C67.8516 100.196 65.5395 101.068 63.444 100.623C62.5133 102.004 61.1671 103.14 59.6335 103.795C59.2237 103.304 58.6384 102.97 57.977 102.882C57.7955 104.545 57.7897 106.224 58.4511 107.711C59.5984 110.31 61.7758 112.441 64.3981 113.541C65.7268 114.091 67.4243 114.32 68.4545 113.325C69.151 112.657 69.3325 111.627 69.4437 110.667C69.5578 109.695 69.6368 108.719 69.6854 107.742C70.0887 107.754 70.5423 107.645 70.8069 107.34C71.1523 106.941 70.9632 106.429 70.674 106.065Z" fill="#B1705B"/>
<path d="M57.6045 108.16C59.0699 108.16 60.2578 106.972 60.2578 105.507C60.2578 104.041 59.0699 102.854 57.6045 102.854C56.1391 102.854 54.9512 104.041 54.9512 105.507C54.9512 106.972 56.1391 108.16 57.6045 108.16Z" fill="#B1705B"/>
<path d="M66.1249 119.301C64.603 120.776 62.6129 121.73 60.494 121.765C58.3751 121.8 56.2328 120.741 54.6641 119.318C56.2093 115.789 57.181 112.002 57.5029 108.156C57.5322 108.162 57.5673 108.162 57.6024 108.162C57.9302 108.162 58.2404 108.103 58.5331 107.992C58.5565 107.998 58.5741 108.01 58.5975 108.016C58.9077 108.665 59.2823 109.28 59.7155 109.854C60.9096 111.469 62.5426 112.763 64.3982 113.541C64.6616 113.652 64.9367 113.746 65.2235 113.822C65.0947 114.764 65.1123 115.724 65.2762 116.655C65.4225 117.574 65.7093 118.47 66.1249 119.301Z" fill="#B1705B"/>
<path d="M68.815 103.003C68.4199 102.555 67.7813 102.337 67.1942 102.449C66.6077 102.561 66.0937 102.998 65.8906 103.56" stroke="#252126" stroke-width="0.439" stroke-miterlimit="10" stroke-linecap="round" stroke-linejoin="round"/>
<path d="M67.6572 103.949C67.6654 104.169 67.6736 104.39 67.6818 104.61" stroke="#252126" stroke-width="0.585333" stroke-miterlimit="10" stroke-linecap="round" stroke-linejoin="round"/>
<path d="M68.3895 109.284C68.2098 109.09 67.95 109.082 67.707 109.153C67.5607 108.766 67.302 108.422 66.9479 108.198C66.6968 108.039 66.3848 107.929 66.0845 107.958C65.7076 107.995 65.4225 108.235 65.3628 108.616C65.2498 109.34 65.7479 110.027 66.3263 110.41C66.8934 110.785 67.6544 110.822 68.1794 110.351C68.4563 110.102 68.6851 109.604 68.3895 109.284Z" fill="white"/>
<path d="M63.1895 106.474C63.1895 107.007 63.9123 107.439 64.8044 107.439C65.6964 107.439 66.4193 107.007 66.4193 106.474C66.4193 105.94 65.6964 105.508 64.8044 105.508C63.9123 105.508 63.1895 105.94 63.1895 106.474Z" fill="#9E5942"/>
<path d="M65.2765 116.655C63.62 116.392 62.063 115.473 61.0504 114.132C60.1256 112.915 59.6573 111.375 59.7158 109.854C60.9099 111.469 62.543 112.763 64.3985 113.541C64.6619 113.652 64.937 113.746 65.2238 113.822C65.095 114.764 65.1126 115.724 65.2765 116.655Z" fill="#9E5942"/>
<path d="M56.9824 104.803C57.5081 104.804 58.0308 104.994 58.4352 105.329C58.8397 105.664 59.1224 106.143 59.2213 106.659C58.7636 106.298 58.1701 106.165 57.597 106.277" stroke="#9E5942" stroke-width="0.439" stroke-miterlimit="10" stroke-linecap="round" stroke-linejoin="round"/>
<path d="M115.796 126.979C115.199 128.284 114.449 129.513 113.56 130.637C114.063 131.96 114.42 133.353 114.162 134.746C113.905 136.134 112.98 137.462 111.634 137.901C108.256 142.578 104.346 146.857 100.179 150.849C98.9438 152.031 97.5507 153.26 95.8474 153.377C94.2085 153.495 92.6983 152.552 91.3872 151.557C88.2732 149.204 85.5338 146.353 83.2979 143.146C86.2128 141.653 88.6595 139.265 90.2399 136.397C92.5695 138.399 94.6767 140.658 96.5147 143.111C99.9506 139.885 103.714 136.871 107.648 134.272C109.866 131.334 112.33 128.512 115.087 126.212C115.245 126.083 115.439 125.943 115.643 125.99C115.831 126.037 115.942 126.241 115.948 126.435C115.954 126.622 115.872 126.809 115.796 126.979Z" fill="#B1705B"/>
<path d="M45.1577 163.017C44.35 164.557 43.7295 166.201 43.2788 167.905C39 165.277 35.1954 161.864 32.1107 157.896C30.8054 156.216 29.5996 154.366 29.2601 152.265C28.8738 149.923 29.6113 147.529 30.7117 145.422C31.7302 143.485 33.0238 141.787 34.1535 139.932C36.1729 142.302 38.9122 144.082 41.8916 145.018C40.639 147.207 39.1405 149.256 37.4255 151.106C40.4575 154.711 43.0798 158.774 45.1577 163.017Z" fill="#B1705B"/>
<path d="M100.671 259.928C97.8027 261.836 94.0683 261.719 91.1065 259.957C89.8422 255.731 88.6247 251.487 87.4833 247.232C84.6561 236.743 82.268 226.154 80.5471 215.413C75.0157 209.103 69.6891 202.39 64.8777 195.442C63.9119 194.054 62.9754 192.655 62.0564 191.251C62.1735 193.018 62.2964 194.792 62.4076 196.565C62.829 202.922 63.2212 209.314 63.5022 215.653C63.8358 223.175 63.9353 230.796 63.7714 238.417C63.6134 245.862 63.2037 253.308 62.513 260.636C59.1239 261.257 55.3602 261.058 52.1409 259.817C49.7176 244.99 47.9265 228.776 49.0737 214.763C47.4875 206.809 45.9012 198.854 44.3091 190.899C43.2204 185.415 42.1199 179.866 42.3424 174.276C42.5297 169.523 43.7823 164.671 46.4982 160.813C46.8085 160.895 47.1246 160.971 47.4406 161.042C47.903 161.147 48.3655 161.246 48.8279 161.34C49.6532 161.51 50.4785 161.656 51.3097 161.779C51.5321 161.814 51.7487 161.844 51.9711 161.873C53.4286 162.078 54.9036 162.212 56.3787 162.288C56.6772 162.306 56.9699 162.323 57.2625 162.329C57.4674 162.341 57.6664 162.347 57.8713 162.347C58.0235 162.353 58.1815 162.359 58.3395 162.359C58.9541 162.364 59.5687 162.364 60.1892 162.353C60.435 162.347 60.6809 162.341 60.9267 162.335C61.2135 162.323 61.5003 162.312 61.7871 162.294C62.0974 162.283 62.4076 162.265 62.7178 162.242C63.1159 162.218 63.5139 162.183 63.9119 162.148C64.2397 162.119 64.5616 162.089 64.8836 162.054C65.3577 162.002 65.826 161.943 66.2942 161.879C66.6922 161.826 67.0844 161.767 67.4824 161.709C67.8746 161.645 68.2668 161.574 68.659 161.504C69.0511 161.434 69.4433 161.358 69.8355 161.276C70.2277 161.2 70.6198 161.118 71.0061 161.024C71.3691 160.942 71.7378 160.854 72.1007 160.761C72.1417 160.749 72.1827 160.743 72.2295 160.726C72.5924 160.638 72.9612 160.544 73.3241 160.439C73.7104 160.333 74.0909 160.222 74.4713 160.105C74.8167 160 75.1562 159.894 75.4957 159.783C75.5659 159.766 75.6361 159.742 75.7005 159.719C76.0986 162.072 76.7307 164.46 76.6195 166.737C80.9744 176.342 85.2063 186.07 88.8295 195.998C90.5387 200.657 92.1074 205.363 93.4888 210.122C96.9247 221.94 98.7802 234.12 99.8163 246.389C100.203 250.896 100.472 255.415 100.671 259.928Z" fill="#444145"/>
<path d="M62.4665 191.354C59.7178 187.395 56.9404 183.383 55.2528 178.868C53.5647 174.354 53.0549 169.208 54.8858 164.75" stroke="#626063" stroke-width="0.439" stroke-miterlimit="10" stroke-linecap="round" stroke-linejoin="round"/>
<path d="M49.3047 214.609C51.2925 214.803 53.2984 214.803 55.2862 214.61" stroke="#626063" stroke-width="0.439" stroke-miterlimit="10" stroke-linecap="round" stroke-linejoin="round"/>
<path d="M81.2471 215.301C83.0072 215.445 84.7971 215.213 86.463 214.627" stroke="#626063" stroke-width="0.439" stroke-miterlimit="10" stroke-linecap="round" stroke-linejoin="round"/>
<path d="M75.3516 170.434C82.341 184.323 87.8297 198.967 91.6923 214.029" stroke="#626063" stroke-width="0.439" stroke-miterlimit="10" stroke-linecap="round" stroke-linejoin="round"/>
<path d="M92.4238 216.777C95.9797 230.69 98.218 244.939 99.099 259.272" stroke="#626063" stroke-width="0.439" stroke-miterlimit="10" stroke-linecap="round" stroke-linejoin="round"/>
<path d="M61.3313 215.82C62.0647 230.227 61.813 244.683 60.5791 259.054" stroke="#626063" stroke-width="0.439" stroke-miterlimit="10" stroke-linecap="round" stroke-linejoin="round"/>
<path d="M75.9161 164.117C66.3559 168.431 55.2176 169.132 45.1914 166.053" stroke="#626063" stroke-width="0.439" stroke-miterlimit="10" stroke-linecap="round" stroke-linejoin="round"/>
<path d="M91.1948 134.332C89.6203 138.529 86.237 141.994 82.0987 143.715C81.5719 143.358 80.9164 143.153 80.3896 142.796C79.7867 144.657 78.4404 146.413 76.7488 147.397C76.7781 148.96 76.8659 150.552 77.0005 152.138C77.1936 154.432 77.4863 156.727 77.8668 158.951C77.1527 159.221 76.4327 159.478 75.701 159.718C75.6367 159.741 75.5664 159.765 75.4962 159.782C75.1567 159.894 74.8172 159.999 74.4718 160.104C74.0914 160.221 73.7109 160.333 73.3246 160.438C72.9617 160.538 72.5929 160.637 72.23 160.725C72.1832 160.742 72.1422 160.748 72.1012 160.76C71.7383 160.854 71.3696 160.941 71.0067 161.023C70.6145 161.111 70.2282 161.199 69.836 161.275C69.4438 161.357 69.0517 161.433 68.6595 161.503C68.2673 161.574 67.8751 161.644 67.483 161.708C67.0849 161.767 66.6928 161.825 66.2947 161.878C65.8265 161.942 65.3582 162.001 64.8841 162.054C64.5621 162.089 64.2402 162.118 63.9124 162.147C63.5144 162.182 63.1164 162.217 62.7183 162.241C62.4081 162.264 62.0979 162.282 61.7877 162.294C61.5009 162.311 61.214 162.323 60.9272 162.334C60.6814 162.34 60.4355 162.346 60.1897 162.352C59.5693 162.364 58.9547 162.364 58.34 162.358C58.182 162.358 58.024 162.352 57.8718 162.346C57.6669 162.346 57.4679 162.34 57.263 162.329C56.9704 162.323 56.6777 162.305 56.3792 162.288C54.9041 162.212 53.4291 162.077 51.9716 161.872C51.7492 161.843 51.5326 161.814 51.3102 161.778C50.479 161.656 49.6537 161.509 48.8284 161.339C48.366 161.246 47.9036 161.146 47.4411 161.041C47.1251 160.971 46.809 160.895 46.4988 160.813C45.8022 160.637 45.1115 160.45 44.4267 160.245C45.9427 156.188 46.9904 152.062 47.7338 147.795C47.2714 146.607 46.85 145.448 46.528 144.271C46.2178 143.153 46.0071 142.018 45.9251 140.812C45.0003 142.263 43.9877 143.902 43.0687 145.354C39.0182 144.394 35.2838 141.877 32.9951 138.406C35.155 133.87 38.3568 129.925 41.5234 126.026C42.5361 124.779 43.5662 123.515 44.8423 122.538C47.6109 120.419 51.2165 119.822 54.6642 119.318C56.2329 120.741 58.3752 121.8 60.4941 121.765C62.613 121.73 64.6031 120.776 66.125 119.301C69.6663 119.301 73.3246 119.482 76.4912 121.063C78.4931 122.064 80.1554 123.609 81.7885 125.137C84.9376 128.081 88.0516 131.388 91.1948 134.332Z" fill="#5ACC8E"/>
<path d="M45.0585 129.318C44.9039 134.086 45.4079 138.875 46.5517 143.506" stroke="#4572BA" stroke-width="0.439" stroke-miterlimit="10" stroke-linecap="round" stroke-linejoin="round"/>
<path d="M82.1156 143.222C78.2501 141.995 75.0056 138.949 73.5376 135.168C72.0695 131.387 72.4085 126.949 74.4331 123.436" stroke="#4572BA" stroke-width="0.439" stroke-miterlimit="10" stroke-linecap="round" stroke-linejoin="round"/>
<path d="M45.7767 139.56C44.7711 138.27 44.1377 136.692 43.9727 135.064" stroke="#4572BA" stroke-width="0.439" stroke-miterlimit="10" stroke-linecap="round" stroke-linejoin="round"/>
<path d="M76.6076 157.105C66.8185 160.215 56.2457 160.822 46.165 158.856" stroke="#4572BA" stroke-width="0.439" stroke-miterlimit="10" stroke-linecap="round" stroke-linejoin="round"/>
<path d="M74.8326 139.477C72.2729 145.745 72.5972 153.125 75.6972 159.146" stroke="#4572BA" stroke-width="0.439" stroke-miterlimit="10" stroke-linecap="round" stroke-linejoin="round"/>
<path d="M67.8634 120.16C66.1133 121.914 63.6765 122.965 61.1994 123.034C58.7223 123.103 56.2311 122.188 54.3867 120.534" stroke="#4572BA" stroke-width="0.439" stroke-miterlimit="10" stroke-linecap="round" stroke-linejoin="round"/>
<path d="M68.1497 131.213C64.465 138.787 58.9213 145.449 52.1426 150.448" stroke="#4572BA" stroke-width="0.439" stroke-miterlimit="10" stroke-linecap="round" stroke-linejoin="round"/>
<path opacity="0.15" d="M99.8172 246.389C95.7609 247.179 91.6109 247.483 87.4843 247.232C88.6257 251.487 89.8432 255.731 91.1075 259.957C94.0693 261.719 97.8037 261.836 100.672 259.927C100.473 255.415 100.204 250.896 99.8172 246.389ZM76.6205 166.737C76.7317 164.46 76.0995 162.071 75.7015 159.718C76.4332 159.478 77.1531 159.221 77.8672 158.952C77.4868 156.727 77.1941 154.433 77.0009 152.138C73.6236 152.671 70.1994 152.876 66.7869 152.677C61.5774 152.372 56.3914 151.079 51.8199 148.521C49.8473 147.421 47.904 146.074 46.5285 144.271C46.8504 145.448 47.2719 146.607 47.7343 147.795C46.9909 152.062 45.9432 156.189 44.4271 160.245C45.112 160.45 45.8027 160.637 46.4992 160.813C43.7833 164.67 42.5307 169.523 42.3434 174.276C42.1209 179.866 43.2214 185.415 44.3101 190.899C45.9022 198.854 47.4884 206.808 49.0747 214.763C47.9274 228.776 49.7186 244.99 52.1418 259.816C55.3612 261.057 59.1249 261.256 62.5139 260.636C63.2046 253.307 63.6144 245.862 63.7724 238.416C62.8476 237.708 61.9579 236.953 61.1033 236.157C54.8168 230.315 50.0756 221.881 50.7604 213.066C51.0824 208.91 52.7857 205.012 55.5368 201.886C57.4625 199.703 59.8214 197.906 62.4086 196.565C62.2974 194.792 62.1744 193.018 62.0574 191.25C62.9764 192.655 63.9129 194.054 64.8787 195.441C65.1011 195.359 65.3235 195.277 65.546 195.195C70.0004 193.598 74.8235 193.287 79.4945 193.832C81.9763 194.118 84.423 194.651 86.817 195.359C87.4901 195.558 88.1632 195.769 88.8305 195.997C85.2073 186.07 80.9753 176.342 76.6205 166.737Z" fill="#522840"/>
</svg>
