<svg width="630" height="117" viewBox="0 0 630 117" fill="none" xmlns="http://www.w3.org/2000/svg">
<path d="M5.5199 78.7173C11.2276 94.279 24.9821 106.542 41.6617 110.94C58.3413 115.339 77.5704 111.773 92.1904 101.572C104.911 92.6954 114.081 78.7097 115.407 64.0705C116.733 49.4313 109.66 34.5528 96.768 27.4103C85.4494 21.14 71.1376 21.0532 59.2503 15.746C54.6096 13.6736 50.2539 10.7828 45.0972 10.141C34.9958 8.88413 26.2632 15.9232 19.4709 22.5968C4.08717 37.7104 -1.42683 59.7781 5.5199 78.7173Z" fill="#DCFFE6"/>
<path d="M31.0996 99.0171C29.2716 97.812 28.7873 95.1949 26.887 94.1043C25.8481 93.5086 24.5501 93.49 23.3849 93.7837C22.2196 94.0767 21.1526 94.6537 20.0884 95.2046C18.351 96.1043 16.5413 96.9647 14.5905 97.1915C12.6398 97.419 10.4987 96.9102 9.21554 95.4493C7.93233 93.9884 7.85862 91.4899 9.36646 90.2538C10.3555 89.4424 11.7265 89.3141 12.9879 89.0549C14.2494 88.7957 15.626 88.2372 16.0696 87.0487C16.5434 85.7781 15.64 84.3075 14.3828 83.7546C13.1255 83.201 11.6556 83.3768 10.3422 83.7856C9.02881 84.1945 7.79123 84.8232 6.46099 85.1755C5.13075 85.5278 3.62853 85.5726 2.45624 84.8632C0.72868 83.8173 0.362952 81.1362 1.74935 79.6808C2.78616 78.5929 4.39509 78.3033 5.86221 77.9255C7.33004 77.5477 8.92492 76.8714 9.4507 75.4739C10.0116 73.982 9.05478 72.2984 7.74982 71.356C6.44485 70.4136 4.84084 69.9833 3.37442 69.3091C1.90799 68.6348 0.462632 67.5669 0.0870766 66.0198C-0.330598 64.3025 0.803789 62.4514 2.43096 61.6999C4.05814 60.9484 6.02226 61.1615 7.64522 61.9226C9.26748 62.6837 10.5963 63.9371 11.7812 65.2656C12.9662 66.5935 14.0416 68.0199 15.3241 69.2581C15.911 69.8248 16.6551 70.3853 17.4693 70.2646C18.1685 70.1612 18.6971 69.5669 18.9814 68.9306C19.2657 68.2943 19.3682 67.5952 19.5977 66.9382C20.3229 64.8637 22.419 63.3249 24.6505 63.2304C26.8821 63.136 29.1052 64.4907 30.0101 66.4962C30.7654 68.1715 30.6208 70.1254 30.0641 71.8737C29.5075 73.6228 28.5682 75.225 27.735 76.8645C27.2176 77.8814 26.788 79.2396 27.6079 80.0414C28.3647 80.7811 29.6928 80.4612 30.5113 79.7877C31.3298 79.1141 31.8851 78.1661 32.7309 77.5263C34.217 76.4012 36.5286 76.5074 37.901 77.7635C39.2733 79.0196 39.5436 81.2768 38.5054 82.8115C37.6834 84.0269 36.2654 84.686 35.0215 85.4851C33.7783 86.2841 32.5639 87.4713 32.5983 88.9301C32.632 90.3869 33.8702 91.492 34.8895 92.551C35.979 93.6837 37.3127 95.9347 36.5665 97.5396C35.6462 99.519 32.8938 100.2 31.0996 99.0171Z" fill="#BDFACE"/>
<path d="M4.14182 63.6789C8.98964 66.3118 13.292 69.8134 17.1045 73.7438C21.178 77.9431 24.6879 82.6333 27.9605 87.4517C29.86 90.248 31.6823 93.0932 33.5047 95.9378C33.6128 96.106 33.8683 95.9261 33.7602 95.7578C30.477 90.6326 27.1883 85.4978 23.4615 80.6677C20.057 76.254 16.2733 72.0913 11.9239 68.5525C9.53859 66.6117 6.98551 64.8709 4.27449 63.3983C4.09759 63.3032 3.96562 63.5838 4.14182 63.6789Z" fill="#DCFFE6"/>
<path d="M72.7695 45.2196C79.7865 47.4506 89.6408 68.4822 89.6408 68.4822L97.3182 43.0762L104.813 44.2241C104.813 44.2241 100.511 70.4925 99.4944 77.4819C97.8517 88.7726 87.3137 89.2145 81.7021 80.7463C78.1719 75.4191 75.2412 69.7479 75.2412 69.7479L72.7695 45.2196Z" fill="#FFCAAE"/>
<path d="M97.7408 44.3771C97.8995 43.1216 92.7688 37.9633 93.7859 36.7975C94.7153 35.7317 97.3892 37.3725 97.9142 38.8803C98.3052 36.9106 97.493 28.8436 99.2129 28.905C100.485 28.9505 100.4 35.0809 100.4 35.0809C100.4 35.0809 101.289 27.9825 102.919 28.3266C104.548 28.6713 102.752 35.7737 102.752 35.7737C102.752 35.7737 104.638 29.8378 105.889 30.3266C107.118 30.8071 104.648 36.8037 104.648 36.8037C104.648 36.8037 107.309 32.3707 107.987 32.692C108.665 33.0133 107.684 36.0853 106.246 38.1909C106.696 42.557 104.118 45.5505 104.118 45.5505L97.7408 44.3771Z" fill="#FFCAAE"/>
<path d="M72.7695 45.2207C81.7422 47.6247 88.7914 64.932 88.7914 64.932C85.907 71.7615 75.701 74.2958 75.701 74.2958L72.7695 45.2207Z" fill="#7FEFD4"/>
<path d="M84.6435 114H34.9023L35.3635 110.197L35.5152 108.918V108.912L35.9511 105.314L36.0648 104.371L36.1154 103.999L36.4691 101.045L36.6334 99.7056L36.646 99.5877L36.9935 96.7149L37.8654 89.4994L38.0486 87.9854L38.295 85.9757L38.712 82.5321L39.1542 78.8719L40.3223 69.2365L40.3665 68.858L40.4992 67.7411L43.121 46.0822L43.2664 46.0387L44.3593 45.7347L50.5184 44.0105L52.9255 43.3403L62.6408 43.0859L66.621 43.9236L72.2494 45.108L72.7738 45.2197L77.2208 70.98L77.682 73.6785L77.8084 74.4044L78.219 76.7809L78.6865 79.4986L78.6928 79.5296L78.895 80.683L78.9013 80.7202L78.914 80.8133L79.1035 81.8992L81.3716 95.0334L81.6622 96.7149L82.1613 99.6312L82.3508 100.716L82.9952 104.452L83.0395 104.694V104.7L83.2283 105.823L83.3799 106.673L83.9864 110.197L84.6435 114Z" fill="#7FEFD4"/>
<path d="M84.5964 113.998H38.21L38.5511 110.195L38.5638 110.021L38.9302 105.976L39.0313 104.835L39.0439 104.729L39.4293 100.442L39.4798 99.8838L39.5304 99.2944L39.7641 96.7132L40.4394 89.1936L40.5342 88.145L40.73 85.974L41.0712 82.1953L41.3618 78.9688L44.3564 45.733V45.7268L50.5156 43.9715V44.0087L51.1663 59.2829H68.5261L66.6181 43.9219L72.2402 45.0815L72.2465 45.1063L73.4216 51.6579V51.6641L76.9083 71.1024L77.3569 73.6085L77.3885 73.7822L77.8939 76.6116L78.4183 79.5217L78.4309 79.6203L78.6205 80.6627L78.6268 80.6813L78.6521 80.8364L78.8353 81.8788L81.1918 95.0006L81.5014 96.7132L82.0257 99.6481L82.2216 100.739L82.8849 104.437L82.9292 104.673L83.1313 105.803L83.2893 106.715L83.914 110.195L84.5964 113.998Z" fill="#54D09C"/>
<path d="M51.2422 67.7871L51.7111 77.2343C61.6826 80.6904 70.7156 76.7489 70.7156 76.7489L69.6599 67.7871H51.2422Z" fill="#49B675"/>
<path d="M51.602 33.3473C48.2873 31.9926 45.4492 29.4286 44.0417 26.1849C42.6343 22.9404 42.7536 19.0369 44.5836 16.0034C44.2123 12.8486 45.7531 9.55662 48.0079 7.28014C50.2626 5.00366 53.199 3.49934 56.1795 2.26665C58.1409 1.4552 60.1759 0.736816 62.2979 0.572044C64.4193 0.407271 66.6579 0.848505 68.3209 2.1529C69.9839 3.45729 70.9399 5.71791 70.3341 7.72138C72.1473 9.26845 72.9476 11.7676 72.7363 14.1172C72.525 16.4667 71.4046 18.6681 69.9242 20.5261C68.4437 22.3834 66.6102 23.936 64.7703 25.452C60.8343 28.6978 56.5755 32.0705 51.602 33.3473Z" fill="#DD4040"/>
<path d="M48.4185 28.7756C48.4185 28.7756 52.4415 35.847 53.142 45.5493C55.4754 49.8258 61.4843 48.8006 62.7254 44.7654C62.4165 41.0791 62.9683 39.3086 64.083 37.9663C64.1757 37.8539 64.2683 37.7547 64.3652 37.6464C64.4312 37.5699 64.4979 37.5023 64.573 37.4299C64.7057 37.2941 64.8608 37.1673 65.0068 37.0273C65.2153 36.846 65.4329 36.6647 65.6589 36.4785H65.6631C66.5554 35.7477 67.6048 34.9694 68.7553 33.8346C70.4331 32.1931 71.6257 30.0028 71.9465 26.668C71.9549 26.628 71.9584 26.5881 71.9619 26.5439C71.9697 26.495 71.9732 26.446 71.9767 26.3971C71.9837 26.3081 71.9872 26.2282 71.9893 26.1441C71.9978 26.1041 71.9971 26.0682 72.0006 26.0331C72.1971 22.7762 71.632 18.4742 69.9838 12.5893C68.2724 6.48788 52.8191 5.07663 49.1422 13.2325C47.6323 16.5976 48.4185 28.7756 48.4185 28.7756Z" fill="#FFCAAE"/>
<path d="M71.4406 17.2522C70.1054 15.8706 68.9963 14.2794 68.168 12.5572C64.7718 14.087 60.8661 14.5007 57.2158 13.7168C57.6243 13.8368 58.0336 13.956 58.4421 14.076C56.7448 14.7247 54.8733 14.9288 53.072 14.6627C53.0306 16.7861 51.692 18.8365 49.744 19.7582C50.4074 22.5635 49.8802 25.6804 48.3281 28.1237C46.6174 25.1612 45.7013 21.6872 46.027 18.2966C46.3528 14.906 47.8915 11.6092 50.4242 9.2831C52.6073 7.27826 55.496 6.02833 58.4758 5.80013C61.4557 5.57193 64.5065 6.36684 66.9795 8.01594C68.5302 9.05008 69.8654 10.4262 70.7077 12.0704C71.5501 13.7147 71.8386 15.4535 71.4406 17.2522Z" fill="#DD4040"/>
<path d="M64.6716 25.3944C64.8864 25.2724 65.1174 25.1938 65.3645 25.1662C65.5842 25.1414 65.8292 25.1573 66.0201 25.2786C66.2244 25.4082 66.3353 25.6206 66.3676 25.8543C66.3985 26.077 66.336 26.3017 66.2623 26.5106C66.223 26.6223 66.1205 26.7202 65.9885 26.6878C65.8797 26.6609 65.766 26.5396 65.8081 26.4189C65.8615 26.2666 65.9212 26.1004 65.9099 25.937C65.9043 25.8529 65.8776 25.7688 65.8229 25.704C65.8257 25.7081 65.8292 25.7122 65.832 25.7164C65.7815 25.6468 65.6895 25.6254 65.6074 25.615C65.6011 25.6144 65.5947 25.6137 65.5856 25.613C65.5681 25.6137 65.5505 25.6123 65.533 25.6123C65.4866 25.613 65.4403 25.6157 65.3947 25.6212C65.3715 25.624 65.3476 25.6275 65.3245 25.6309C65.3125 25.6323 65.3111 25.6323 65.3076 25.633C65.3041 25.6337 65.3034 25.6343 65.2929 25.6371C65.1504 25.6702 65.0303 25.7343 64.8977 25.7888C64.7973 25.8301 64.6695 25.8067 64.6099 25.7116C64.5474 25.6116 64.5593 25.4585 64.6716 25.3944Z" fill="#C16B5B"/>
<path d="M69.4759 19.4201C68.2257 18.8382 66.7488 18.8534 65.5435 19.5483C65.2486 19.7186 65.1019 20.1226 65.29 20.4225C65.5343 20.8121 65.9338 20.7914 66.2995 20.6052C66.6259 20.4391 66.9811 20.3295 67.3454 20.2812C67.3433 20.2612 67.3138 20.2971 67.3342 20.2957C67.8017 20.246 68.2699 20.315 68.7066 20.4818C68.7325 20.4915 68.7585 20.5018 68.7992 20.519C69.1067 20.659 69.5089 20.628 69.6914 20.3046C69.8487 20.0261 69.8059 19.5738 69.4759 19.4201Z" fill="#DD4040"/>
<path d="M61.5993 19.8841C60.2859 19.4587 58.8216 19.6531 57.7132 20.4894C57.4415 20.6942 57.3474 21.1126 57.5721 21.3877C57.7897 21.6538 58.1961 21.7455 58.4867 21.5263C58.5984 21.4422 58.7149 21.3684 58.8328 21.294C58.8448 21.2871 58.8419 21.2884 58.8497 21.2843C58.8714 21.2733 58.8925 21.2622 58.9142 21.2519C58.9613 21.2292 59.009 21.2071 59.0568 21.1871C59.1852 21.1319 59.3165 21.0844 59.4506 21.0451C59.4843 21.0354 59.6983 20.9596 59.5334 21.0203C59.5881 21.0003 59.6555 20.9954 59.7138 20.9858C59.843 20.9644 59.9735 20.9493 60.1048 20.9424C60.175 20.9382 60.2445 20.9382 60.3147 20.9362C60.3224 20.9362 60.3245 20.9355 60.3301 20.9355C60.3407 20.9362 60.354 20.9375 60.3751 20.9389C60.5056 20.9479 60.6362 20.9637 60.7646 20.9872C60.8334 20.9996 60.9015 21.0141 60.9696 21.0313C60.9963 21.0382 61.023 21.0451 61.0504 21.0527C61.0553 21.054 61.0532 21.0534 61.0588 21.0554C61.0609 21.0561 61.063 21.0561 61.0644 21.0561C61.0665 21.0568 61.0686 21.0575 61.0707 21.0575C61.0679 21.0568 61.0693 21.0568 61.0665 21.0561C61.3894 21.1575 61.7846 21.0775 61.925 20.7348C62.0457 20.4405 61.9468 19.9965 61.5993 19.8841Z" fill="#DD4040"/>
<path d="M61.3089 24.6333C61.2408 24.1038 60.8772 23.4888 60.2678 23.4744C60.0151 23.4682 59.7582 23.575 59.6241 23.7929C59.4486 24.0797 59.4823 24.4375 59.5034 24.7567C59.5111 24.8704 59.3995 24.967 59.2893 24.967C59.1672 24.967 59.0822 24.8704 59.0752 24.7567C59.0478 24.3382 59.0366 23.8804 59.2942 23.5212C59.5132 23.2158 59.8895 23.0435 60.2678 23.0531C60.6476 23.0628 61.0126 23.2489 61.264 23.5247C61.5476 23.8349 61.6844 24.2258 61.7371 24.6333C61.7518 24.7463 61.6283 24.8436 61.523 24.8436C61.3952 24.8442 61.3229 24.747 61.3089 24.6333Z" fill="black"/>
<path d="M69.1412 24.022C69.0731 23.4925 68.7095 22.8775 68.1002 22.863C67.8474 22.8568 67.5905 22.9637 67.4571 23.1815C67.2817 23.4677 67.3153 23.8262 67.3364 24.1454C67.3441 24.2591 67.2325 24.3556 67.1223 24.3556C67.0002 24.3556 66.9159 24.2591 66.9082 24.1454C66.8808 23.7269 66.8696 23.2691 67.1272 22.9099C67.3462 22.6045 67.7225 22.4321 68.1008 22.4418C68.4806 22.4514 68.8456 22.6376 69.097 22.9134C69.3806 23.2236 69.5174 23.6145 69.5701 24.022C69.5848 24.135 69.4613 24.2322 69.356 24.2322C69.2275 24.2322 69.1559 24.135 69.1412 24.022Z" fill="black"/>
<path d="M62.3917 28.305C62.6746 27.9231 63.3408 28.3747 64.1593 28.4815C64.9778 28.5884 65.7416 28.3243 65.9121 28.7663C66.1284 29.3247 65.246 30.5277 63.9052 30.3519C62.5644 30.1761 62.0344 28.7883 62.3917 28.305Z" fill="#8E4136"/>
<path d="M62.3887 29.1816C62.6491 29.183 62.9257 29.1989 63.2142 29.2361C64.1668 29.3609 64.9565 29.6601 65.2991 29.9855C64.9446 30.2496 64.4693 30.4261 63.9042 30.3516C63.0998 30.2468 62.5922 29.7035 62.3887 29.1816Z" fill="#C16B5B"/>
<path d="M64.0979 28.9336C63.3672 28.8377 62.7698 28.5861 62.5957 28.169C62.9362 28.0835 63.4984 28.3951 64.1597 28.4813C64.821 28.5682 65.4464 28.4124 65.7525 28.582C65.4724 28.9405 64.8287 29.0294 64.0979 28.9336Z" fill="#E1EFF0"/>
<path d="M45.1045 29.3257C46.5407 30.748 48.6361 30.9934 49.786 29.8738C50.9351 28.7542 50.7027 26.6942 49.2672 25.2719C47.831 23.8496 45.7356 23.6042 44.5857 24.7238C43.4366 25.8427 43.669 27.9034 45.1045 29.3257Z" fill="#FFCAAE"/>
<path d="M45.5017 25.4017C46.0324 25.068 46.7743 25.0204 47.484 25.2769C47.8385 25.4044 48.1018 25.5734 48.2899 25.7926C48.5398 26.0835 48.6346 26.4669 48.5377 26.793C48.4514 27.0853 48.2373 27.288 48.0477 27.4672C47.9108 27.5968 47.781 27.7188 47.7136 27.8581C47.6104 28.0718 47.6651 28.3545 47.8413 28.5158C48.0168 28.6765 48.3082 28.7096 48.518 28.593C48.6416 28.5241 48.7974 28.5668 48.8676 28.6875C48.9371 28.8081 48.8943 28.9619 48.7715 29.0308C48.6367 29.106 48.4872 29.1487 48.3348 29.1611C48.0316 29.1859 47.7178 29.0901 47.4925 28.884C47.1541 28.5737 47.053 28.0518 47.2517 27.6416C47.3591 27.4203 47.536 27.2528 47.6925 27.1046C47.8498 26.9563 47.9979 26.8157 48.0463 26.6516C48.0948 26.4875 48.0372 26.2773 47.8982 26.1159C47.8427 26.0511 47.769 25.9939 47.6883 25.9401C47.4342 25.9588 47.1239 26.0615 46.9786 26.2462C46.8144 26.4551 46.7533 26.7433 46.8186 26.9984C46.853 27.1328 46.7701 27.2693 46.6325 27.3038C46.6192 27.3073 46.6052 27.3093 46.5911 27.3107C46.4683 27.3211 46.3532 27.2425 46.3223 27.1211C46.2177 26.7144 46.3117 26.2724 46.5729 25.9388C46.6704 25.8153 46.7982 25.7257 46.933 25.6513C46.5013 25.574 46.0864 25.6306 45.7775 25.8243C45.3957 26.0642 45.1401 26.624 45.3823 27.0425C45.4518 27.1639 45.409 27.3169 45.2862 27.3859C45.1626 27.4541 45.0075 27.4121 44.9373 27.2914C44.5849 26.682 44.8432 25.816 45.5017 25.4017Z" fill="#C16B5B"/>
<path d="M73.2002 80.6784L75.2696 93.288C85.0046 97.579 97.3825 94.1132 97.3825 94.1132L99.8752 80.6777H73.2002V80.6784Z" fill="#3E9D64"/>
<path d="M74.0167 81.471C70.9695 81.7743 56.6604 80.4141 56.6604 80.4141L55.7773 83.6399C64.4334 83.3365 74.7341 86.2859 74.7341 86.2859C75.1981 84.9519 74.0167 81.471 74.0167 81.471Z" fill="#32836B"/>
<path d="M99.8745 80.6787C99.8745 80.9448 99.2287 81.1951 98.0985 81.4123C95.7939 81.8501 91.4803 82.1458 86.5384 82.1458C82.0745 82.1458 78.1259 81.9045 75.7041 81.5343C74.1282 81.293 73.2002 80.9972 73.2002 80.6794C73.2002 80.1134 76.1043 79.6232 80.3589 79.3778C81.4982 79.3123 82.7344 79.2647 84.0373 79.2358C84.848 79.2199 85.6841 79.2109 86.5391 79.2109C93.9035 79.2096 99.8745 79.8666 99.8745 80.6787Z" fill="#32836B"/>
<path d="M98.0975 81.4135C95.7929 81.8513 91.4793 82.147 86.5374 82.147C82.0735 82.147 78.1249 81.9057 75.7031 81.5355C75.7242 81.1991 75.9972 80.8674 76.3349 80.7365C76.7828 80.5648 77.2861 80.651 77.7592 80.7385C78.2323 80.8268 78.7356 80.9102 79.1814 80.7365C79.7605 80.511 80.0799 79.9312 80.3579 79.3783C80.3853 79.3197 80.4155 79.2632 80.4428 79.2066C80.744 78.602 81.1778 77.9477 81.8559 77.8574C82.4463 77.7809 82.9931 78.1663 83.4087 78.5861C83.6179 78.8005 83.82 79.0308 84.0355 79.2356C84.2468 79.4362 84.4764 79.6148 84.748 79.7271C85.2282 79.9278 85.7771 79.9029 86.2643 80.0884C87.0456 80.3814 87.6037 81.1894 88.4376 81.2659C89.1199 81.3294 89.7243 80.8757 90.2733 80.4697C90.8201 80.0657 91.4905 79.6644 92.1504 79.8492C92.7821 80.0229 93.1816 80.6841 93.8161 80.8461C94.5097 81.0219 95.1857 80.5503 95.8884 80.4241C96.7356 80.2739 97.6475 80.6958 98.0975 81.4135Z" fill="#FFC612"/>
<path d="M86.1234 80.6798C86.1234 81.1265 85.5457 81.4885 84.8332 81.4885C84.1207 81.4885 83.543 81.1265 83.543 80.6798C83.543 80.233 84.1207 79.8711 84.8332 79.8711C85.5457 79.8711 86.1234 80.2337 86.1234 80.6798Z" fill="#DD4040"/>
<path d="M90.6013 80.7278C91.1518 80.7278 91.5981 80.4481 91.5981 80.1031C91.5981 79.7582 91.1518 79.4785 90.6013 79.4785C90.0508 79.4785 89.6045 79.7582 89.6045 80.1031C89.6045 80.4481 90.0508 80.7278 90.6013 80.7278Z" fill="#DD4040"/>
<path d="M79.0661 80.7278C79.6167 80.7278 80.0629 80.4481 80.0629 80.1031C80.0629 79.7582 79.6167 79.4785 79.0661 79.4785C78.5156 79.4785 78.0693 79.7582 78.0693 80.1031C78.0693 80.4481 78.5156 80.7278 79.0661 80.7278Z" fill="#DD4040"/>
<path d="M94.3743 81.4462C94.6441 81.4462 94.8629 81.3091 94.8629 81.1401C94.8629 80.971 94.6441 80.834 94.3743 80.834C94.1045 80.834 93.8857 80.971 93.8857 81.1401C93.8857 81.3091 94.1045 81.4462 94.3743 81.4462Z" fill="#DD4040"/>
<path d="M43.1164 46.0781C32.7861 49.2164 22.411 68.219 16.8106 76.9237C13.1028 82.6873 15.5787 90.9093 23.2056 90.8852C28.7596 90.8673 58.5156 86.91 58.5156 86.91V79.7089L32.0034 78.5569L40.4966 67.7391L43.1164 46.0781Z" fill="#FFCAAE"/>
<path d="M69.4903 86.6135C70.5875 85.7828 71.1652 84.0461 67.9235 82.8472C67.9235 82.8472 67.5634 80.943 66.0232 80.2074C64.6158 79.5352 61.2905 79.5773 58.5023 79.711L56.7256 86.4095C59.3229 86.6108 63.0012 90.4378 63.3627 90.6308C64.1798 91.0686 65.4932 91.4836 66.111 90.1468C66.7526 90.2627 67.9923 89.4498 67.9761 88.2095C67.9747 88.2102 69.3056 88.0572 69.4903 86.6135Z" fill="#FFCAAE"/>
<path d="M43.2614 46.0371C34.4362 48.1578 19.5684 69.0529 19.5684 69.0529C23.2635 75.217 35.3108 76.7475 35.3108 76.7475L40.2401 69.8553L43.2614 46.0371Z" fill="#7FEFD4"/>
<path d="M137.737 110.194L136.505 113.997H26.0618L10.0477 101.496L9.2832 96.7129L17.9821 97.625H17.9884L31.6333 99.0583L36.6426 99.5857L37.0596 99.6292L39.4793 99.8836L42.3791 100.194H42.417L54.849 101.497L59.2328 101.956L60.1173 102.049L76.9211 103.811C76.9211 103.811 76.9211 103.817 76.9275 103.811L81.3365 104.277H81.3429L82.8844 104.438L82.9918 104.45L86.9081 104.86L91.9869 105.393L97.3437 105.958H97.35L113.004 107.602L115 107.807L137.737 110.194Z" fill="#7FEFD4"/>
<path d="M9.28516 96.7148H111.064L137.739 110.194H26.3536L9.28516 96.7148Z" fill="#9EF4D0"/>
<path d="M60.1106 103.315C60.0425 105.397 53.5829 106.883 45.6822 106.634C37.7815 106.386 31.4322 104.497 31.4996 102.415C31.5676 100.333 38.0272 98.8467 45.9279 99.0956C53.8293 99.3444 60.1787 101.233 60.1106 103.315Z" fill="#7FEFD4"/>
<path d="M57.208 103.224C57.1595 104.711 52.0155 105.756 45.7181 105.558C39.4207 105.36 34.3552 103.994 34.4037 102.507C34.4521 101.02 39.5962 99.9746 45.8936 100.172C52.191 100.37 57.2564 101.737 57.208 103.224Z" stroke="#9EF4D0" stroke-width="0.701973" stroke-miterlimit="10"/>
<path d="M51.0609 103.031C51.0384 103.716 48.6679 104.198 45.7652 104.107C42.8632 104.016 40.5285 103.386 40.5509 102.701C40.5734 102.015 42.944 101.533 45.8466 101.624C48.7486 101.715 51.0834 102.345 51.0609 103.031Z" fill="#9EF4D0"/>
<path d="M102.948 103.264C102.884 105.23 96.7849 106.633 89.3265 106.398C81.868 106.164 75.8731 104.381 75.937 102.416C76.0009 100.45 82.0997 99.047 89.5581 99.2814C97.0166 99.5158 103.012 101.299 102.948 103.264Z" fill="#7FEFD4"/>
<path d="M100.207 103.179C100.161 104.583 95.3047 105.569 89.359 105.383C83.414 105.196 78.6315 103.906 78.6771 102.502C78.7227 101.098 83.5797 100.111 89.5247 100.298C95.4704 100.485 100.252 101.775 100.207 103.179Z" stroke="#9EF4D0" stroke-width="0.701973" stroke-miterlimit="10"/>
<path d="M94.404 102.997C94.3829 103.644 92.1443 104.098 89.4045 104.012C86.6647 103.926 84.4605 103.332 84.4816 102.684C84.5027 102.037 86.7406 101.583 89.4811 101.669C92.2209 101.755 94.4251 102.349 94.404 102.997Z" fill="#9EF4D0"/>
<path d="M30.9707 85.9746L31.8587 103.589C46.153 106.837 60.0036 103.589 60.0036 103.589L61.3353 85.9746H30.9707Z" fill="#49B675"/>
<path d="M30.0391 85.5496L30.2391 87.1194C48.2181 89.7682 62.002 87.1194 62.002 87.1194L62.313 85.5496C55.8759 81.1786 38.474 80.2631 30.0391 85.5496Z" fill="#60EA6E"/>
<path d="M46.1542 83.6647C48.0419 83.6647 49.5721 82.7276 49.5721 81.5716C49.5721 80.4156 48.0419 79.4785 46.1542 79.4785C44.2666 79.4785 42.7363 80.4156 42.7363 81.5716C42.7363 82.7276 44.2666 83.6647 46.1542 83.6647Z" fill="#60EA6E"/>
<path d="M36.7397 89.97C36.6554 89.4833 35.9008 89.6901 35.985 90.1741C36.1598 91.1779 35.474 92.0962 34.6141 92.5581C33.7668 93.0131 32.6479 93.18 31.7058 92.958C30.8529 92.7574 29.9804 92.0617 30.0765 91.1117C30.1825 90.0686 31.3668 89.6529 32.2625 89.5233C32.7588 89.4516 32.5482 88.7111 32.0547 88.7821C31.0797 88.9235 30.0829 89.3337 29.5739 90.2127C29.0818 91.0628 29.2875 92.059 29.9102 92.7836C31.2327 94.3251 34.0504 94.0135 35.5309 92.8808C36.4364 92.1893 36.9348 91.0931 36.7397 89.97Z" fill="#60EA6E"/>
<path opacity="0.2" d="M77.2786 76.2475C76.1014 75.5071 74.9319 74.3026 75.2092 72.9569C75.3615 72.2171 75.9421 71.6173 76.6138 71.2499C77.2856 70.8824 78.0473 70.7135 78.7977 70.5487C80.4473 70.1861 82.097 69.8235 83.7459 69.4608C84.9428 69.1975 86.3355 68.7679 86.7089 67.6201C86.9813 66.7838 86.5629 65.8551 85.922 65.2436C85.2811 64.6321 84.4472 64.2639 83.6525 63.8634C82.6326 63.3498 81.607 62.7224 81.0384 61.7448C80.4698 60.7672 80.5287 59.3559 81.4483 58.6837C82.2493 58.0991 83.4384 58.2163 84.1952 57.5779C84.9301 56.9574 84.9807 55.8323 84.6725 54.9298C84.3643 54.0274 83.7733 53.2456 83.3837 52.3741C82.9941 51.5027 82.8319 50.4299 83.371 49.6399C83.8147 48.9891 84.6557 48.6781 85.4524 48.696C86.2498 48.714 87.0122 49.0166 87.7198 49.3786C88.3628 49.7081 88.9903 50.1011 89.4424 50.6581C89.8945 51.2152 90.15 51.9625 89.9745 52.6533C89.7014 53.7295 88.4947 54.4045 88.2673 55.4917C88.0799 56.3886 88.6492 57.3063 89.4199 57.8206C90.1907 58.3356 91.13 58.5321 92.0425 58.7189C94.4531 59.2111 96.863 59.7027 99.2728 60.195C100.557 60.4576 101.872 60.7306 102.988 61.409C104.105 62.0867 105.001 63.2622 104.962 64.55C104.925 65.7841 104.038 66.8713 102.958 67.5042C101.879 68.1378 100.622 68.3977 99.3908 68.648C96.1484 69.3078 92.9052 69.9675 89.6628 70.6273C89.1532 70.7307 88.6281 70.8411 88.1999 71.132C87.7717 71.4229 87.4621 71.9448 87.5857 72.4419C87.7556 73.1265 88.5951 73.4029 89.3111 73.4471C90.7102 73.5319 92.3795 73.8869 91.7547 75.6801C91.1889 77.3023 89.2957 78.6619 87.5836 78.8087C85.795 78.9625 83.9017 78.5523 82.1658 78.1579C80.4529 77.7691 78.7654 77.1831 77.2786 76.2475Z" fill="white"/>
<g opacity="0.2">
<path d="M83.1098 64.9123C82.3257 64.1774 81.3156 63.6776 80.2472 63.497C79.8169 63.4239 79.2574 63.4735 79.1107 63.8775C78.9268 64.3856 79.6049 64.8489 79.5663 65.3874C79.5284 65.9037 78.8811 66.1581 78.6755 66.6345C78.5505 66.9241 78.6102 67.2674 78.7716 67.5384C78.9331 67.8093 79.1858 68.0175 79.4525 68.1906C80.1047 68.6125 80.8937 68.8559 81.6708 68.78C82.4479 68.7042 83.2032 68.285 83.5935 67.6211C83.9838 66.9565 83.955 66.0533 83.4552 65.4639L83.1098 64.9123Z" fill="white"/>
<path d="M94.721 52.8338C94.9582 52.1692 95.6181 51.628 95.0418 50.94C94.5609 50.3657 93.8786 50.3099 93.2588 50.687C91.9924 51.4578 90.8391 53.2461 91.0658 54.7408C91.1844 55.524 91.7334 56.2693 92.5091 56.4844C93.456 56.747 94.5567 56.0617 94.7189 55.1083C94.8473 54.3554 94.464 53.555 94.721 52.8338Z" fill="white"/>
</g>
<path d="M114.003 61.699C112.707 61.699 111.657 60.6676 111.657 59.3949V59.0488H116.349V59.3949C116.349 60.6676 115.299 61.699 114.003 61.699Z" fill="#276945"/>
<path d="M114.999 59.4805H113.006V114.437H114.999V59.4805Z" fill="#276945"/>
<path d="M100.862 58.493C103.154 58.493 105.012 55.6758 105.012 52.2006C105.012 48.7254 103.154 45.9082 100.862 45.9082C98.57 45.9082 96.7119 48.7254 96.7119 52.2006C96.7119 55.6758 98.57 58.493 100.862 58.493Z" fill="#3E9D64"/>
<path d="M100.862 58.4922H105.497V45.9074H100.862V58.4922Z" fill="#3E9D64"/>
<path d="M101.433 59.4473H122.789V45.3368H101.433V59.4473Z" fill="#32836B"/>
<path d="M103.326 59.4473H124.682V45.3368H103.326V59.4473Z" fill="#3E9D64"/>
<path d="M108.264 57.748H123.422V47.0344H108.264V57.748Z" fill="#DCFFE6"/>
<path d="M114.404 45.3359H121.915V42.8706H114.404V45.3359Z" fill="#32836B"/>
<path d="M115.46 45.3359H122.971V42.8706H115.46V45.3359Z" fill="#3E9D64"/>
<path d="M116.613 45.0273H121.818V43.1811H116.613V45.0273Z" fill="#DCFFE6"/>
<path d="M103.969 48.787C103.969 49.7542 104.768 50.5388 105.752 50.5388C106.737 50.5388 107.536 49.7542 107.536 48.787C107.536 47.8197 106.737 47.0352 105.752 47.0352C104.768 47.0352 103.969 47.819 103.969 48.787Z" fill="#DCFFE6"/>
<path d="M104.332 52.1112H107.172C107.302 52.1112 107.408 52.0071 107.408 51.8788C107.408 51.7506 107.302 51.6465 107.172 51.6465H104.332C104.202 51.6465 104.096 51.7506 104.096 51.8788C104.096 52.0071 104.202 52.1112 104.332 52.1112Z" fill="#DCFFE6"/>
<path d="M104.332 53.3436H107.172C107.302 53.3436 107.408 53.2395 107.408 53.1112C107.408 52.983 107.302 52.8789 107.172 52.8789H104.332C104.202 52.8789 104.096 52.983 104.096 53.1112C104.096 53.2395 104.202 53.3436 104.332 53.3436Z" fill="#DCFFE6"/>
<path d="M104.332 54.578H107.172C107.302 54.578 107.408 54.4738 107.408 54.3456C107.408 54.2174 107.302 54.1133 107.172 54.1133H104.332C104.202 54.1133 104.096 54.2174 104.096 54.3456C104.096 54.4738 104.202 54.578 104.332 54.578Z" fill="#DCFFE6"/>
<path d="M104.332 55.8123H107.172C107.302 55.8123 107.408 55.7082 107.408 55.58C107.408 55.4518 107.302 55.3477 107.172 55.3477H104.332C104.202 55.3477 104.096 55.4518 104.096 55.58C104.096 55.7082 104.202 55.8123 104.332 55.8123Z" fill="#DCFFE6"/>
<path d="M114.124 91.1287H113.884C112.795 91.1287 111.912 90.2621 111.912 89.1921V78.5577C111.912 77.4884 112.794 76.6211 113.884 76.6211H114.124C115.213 76.6211 116.096 77.4877 116.096 78.5577V89.1921C116.095 90.2621 115.213 91.1287 114.124 91.1287Z" fill="#276945"/>
<path d="M122.525 60.6411C122.365 60.235 122.183 59.8379 121.988 59.4463H121.01C121.016 59.4987 121.031 59.5532 121.06 59.6083C122.984 63.2919 123.209 67.8842 121.427 71.6657C119.762 75.1983 116.37 77.825 112.487 78.6068C108.725 79.3638 104.816 78.0828 102.157 75.3858C100.865 74.0759 99.914 72.4592 99.4781 70.6832C98.9004 68.333 99.1854 65.8821 99.7455 63.5567C100.875 58.8679 103.257 54.3018 102.906 49.3683C102.863 48.7678 102.778 48.1694 102.652 47.5799C102.532 47.016 101.653 47.2545 101.773 47.8178C102.848 52.8706 100.34 57.7682 99.0639 62.5418C98.4195 64.9521 98.0243 67.4616 98.4048 69.9462C98.7157 71.9766 99.6192 73.8532 100.962 75.4203C103.526 78.4131 107.575 80.0946 111.548 79.6513C115.661 79.1921 119.474 76.7653 121.594 73.272C123.878 69.5119 124.126 64.6963 122.525 60.6411Z" fill="#49B675"/>
<path d="M175.051 55.3955C175.536 70.2505 183.953 84.5319 196.622 93.8619C209.292 103.192 225.897 107.66 242.162 107.097C253.785 106.694 265.489 103.721 274.893 97.4724C283.673 91.6378 290.129 83.1455 293.943 73.8624C297.756 64.5793 299.02 54.5268 298.574 44.6198C298.324 39.0533 297.502 33.3773 294.73 28.4148C291.957 23.4524 286.94 19.2751 280.911 18.4251C267.588 16.5464 258.165 29.1422 245.186 29.3104C237.113 29.4152 231.758 23.3393 224.946 20.452C217.037 17.1 207.73 15.069 199.086 16.9207C181.017 20.7926 174.564 40.4935 175.051 55.3955Z" fill="#DCFFE6"/>
<path d="M273.428 97.2776C273.903 95.1859 275.186 93.1549 277.196 92.3186C278.703 91.6912 280.415 91.8009 282.034 92.0366C283.652 92.2724 285.283 92.6247 286.91 92.4475C288.537 92.2704 290.208 91.4348 290.84 89.9518C291.487 88.433 290.907 86.717 290.672 85.0865C290.192 81.7594 291.281 78.2447 293.569 75.7449C295.087 74.0861 297.151 72.8589 299.401 72.5659C301.652 72.2729 304.073 72.9906 305.604 74.6363C307.136 76.2819 307.626 78.8652 306.584 80.8466C305.873 82.1972 304.588 83.1451 303.458 84.1848C302.329 85.2244 301.268 86.535 301.258 88.0552C301.248 89.5326 302.234 90.8543 302.391 92.3234C302.639 94.6592 300.651 96.7806 298.375 97.5031C296.1 98.2256 293.629 97.8706 291.282 97.4204C288.935 96.9702 286.539 96.4276 284.177 96.7971C282.586 97.046 280.945 97.8278 280.284 99.2715C279.587 100.794 280.128 102.694 279.282 104.141C278.183 106.02 274.977 106.07 273.792 104.243C272.651 102.485 273 99.1646 273.428 97.2776Z" fill="#9EF4D0"/>
<path d="M275.462 102.631C275.258 100.01 275.1 96.8478 277.319 94.9381C279.649 92.9333 282.99 93.7496 285.76 93.9543C287.208 94.0612 288.707 93.9902 290.022 93.3263C291.337 92.663 292.071 91.4717 292.253 90.0536C292.42 88.7519 292.229 87.4393 292.194 86.1349C292.154 84.674 292.31 83.2131 292.646 81.7901C293.28 79.0993 294.785 75.0675 298.237 75.1882C298.461 75.1958 298.429 75.537 298.205 75.5288C294.975 75.4157 293.588 79.3392 292.99 81.8336C292.645 83.2744 292.495 84.7629 292.543 86.2424C292.584 87.4786 292.752 88.723 292.616 89.9591C292.492 91.078 292.079 92.1473 291.223 92.9236C290.341 93.7234 289.144 94.1301 287.969 94.2742C285.034 94.6341 282.014 93.3414 279.133 94.3156C277.607 94.832 276.577 96.0033 276.081 97.4904C275.534 99.1264 275.673 100.882 275.805 102.57C275.822 102.788 275.479 102.85 275.462 102.631Z" fill="#DCFFE6"/>
<path d="M266.857 95.1505C268.067 94.4734 269.445 94.1522 270.729 93.622C272.013 93.0918 273.277 92.2687 273.801 91.0015C274.509 89.2897 273.672 87.3717 272.836 85.7164C272.001 84.0611 271.133 82.1679 271.786 80.4354C272.827 77.6756 276.804 77.3543 278.735 75.1048C280.767 72.7366 279.921 69.0964 281.109 66.227C282.45 62.9867 286.566 61.248 289.97 62.2753C293.375 63.3018 295.75 66.7793 295.708 70.2767C295.666 73.7742 293.377 77.0806 290.205 78.6725C288.542 79.5074 286.446 80.1265 285.834 81.8604C285.339 83.2613 286.079 84.7739 286.885 86.0273C287.692 87.28 288.626 88.6009 288.547 90.0811C288.457 91.7578 287.044 93.1222 285.476 93.7909C283.908 94.4597 282.169 94.5996 280.491 94.9216C278.813 95.2435 277.079 95.8151 275.976 97.0967C274.928 98.3128 274.612 99.973 273.812 101.358C272.829 103.056 271.078 104.307 269.131 104.702C266.828 105.168 263.331 104.615 263.197 101.863C263.065 99.1988 264.477 96.481 266.857 95.1505Z" fill="#BDFACE"/>
<path d="M269.784 102.066C270.179 99.3566 271.69 96.8754 273.873 95.1835C274.935 94.361 276.148 93.7337 277.447 93.3614C278.894 92.947 280.475 92.8595 281.817 92.1397C285.144 90.3576 283.01 86.3665 282.49 83.7025C282.194 82.1851 282.392 80.7139 283.336 79.4488C284.265 78.2037 285.603 77.364 286.887 76.5132C288.409 75.5046 289.853 74.3877 290.527 72.6504C291.155 71.0323 291.102 69.2019 290.352 67.6327C290.257 67.4335 290.571 67.286 290.667 67.4852C291.917 70.0988 291.277 73.2516 289.157 75.2323C286.893 77.3474 282.792 78.6077 282.695 82.2223C282.618 85.1214 285.122 88.2162 283.473 91.0463C282.753 92.281 281.372 92.8029 280.034 93.1228C278.564 93.4744 277.107 93.7026 275.748 94.3948C272.777 95.9067 270.606 98.8375 270.131 102.096C270.099 102.315 269.753 102.285 269.784 102.066Z" fill="#DCFFE6"/>
<path d="M255.778 51.5996C250.059 52.4621 239.954 76.5064 239.954 76.5064L231.543 52.1822L223.975 54.7613C223.975 54.7613 230.259 77.4744 231.903 84.1715C233.546 90.8685 245.504 93.2222 248.685 86.0343C251.866 78.8464 255.778 63.5156 255.778 63.5156V51.5996Z" fill="#855B45"/>
<path d="M282.625 105.688C249.431 108.534 243.397 103.506 243.397 103.506C243.688 101.968 250.113 81.4771 250.113 81.4771C244.829 79.1172 243.671 67.166 252.705 62.4076L255.784 51.5933L263.378 49.7305L272.991 50.5964L280.833 53.9491L277.588 93.5392C280.879 97.7592 282.625 105.688 282.625 105.688Z" fill="#32836B"/>
<path d="M275.748 11.0137C275.325 10.4552 274.741 10.0175 274.062 9.81064C272.926 9.46386 271.704 9.7155 270.53 9.90716C269.45 10.0836 268.317 10.1884 267.285 9.75617C266.345 9.36182 265.617 8.56692 264.819 7.95402C263.725 7.11223 262.285 6.42763 260.98 6.89713C258.977 7.61827 258.683 10.2588 256.417 10.6186C255.817 10.7138 255.204 10.6841 254.599 10.7352C252.597 10.9041 250.699 12.0099 249.588 13.6535C248.477 15.2971 248.176 17.4446 248.794 19.3226C249.049 20.0975 249.737 21.171 249.568 22.0155C249.44 22.6532 248.677 23.2903 248.205 23.7253C247.057 24.7842 245.562 25.7226 245.078 27.2813C244.419 29.4013 246.006 31.6364 245.699 33.8323C245.279 36.8354 241.487 38.8437 241.762 41.8627C241.917 43.5614 243.422 44.901 245.069 45.4435C246.715 45.9861 248.497 45.8979 250.233 45.8407C251.969 45.7834 253.767 45.7738 255.36 46.4529C257.139 47.2112 258.439 48.7286 259.929 49.9476C261.42 51.1665 263.423 52.1399 265.254 51.5119C267.452 50.7576 268.357 48.0944 270.378 46.9575C272.217 45.922 274.504 46.3756 276.603 46.6769C278.701 46.9782 281.172 46.9589 282.527 45.3574C283.573 44.1205 283.581 42.3425 283.377 40.7472C283.172 39.1519 282.812 37.5014 283.297 35.966C283.916 34.0053 285.854 32.4451 285.778 30.3941C285.717 28.7478 284.316 27.5475 283.376 26.3106C282.244 24.8208 281.752 23.3709 281.625 21.5053C281.493 19.5908 281.528 17.548 280.48 15.9279C279.612 14.5863 278.028 13.7211 276.41 13.7052C276.603 12.769 276.326 11.7783 275.748 11.0137Z" fill="#3B1B18"/>
<path d="M251.907 32.5418C251.912 32.6073 251.922 32.6728 251.928 32.739C251.938 32.8169 251.943 32.8824 251.954 32.9596C252.426 36.6494 253.822 38.968 255.737 40.6812C256.764 41.605 257.716 42.2834 258.554 42.8873C258.823 43.0824 259.075 43.2658 259.32 43.4492C259.512 43.5899 259.691 43.736 259.876 43.8877C261.748 45.392 262.815 47.0611 262.641 51.8953C264.166 56.0802 270.557 56.8785 272.795 52.2532C272.939 46.3993 274.25 41.3885 275.364 38.1675C275.646 37.3264 275.92 36.6108 276.155 36.0365C276.6 34.9362 276.914 34.3343 276.914 34.3343C276.914 34.3343 277.101 21.4642 275.339 17.9833C271.046 9.58537 254.833 11.837 253.344 18.3576C251.913 24.5886 251.539 29.1333 251.907 32.5418Z" fill="#855B45"/>
<path d="M251.031 23.6483C254.862 22.6928 258.196 19.9737 259.856 16.4514C260.568 18.5142 262.089 20.3432 263.951 21.5263C265.813 22.7093 268.087 23.254 270.294 23.0458C270.366 25.2368 271.198 27.3616 272.658 29.019C274.118 30.6763 276.169 31.8215 278.366 32.2069C278.624 27.2458 277.65 22.2316 275.426 17.7703C274.73 16.3728 273.89 14.9954 272.637 14.0433C270.654 12.5355 267.982 12.3266 265.479 12.177C263.423 12.0543 261.35 11.9323 259.313 12.2308C257.277 12.5293 255.252 13.2856 253.782 14.701C251.466 16.9313 251.306 20.4749 251.031 23.6483Z" fill="#3B1B18"/>
<path d="M259.31 31.3968C259.076 31.2844 258.828 31.2196 258.567 31.2085C258.335 31.1989 258.08 31.2334 257.889 31.374C257.685 31.525 257.585 31.7559 257.569 32.0021C257.554 32.2379 257.637 32.4688 257.729 32.6818C257.779 32.7963 257.894 32.8914 258.03 32.8473C258.142 32.8108 258.252 32.6756 258.198 32.5522C258.13 32.3964 258.056 32.2268 258.055 32.0545C258.054 31.9662 258.076 31.8759 258.129 31.8035C258.126 31.8083 258.123 31.8125 258.12 31.8173C258.168 31.7401 258.263 31.7111 258.348 31.6946C258.354 31.6932 258.361 31.6925 258.371 31.6911C258.389 31.6904 258.407 31.6877 258.426 31.687C258.474 31.6842 258.523 31.6842 258.572 31.6863C258.596 31.6877 258.621 31.6891 258.646 31.6911C258.659 31.6918 258.66 31.6918 258.664 31.6918C258.669 31.6925 258.669 31.6932 258.68 31.6946C258.832 31.7187 258.962 31.7773 259.106 31.8249C259.215 31.8607 259.346 31.827 259.401 31.7228C259.457 31.6146 259.432 31.4554 259.31 31.3968Z" fill="#3B1B18"/>
<path d="M253.796 25.7621C254.958 24.9058 256.481 24.6169 257.87 25.083C258.21 25.1974 258.447 25.5821 258.318 25.9303C258.15 26.3819 257.734 26.4425 257.318 26.326C256.464 26.0882 255.562 26.2233 254.815 26.6948C254.791 26.71 254.767 26.7266 254.728 26.7521C254.441 26.9596 254.021 27.0106 253.764 26.7155C253.543 26.4632 253.489 25.9889 253.796 25.7621Z" fill="#3B1B18"/>
<path d="M262.172 25.2214C263.559 24.7995 265.092 25.0311 266.24 25.9295C266.52 26.1494 266.612 26.5906 266.37 26.8754C266.136 27.1511 265.708 27.2394 265.407 27.0036C265.066 26.7368 264.674 26.5465 264.255 26.4286C264.273 26.4362 264.29 26.4445 264.309 26.452C263.786 26.3176 263.261 26.3397 262.737 26.4548C262.38 26.5334 261.963 26.4955 261.813 26.1087C261.692 25.7971 261.805 25.3331 262.172 25.2214Z" fill="#3B1B18"/>
<path d="M264.873 29.9282C264.905 30.5301 264.434 31.0437 263.82 31.0747C263.207 31.1057 262.684 30.6431 262.653 30.0406C262.621 29.4387 263.092 28.9251 263.705 28.8941C264.319 28.863 264.842 29.3256 264.873 29.9282Z" fill="black"/>
<path d="M263.68 29.6396C263.689 29.8154 263.552 29.9643 263.373 29.974C263.195 29.9829 263.043 29.8478 263.034 29.6727C263.025 29.4969 263.161 29.348 263.34 29.3383C263.519 29.3293 263.671 29.4645 263.68 29.6396Z" fill="white"/>
<path d="M256.763 29.8533C256.794 30.4552 256.323 30.9688 255.71 30.9999C255.097 31.0309 254.574 30.5683 254.543 29.9664C254.511 29.3645 254.982 28.8509 255.595 28.8199C256.208 28.7882 256.731 29.2515 256.763 29.8533Z" fill="black"/>
<path d="M255.57 29.5634C255.579 29.7392 255.442 29.8881 255.263 29.8978C255.084 29.9068 254.932 29.7716 254.922 29.5965C254.913 29.4214 255.051 29.2718 255.229 29.2621C255.408 29.2532 255.56 29.3883 255.57 29.5634Z" fill="white"/>
<path d="M261.932 34.3699C261.602 33.9652 260.895 34.4947 260.005 34.6539C259.114 34.8132 258.262 34.5629 258.099 35.0559C257.892 35.6791 258.922 36.9525 260.382 36.6912C261.842 36.4292 262.35 34.8808 261.932 34.3699Z" fill="#8E4136"/>
<path d="M261.982 35.3301C261.696 35.3452 261.394 35.3763 261.08 35.4321C260.042 35.6176 259.193 35.9857 258.834 36.3601C259.236 36.6317 259.767 36.7999 260.382 36.6903C261.259 36.5338 261.786 35.912 261.982 35.3301Z" fill="#C16B5B"/>
<path d="M260.095 35.1457C260.891 35.0037 261.533 34.6969 261.701 34.2309C261.324 34.155 260.724 34.5246 260.004 34.6535C259.284 34.7824 258.59 34.6431 258.264 34.8458C258.589 35.2236 259.3 35.2877 260.095 35.1457Z" fill="#E1EFF0"/>
<path d="M280.431 34.7519C278.992 36.3217 276.795 36.6844 275.527 35.562C274.258 34.4396 274.397 32.2569 275.836 30.6871C277.277 29.1172 279.472 28.7539 280.741 29.877C282.009 30.9987 281.871 33.1814 280.431 34.7519Z" fill="#855B45"/>
<path d="M279.81 30.6362C279.234 30.3108 278.45 30.2977 277.715 30.6031C277.348 30.7548 277.079 30.9458 276.891 31.1871C276.643 31.5063 276.563 31.9151 276.682 32.2536C276.788 32.5577 277.024 32.761 277.233 32.9403C277.384 33.0699 277.527 33.1926 277.605 33.336C277.725 33.5559 277.682 33.8565 277.505 34.0358C277.328 34.2143 277.023 34.2633 276.796 34.1502C276.662 34.084 276.5 34.1371 276.432 34.2674C276.365 34.3977 276.418 34.5577 276.552 34.6239C276.698 34.6963 276.857 34.7342 277.018 34.7397C277.339 34.7507 277.665 34.6342 277.892 34.4053C278.232 34.062 278.312 33.507 278.081 33.0844C277.957 32.8569 277.761 32.6887 277.588 32.5404C277.416 32.3922 277.252 32.2516 277.192 32.0813C277.133 31.9103 277.183 31.6862 277.321 31.509C277.376 31.438 277.451 31.3739 277.533 31.3132C277.801 31.3201 278.134 31.4132 278.297 31.6007C278.48 31.8131 278.56 32.1137 278.504 32.386C278.475 32.5301 278.57 32.6693 278.716 32.6983C278.73 32.7017 278.745 32.7031 278.76 32.7031C278.89 32.708 279.007 32.6197 279.034 32.4901C279.123 32.0558 279.001 31.5952 278.709 31.2567C278.6 31.1312 278.461 31.0437 278.314 30.9713C278.765 30.8686 279.205 30.9072 279.541 31.0968C279.955 31.3305 280.254 31.9075 280.02 32.3612C279.953 32.4922 280.006 32.6514 280.139 32.7176C280.273 32.7838 280.435 32.7314 280.502 32.6011C280.843 31.9399 280.525 31.0409 279.81 30.6362Z" fill="#3B1B18"/>
<path d="M217.353 28.0137L206.021 60.9013L237.86 72.0348L248.901 38.3413L217.353 28.0137Z" fill="#DD4040"/>
<path d="M231.555 60.3544C237.489 57.7283 240.132 50.8749 237.458 45.0468C234.784 39.2187 227.806 36.6229 221.872 39.249C215.938 41.8751 213.295 48.7285 215.968 54.5566C218.642 60.3847 225.62 62.9805 231.555 60.3544Z" fill="#32836B"/>
<path d="M226.713 60.04C225.694 60.04 224.658 59.8917 223.635 59.5808C218.143 57.9103 215.059 52.1633 216.76 46.7699C218.461 41.3766 224.312 38.3479 229.804 40.0177C235.295 41.6882 238.38 47.4352 236.679 52.8286C235.295 57.2168 231.163 60.04 226.713 60.04ZM226.725 39.6316C222.307 39.6316 218.204 42.4341 216.831 46.7913C215.142 52.1461 218.204 57.8517 223.657 59.5105C229.108 61.1693 234.918 58.1613 236.607 52.8065C238.296 47.4518 235.234 41.7461 229.781 40.0873C228.766 39.7785 227.736 39.6316 226.725 39.6316Z" fill="#60EA6E"/>
<path d="M226.714 58.3107C225.866 58.3107 225.006 58.1873 224.155 57.9287C219.59 56.5402 217.026 51.7632 218.44 47.2799C219.853 42.7965 224.717 40.2781 229.283 41.6673C233.848 43.0558 236.412 47.8328 234.998 52.3161C233.847 55.9639 230.412 58.3107 226.714 58.3107ZM226.724 41.3591C223.056 41.3591 219.651 43.6852 218.511 47.3019C217.832 49.455 218.048 51.7391 219.118 53.7329C220.187 55.7267 221.984 57.1924 224.177 57.8591C228.702 59.2345 233.524 56.7395 234.926 52.2947C235.605 50.1417 235.389 47.8576 234.32 45.8638C233.25 43.87 231.453 42.4043 229.26 41.7376C228.417 41.4811 227.563 41.3591 226.724 41.3591Z" fill="#60EA6E"/>
<path d="M229.012 50.4957C228.62 51.7394 227.276 52.4358 226.008 52.0504C224.742 51.665 224.033 50.3447 224.426 49.1003C224.818 47.8566 226.163 47.1603 227.429 47.5457C228.696 47.9311 229.404 49.252 229.012 50.4957Z" fill="#BDFACE"/>
<path d="M237.035 64.0216L237.566 62.1953L232.396 62.862L231.908 64.538L231.576 65.6783C231.416 65.5756 231.224 65.4866 231.006 65.4253C230.35 65.2412 229.737 65.3694 229.637 65.7128C229.537 66.0561 229.989 66.4835 230.645 66.6676C231.301 66.8517 231.915 66.7235 232.014 66.3801L232.57 64.4711L236.352 64.0905L235.806 65.9637C235.65 65.8658 235.465 65.7803 235.255 65.7217C234.598 65.5376 233.985 65.6659 233.885 66.0092C233.786 66.3526 234.237 66.78 234.893 66.9641C235.55 67.1481 236.163 67.0199 236.263 66.6766C236.273 66.6428 236.273 66.6069 236.273 66.5718L237.014 64.0244L237.035 64.0216Z" fill="white"/>
<path d="M233.8 59.5892L234.167 58.3262L230.592 58.7867L230.255 59.9456L230.025 60.7343C229.914 60.6633 229.782 60.6013 229.631 60.5592C229.177 60.4317 228.753 60.5206 228.684 60.7578C228.616 60.9949 228.927 61.2907 229.381 61.4182C229.836 61.5458 230.26 61.4568 230.328 61.219L230.712 59.8988L233.327 59.6354L232.95 60.9308C232.842 60.8633 232.714 60.804 232.569 60.7633C232.115 60.6357 231.691 60.7247 231.622 60.9618C231.553 61.199 231.865 61.4948 232.319 61.6223C232.773 61.7499 233.197 61.6609 233.266 61.4238C233.273 61.4003 233.273 61.3755 233.273 61.3514L233.786 59.5892H233.8Z" fill="white"/>
<path d="M280.826 53.9563C288.795 57.4248 275.301 84.7977 272.467 89.8002C270.227 93.754 263.285 94.8226 259.014 91.5148C254.742 88.2069 239.197 65.5407 239.197 65.5407L245.064 61.2704L262.423 80.2385C262.423 80.2385 272.6 50.3754 280.826 53.9563Z" fill="#855B45"/>
<path d="M245.302 61.4958C244.731 60.5602 245.395 56.8642 244.537 56.3803C243.395 55.737 242.617 58.7932 242.617 58.7932C241.43 58.1865 239.918 54.1548 239.688 53.6391C239.294 52.7566 238.157 53.2971 238.176 54.3244C237.606 54.1162 236.993 54.7615 237.047 55.5185C235.864 55.4295 236.03 56.8449 236.03 56.8449C235.25 56.7498 235.008 57.8143 235.034 58.2913C235.051 58.5947 235.081 61.3648 237.155 63.5999C238.635 65.1945 239.389 65.6806 239.389 65.6806L245.302 61.4958Z" fill="#855B45"/>
<path d="M297.094 97.9121L296.293 102.935L279.472 116.067H163.449L162.154 112.073L297.094 97.9121Z" fill="#32836B"/>
<path d="M297.094 97.9121H190.176L162.154 112.073H279.163L297.094 97.9121Z" fill="#3E9D64"/>
<path d="M169.646 107.741L189.947 97.0469L218.117 98.2885L200.836 109.618L169.646 107.741Z" fill="#FFC612"/>
<path d="M169.646 104.991L190.858 96.1641L218.793 99.929L200.531 109.66L169.646 104.991Z" fill="#9EF4D0"/>
<path d="M206.097 102.607C206.097 104.826 201.076 106.624 194.883 106.624C188.689 106.624 183.669 104.826 183.669 102.607C183.669 100.389 188.689 98.5898 194.883 98.5898C201.076 98.5898 206.097 100.389 206.097 102.607Z" fill="#7FEFD4"/>
<path d="M196.538 102.609C196.538 102.937 195.797 103.203 194.883 103.203C193.968 103.203 193.227 102.937 193.227 102.609C193.227 102.282 193.968 102.016 194.883 102.016C195.797 102.016 196.538 102.282 196.538 102.609Z" fill="#9EF4D0"/>
<path d="M212.668 104.129L213.571 110.205L252.184 111.011L266.972 101.073V94.2051L212.668 104.129Z" fill="#7FEFD4"/>
<path d="M212.668 104.129L232.221 93.4785L266.972 94.2052L251.445 104.775L212.668 104.129Z" fill="#9EF4D0"/>
<path d="M240.675 103.517C247.39 103.355 252.783 101.141 252.719 98.5714C252.655 96.0017 247.158 94.0496 240.442 94.2112C233.727 94.3729 228.334 96.5871 228.398 99.1568C228.462 101.727 233.959 103.679 240.675 103.517Z" fill="#7FEFD4"/>
<path d="M251.088 103.606C251.088 103.987 250.278 104.297 249.28 104.297C248.282 104.297 247.473 103.987 247.473 103.606C247.473 103.224 248.282 102.914 249.28 102.914C250.278 102.914 251.088 103.224 251.088 103.606Z" fill="#7FEFD4"/>
<path d="M249.444 103.271C247.656 103.094 245.868 102.916 244.08 102.739C241.233 102.456 238.386 102.173 235.539 101.891C234.889 101.826 234.238 101.762 233.588 101.697C233.666 101.755 233.743 101.813 233.821 101.871C233.506 100.773 233.191 99.6736 232.876 98.5754C232.792 98.2824 232.326 98.4064 232.411 98.7015C232.726 99.7998 233.04 100.899 233.355 101.997C233.386 102.106 233.48 102.16 233.588 102.171C235.376 102.348 237.164 102.526 238.952 102.703C241.799 102.986 244.646 103.268 247.493 103.55C248.143 103.615 248.794 103.679 249.444 103.744C249.753 103.776 249.751 103.301 249.444 103.271Z" fill="#276945"/>
<path d="M233.781 98.6403C233.781 99.2573 233.272 99.7572 232.644 99.7572C232.016 99.7572 231.507 99.2573 231.507 98.6403C231.507 98.0233 232.016 97.5234 232.644 97.5234C233.272 97.5234 233.781 98.0233 233.781 98.6403Z" fill="#276945"/>
<path d="M244.258 103.543L239.41 103.124C239.087 103.097 238.848 102.816 238.876 102.499C238.905 102.182 239.19 101.947 239.513 101.975L244.361 102.394C244.684 102.422 244.923 102.702 244.894 103.019C244.866 103.337 244.581 103.571 244.258 103.543Z" fill="#276945"/>
<path d="M200.23 24.8613C188.231 24.8613 178.505 34.414 178.505 46.1976C178.505 57.9813 188.231 67.5339 200.23 67.5339C212.228 67.5339 221.954 57.9813 221.954 46.1976C221.954 34.414 212.228 24.8613 200.23 24.8613ZM200.23 62.477C191.075 62.477 183.654 55.1884 183.654 46.1976C183.654 37.2069 191.075 29.9183 200.23 29.9183C209.384 29.9183 216.805 37.2069 216.805 46.1976C216.805 55.1884 209.384 62.477 200.23 62.477Z" fill="white"/>
<path d="M185.388 46.0167C183.163 47.6644 181.416 50.0912 181.697 52.9392C181.97 55.7141 183.704 58.1788 186.229 59.437C188.848 60.7414 191.872 60.8297 194.736 61.1006C197.604 61.3722 200.618 61.9114 202.978 63.6466C205.006 65.1386 206.389 67.819 205.798 70.3306C205.241 72.7008 203.009 73.8281 200.875 74.6057C198.818 75.3558 196.483 75.9474 194.949 77.5937C193.07 79.6082 193.093 82.8182 195.148 84.7065C196.263 85.7317 197.689 86.0267 199.165 86.1626C200.59 86.2935 202.09 86.3666 203.256 87.2856C203.746 87.6717 204.137 88.2005 204.212 88.8265C204.309 89.6352 203.89 90.3991 203.534 91.0968C202.729 92.6707 201.924 94.244 201.119 95.8173C200.725 96.5867 200.332 97.3561 199.938 98.1248C199.8 98.3943 200.213 98.6329 200.352 98.3619C201.157 96.7887 201.961 95.2147 202.766 93.6414C203.16 92.872 203.553 92.1026 203.947 91.3339C204.302 90.6404 204.686 89.911 204.702 89.1167C204.727 87.8951 203.821 86.9499 202.77 86.4287C201.443 85.771 199.961 85.8054 198.522 85.6248C197.005 85.4338 195.634 84.8347 194.774 83.5455C193.969 82.3376 193.825 80.8292 194.324 79.4772C195.169 77.1842 197.619 76.2507 199.768 75.4965C201.802 74.7829 204.044 74.0825 205.391 72.3079C206.919 70.2961 206.568 67.5157 205.305 65.4688C203.854 63.1185 201.224 61.8521 198.586 61.2233C195.73 60.5429 192.773 60.6097 189.892 60.0906C188.464 59.8334 187.048 59.4184 185.806 58.6614C184.575 57.9106 183.589 56.831 182.948 55.5556C182.337 54.3422 182.011 52.9123 182.183 51.559C182.361 50.1539 183.113 48.8695 184.064 47.8292C184.538 47.3107 185.066 46.8405 185.632 46.4214C185.873 46.2428 185.635 45.834 185.388 46.0167Z" fill="#276945"/>
<path d="M203.191 57.2243H197.268C196.246 57.2243 195.417 56.4107 195.417 55.4062H205.042C205.042 56.4107 204.213 57.2243 203.191 57.2243Z" fill="#276945"/>
<path d="M188.871 55.4075C187.382 55.4075 186.17 54.2175 186.17 52.7546V42.6607C186.17 41.1978 187.382 40.0078 188.871 40.0078H213.261C214.751 40.0078 215.962 41.1978 215.962 42.6607V52.7546C215.962 54.2175 214.751 55.4075 213.261 55.4075H188.871Z" fill="#32836B"/>
<path d="M188.034 55.4075C186.545 55.4075 185.333 54.2175 185.333 52.7546V42.6607C185.333 41.1978 186.545 40.0078 188.034 40.0078H212.424C213.914 40.0078 215.125 41.1978 215.125 42.6607V52.7546C215.125 54.2175 213.914 55.4075 212.424 55.4075H188.034Z" fill="#3E9D64"/>
<path d="M212.424 40.7441H188.034C186.956 40.7441 186.082 41.6025 186.082 42.6614V52.7553C186.082 53.8142 186.956 54.6733 188.034 54.6733H212.424C213.503 54.6733 214.376 53.8149 214.376 52.7553V42.6614C214.377 41.6025 213.503 40.7441 212.424 40.7441Z" fill="#DCFFE6"/>
<path d="M212.688 52.5117H187.77C187.665 52.5117 187.579 52.5958 187.579 52.6992C187.579 52.8027 187.665 52.8868 187.77 52.8868H212.688C212.793 52.8868 212.879 52.8027 212.879 52.6992C212.879 52.5958 212.794 52.5117 212.688 52.5117Z" fill="white"/>
<path d="M211.099 52.7C211.099 53.0433 210.816 53.3218 210.466 53.3218C210.117 53.3218 209.833 53.0433 209.833 52.7C209.833 52.3567 210.117 52.0781 210.466 52.0781C210.816 52.0781 211.099 52.3567 211.099 52.7Z" fill="#DD4040"/>
<path d="M201.065 57.2246H199.393V116.067H201.065V57.2246Z" fill="#276945"/>
<path d="M201.266 65.0527H199.193C198.75 65.0527 198.392 65.405 198.392 65.8394V74.8564C198.392 75.2907 198.75 75.643 199.193 75.643H201.266C201.708 75.643 202.067 75.2907 202.067 74.8564V65.8394C202.067 65.405 201.708 65.0527 201.266 65.0527Z" fill="#276945"/>
<path d="M366.687 34.9913C357.637 48.7591 353.954 65.8403 356.545 82.0287C357.818 89.9819 360.686 97.9206 366.234 103.847C373.108 111.19 383.509 114.695 393.663 114.891C403.818 115.088 413.803 112.274 423.238 108.581C437.564 102.973 451.524 94.834 460.001 82.1803C471.183 65.4887 470.529 41.9662 458.436 25.8992C450.022 14.7202 436.485 7.69701 422.482 6.32712C408.324 4.94207 395.489 8.88694 384.048 17.0504C377.214 21.9253 371.271 28.0185 366.687 34.9913Z" fill="#DCFFE6"/>
<path d="M412.778 88.3981C415.859 80.8206 420.027 73.5348 426.006 67.8691C431.984 62.2034 439.927 58.2647 448.234 58.1289C447.712 66.2641 445.341 74.3076 439.78 80.3587C433.076 87.6521 422.402 91.0793 412.778 88.3981Z" fill="#9EF4D0"/>
<path d="M415.5 86.6396C418.248 81.9915 421.614 77.7032 425.471 73.8907C429.312 70.0934 433.644 66.7717 438.327 64.0326C440.976 62.4835 443.739 61.1274 446.588 59.9726C446.774 59.8968 446.659 59.6107 446.471 59.6865C441.388 61.7472 436.583 64.4559 432.197 67.7141C427.813 70.9717 423.843 74.7725 420.426 79.0021C418.506 81.3786 416.765 83.8915 415.214 86.5148C415.112 86.6857 415.4 86.8092 415.5 86.6396Z" fill="#DCFFE6"/>
<path d="M400.848 94.9602C393.249 91.5565 386.65 86.0314 382.026 79.2006C377.402 72.3698 374.767 64.2553 374.512 56.0566C382.372 59.0839 389.221 64.2601 393.832 71.2074C398.443 78.1541 401.2 86.6747 400.848 94.9602Z" fill="#BDFACE"/>
<path d="M376.098 58.1232C380.561 61.1753 384.524 64.9044 387.851 69.1285C391.163 73.3333 393.839 78.0235 395.754 82.9963C396.842 85.8236 397.676 88.7426 398.248 91.7127C398.286 91.9071 398.593 91.8464 398.556 91.6513C397.541 86.3786 395.688 81.2713 393.111 76.5405C390.525 71.7924 387.217 67.4194 383.32 63.6303C381.144 61.5145 378.785 59.5841 376.272 57.866C376.106 57.753 375.933 58.0095 376.098 58.1232Z" fill="#DCFFE6"/>
<path d="M363.619 68.2705C362.877 67.4294 364.053 61.1971 362.73 60.8351C361.52 60.5035 360.385 62.9868 360.753 64.3401C359.487 63.0895 356.06 56.8089 354.835 57.6803C353.928 58.3249 357.045 62.7607 357.045 62.7607C357.045 62.7607 352.859 58.0043 351.841 59.0391C350.822 60.074 355.674 64.3967 355.674 64.3967C355.674 64.3967 351.338 60.9688 350.669 61.9271C350.01 62.8689 354.802 66.0609 354.802 66.0609C354.802 66.0609 350.65 64.1023 350.315 64.6628C349.979 65.2233 352.227 66.9951 354.326 67.841C356.173 71.2461 359.547 72.192 359.547 72.192L363.619 68.2705Z" fill="#F0B395"/>
<path d="M401.616 56.4043C394.295 58.1389 381.775 84.761 381.775 84.761L363.497 67.9611L359.316 72.1156C359.316 72.1156 373.446 89.6139 377.042 93.101C380.638 96.5881 386.784 95.7387 389.515 92.4302C392.247 89.1216 398.757 79.6882 398.757 79.6882L401.616 56.4043Z" fill="#F0B395"/>
<path d="M401.616 56.4043C394.598 58.0637 381.277 80.3818 381.277 80.3818L373.598 74.8795C368.465 77.5731 364.979 89.0782 364.979 89.0782C373.284 96.6198 382.178 97.1589 385.508 96.0814C389.406 94.8204 396.948 83.7682 396.948 83.7682L401.616 56.4043Z" fill="#54D09C"/>
<path d="M425.507 58.6511C431.351 61.2675 442.277 81.0291 442.277 81.0291L457.754 57.5977L463.761 60.3554C463.761 60.3554 452.269 81.8737 450.015 86.8837C447.762 91.8938 440.729 93.3691 436.904 89.9489C433.08 86.5287 423.833 73.5185 423.833 73.5185L425.507 58.6511Z" fill="#F0B395"/>
<path d="M457.077 59.1992C457.55 58.1885 454.65 52.5263 455.817 51.8155C456.885 51.1654 458.681 53.2385 458.712 54.6394C459.572 53.0916 461.078 46.1208 462.502 46.6214C463.555 46.9923 461.823 52.1057 461.823 52.1057C461.823 52.1057 464.49 46.3904 465.763 47.1054C467.035 47.8196 463.605 53.3005 463.605 53.3005C463.605 53.3005 466.793 48.8206 467.709 49.5569C468.609 50.2808 464.915 54.6594 464.915 54.6594C464.915 54.6594 468.345 51.6404 468.826 52.0871C469.308 52.5339 467.653 54.851 465.878 56.2388C465.072 60.0148 462.101 61.8487 462.101 61.8487L457.077 59.1992Z" fill="#F0B395"/>
<path d="M425.507 58.6504C432.366 61.8335 442.239 77.4558 442.239 77.4558L450.076 66.0658C457.598 69.4523 460.811 86.9981 460.811 86.9981C460.811 86.9981 447.837 94.3088 441.535 93.5394C434.287 92.6542 423.833 76.9932 423.833 76.9932L425.507 58.6504Z" fill="#54D09C"/>
<path d="M427.213 107.992C395.553 110.706 389.798 105.912 389.798 105.912C390.075 104.445 396.203 84.9006 396.203 84.9006C391.163 82.6503 390.058 71.2507 398.675 66.7122L401.612 56.3977L408.855 54.6211L418.024 55.447L425.504 58.6452L422.409 96.4057C425.547 100.431 427.213 107.992 427.213 107.992Z" fill="#54D09C"/>
<path d="M395.545 84.4572C393.382 82.5392 392.247 79.7036 392.291 76.8618C392.334 74.02 393.473 71.1844 395.438 69.094C396.454 68.0137 397.695 67.1347 399.093 66.5976C399.229 66.5459 399.17 66.3287 399.032 66.3811C396.482 67.3615 394.468 69.4091 393.292 71.8117C391.947 74.5591 391.634 77.8187 392.719 80.7026C393.278 82.1903 394.182 83.5506 395.384 84.6157C395.492 84.7123 395.654 84.5537 395.545 84.4572Z" fill="#3E9D64"/>
<path d="M400.65 59.2024C400.104 61.0749 399.612 62.9632 399.18 64.8647C399.058 65.4024 398.94 65.9415 398.826 66.482C398.796 66.6227 399.016 66.6833 399.046 66.5413C399.447 64.633 399.904 62.7371 400.419 60.8557C400.565 60.3234 400.716 59.7919 400.871 59.2624C400.911 59.1224 400.69 59.0631 400.65 59.2024Z" fill="#3E9D64"/>
<path d="M419.854 81.2202C419.111 83.4285 417.334 85.2093 415.094 85.969C414.444 86.1896 413.766 86.324 413.08 86.3682C412.934 86.3778 412.934 86.6019 413.08 86.5922C415.563 86.4323 417.86 85.1162 419.209 83.0617C419.574 82.5067 419.864 81.9062 420.074 81.2788C420.121 81.1423 419.9 81.0837 419.854 81.2202Z" fill="#3E9D64"/>
<path d="M442.125 77.95C440.984 79.1076 440.205 80.5878 439.91 82.1734C439.884 82.3148 440.104 82.3747 440.131 82.2327C440.419 80.6836 441.172 79.2399 442.287 78.1086C442.389 78.0045 442.228 77.8459 442.125 77.95Z" fill="#3E9D64"/>
<path d="M441.288 78.1677C440.761 78.7654 440.296 79.4148 439.903 80.1056C439.831 80.2318 440.029 80.3449 440.1 80.2187C440.484 79.5444 440.935 78.9102 441.45 78.3262C441.546 78.218 441.385 78.058 441.288 78.1677Z" fill="#3E9D64"/>
<path d="M381.495 80.9619C382.414 81.954 383.048 83.1756 383.333 84.4869C383.363 84.6283 383.583 84.5683 383.553 84.4276C383.26 83.0791 382.601 81.8237 381.657 80.8033C381.557 80.6958 381.396 80.855 381.495 80.9619Z" fill="#3E9D64"/>
<path d="M382.08 80.9662C382.383 81.255 382.687 81.5446 382.989 81.8334C383.094 81.9341 383.257 81.7755 383.151 81.6749C382.847 81.386 382.545 81.0964 382.242 80.8076C382.136 80.7069 381.975 80.8655 382.08 80.9662Z" fill="#3E9D64"/>
<path d="M417.095 100.73C415.413 101.563 413.624 102.183 411.781 102.57C411.256 102.68 410.727 102.771 410.195 102.844C410.05 102.864 410.111 103.08 410.256 103.061C412.14 102.803 413.988 102.308 415.744 101.588C416.24 101.383 416.73 101.162 417.21 100.924C417.341 100.858 417.225 100.665 417.095 100.73Z" fill="#3E9D64"/>
<path d="M403.859 55.8534C402.942 62.2306 406.039 69.8343 406.039 69.8343C417.282 64.7201 421.781 57.0579 421.781 57.0579L418.027 55.4529L408.858 54.627L403.859 55.8534Z" fill="#F0B395"/>
<path d="M432.871 20.2547C433.62 15.1826 429.774 10.4366 424.28 9.65433C418.787 8.87201 413.727 12.3496 412.978 17.4216C412.229 22.4937 416.075 27.2397 421.568 28.022C427.062 28.8043 432.122 25.3268 432.871 20.2547Z" fill="#3B1B18"/>
<path d="M426.925 21.9288C426.464 25.0532 423.347 27.1953 419.964 26.7134C416.58 26.2314 414.211 23.3083 414.673 20.1838C415.134 17.0594 418.251 14.9173 421.634 15.3999C425.018 15.8811 427.386 18.8043 426.925 21.9288Z" fill="#DD4040"/>
<path d="M411.204 45.0655C420.435 45.0655 427.919 38.1554 427.919 29.6314C427.919 21.1074 420.435 14.1973 411.204 14.1973C401.973 14.1973 394.489 21.1074 394.489 29.6314C394.489 38.1554 401.973 45.0655 411.204 45.0655Z" fill="#3B1B18"/>
<path d="M397.922 38.2257C397.927 38.2885 397.937 38.3512 397.942 38.4139C397.952 38.4877 397.957 38.5505 397.967 38.6249C398.418 42.1444 399.749 44.3554 401.576 45.99C402.555 46.8711 403.463 47.5178 404.262 48.0942C404.519 48.2803 404.759 48.4554 404.993 48.6299C405.176 48.7636 405.347 48.9029 405.524 49.0483C407.308 50.483 408.327 52.0749 408.161 56.6858C409.616 60.6775 415.712 61.4387 417.846 57.027C417.983 51.4441 419.233 46.6643 420.296 43.5922C420.564 42.7904 420.826 42.1072 421.05 41.5598C421.474 40.5105 421.774 39.9362 421.774 39.9362C421.774 39.9362 421.952 27.6603 420.272 24.3407C416.177 16.331 400.714 18.4786 399.292 24.6979C397.928 30.64 397.571 34.9744 397.922 38.2257Z" fill="#F0B395"/>
<path d="M397.087 29.743C400.741 28.8316 403.921 26.2387 405.504 22.8784C406.183 24.846 407.634 26.5903 409.41 27.7189C411.186 28.8475 413.354 29.3666 415.46 29.1681C415.528 31.2577 416.321 33.2846 417.714 34.8655C419.107 36.4463 421.064 37.539 423.159 37.9058C423.405 33.1743 422.476 28.3918 420.355 24.1366C419.69 22.804 418.89 21.4899 417.695 20.582C415.803 19.1438 413.255 18.9446 410.867 18.8019C408.906 18.6847 406.929 18.5682 404.986 18.8536C403.044 19.1383 401.113 19.8594 399.711 21.21C397.502 23.3369 397.349 26.7158 397.087 29.743Z" fill="#3B1B18"/>
<path d="M404.983 37.1325C404.76 37.0256 404.523 36.9629 404.275 36.9526C404.053 36.9436 403.81 36.976 403.628 37.1104C403.434 37.2545 403.339 37.4744 403.323 37.7095C403.308 37.9343 403.388 38.1542 403.475 38.3576C403.523 38.4665 403.632 38.5568 403.762 38.5155C403.868 38.481 403.973 38.3514 403.923 38.2342C403.858 38.0853 403.787 37.924 403.786 37.7599C403.785 37.6758 403.806 37.5896 403.856 37.5206C403.853 37.5248 403.85 37.5296 403.847 37.5337C403.893 37.4607 403.983 37.4324 404.064 37.4172C404.071 37.4159 404.077 37.4152 404.086 37.4138C404.104 37.4131 404.121 37.4103 404.139 37.4096C404.185 37.4069 404.231 37.4069 404.278 37.4089C404.302 37.4096 404.325 37.4117 404.349 37.4138C404.361 37.4145 404.362 37.4145 404.366 37.4145C404.37 37.4152 404.37 37.4152 404.381 37.4172C404.526 37.4407 404.65 37.4958 404.787 37.5413C404.891 37.5758 405.017 37.5434 405.069 37.4441C405.124 37.3407 405.1 37.1884 404.983 37.1325Z" fill="#C16B5B"/>
<path d="M399.725 31.7597C400.833 30.9427 402.286 30.6669 403.61 31.1123C403.935 31.2212 404.161 31.5887 404.037 31.9203C403.877 32.3505 403.481 32.4084 403.084 32.2981C402.269 32.0713 401.41 32.2002 400.697 32.6497C400.674 32.6642 400.651 32.6801 400.614 32.7042C400.341 32.9021 399.939 32.9503 399.694 32.6697C399.483 32.4277 399.432 31.9755 399.725 31.7597Z" fill="#3B1B18"/>
<path d="M407.712 31.2433C409.036 30.8407 410.498 31.062 411.592 31.9189C411.86 32.1285 411.947 32.5498 411.717 32.8207C411.495 33.0834 411.085 33.1682 410.799 32.9434C410.473 32.689 410.099 32.507 409.699 32.3946C409.717 32.4022 409.733 32.4098 409.751 32.4167C409.252 32.2885 408.751 32.3091 408.252 32.4194C407.912 32.4946 407.514 32.4588 407.371 32.0892C407.255 31.7928 407.363 31.3502 407.712 31.2433Z" fill="#3B1B18"/>
<path d="M410.29 35.7314C410.321 36.3057 409.871 36.7952 409.287 36.8248C408.702 36.8545 408.203 36.4133 408.173 35.839C408.143 35.2647 408.592 34.7752 409.177 34.7455C409.762 34.7159 410.26 35.1578 410.29 35.7314Z" fill="black"/>
<path d="M409.152 35.4559C409.16 35.6234 409.029 35.7661 408.859 35.7744C408.688 35.7833 408.543 35.6544 408.535 35.4869C408.526 35.3193 408.657 35.1766 408.827 35.1683C408.998 35.1601 409.143 35.289 409.152 35.4559Z" fill="white"/>
<path d="M402.553 35.6611C402.583 36.2354 402.134 36.7249 401.549 36.7545C400.965 36.7842 400.466 36.3423 400.436 35.7687C400.406 35.1944 400.856 34.7049 401.44 34.6752C402.025 34.6456 402.523 35.0868 402.553 35.6611Z" fill="black"/>
<path d="M401.415 35.3855C401.424 35.5531 401.293 35.6958 401.123 35.704C400.952 35.713 400.807 35.5841 400.798 35.4166C400.79 35.249 400.92 35.1063 401.091 35.098C401.261 35.0898 401.406 35.218 401.415 35.3855Z" fill="white"/>
<path d="M407.485 39.9705C407.169 39.5845 406.496 40.0891 405.646 40.2415C404.796 40.3932 403.985 40.1546 403.828 40.6248C403.63 41.2191 404.614 42.4339 406.006 42.185C407.399 41.9354 407.883 40.458 407.485 39.9705Z" fill="#8E4136"/>
<path d="M407.532 40.8867C407.26 40.9012 406.972 40.9308 406.672 40.9846C405.683 41.1618 404.873 41.5127 404.53 41.8698C404.914 42.1284 405.42 42.2897 406.007 42.1849C406.843 42.0346 407.346 41.4417 407.532 40.8867Z" fill="#C16B5B"/>
<path d="M405.733 40.7099C406.492 40.5741 407.104 40.2818 407.265 39.8378C406.904 39.7654 406.332 40.1184 405.646 40.2411C404.959 40.3638 404.297 40.2315 403.986 40.4245C404.296 40.7844 404.973 40.8457 405.733 40.7099Z" fill="#E1EFF0"/>
<path d="M425.127 40.3347C423.754 41.8321 421.659 42.1782 420.449 41.1075C419.238 40.0368 419.371 37.9548 420.744 36.4573C422.118 34.9599 424.212 34.6138 425.423 35.6845C426.633 36.7552 426.5 38.8372 425.127 40.3347Z" fill="#F0B395"/>
<path d="M424.536 36.4098C423.986 36.0996 423.239 36.0865 422.538 36.3781C422.188 36.5229 421.932 36.7056 421.753 36.9345C421.516 37.2385 421.44 37.6287 421.553 37.9521C421.654 38.2423 421.879 38.436 422.078 38.607C422.222 38.7311 422.359 38.8476 422.434 38.9842C422.548 39.1937 422.507 39.4805 422.338 39.6515C422.168 39.8218 421.878 39.8687 421.662 39.7611C421.534 39.6977 421.379 39.7487 421.315 39.8728C421.251 39.9969 421.301 40.15 421.428 40.2134C421.567 40.2823 421.72 40.3182 421.874 40.3237C422.18 40.334 422.49 40.223 422.707 40.0052C423.032 39.6777 423.108 39.1482 422.888 38.7456C422.769 38.5284 422.583 38.3678 422.418 38.2265C422.253 38.0845 422.097 37.9507 422.041 37.788C421.984 37.6253 422.031 37.4116 422.163 37.242C422.215 37.1737 422.287 37.1131 422.365 37.0551C422.621 37.062 422.938 37.1503 423.094 37.3295C423.268 37.5322 423.344 37.8183 423.291 38.0782C423.263 38.2154 423.354 38.3485 423.493 38.3761C423.507 38.3788 423.521 38.3809 423.535 38.3809C423.659 38.385 423.771 38.3009 423.796 38.1782C423.882 37.7646 423.765 37.3247 423.486 37.0014C423.382 36.8814 423.249 36.798 423.11 36.7297C423.54 36.6318 423.959 36.6691 424.279 36.849C424.674 37.0717 424.959 37.6218 424.736 38.0548C424.672 38.1796 424.723 38.3319 424.85 38.3947C424.977 38.4574 425.131 38.4078 425.197 38.283C425.52 37.6529 425.218 36.7952 424.536 36.4098Z" fill="#C16B5B"/>
<path d="M461.44 99.373L460.676 104.163L444.632 116.689H333.969L332.735 112.879L461.44 99.373Z" fill="#32836B"/>
<path d="M461.44 99.373H359.462L332.735 112.879H444.338L461.44 99.373Z" fill="#3E9D64"/>
<path d="M351.012 48.6356C349.723 48.3433 348.492 49.0976 347.851 50.1744C347.119 51.4037 347.327 52.8777 347.952 54.1048C349.429 57.0025 352.988 58.2386 354.256 61.2659C354.832 62.6427 354.637 64.0415 353.772 65.248C352.969 66.3683 351.834 67.2149 350.85 68.1698C348.752 70.2057 347.472 72.9634 347.279 75.8548C347.089 78.6842 348.035 81.5136 349.8 83.7453C350.687 84.8663 351.776 85.8163 353.01 86.5533C354.344 87.3496 355.811 87.9032 357.288 88.3851C360.133 89.3131 363.103 89.9963 365.565 91.7612C367.841 93.3931 369.548 95.9177 368.895 98.7823C368.189 101.876 365.567 104.027 363.862 106.58C363.081 107.749 362.465 109.04 362.327 110.444C362.21 111.633 362.413 112.906 363.069 113.929C363.382 114.418 363.791 114.826 364.278 115.147C364.523 115.308 364.752 114.92 364.509 114.76C363.442 114.057 362.89 112.849 362.778 111.619C362.656 110.294 363.002 109.021 363.626 107.851C365.064 105.155 367.588 103.171 368.836 100.36C369.401 99.0891 369.656 97.7096 369.387 96.3355C369.149 95.118 368.516 94.0108 367.701 93.0759C365.871 90.9773 363.281 89.817 360.664 88.9704C357.781 88.0369 354.708 87.3365 352.244 85.5033C349.973 83.8135 348.398 81.2565 347.885 78.5084C347.351 75.6438 348.057 72.6069 349.712 70.2015C350.501 69.055 351.533 68.1567 352.553 67.2163C353.482 66.3594 354.416 65.4149 354.838 64.2056C355.307 62.8654 354.969 61.4472 354.245 60.26C353.437 58.9336 352.211 57.9518 351.039 56.9501C349.854 55.9359 348.654 54.8205 348.106 53.3334C347.602 51.9656 347.817 50.4157 349.055 49.4988C349.584 49.1072 350.237 48.9217 350.89 49.07C351.177 49.1334 351.299 48.7011 351.012 48.6356Z" fill="#276945"/>
<path d="M367.572 60.564H361.923C360.948 60.564 360.157 59.7877 360.157 58.8301H369.337C369.338 59.7877 368.547 60.564 367.572 60.564Z" fill="#276945"/>
<path d="M353.913 58.8308C352.492 58.8308 351.337 57.696 351.337 56.3006V46.6728C351.337 45.2774 352.492 44.1426 353.913 44.1426H377.177C378.597 44.1426 379.753 45.2774 379.753 46.6728V56.3006C379.753 57.696 378.597 58.8308 377.177 58.8308H353.913Z" fill="#32836B"/>
<path d="M353.116 58.8308C351.695 58.8308 350.54 57.696 350.54 56.3006V46.6728C350.54 45.2774 351.695 44.1426 353.116 44.1426H376.38C377.8 44.1426 378.956 45.2774 378.956 46.6728V56.3006C378.956 57.696 377.8 58.8308 376.38 58.8308H353.116Z" fill="#3E9D64"/>
<path d="M376.38 44.8438H353.116C352.088 44.8438 351.254 45.6628 351.254 46.6728V56.3006C351.254 57.3106 352.088 58.1296 353.116 58.1296H376.38C377.408 58.1296 378.242 57.3106 378.242 56.3006V46.6728C378.242 45.6628 377.408 44.8438 376.38 44.8438Z" fill="#DCFFE6"/>
<path d="M376.631 56.0684H352.864C352.764 56.0684 352.682 56.1483 352.682 56.2476C352.682 56.3462 352.763 56.4269 352.864 56.4269H376.631C376.731 56.4269 376.813 56.3469 376.813 56.2476C376.813 56.1483 376.731 56.0684 376.631 56.0684Z" fill="white"/>
<path d="M375.115 56.2479C375.115 56.5754 374.845 56.8415 374.511 56.8415C374.177 56.8415 373.907 56.5761 373.907 56.2479C373.907 55.9204 374.177 55.6543 374.511 55.6543C374.844 55.655 375.115 55.9204 375.115 56.2479Z" fill="#DD4040"/>
<path d="M365.546 60.5645H363.95V116.688H365.546V60.5645Z" fill="#276945"/>
<path d="M365.736 68.0312H363.759C363.337 68.0312 362.995 68.367 362.995 68.7813V77.3812C362.995 77.7956 363.337 78.1313 363.759 78.1313H365.736C366.158 78.1313 366.5 77.7956 366.5 77.3812V68.7813C366.501 68.367 366.158 68.0312 365.736 68.0312Z" fill="#276945"/>
<path d="M394.9 98.5312C394.899 98.4299 394.897 98.3285 394.897 98.2285V91.4115C394.897 90.9979 394.554 90.6621 394.134 90.6621H380.274C379.853 90.6621 379.511 90.9986 379.511 91.4115C379.511 92.2581 379.51 93.1047 379.509 93.9514C379.507 95.6453 379.505 97.3399 379.511 99.0338C379.515 100.147 380.024 101.143 380.909 101.767C381.674 102.308 382.529 102.37 383.106 102.37H386.442V104.215C386.442 104.631 386.777 104.956 387.205 104.956C387.394 104.956 387.573 104.892 387.712 104.775C387.877 104.635 387.968 104.436 387.968 104.215V102.37H391.565C391.568 102.37 391.571 102.37 391.574 102.37C391.584 102.37 391.594 102.37 391.604 102.369C393.167 102.336 394.521 101.251 394.827 99.7832C394.914 99.3592 394.907 98.9387 394.9 98.5312ZM383.587 100.871C383.492 100.871 383.394 100.873 383.296 100.875C383.001 100.881 382.724 100.887 382.483 100.839C381.643 100.673 381.049 99.9535 381.038 99.0889C381.027 98.2761 381.031 97.4474 381.034 96.6456C381.036 96.2361 381.038 95.8273 381.038 95.4177V92.1616H393.372C393.372 92.7628 393.374 93.364 393.374 93.9651C393.378 95.6377 393.381 97.3668 393.371 99.0662C393.364 100.06 392.576 100.852 391.574 100.871H383.587Z" fill="#276945"/>
<path d="M392.142 103.307H382.269C381.669 103.307 381.182 103.784 381.182 104.375V105.731H393.229V104.375C393.23 103.784 392.742 103.307 392.142 103.307Z" fill="#276945"/>
<path d="M387.204 78.3184C384.461 78.3184 382.236 80.5025 382.236 83.1974V98.8866H392.172V83.1974C392.172 80.5031 389.948 78.3184 387.204 78.3184Z" fill="#3E9D64"/>
<path d="M387.706 100.252H386.702C383.733 100.252 381.325 97.8882 381.325 94.9713V88.7051H393.083V94.9713C393.083 97.8882 390.676 100.252 387.706 100.252Z" fill="#DD4040"/>
<path d="M428.139 86.1055H426.295V88.5081H428.139V86.1055Z" fill="#3E9D64"/>
<path d="M427.217 106.896C433.164 106.896 437.984 103.109 437.984 98.4365C437.984 93.7642 433.164 89.9766 427.217 89.9766C421.27 89.9766 416.449 93.7642 416.449 98.4365C416.449 103.109 421.27 106.896 427.217 106.896Z" fill="#BDFACE"/>
<path d="M430.018 87.916H424.417C424.148 87.916 423.929 88.1311 423.929 88.3958V90.1863C423.929 91.2073 424.772 92.0353 425.811 92.0353H428.625C429.665 92.0353 430.508 91.2073 430.508 90.1863V88.3958C430.507 88.1304 430.288 87.916 430.018 87.916Z" fill="#49B675"/>
<path d="M429.962 84.5371H423.383V86.1393H429.962V84.5371Z" fill="#49B675"/>
<path d="M419.887 103.57C419.887 105.697 415.561 108.031 410.224 108.031C404.888 108.031 400.562 105.697 400.562 103.57C400.562 101.443 404.888 99.7188 410.224 99.7188C415.561 99.7188 419.887 101.443 419.887 103.57Z" fill="#54D09C"/>
<path d="M410.224 107.212C405.232 107.212 401.125 105.169 400.616 103.164C400.58 103.298 400.562 103.434 400.562 103.571C400.562 105.698 404.888 108.032 410.224 108.032C415.561 108.032 419.887 105.698 419.887 103.571C419.887 103.434 419.868 103.298 419.833 103.164C419.323 105.169 415.216 107.212 410.224 107.212Z" fill="#49B675"/>
<path d="M410.224 102.732C412.472 102.732 414.295 102.109 414.295 101.34C414.295 100.572 412.472 99.9492 410.224 99.9492C407.975 99.9492 406.152 100.572 406.152 101.34C406.152 102.109 407.975 102.732 410.224 102.732Z" fill="#FFC612"/>
<path d="M606.583 60.6719C605.085 75.0981 596.678 88.6232 584.516 97.4582C569.192 108.59 547.395 112.725 528.97 107.735C511.521 103.009 500.698 89.2381 496.237 72.5327C493.98 64.0859 493.122 55.0069 496.109 46.7648C499.096 38.5234 506.582 31.3451 515.742 30.3523C525.92 29.2493 535.898 35.6395 546.002 34.0408C551.393 33.1879 556.082 30.1503 560.466 27.0665C564.852 23.9821 569.269 20.7038 574.507 19.2285C592.198 14.2467 603.061 33.3182 605.848 46.7158C606.802 51.3026 607.066 56.0196 606.583 60.6719Z" fill="#DCFFE6"/>
<path d="M517.933 74.3526C516.145 71.8134 513.953 69.4659 511.173 68.0243C508.393 66.5828 504.956 66.1477 502.084 67.4025C499.212 68.6572 497.152 71.8038 497.704 74.8428C498.085 76.9386 499.592 78.7077 501.393 79.8928C503.194 81.0779 505.282 81.7591 507.349 82.4002C509.417 83.0414 511.515 83.6681 513.374 84.7636C515.919 86.2638 517.92 88.6347 518.948 91.3696C519.439 92.6754 519.87 95.7585 521.663 95.9412C523.487 96.1274 524.19 93.9219 524.147 92.5596C524.019 88.4265 522.989 84.261 521.349 80.4629C520.424 78.3195 519.281 76.2671 517.933 74.3526Z" fill="#BDFACE"/>
<path d="M522.301 94.0537C521.487 86.015 516.903 78.6472 509.981 74.2838C508.097 73.0959 506.067 72.1418 503.945 71.442C503.755 71.3793 503.836 71.0821 504.029 71.1455C511.821 73.715 518.126 79.6792 521.008 87.2429C521.843 89.4346 522.379 91.7262 522.614 94.0544C522.634 94.2502 522.321 94.2488 522.301 94.0537Z" fill="#DCFFE6"/>
<path d="M506.464 82.7798C504.392 82.4875 502.187 82.5213 500.322 83.4534C498.456 84.3855 497.036 86.3945 497.333 88.4296C497.631 90.471 499.539 91.9919 501.563 92.5393C503.588 93.0867 505.733 92.864 507.825 92.6855C509.917 92.5062 512.09 92.3862 514.054 93.1163C516.323 93.9609 517.99 95.883 520.257 96.7151C522.624 97.5838 522.847 94.9971 522.006 93.4845C519.994 89.863 516.833 86.8633 513.127 84.9349C511.051 83.8546 508.791 83.108 506.464 82.7798Z" fill="#9EF4D0"/>
<path d="M520.917 95.258C518.004 90.2631 512.761 86.7864 507.009 85.7922C504.998 85.4448 502.943 85.3979 500.916 85.6275C500.716 85.6502 500.717 85.342 500.916 85.3193C507.249 84.603 513.708 86.745 518.19 91.2214C519.353 92.3831 520.363 93.6889 521.188 95.1022C521.288 95.2753 521.018 95.4304 520.917 95.258Z" fill="#DCFFE6"/>
<path d="M579.648 99.2476C579.648 99.2476 573.981 57.0928 570.48 51.2844C566.967 45.4567 529.206 45.1085 522.167 51.0569C517.043 55.3871 524.434 98.945 524.434 98.945L579.648 99.2476Z" fill="#9EF4D0"/>
<path d="M523.567 50.1474C531.102 47.5228 534.594 99.2475 534.594 99.2475H521.621C521.621 99.2475 513.852 53.5311 523.567 50.1474Z" fill="#7FEFD4"/>
<path d="M607.78 61.9129C608.457 60.7836 605.742 53.8081 607.197 53.111C608.527 52.474 610.381 55.1138 610.248 56.7595C611.444 55.0456 614.052 47.0503 615.661 47.8039C616.85 48.3616 614.201 54.1528 614.201 54.1528C614.201 54.1528 618.02 47.7652 619.425 48.7511C620.829 49.737 616.146 55.7612 616.146 55.7612C616.146 55.7612 620.426 50.8821 621.409 51.8521C622.376 52.8056 617.517 57.5068 617.517 57.5068C617.517 57.5068 621.903 54.3686 622.413 54.9484C622.923 55.5275 620.703 58.0508 618.454 59.471C617.053 63.8026 613.348 65.6055 613.348 65.6055L607.78 61.9129Z" fill="#704732"/>
<path d="M568.181 54.9219C575.509 57.1701 588.792 81.9094 588.792 81.9094C588.792 81.9094 603.168 60.7096 606.955 59.8051C609.149 59.2804 615.018 63.2177 614.752 65.6052C614.513 67.741 600.129 86.0356 596.811 90.501C591.891 97.1236 582.293 96.348 578.952 91.8137C575.61 87.2793 570.933 79.2848 570.933 79.2848L568.181 54.9219Z" fill="#54D09C"/>
<path d="M530.515 113.29H578.253L577.571 109.35L576.863 105.25L576.857 105.212L576.604 103.748L576.377 102.42L575.821 99.2247L575.277 96.0788L575.164 95.3901L572.965 82.6716L570.798 70.1082L569.509 62.6445L568.612 57.4642C568.612 57.458 568.612 57.458 568.612 57.4518L568.176 54.9202L561.853 53.5862L560.823 53.369L560.583 53.3193L557.974 52.7671L557.689 52.7051L547.809 52.9657L547.62 52.9719L544.031 53.9771L543.804 54.0391L542.452 54.4114L537.461 55.8075L534.922 76.8335L534.915 76.8398L534.871 77.2369V77.2431L534.858 77.3361L533.791 86.1711L533.784 86.2021L533.759 86.4007L533.595 87.772L532.673 95.3908L532.357 98.0154L532.237 98.9896L532.224 99.0951L532.205 99.244L531.118 108.271L530.986 109.351L530.515 113.29Z" fill="#54D09C"/>
<path d="M558.6 68.0642C555.118 67.6174 551.637 67.1714 548.155 66.7246C550.202 69.6119 552.051 72.6605 553.589 75.8374C551.242 75.39 548.984 74.9915 546.638 74.544C550.776 80.027 554.811 85.6093 558.949 91.0923C558.403 87.5983 558.161 84.0236 557.614 80.5296C559.051 80.7516 560.433 81.0281 561.87 81.2501C560.811 76.8323 559.661 72.482 558.6 68.0642Z" fill="#FFC612"/>
<path d="M540.113 47.7447C540.094 45.9743 541.431 44.2341 543.204 43.9136C544.118 43.7481 545.06 43.937 545.948 44.2072C548.273 44.9139 550.416 46.1859 552.133 47.8791C553.963 46.37 556.192 45.1656 558.582 45.1414C559.729 45.1297 560.907 45.4089 561.824 46.0866C562.742 46.7643 563.361 47.875 563.277 48.9994C563.193 50.1239 562.32 51.1918 561.185 51.3669C561.773 51.5227 562.218 52.0943 562.217 52.692C562.215 53.2897 561.768 53.8599 561.18 54.0129L543.283 54.9961C542.624 54.7851 542.127 54.1563 542.083 53.4773C542.039 52.7982 542.45 52.1122 543.075 51.8199C541.402 51.1649 540.133 49.5151 540.113 47.7447Z" fill="#54D09C"/>
<path d="M568.853 57.4857C569.215 60.3316 569.578 63.1782 569.939 66.0242C570.301 68.8701 570.664 71.7167 571.026 74.5627C571.229 76.1642 571.433 77.7658 571.637 79.3673C571.656 79.5148 571.42 79.5135 571.401 79.3673C571.039 76.5214 570.677 73.6747 570.315 70.8288C569.953 67.9828 569.591 65.1362 569.229 62.2902C569.025 60.6887 568.821 59.0872 568.617 57.4857C568.598 57.3374 568.834 57.3388 568.853 57.4857Z" fill="#32836B"/>
<path d="M559.07 33.3372C559.43 37.6392 562.669 40.8884 566.304 40.5947C569.94 40.301 572.595 36.5761 572.235 32.274C571.875 27.972 568.636 24.7228 565 25.0165C561.365 25.3102 558.71 29.0351 559.07 33.3372Z" fill="#49B675"/>
<path d="M546.303 41.1229C545.205 41.1746 544.092 40.763 543.302 40.0136C542.511 39.2642 542.054 38.1866 542.067 37.107C540.217 36.4734 538.639 35.1104 537.763 33.3896C536.887 31.6688 536.723 29.6102 537.317 27.777C537.653 26.7387 538.273 25.7274 539.258 25.2255C537.81 24.0707 537.415 22.303 537.692 20.4919C538.051 18.1409 539.386 15.9486 541.324 14.5249C543.263 13.1012 545.782 12.4635 548.179 12.7896C550.299 10.7531 552.766 8.9964 555.581 8.08085C558.396 7.16529 561.592 7.15771 564.241 8.46762C566.89 9.77752 568.861 12.518 568.821 15.4301C570.989 16.4339 572.622 18.487 573.087 20.7966C573.553 23.1062 572.84 25.6157 571.224 27.3551C571.869 29.6047 571.048 32.1707 569.673 34.0784C568.298 35.986 566.249 37.3517 564.056 38.2576C561.862 39.1635 559.513 39.6406 557.169 40.0481C553.642 40.6617 549.881 40.9554 546.303 41.1229Z" fill="#3B1B18"/>
<path d="M544.362 37.8073C544.362 37.8073 547.942 45.4248 547.876 55.4979C549.938 60.0964 556.226 59.509 557.836 55.4393C557.817 51.6089 558.53 49.824 559.79 48.5251C559.895 48.4162 559.999 48.321 560.108 48.2169C560.182 48.1432 560.256 48.0784 560.34 48.0094C560.488 47.8798 560.659 47.7605 560.821 47.6275C561.051 47.4565 561.29 47.2862 561.539 47.1118H561.544C562.524 46.4272 563.671 45.706 564.952 44.6243C566.818 43.0607 568.227 40.8925 568.83 37.4743C568.842 37.4336 568.849 37.3929 568.856 37.3474C568.867 37.2978 568.875 37.2475 568.883 37.1972C568.898 37.1062 568.908 37.0241 568.917 36.9373C568.929 36.8966 568.931 36.86 568.938 36.8235C569.405 33.4757 569.171 28.9896 567.948 22.7834C566.677 16.349 550.835 13.6802 546.375 21.8133C544.541 25.1708 544.362 37.8073 544.362 37.8073Z" fill="#704732"/>
<path d="M543.931 35.4984C545.656 34.6663 547.071 33.2281 547.86 31.506C548.648 29.7838 548.803 27.79 548.291 25.9699C550.458 26.0623 552.589 24.5421 553.17 22.4897C557.079 24.1139 561.5 24.5283 565.651 23.6603C565.897 24.4035 566.763 24.8916 567.54 24.7241C567.674 26.7151 568.635 28.64 570.154 29.9644C569.895 27.832 569.642 25.8017 569.026 23.7417C568.409 21.6817 567.414 19.6899 565.866 18.1745C563.642 15.9967 560.447 14.9839 557.311 14.8115C554.175 14.6392 551.052 15.2307 547.978 15.8664C546.949 16.0794 545.889 16.3104 545.03 16.9074C543.581 17.9146 543.005 19.7382 542.681 21.4528C541.798 26.1429 542.426 30.9634 543.931 35.4984Z" fill="#3B1B18"/>
<path d="M561.421 35.5907C561.652 35.481 561.897 35.4183 562.154 35.4093C562.384 35.4011 562.635 35.4362 562.822 35.5762C563.023 35.7265 563.119 35.954 563.133 36.198C563.147 36.4304 563.064 36.6579 562.972 36.8675C562.922 36.9798 562.808 37.0729 562.675 37.0288C562.565 36.9923 562.457 36.8578 562.511 36.7372C562.579 36.5841 562.653 36.4173 562.655 36.247C562.657 36.1601 562.636 36.0705 562.585 35.9995C562.587 36.0043 562.59 36.0084 562.593 36.0133C562.546 35.9374 562.453 35.9078 562.37 35.8912C562.363 35.8898 562.357 35.8885 562.347 35.8871C562.329 35.8864 562.311 35.8836 562.293 35.8823C562.245 35.8788 562.197 35.8788 562.149 35.8802C562.125 35.8809 562.101 35.883 562.076 35.8843C562.064 35.885 562.062 35.885 562.059 35.885C562.055 35.8857 562.055 35.8857 562.043 35.8878C561.893 35.9105 561.765 35.9678 561.623 36.014C561.515 36.0484 561.386 36.0147 561.332 35.9119C561.275 35.8051 561.3 35.6479 561.421 35.5907Z" fill="#52301E"/>
<path d="M566.866 29.7977C565.623 29.0987 564.096 28.9994 562.795 29.6226C562.476 29.775 562.292 30.1804 562.462 30.5051C562.682 30.9263 563.097 30.936 563.49 30.7726C563.84 30.6271 564.216 30.5409 564.596 30.5202C564.595 30.4996 564.562 30.5347 564.583 30.5341C565.07 30.5196 565.548 30.6271 565.985 30.8333C566.011 30.8457 566.037 30.8581 566.079 30.8788C566.385 31.047 566.803 31.0463 567.018 30.7271C567.202 30.4534 567.195 29.9825 566.866 29.7977Z" fill="#3B1B18"/>
<path d="M558.696 29.6606C557.374 29.118 555.847 29.2049 554.635 29.9811C554.338 30.1714 554.206 30.5961 554.416 30.8974C554.619 31.1897 555.031 31.3159 555.349 31.1125C555.471 31.0346 555.597 30.967 555.725 30.9001C555.737 30.8939 555.735 30.8953 555.743 30.8912C555.766 30.8815 555.789 30.8719 555.813 30.8629C555.863 30.8429 555.914 30.8243 555.965 30.8071C556.102 30.7602 556.241 30.7216 556.383 30.6913C556.418 30.6837 556.646 30.6223 556.47 30.6719C556.529 30.6554 556.599 30.6554 556.659 30.6506C556.795 30.6382 556.93 30.6333 557.066 30.6361C557.139 30.6375 557.211 30.643 557.283 30.6464C557.291 30.6471 557.294 30.6464 557.299 30.6471C557.31 30.6492 557.324 30.6513 557.346 30.654C557.48 30.6733 557.613 30.7002 557.744 30.734C557.815 30.7526 557.883 30.7726 557.952 30.7954C557.98 30.8043 558.006 30.814 558.034 30.8236C558.039 30.8257 558.036 30.825 558.043 30.8271C558.045 30.8278 558.047 30.8278 558.048 30.8285C558.05 30.8291 558.053 30.8298 558.055 30.8305C558.052 30.8298 558.053 30.8298 558.05 30.8291C558.375 30.9594 558.79 30.9077 558.963 30.5644C559.112 30.27 559.046 29.804 558.696 29.6606Z" fill="#3B1B18"/>
<path d="M558.831 38.4167C559.154 38.0444 559.805 38.5628 560.642 38.7379C561.478 38.9131 562.288 38.7 562.429 39.1695C562.607 39.7631 561.598 40.9365 560.228 40.6497C558.857 40.3629 558.422 38.8875 558.831 38.4167Z" fill="#8E4136"/>
<path d="M558.757 39.3223C559.026 39.3443 559.31 39.3816 559.605 39.4436C560.578 39.647 561.369 40.0179 561.697 40.3812C561.309 40.626 560.804 40.7707 560.227 40.6501C559.403 40.4777 558.925 39.8773 558.757 39.3223Z" fill="#C16B5B"/>
<path d="M560.541 39.1993C559.794 39.0428 559.198 38.7367 559.052 38.292C559.41 38.2307 559.966 38.5961 560.641 38.7374C561.317 38.8787 561.975 38.767 562.277 38.9663C561.96 39.3145 561.288 39.3551 560.541 39.1993Z" fill="#E1EFF0"/>
<path d="M556.044 33.9859C556.044 34.5436 556.504 34.9952 557.072 34.9952C557.64 34.9952 558.099 34.5429 558.099 33.9859C558.099 33.4281 557.64 32.9766 557.072 32.9766C556.504 32.9766 556.044 33.4281 556.044 33.9859Z" fill="black"/>
<path d="M557.23 33.5884C557.23 33.7228 557.341 33.8311 557.478 33.8311C557.614 33.8311 557.725 33.7221 557.725 33.5884C557.725 33.4546 557.614 33.3457 557.478 33.3457C557.341 33.3457 557.23 33.454 557.23 33.5884Z" fill="white"/>
<path d="M564.182 33.9859C564.182 34.5436 564.641 34.9952 565.209 34.9952C565.777 34.9952 566.237 34.5429 566.237 33.9859C566.237 33.4281 565.777 32.9766 565.209 32.9766C564.641 32.9766 564.182 33.4281 564.182 33.9859Z" fill="black"/>
<path d="M565.368 33.5884C565.368 33.7228 565.479 33.8311 565.615 33.8311C565.751 33.8311 565.862 33.7221 565.862 33.5884C565.862 33.4546 565.751 33.3457 565.615 33.3457C565.478 33.3457 565.368 33.454 565.368 33.5884Z" fill="white"/>
<path d="M540.897 38.1173C542.264 39.6982 544.408 40.116 545.686 39.0501C546.964 37.9843 546.891 35.8388 545.524 34.2572C544.157 32.6764 542.013 32.2586 540.735 33.3245C539.458 34.3903 539.53 36.5358 540.897 38.1173Z" fill="#704732"/>
<path d="M541.626 34.096C542.201 33.7926 542.971 33.8016 543.683 34.1229C544.038 34.2821 544.297 34.4772 544.474 34.7185C544.707 35.0384 544.775 35.4417 544.648 35.7713C544.535 36.0664 544.297 36.2594 544.087 36.4297C543.935 36.5524 543.792 36.6689 543.71 36.8075C543.587 37.0198 543.62 37.3163 543.789 37.4969C543.958 37.6768 544.255 37.7334 544.481 37.6293C544.615 37.5679 544.772 37.6245 544.834 37.7541C544.896 37.8837 544.84 38.0395 544.707 38.1008C544.562 38.1677 544.404 38.2001 544.246 38.2015C543.931 38.2036 543.615 38.0795 543.399 37.8492C543.074 37.5024 543.013 36.9557 543.251 36.5476C543.38 36.3276 543.577 36.1684 543.75 36.0277C543.925 35.8871 544.089 35.7534 544.152 35.5879C544.216 35.4224 544.173 35.2011 544.043 35.0233C543.991 34.9516 543.92 34.8874 543.841 34.8247C543.578 34.824 543.249 34.9054 543.083 35.0853C542.897 35.288 542.81 35.581 542.857 35.8499C542.881 35.9919 542.785 36.1263 542.64 36.1505C542.625 36.1532 542.611 36.1539 542.596 36.1539C542.469 36.1546 542.356 36.065 542.334 35.9374C542.259 35.5093 542.391 35.0605 542.689 34.7364C542.8 34.6165 542.939 34.5345 543.084 34.4683C542.645 34.3545 542.212 34.3807 541.877 34.5565C541.463 34.7744 541.154 35.3321 541.37 35.7837C541.432 35.914 541.375 36.0691 541.243 36.1305C541.11 36.1911 540.953 36.136 540.89 36.0057C540.575 35.3466 540.912 34.4731 541.626 34.096Z" fill="#52301E"/>
<path d="M560.43 52.4866C560.841 52.8562 560.911 53.4394 560.761 53.9455C560.591 54.517 560.152 54.9327 559.655 55.2478C558.629 55.9 556.999 56.3095 556.901 57.7456C556.801 59.2258 558.101 60.262 558.852 61.3905C559.224 61.9497 559.519 62.6019 559.505 63.2823C559.491 63.9145 559.192 64.4943 558.768 64.9576C558.252 65.5209 557.567 65.8897 556.876 66.2069C556.513 66.3737 556.139 66.5219 555.784 66.7046C555.474 66.8632 555.048 67.201 555.271 67.5899C555.346 67.7202 555.142 67.8374 555.068 67.7071C554.924 67.4554 554.969 67.15 555.136 66.9184C555.324 66.6591 555.626 66.5178 555.911 66.3868C556.575 66.0828 557.261 65.8125 557.871 65.4092C558.406 65.0555 558.894 64.5723 559.128 63.9718C559.385 63.3106 559.251 62.6108 558.935 61.9931C558.299 60.7487 557.027 59.858 556.723 58.446C556.589 57.8248 556.675 57.1802 557.07 56.6652C557.442 56.1799 557.99 55.8634 558.53 55.5891C559.161 55.2685 559.892 54.9555 560.305 54.3584C560.65 53.86 560.755 53.0933 560.263 52.6507C560.151 52.5494 560.318 52.386 560.43 52.4866Z" fill="white"/>
<path d="M544.082 53.4889C543.854 54.2148 544.346 54.9139 544.966 55.2669C545.674 55.6688 546.509 55.7309 547.298 55.8688C548.078 56.0053 548.819 56.2666 549.478 56.7057C550.037 57.0787 550.647 57.5958 550.798 58.2756C550.964 59.0194 550.44 59.6213 549.912 60.0818C549.347 60.5768 548.666 61.0022 548.262 61.6482C547.901 62.2273 547.75 63.0209 548.268 63.5607C548.512 63.8151 548.842 63.9757 549.17 64.1012C549.557 64.2494 549.958 64.3638 550.351 64.4962C551.139 64.7603 551.95 65.1008 552.494 65.7468C552.993 66.3404 553.2 67.1857 552.826 67.8937C552.756 68.0261 552.553 67.9089 552.623 67.7765C552.979 67.1009 552.708 66.2935 552.201 65.771C551.659 65.2132 550.911 64.9237 550.182 64.6837C549.499 64.459 548.702 64.288 548.163 63.7854C547.656 63.3132 547.594 62.6079 547.831 61.9881C548.093 61.3021 548.643 60.8188 549.204 60.3645C549.741 59.9295 550.539 59.3945 550.593 58.6437C550.647 57.8915 549.931 57.2862 549.359 56.9043C548.69 56.4575 547.944 56.2093 547.152 56.0763C546.301 55.9336 545.392 55.8502 544.664 55.351C544.047 54.9277 543.621 54.17 543.854 53.4254C543.899 53.2848 544.127 53.3455 544.082 53.4889Z" fill="white"/>
<path d="M539.821 16.5226C541.318 13.8083 544.081 11.7497 548.179 12.7908C545.553 14.2289 544.405 22.6082 544.858 27.8981L538.716 28.3138C538.716 28.3138 538.158 19.5395 539.821 16.5226Z" fill="#60EA6E"/>
<path d="M536.232 34.4075C536.592 38.7095 539.831 41.9587 543.466 41.665C547.102 41.3713 549.757 37.6464 549.397 33.3444C549.037 29.0424 545.798 25.7931 542.162 26.0868C538.527 26.3805 535.872 30.1055 536.232 34.4075Z" fill="#49B675"/>
<path d="M537.101 34.6985C537.363 37.8258 539.603 40.1974 542.105 39.9954C544.607 39.7934 546.422 37.0943 546.16 33.967C545.898 30.8398 543.658 28.4682 541.157 28.6702C538.655 28.8722 536.839 31.5713 537.101 34.6985Z" fill="#60EA6E"/>
<path d="M496.961 95.3926L497.751 100.343L514.34 113.291H628.724L630 109.352L601.826 106.399L599.76 106.181L590.916 105.251L590.227 105.176L576.608 103.75L574.163 103.495L563.051 102.329L558.737 101.876L553.828 101.361L533.683 99.2451L532.229 99.0962L531.187 98.9845L524.32 98.2647L521.409 97.9545L509.728 96.7328L496.961 95.3926Z" fill="#7FEFD4"/>
<path d="M496.964 95.3906H602.374L630 109.351H514.642L496.964 95.3906Z" fill="#9EF4D0"/>
<path d="M562.735 105.248L545.235 97.6098V96.082H593.552V105.167L562.735 105.248Z" fill="#60EA6E"/>
<path d="M545.235 96.082L562.906 103.661L562.735 105.248L545.235 97.6098V96.082Z" fill="#49B675"/>
<path d="M562.734 105.248H611.926L615.717 70.1113H566.526L562.734 105.248Z" fill="#7FEFD4"/>
<path d="M586.039 87.6791C585.826 89.6171 587.252 91.1883 589.226 91.1883C591.199 91.1883 592.971 89.6171 593.184 87.6791C593.397 85.7411 591.97 84.1699 589.997 84.1699C588.024 84.1699 586.252 85.7411 586.039 87.6791Z" fill="#54D09C"/>
<path d="M551.947 93.0103C552.602 92.5463 553.495 93.0751 554.633 92.4098C555.771 91.7445 556.903 89.7927 557.9 89.5225C558.897 89.2522 566.503 89.075 566.418 90.7359C566.366 91.7238 562.16 91.6204 562.094 91.7086C562.028 91.7969 567.273 92.4856 567.053 93.8369C566.833 95.1882 560.925 93.6266 560.862 93.7604C560.8 93.8934 565.291 95.4702 564.793 96.6629C564.294 97.8562 560.096 95.8955 559.993 95.9893C559.891 96.0837 562.876 98.547 562.363 99.3033C561.85 100.06 558.066 97.204 557.912 97.3454C557.757 97.4867 556.982 99.3737 555.579 100.16C554.177 100.946 550.807 100.044 550.385 98.8821C549.964 97.7218 551.095 93.6142 551.947 93.0103Z" fill="#704732"/>
<path d="M537.469 55.8125C530.354 58.1055 517.865 80.4319 516.179 84.0975C513.911 89.0297 516.222 94.6264 519.946 95.3917C525.372 96.5072 547.848 101.59 550.339 100.666C552.315 99.9322 554.009 93.1883 552.911 91.4158C551.777 89.586 529.787 85.4081 529.787 85.4081L534.877 77.2384L537.469 55.8125Z" fill="#54D09C"/>
<path d="M553.006 92.2804C552.85 91.5089 552.172 91.0022 551.468 90.7209C551.08 90.5665 550.675 90.4617 550.273 90.3548C549.831 90.2376 549.388 90.1211 548.945 90.0053C547.156 89.5379 545.363 89.0842 543.566 88.6451C539.991 87.7709 536.402 86.9532 532.8 86.1914C530.761 85.7605 528.718 85.3475 526.672 84.9525C526.523 84.9235 526.586 84.7002 526.734 84.7291C530.425 85.4413 534.105 86.2128 537.771 87.0428C541.436 87.8729 545.088 88.7616 548.724 89.7089C549.233 89.8412 549.742 89.975 550.25 90.1094C550.707 90.2307 551.169 90.348 551.607 90.5293C552.356 90.8395 553.066 91.3966 553.232 92.219C553.263 92.3645 553.035 92.4266 553.006 92.2804Z" fill="#32836B"/>
<path d="M536.738 74.8024C534.725 77.3877 532.906 80.1186 531.302 82.9666C530.85 83.7691 530.416 84.5812 529.999 85.4016C529.93 85.5354 529.727 85.4175 529.795 85.2844C531.278 82.373 532.977 79.5698 534.879 76.9045C535.416 76.1537 535.967 75.4139 536.535 74.6852C536.626 74.5687 536.831 74.6838 536.738 74.8024Z" fill="#32836B"/>
<path d="M536.911 75.8556C536.436 76.0527 535.962 76.2499 535.487 76.4464C535.428 76.4705 535.361 76.4636 535.326 76.405C535.297 76.3568 535.309 76.2713 535.368 76.2465C535.842 76.0493 536.317 75.8521 536.791 75.6556C536.85 75.6315 536.918 75.6384 536.953 75.697C536.982 75.7459 536.97 75.8314 536.911 75.8556Z" fill="#32836B"/>
<path d="M600.794 58.6723C599.452 58.6723 598.364 57.6044 598.364 56.2862V55.9277H603.223V56.2862C603.223 57.6037 602.135 58.6723 600.794 58.6723Z" fill="#276945"/>
<path d="M601.826 56.375H599.762V113.292H601.826V56.375Z" fill="#276945"/>
<path d="M600.988 89.1516H600.599C599.51 89.1516 598.627 88.285 598.627 87.215V76.0636C598.627 74.9943 599.509 74.127 600.599 74.127H600.988C602.077 74.127 602.96 74.9936 602.96 76.0636V87.215C602.96 88.2843 602.077 89.1516 600.988 89.1516Z" fill="#276945"/>
<path d="M584.083 38.163H596.27C597.734 38.163 598.921 36.9972 598.921 35.559C598.921 34.1209 597.734 32.9551 596.27 32.9551H584.083C582.619 32.9551 581.432 34.1209 581.432 35.559C581.432 36.9972 582.619 38.163 584.083 38.163Z" fill="#3E9D64"/>
<path d="M597.374 34.4688C598.049 34.4688 598.725 34.4688 599.401 34.4688C600.001 34.4688 600.511 34.9686 600.511 35.5594C600.511 37.5332 600.511 39.5064 600.511 41.4802C600.511 41.7594 600.511 42.0386 600.511 42.3179C600.511 42.888 600 43.4347 599.401 43.4085C598.799 43.3823 598.29 42.9294 598.29 42.3179C598.29 40.344 598.29 38.3709 598.29 36.3971C598.29 36.1179 598.29 35.8386 598.29 35.5601C598.66 35.9234 599.031 36.2875 599.401 36.6508C598.725 36.6508 598.049 36.6508 597.374 36.6508C596.794 36.6508 596.237 36.1489 596.264 35.5601C596.29 34.9679 596.751 34.4688 597.374 34.4688Z" fill="#32836B"/>
<path d="M582.886 48.8355C582.886 52.4343 584.81 55.3526 587.184 55.3526C589.557 55.3526 591.482 52.435 591.482 48.8355C591.482 45.236 589.558 42.3184 587.184 42.3184C584.81 42.3184 582.886 45.236 582.886 48.8355Z" fill="#3E9D64"/>
<path d="M587.184 55.3516H591.984V42.318H587.184V55.3516Z" fill="#3E9D64"/>
<path d="M587.774 56.3379H609.892V41.7241H587.774V56.3379Z" fill="#32836B"/>
<path d="M589.735 56.3379H611.853V41.7241H589.735V56.3379Z" fill="#3E9D64"/>
<path d="M594.85 54.5801H610.548V43.4845H594.85V54.5801Z" fill="#DCFFE6"/>
<path d="M601.207 41.7246H608.986V39.171H601.207V41.7246Z" fill="#32836B"/>
<path d="M602.301 41.7246H610.08V39.171H602.301V41.7246Z" fill="#3E9D64"/>
<path d="M603.496 41.4043H608.887V39.4925H603.496V41.4043Z" fill="#DCFFE6"/>
<path d="M592.247 47.1135C593.267 47.1135 594.095 46.3011 594.095 45.299C594.095 44.2968 593.267 43.4844 592.247 43.4844C591.227 43.4844 590.399 44.2968 590.399 45.299C590.399 46.3011 591.227 47.1135 592.247 47.1135Z" fill="#DCFFE6"/>
<path d="M590.777 48.7429H593.718C593.853 48.7429 593.963 48.6354 593.963 48.5023C593.963 48.3693 593.853 48.2617 593.718 48.2617H590.777C590.642 48.2617 590.532 48.3693 590.532 48.5023C590.532 48.6354 590.642 48.7429 590.777 48.7429Z" fill="#DCFFE6"/>
<path d="M590.777 50.0183H593.718C593.853 50.0183 593.963 49.9108 593.963 49.7777C593.963 49.6447 593.853 49.5371 593.718 49.5371H590.777C590.642 49.5371 590.532 49.6447 590.532 49.7777C590.532 49.9108 590.642 50.0183 590.777 50.0183Z" fill="#DCFFE6"/>
<path d="M590.777 51.2976H593.718C593.853 51.2976 593.963 51.1901 593.963 51.057C593.963 50.924 593.853 50.8164 593.718 50.8164H590.777C590.642 50.8164 590.532 50.924 590.532 51.057C590.532 51.1901 590.642 51.2976 590.777 51.2976Z" fill="#DCFFE6"/>
<path d="M590.777 52.575H593.718C593.853 52.575 593.963 52.4674 593.963 52.3344C593.963 52.2013 593.853 52.0938 593.718 52.0938H590.777C590.642 52.0938 590.532 52.2013 590.532 52.3344C590.532 52.4674 590.642 52.575 590.777 52.575Z" fill="#DCFFE6"/>
<path d="M580.419 69.5869C580.707 67.3669 581.308 65.1994 582.174 63.1304C583.047 61.0442 584.208 59.1131 585.346 57.16C587.506 53.4509 589.795 48.7669 587.642 44.549C587.325 43.9286 588.276 43.3798 588.594 44.003C592.309 51.282 585.147 58.1211 582.79 64.552C580.292 71.3704 580.891 79.6097 586.45 84.8549C588.975 87.2361 592.434 88.677 595.947 88.6708C599.297 88.6653 602.462 87.2251 604.638 84.7232C605.667 83.5394 606.431 82.1268 606.813 80.6142C607.319 78.6052 607.045 76.5176 606.841 74.488C606.499 71.0767 606.538 67.4007 609.406 64.9939C610.903 63.7378 612.494 62.7347 613.63 61.1104C614.764 59.4909 615.503 57.5902 615.693 55.6295C616.044 52.0224 614.541 48.4636 611.851 46.0416V44.6628C611.894 44.6821 611.938 44.6952 611.979 44.7269C614.775 46.9041 616.552 50.2147 616.816 53.7101C617.078 57.1917 615.713 60.7402 613.264 63.2545C611.972 64.5803 610.151 65.4138 609.057 66.9195C607.945 68.4486 607.724 70.4073 607.774 72.2356C607.831 74.3218 608.257 76.3874 608.194 78.4784C608.143 80.1971 607.721 81.8559 606.897 83.3754C605.367 86.1951 602.61 88.3661 599.492 89.2624C596.063 90.2482 592.301 89.6877 589.16 88.0841C582.39 84.6287 579.493 76.7259 580.419 69.5869Z" fill="#DD4040"/>
</svg>
