<svg width="85" height="85" viewBox="0 0 85 85" fill="none" xmlns="http://www.w3.org/2000/svg">
<path d="M27.6247 7.08337H57.3747C68.708 7.08337 77.9163 16.2917 77.9163 27.625V57.375C77.9163 62.823 75.7521 68.0479 71.8998 71.9002C68.0475 75.7525 62.8227 77.9167 57.3747 77.9167H27.6247C16.2913 77.9167 7.08301 68.7084 7.08301 57.375V27.625C7.08301 22.1771 9.24721 16.9522 13.0995 13.0999C16.9518 9.24758 22.1767 7.08337 27.6247 7.08337ZM26.9163 14.1667C23.5348 14.1667 20.2918 15.51 17.9007 17.9011C15.5096 20.2922 14.1663 23.5352 14.1663 26.9167V58.0834C14.1663 65.1313 19.8684 70.8334 26.9163 70.8334H58.083C61.4645 70.8334 64.7075 69.4901 67.0986 67.099C69.4897 64.7079 70.833 61.4649 70.833 58.0834V26.9167C70.833 19.8688 65.1309 14.1667 58.083 14.1667H26.9163ZM61.0934 19.4792C62.2676 19.4792 63.3936 19.9456 64.2239 20.7759C65.0541 21.6061 65.5205 22.7322 65.5205 23.9063C65.5205 25.0804 65.0541 26.2065 64.2239 27.0367C63.3936 27.867 62.2676 28.3334 61.0934 28.3334C59.9193 28.3334 58.7932 27.867 57.963 27.0367C57.1328 26.2065 56.6663 25.0804 56.6663 23.9063C56.6663 22.7322 57.1328 21.6061 57.963 20.7759C58.7932 19.9456 59.9193 19.4792 61.0934 19.4792ZM42.4997 24.7917C47.1962 24.7917 51.7004 26.6574 55.0214 29.9784C58.3423 33.2993 60.208 37.8035 60.208 42.5C60.208 47.1966 58.3423 51.7008 55.0214 55.0217C51.7004 58.3427 47.1962 60.2084 42.4997 60.2084C37.8031 60.2084 33.299 58.3427 29.978 55.0217C26.657 51.7008 24.7913 47.1966 24.7913 42.5C24.7913 37.8035 26.657 33.2993 29.978 29.9784C33.299 26.6574 37.8031 24.7917 42.4997 24.7917ZM42.4997 31.875C39.6818 31.875 36.9792 32.9945 34.9867 34.987C32.9941 36.9796 31.8747 39.6821 31.8747 42.5C31.8747 45.318 32.9941 48.0205 34.9867 50.0131C36.9792 52.0056 39.6818 53.125 42.4997 53.125C45.3176 53.125 48.0201 52.0056 50.0127 50.0131C52.0053 48.0205 53.1247 45.318 53.1247 42.5C53.1247 39.6821 52.0053 36.9796 50.0127 34.987C48.0201 32.9945 45.3176 31.875 42.4997 31.875Z" fill="white"/>
</svg>
