<svg width="580" height="539" viewBox="0 0 580 539" fill="none" xmlns="http://www.w3.org/2000/svg">
<g clip-path="url(#clip0_763_4455)">
<path d="M215.31 352.82C215.31 352.82 145.081 321.471 86.9663 326.055C34.3358 330.229 25.9255 337.76 0.0195312 334.424C6.71089 351.142 35.1338 406.331 93.6577 426.405C152.182 446.479 209.048 436.432 230.779 419.714C252.511 402.995 228.692 359.512 215.31 352.82Z" fill="#A6D0F4"/>
<path d="M22.1602 345.311C22.1602 345.311 122.49 389.203 212.792 380.425" stroke="white" stroke-width="2.51693" stroke-miterlimit="10"/>
<path d="M45.9805 380.426L82.0361 365.999" stroke="white" stroke-width="2.51693" stroke-miterlimit="10"/>
<path d="M104.625 346.865C104.625 347.806 122.489 374.776 122.489 374.776" stroke="white" stroke-width="2.51693" stroke-miterlimit="10"/>
<path d="M339.295 357.567C339.295 357.567 360.801 302.133 395.22 273.035C426.385 246.679 435.102 246.249 447.523 230.308C452.945 243.139 467.372 288.914 446.131 331.784C424.911 374.654 388.221 400.068 367.186 402.729C346.15 405.368 335.57 368.535 339.295 357.567Z" fill="#A6D0F4"/>
<path d="M441.282 248.336C441.282 248.336 410.055 327.036 355.686 371.359" stroke="white" stroke-width="1.94397" stroke-miterlimit="10"/>
<path d="M447.298 280.586L419.652 292.29" stroke="white" stroke-width="1.94397" stroke-miterlimit="10"/>
<path d="M396.836 294.072C397.348 294.583 402.197 319.118 402.197 319.118" stroke="white" stroke-width="1.94397" stroke-miterlimit="10"/>
<path d="M252.513 371.218C252.513 371.218 235.795 280.915 177.271 239.11C118.747 197.304 78.5987 197.304 43.4844 175.573C43.4844 175.573 40.1489 210.687 63.5584 264.197C86.968 317.708 115.391 361.191 168.901 384.601C222.412 408.01 252.513 371.218 252.513 371.218Z" fill="#33AA94"/>
<path d="M58.5215 195.645C58.5215 195.645 155.516 311.035 215.717 362.867" stroke="white" stroke-width="2.51693" stroke-miterlimit="10"/>
<path d="M71.0684 253.333L112.035 258.346" stroke="white" stroke-width="2.51693" stroke-miterlimit="10"/>
<path d="M152.183 242.467L141.297 288.447" stroke="white" stroke-width="2.51693" stroke-miterlimit="10"/>
<path d="M129.592 332.768L180.606 330.251" stroke="white" stroke-width="2.51693" stroke-miterlimit="10"/>
<path d="M369.906 391.209C369.906 391.209 405.696 326.178 461.212 308.99C516.748 291.801 547.524 301.991 579.999 294.256C579.999 294.256 573.635 322.045 542.081 357.139C510.527 392.233 477.664 418.364 430.661 422.722C383.657 427.081 369.927 391.209 369.927 391.209H369.906Z" fill="#33AA94"/>
<path d="M563.361 305.818C563.361 305.818 459.634 369.683 400.271 394.136" stroke="white" stroke-width="2.02583" stroke-miterlimit="10"/>
<path d="M539.072 346.886L506.352 340.317" stroke="white" stroke-width="2.02583" stroke-miterlimit="10"/>
<path d="M479.606 317.933L476.25 355.974" stroke="white" stroke-width="2.02583" stroke-miterlimit="10"/>
<path d="M473.979 392.95L435.488 378.053" stroke="white" stroke-width="2.02583" stroke-miterlimit="10"/>
<path d="M420.676 447.215C438.11 457.283 438.192 473.592 420.88 483.659L339.602 530.888C322.29 540.955 294.113 540.955 276.699 530.888L194.888 483.659C177.454 473.592 177.372 457.283 194.684 447.215L275.962 399.987C293.274 389.919 321.451 389.919 338.865 399.987L420.676 447.215Z" fill="url(#paint0_linear_763_4455)"/>
<path d="M420.678 425.445C438.112 435.513 438.194 451.822 420.882 461.89L339.604 509.118C322.292 519.186 294.115 519.186 276.701 509.118L194.89 461.89C177.456 451.822 177.374 435.513 194.685 425.445L275.964 378.217C293.276 368.149 321.453 368.149 338.867 378.217L420.678 425.445Z" stroke="#B0BEC5" stroke-width="1.90305" stroke-miterlimit="10"/>
<path d="M449.674 396.245L347.708 455.505C325.976 468.131 290.657 468.131 268.782 455.505L166.141 396.245C155.132 389.901 149.647 381.553 149.668 373.224L149.627 385.011C149.607 393.339 155.091 401.668 166.1 408.031L268.741 467.292C290.616 479.918 325.935 479.918 347.667 467.292L449.633 408.031C460.417 401.77 465.819 393.544 465.86 385.338L465.901 373.552C465.881 381.778 460.479 389.983 449.674 396.245Z" fill="#A6D0F4"/>
<path d="M449.408 350.53C471.283 363.156 471.385 383.618 449.674 396.244L347.707 455.505C325.976 468.13 290.657 468.13 268.782 455.505L166.14 396.244C144.265 383.618 144.163 363.156 165.874 350.53L267.841 291.269C289.572 278.644 324.891 278.644 346.766 291.269L449.408 350.53Z" fill="url(#paint1_linear_763_4455)"/>
<path d="M468.785 67.9352L355.318 2.41307C350.407 -0.410809 345.966 -0.676826 342.754 1.1853L333.361 6.64889C336.574 4.78676 341.014 5.05278 345.926 7.87666L459.392 73.3784C469.133 79.0057 477.011 92.6339 476.99 103.848L476.888 142.952C476.888 148.518 474.903 152.426 471.731 154.268L481.124 148.805C484.296 146.963 486.26 143.054 486.28 137.489L486.383 98.384C486.424 87.1704 478.525 73.5421 468.785 67.9148V67.9352Z" fill="#C7D8F2"/>
<path d="M459.392 73.398C469.133 79.0253 477.011 92.6536 476.991 103.867L476.888 142.972C476.847 154.185 468.908 158.687 459.188 153.06L345.721 87.5583C335.96 81.931 328.103 68.3027 328.123 57.0891L328.225 17.9845C328.266 6.77084 336.185 2.269 345.926 7.8963L459.392 73.398Z" fill="#EAF1F7"/>
<path d="M468.785 171.885L355.318 106.384C350.407 103.56 345.966 103.294 342.754 105.156L333.361 110.619C336.574 108.757 341.014 109.023 345.926 111.847L459.392 177.349C469.133 182.976 477.011 196.604 476.99 207.818L476.888 246.923C476.888 252.489 474.903 256.397 471.731 258.239L481.124 252.775C484.296 250.933 486.26 247.025 486.28 241.459L486.383 202.354C486.424 191.141 478.525 177.513 468.785 171.885Z" fill="#B0BEC5"/>
<path d="M459.392 177.349C469.133 182.976 477.011 196.604 476.991 207.818L476.888 246.923C476.847 258.136 468.908 262.638 459.188 257.011L345.721 191.509C335.96 185.882 328.103 172.254 328.123 161.04L328.225 121.935C328.266 110.722 336.185 106.22 345.926 111.847L459.392 177.349Z" fill="#33AA94"/>
<path d="M456.035 134.665C456.035 134.665 455.913 134.767 455.852 134.808C455.913 134.767 455.974 134.705 456.035 134.665Z" fill="#A6D0F4"/>
<path d="M431.622 129.119C431.622 129.119 431.479 128.997 431.418 128.915C431.479 128.976 431.561 129.038 431.622 129.119Z" fill="#A6D0F4"/>
<path d="M439.908 134.908C439.908 134.908 439.827 134.868 439.807 134.848C439.847 134.848 439.887 134.888 439.908 134.908Z" fill="#A6D0F4"/>
<path d="M440.565 135.217C440.463 135.176 440.361 135.115 440.238 135.074C440.34 135.115 440.443 135.176 440.565 135.217Z" fill="#A6D0F4"/>
<path d="M454.5 135.687C454.5 135.687 454.378 135.748 454.316 135.789C454.378 135.748 454.439 135.728 454.5 135.687Z" fill="#A6D0F4"/>
<path d="M425.055 121.753C424.973 121.651 424.891 121.528 424.83 121.426C424.912 121.528 424.994 121.651 425.055 121.753Z" fill="#A6D0F4"/>
<path d="M438.599 134.236C438.599 134.236 438.517 134.196 438.497 134.175C438.395 134.114 438.272 134.052 438.169 133.991C438.067 133.93 437.965 133.868 437.842 133.807C437.801 133.786 437.781 133.766 437.74 133.745C437.658 133.704 437.596 133.664 437.515 133.623C437.474 133.602 437.433 133.561 437.392 133.541C437.33 133.5 437.269 133.459 437.187 133.418C437.146 133.397 437.105 133.357 437.064 133.336C437.003 133.295 436.942 133.254 436.88 133.213C436.839 133.193 436.798 133.152 436.758 133.131C436.696 133.091 436.635 133.05 436.573 133.009C436.532 132.988 436.491 132.947 436.451 132.927C436.389 132.886 436.307 132.845 436.246 132.784C436.205 132.763 436.164 132.722 436.123 132.702C436.041 132.64 435.959 132.599 435.898 132.538C435.714 132.415 435.612 132.333 435.509 132.252C435.386 132.17 435.284 132.088 435.202 132.026C435.161 132.006 435.141 131.986 435.1 131.945C435.039 131.904 434.957 131.842 434.895 131.801C434.854 131.781 434.814 131.74 434.773 131.72C434.711 131.679 434.65 131.617 434.568 131.576C434.527 131.556 434.486 131.515 434.445 131.494C434.384 131.454 434.322 131.392 434.241 131.351C434.2 131.331 434.159 131.29 434.118 131.269C434.056 131.228 433.995 131.167 433.913 131.106C433.872 131.085 433.831 131.044 433.811 131.024C433.749 130.962 433.668 130.901 433.606 130.86C433.586 130.84 433.545 130.819 433.504 130.778C433.422 130.696 433.32 130.635 433.238 130.553C433.095 130.43 432.992 130.349 432.89 130.267C432.767 130.164 432.685 130.083 432.583 130.001C432.419 129.857 432.358 129.796 432.276 129.735C432.235 129.714 432.215 129.673 432.174 129.653C432.112 129.591 432.031 129.53 431.969 129.469C431.928 129.448 431.908 129.407 431.867 129.366C431.805 129.305 431.724 129.244 431.662 129.182C431.621 129.162 431.601 129.121 431.56 129.1C431.499 129.039 431.417 128.978 431.355 128.896C431.192 128.752 431.11 128.671 431.028 128.589C430.782 128.343 430.578 128.159 430.373 127.975C430.271 127.873 430.168 127.77 430.087 127.688C429.943 127.545 429.882 127.484 429.8 127.402C429.657 127.259 429.575 127.177 429.514 127.115C429.37 126.972 429.289 126.89 429.227 126.808C429.084 126.665 429.002 126.563 428.92 126.481C428.593 126.133 428.306 125.806 428.02 125.499C427.918 125.397 427.836 125.294 427.754 125.192C427.631 125.049 427.549 124.967 427.488 124.864C427.365 124.721 427.283 124.619 427.222 124.537C427.099 124.394 427.017 124.292 426.935 124.21C426.813 124.046 426.731 123.944 426.649 123.841C426.281 123.371 425.912 122.92 425.564 122.47C425.462 122.327 425.38 122.225 425.298 122.122C425.196 121.979 425.114 121.877 425.032 121.775C424.93 121.631 424.848 121.509 424.766 121.406C424.337 120.792 423.907 120.199 423.518 119.585C423.436 119.442 423.354 119.339 423.272 119.217C423.17 119.073 423.109 118.951 423.027 118.848C422.536 118.091 422.086 117.334 421.656 116.577C421.574 116.434 421.513 116.311 421.431 116.209C421.349 116.065 421.288 115.943 421.206 115.82C420.837 115.165 420.49 114.51 420.162 113.855C423.968 113.139 431.765 112.976 432.174 112.955C432.174 112.955 432.297 113.18 432.542 113.528C433.381 114.776 435.571 117.764 438.517 119.462C440.339 120.506 442.426 121.079 444.677 120.465C444.799 120.424 444.902 120.404 445.025 120.363C445.393 120.792 452.412 129.059 456.402 134.298C456.279 134.421 456.136 134.523 455.993 134.646C455.911 134.707 455.849 134.748 455.788 134.809C455.706 134.871 455.645 134.912 455.583 134.953C455.481 135.014 455.42 135.075 455.379 135.116C455.276 135.178 455.215 135.239 455.154 135.28C454.929 135.423 454.703 135.567 454.478 135.689C454.376 135.751 454.315 135.771 454.253 135.812C454.151 135.874 454.09 135.894 454.028 135.935C453.926 135.996 453.844 136.017 453.783 136.058C453.517 136.18 453.292 136.283 453.046 136.385C452.944 136.426 452.882 136.446 452.8 136.467C452.698 136.508 452.616 136.528 452.555 136.549C452.432 136.59 452.371 136.61 452.289 136.631C452.002 136.712 451.757 136.794 451.491 136.856C451.388 136.876 451.307 136.897 451.245 136.917C451.122 136.938 451.061 136.958 450.979 136.979C450.856 136.999 450.795 137.019 450.713 137.019C450.59 137.04 450.509 137.06 450.427 137.06C450.222 137.081 450.058 137.101 449.854 137.122C449.751 137.122 449.67 137.122 449.588 137.142C449.465 137.142 449.383 137.142 449.322 137.142C449.178 137.142 449.117 137.142 449.035 137.142C448.892 137.142 448.831 137.142 448.749 137.142C448.524 137.142 448.339 137.142 448.135 137.142C448.033 137.142 447.951 137.142 447.848 137.142C447.726 137.142 447.644 137.142 447.562 137.142C447.419 137.142 447.337 137.142 447.275 137.122C447.132 137.122 447.05 137.122 446.968 137.101C446.825 137.101 446.723 137.081 446.641 137.06C446.416 137.04 446.232 136.999 446.027 136.979C445.884 136.958 445.802 136.938 445.741 136.938C445.72 136.938 445.679 136.938 445.659 136.938C445.597 136.938 445.516 136.917 445.454 136.897C445.434 136.897 445.393 136.897 445.372 136.897C445.291 136.897 445.229 136.876 445.147 136.856C445.127 136.856 445.086 136.856 445.065 136.856C444.984 136.856 444.902 136.815 444.82 136.794C444.554 136.733 444.349 136.692 444.145 136.631C444.001 136.59 443.92 136.569 443.838 136.549C443.797 136.549 443.776 136.549 443.735 136.528C443.674 136.508 443.592 136.487 443.531 136.467C443.49 136.467 443.469 136.446 443.428 136.426C443.367 136.406 443.285 136.385 443.224 136.365C443.183 136.365 443.142 136.344 443.121 136.324C443.06 136.303 442.978 136.283 442.917 136.262C442.876 136.262 442.855 136.242 442.815 136.221C442.733 136.18 442.63 136.16 442.549 136.119C442.405 136.078 442.303 136.037 442.201 135.996C442.057 135.935 441.976 135.914 441.894 135.874C441.853 135.874 441.832 135.853 441.791 135.833C441.73 135.812 441.648 135.771 441.587 135.751C441.546 135.751 441.505 135.71 441.464 135.71C441.403 135.689 441.321 135.648 441.259 135.628C441.218 135.628 441.177 135.587 441.137 135.587C441.075 135.567 440.993 135.526 440.932 135.505C440.891 135.505 440.85 135.464 440.83 135.464C440.748 135.423 440.666 135.403 440.584 135.362C440.4 135.28 440.298 135.219 440.175 135.178C440.032 135.116 439.95 135.075 439.847 135.014C439.806 135.014 439.766 134.973 439.745 134.953C439.684 134.912 439.602 134.891 439.54 134.85C439.5 134.83 439.459 134.809 439.418 134.789C439.356 134.748 439.274 134.728 439.213 134.687C439.172 134.666 439.131 134.646 439.09 134.625C439.029 134.584 438.947 134.543 438.886 134.523C438.845 134.502 438.804 134.482 438.763 134.462C438.681 134.421 438.62 134.38 438.538 134.339L438.599 134.236Z" fill="#100C41"/>
<path d="M426.301 123.368C426.076 123.082 425.831 122.775 425.605 122.489C425.831 122.795 426.056 123.082 426.301 123.368Z" fill="#A6D0F4"/>
<path d="M427.488 124.822C427.488 124.822 427.345 124.638 427.264 124.556C427.345 124.638 427.407 124.74 427.488 124.822Z" fill="#A6D0F4"/>
<path d="M428.061 125.497C428.061 125.497 427.877 125.292 427.795 125.19C427.877 125.292 427.979 125.394 428.061 125.497Z" fill="#A6D0F4"/>
<path d="M428.941 126.46C428.655 126.153 428.369 125.825 428.082 125.518C428.369 125.846 428.655 126.153 428.941 126.46Z" fill="#A6D0F4"/>
<path d="M429.779 127.339C429.779 127.339 429.636 127.196 429.555 127.114C429.616 127.196 429.698 127.257 429.779 127.339Z" fill="#A6D0F4"/>
<path d="M430.414 127.974C430.414 127.974 430.23 127.79 430.148 127.709C430.23 127.79 430.332 127.893 430.414 127.974Z" fill="#A6D0F4"/>
<path d="M431.029 128.567C430.824 128.382 430.64 128.178 430.436 127.994C430.64 128.198 430.824 128.382 431.029 128.567Z" fill="#A6D0F4"/>
<path d="M432.214 129.651C432.214 129.651 432.071 129.528 432.01 129.467C432.071 129.528 432.153 129.589 432.214 129.651Z" fill="#A6D0F4"/>
<path d="M433.525 130.776C433.525 130.776 433.341 130.633 433.26 130.552C433.341 130.633 433.444 130.695 433.525 130.776Z" fill="#A6D0F4"/>
<path d="M452.576 136.547C452.576 136.547 452.433 136.588 452.352 136.608C452.433 136.588 452.495 136.567 452.576 136.547Z" fill="#A6D0F4"/>
<path d="M430.946 97.3408L431.192 100.349C431.233 100.717 431.274 101.106 431.335 101.495C431.274 101.495 431.192 101.454 431.11 101.413C431.069 101.392 431.028 101.352 430.987 101.331C429.187 99.8986 428.184 95.0489 429.432 94.9875C429.637 94.9875 429.821 95.0285 429.985 95.1308C430.148 95.2331 430.292 95.3559 430.435 95.4991C430.68 96.6246 430.885 97.4636 430.885 97.5045L430.926 97.3408H430.946Z" fill="#CBDCEB"/>
<path d="M455.194 135.278C454.969 135.421 454.764 135.564 454.539 135.687C454.764 135.564 454.989 135.421 455.194 135.278Z" fill="#A6D0F4"/>
<path d="M443.796 118.826C444.082 119.399 444.41 119.951 444.758 120.463C442.507 121.077 440.419 120.504 438.598 119.46C435.652 117.762 433.462 114.774 432.623 113.526C432.991 113.424 433.38 113.26 433.667 112.994C434.137 111.991 434.403 110.129 434.526 108.983L437.043 112.585C437.514 113.26 438.066 113.771 438.619 114.078C439.171 114.385 439.724 114.508 440.194 114.385L442.793 113.69C442.793 113.69 442.895 113.669 442.936 113.649C443.039 114.917 443.305 117.209 443.796 118.826Z" fill="#CBDCEB"/>
<path d="M455.625 134.992C455.625 134.992 455.503 135.073 455.441 135.114C455.503 135.073 455.564 135.033 455.625 134.992Z" fill="#A6D0F4"/>
<path d="M455.828 134.828C455.828 134.828 455.725 134.91 455.664 134.951C455.725 134.91 455.787 134.869 455.828 134.828Z" fill="#A6D0F4"/>
<path d="M444.535 102.415C445.455 102.947 445.66 102.926 445.66 102.926L446.274 107.449L446.131 108.963C446.11 109.27 446.049 109.556 446.008 109.843C445.599 111.807 444.535 113.158 442.959 113.649C442.918 113.649 442.857 113.669 442.816 113.69L440.217 114.385C439.746 114.508 439.194 114.385 438.641 114.079C438.089 113.772 437.536 113.24 437.066 112.585L434.549 108.983L434.487 108.901C432.871 106.61 431.766 103.97 431.336 101.494C431.275 101.105 431.213 100.716 431.193 100.348L430.947 97.3399L433.055 90.7099C433.055 90.7099 433.382 90.2393 434.18 90.7099C434.61 90.9555 435.163 91.467 435.879 92.4697C437.905 95.3345 438.109 97.9128 441.608 100.45C443 101.453 443.921 102.046 444.535 102.415Z" fill="#CBDCEB"/>
<path d="M448.074 105.751C449.302 107.245 448.279 110.928 446.478 110.274C446.437 110.274 446.397 110.233 446.356 110.212C446.192 110.13 446.069 109.987 445.967 109.844C446.028 109.557 446.069 109.271 446.09 108.964L446.233 107.45L446.294 107.839C446.294 107.839 446.744 106.734 447.133 105.117C447.256 105.117 447.379 105.178 447.502 105.24C447.665 105.342 447.849 105.506 448.054 105.731L448.074 105.751Z" fill="#CBDCEB"/>
<path d="M441.404 87.1101C445.108 90.425 447.134 94.8246 447.686 98.9171C447.973 101.045 447.584 103.378 447.154 105.117C446.745 106.714 446.336 107.778 446.315 107.839L446.254 107.45L445.64 102.928C445.64 102.928 445.435 102.948 444.515 102.416C443.901 102.068 442.98 101.475 441.588 100.452C438.089 97.9145 437.885 95.3361 435.859 92.4713C435.143 91.4687 434.59 90.9571 434.16 90.7115C433.383 90.2613 433.055 90.7115 433.035 90.7115L430.927 97.3415L430.886 97.5052C430.886 97.5052 430.682 96.6253 430.436 95.4998C430.17 94.2925 429.843 92.7783 429.679 91.7347C429.331 89.7293 430.252 85.7186 431.725 84.3476C432.871 83.2835 435.9 83.5495 438.949 85.3093C439.788 85.8004 440.627 86.3939 441.425 87.1101H441.404Z" fill="#33AA94"/>
<path d="M432.625 113.526C432.379 113.158 432.256 112.954 432.256 112.954C431.847 112.954 424.051 113.138 420.245 113.854C416.991 107.367 415.027 100.348 415.047 93.9435C415.088 79.2102 425.504 73.276 438.313 80.6835C451.123 88.0911 461.477 106.017 461.436 120.729C461.436 127.196 459.411 131.964 456.055 134.644C456.198 134.542 456.321 134.419 456.464 134.296C452.474 129.058 445.475 120.791 445.087 120.361C444.964 120.402 444.861 120.422 444.739 120.463C444.391 119.952 444.063 119.399 443.777 118.826C443.286 117.21 443.04 114.918 442.917 113.649C444.473 113.158 445.557 111.808 445.966 109.843C446.069 109.986 446.192 110.13 446.355 110.211C448.279 110.928 449.322 107.244 448.074 105.751C447.869 105.505 447.685 105.362 447.522 105.259C447.399 105.178 447.276 105.137 447.153 105.137C447.583 103.397 447.972 101.044 447.685 98.9364C447.133 94.8643 445.107 90.4443 441.403 87.1294C440.605 86.4132 439.766 85.8197 438.927 85.3286C435.878 83.5688 432.87 83.3233 431.704 84.3669C430.23 85.7174 429.31 89.7281 429.658 91.754C429.821 92.7976 430.149 94.2914 430.415 95.5191C430.271 95.3554 430.128 95.2327 429.964 95.1508C429.801 95.0485 429.617 94.9871 429.412 95.0076C428.164 95.0689 429.166 99.9186 430.967 101.351C431.172 101.474 431.254 101.515 431.315 101.515C431.745 103.991 432.85 106.61 434.466 108.922C434.405 110.15 434.139 112.012 433.668 113.015C433.361 113.281 432.993 113.445 432.625 113.547V113.526Z" fill="#25437F"/>
<path d="M430.086 127.646C430.086 127.646 429.943 127.482 429.861 127.421C429.943 127.503 430.004 127.585 430.086 127.646Z" fill="#A6D0F4"/>
<path d="M432.871 130.223C432.871 130.223 432.687 130.08 432.605 129.999C432.687 130.08 432.789 130.142 432.871 130.223Z" fill="#A6D0F4"/>
<path d="M434.876 131.821C434.876 131.821 434.795 131.76 434.754 131.74C434.795 131.76 434.836 131.801 434.876 131.821Z" fill="#A6D0F4"/>
<path d="M442.978 136.178C442.978 136.178 442.917 136.158 442.877 136.138C442.917 136.138 442.938 136.158 442.978 136.178Z" fill="#A6D0F4"/>
<path d="M443.489 136.362C443.489 136.362 443.346 136.321 443.285 136.301C443.346 136.321 443.428 136.342 443.489 136.362Z" fill="#A6D0F4"/>
<path d="M443.613 136.384C443.613 136.384 443.552 136.364 443.512 136.344C443.552 136.344 443.572 136.364 443.613 136.384Z" fill="#A6D0F4"/>
<path d="M443.82 136.445C443.82 136.445 443.677 136.404 443.615 136.383C443.677 136.404 443.758 136.424 443.82 136.445Z" fill="#A6D0F4"/>
<path d="M449.916 137.101C449.916 137.101 449.753 137.101 449.65 137.121C449.732 137.121 449.814 137.121 449.916 137.101Z" fill="#A6D0F4"/>
<path d="M453.089 136.364C453.089 136.364 452.946 136.425 452.885 136.445C452.946 136.425 453.028 136.384 453.089 136.364Z" fill="#A6D0F4"/>
<path d="M441.773 216.393C441.814 216.556 441.876 216.72 441.937 216.883L441.794 216.924C441.794 216.74 441.794 216.556 441.794 216.373L441.773 216.393Z" fill="#25437F"/>
<path d="M429.108 192.064C429.251 193.354 429.538 194.52 429.967 195.338C429.967 195.338 430.049 195.257 430.152 195.113L430.336 197.303C430.377 197.671 430.418 198.06 430.479 198.449C430.397 198.449 430.315 198.408 430.213 198.347C430.213 198.347 430.193 198.347 430.172 198.326C430.152 198.306 430.131 198.306 430.131 198.285C428.883 197.303 428.023 194.704 428.023 193.149C428.023 192.453 428.187 191.962 428.576 191.942C428.76 191.942 428.944 191.983 429.108 192.085V192.064Z" fill="#CBDCEB"/>
<path d="M440.934 210.909C440.975 211.974 441.139 214.245 441.773 216.373C441.773 216.557 441.773 216.741 441.773 216.926C440.382 217.396 439.093 217.13 437.967 216.557C437.885 216.516 437.824 216.475 437.742 216.434C437.701 216.414 437.66 216.393 437.619 216.373C435.45 215.063 433.977 212.587 433.772 212.199C433.772 212.158 433.752 212.158 433.752 212.158C434.468 210.787 434.673 208.597 434.734 207.472L436.187 209.559C436.658 210.234 437.21 210.746 437.763 211.073C438.315 211.401 438.868 211.523 439.338 211.38L440.934 210.95V210.909Z" fill="#CBDCEB"/>
<path d="M450.553 226.543C449.878 225.664 448.977 224.62 448.036 223.515C447.934 224.272 447.75 225.009 447.422 225.725C445.56 229.961 442.204 229.695 442.02 229.674C442.061 229.552 442.757 227.096 442.757 224.497C442.757 223.699 442.695 222.901 442.511 222.185C442.327 221.469 442.184 220.712 442.061 219.954C441.897 218.931 441.815 217.908 441.774 216.926C440.383 217.397 439.094 217.131 437.968 216.558C437.886 216.517 437.825 216.476 437.743 216.435C437.702 216.414 437.661 216.394 437.62 216.373C435.451 215.064 433.978 212.588 433.773 212.199C433.773 212.158 433.753 212.158 433.733 212.138C433.548 212.138 427.757 211.544 425.138 211.892C424.217 212.015 423.378 213.652 422.662 215.76C426.755 222.39 432.198 228.119 438.152 231.557C443.841 234.851 449.08 235.486 453.111 233.91C452.374 230.718 451.494 227.812 450.512 226.564L450.553 226.543Z" fill="#100C41"/>
<path d="M445.151 212.403C444.578 211.073 444.251 210.009 444.087 209.19C443.575 209.845 442.92 210.316 442.163 210.582C442.081 210.602 442.02 210.643 441.938 210.664L440.936 210.93C440.976 211.994 441.14 214.265 441.775 216.393C441.815 216.557 441.877 216.721 441.938 216.884L441.795 216.925C441.815 217.908 441.918 218.951 442.081 219.954C442.204 220.731 442.347 221.468 442.532 222.184C442.716 222.901 442.777 223.699 442.777 224.497C442.777 227.095 442.081 229.551 442.041 229.674C442.225 229.674 445.581 229.94 447.443 225.724C447.77 225.008 447.954 224.251 448.057 223.514C448.118 223.105 448.138 222.716 448.138 222.307C448.138 218.992 446.542 215.534 445.192 212.403H445.151Z" fill="#33AA94"/>
<path d="M444.803 205.363L443.8 200.841C435.042 195.418 432.28 188.134 432.136 187.745C432.177 188.154 432.198 188.543 432.198 188.911C432.198 191.551 431.277 193.434 430.622 194.436C430.438 194.723 430.274 194.927 430.172 195.091L430.356 197.281C430.397 197.649 430.438 198.038 430.499 198.427C430.909 200.903 432.034 203.542 433.63 205.834L434.756 207.43C434.769 207.171 434.769 207.171 434.756 207.43L436.208 209.517C436.679 210.193 437.232 210.704 437.784 211.032C438.337 211.359 438.889 211.482 439.36 211.339L440.956 210.909L441.958 210.643C441.958 210.643 442.102 210.581 442.184 210.561C442.961 210.295 443.616 209.824 444.107 209.17C444.598 208.535 444.946 207.737 445.151 206.755C444.926 206.387 444.844 205.875 444.823 205.343L444.803 205.363Z" fill="#CBDCEB"/>
<path d="M445.131 206.776L445.192 206.858L445.172 206.94L445.131 206.797V206.776Z" fill="#25437F"/>
<path d="M444.805 205.364L445.132 206.775C444.907 206.407 444.825 205.896 444.805 205.364Z" fill="#FF8D68"/>
<path d="M446.707 202.213C446.87 202.316 447.054 202.459 447.239 202.684C447.627 203.155 447.791 203.83 447.771 204.526C447.75 206.06 446.87 207.656 445.643 207.206C445.602 207.206 445.561 207.165 445.52 207.145C445.479 207.145 445.458 207.104 445.417 207.084C445.315 207.022 445.233 206.94 445.172 206.838C445.295 206.47 445.97 204.464 446.481 202.091C446.522 202.091 446.543 202.111 446.584 202.131C446.625 202.131 446.645 202.172 446.686 202.193L446.707 202.213Z" fill="#CBDCEB"/>
<path d="M438.316 178.23C451.126 185.617 461.48 203.563 461.439 218.276C461.419 226.441 458.186 231.904 453.131 233.889C452.395 230.697 451.515 227.791 450.533 226.543C449.857 225.663 448.957 224.62 448.016 223.515C448.077 223.105 448.098 222.717 448.098 222.307C448.098 218.992 446.501 215.534 445.151 212.403C444.578 211.073 444.251 210.009 444.087 209.191C444.578 208.556 444.926 207.758 445.13 206.796C445.253 206.96 445.335 207.042 445.437 207.103C446.89 207.676 447.77 206.06 447.791 204.545C447.791 203.85 447.627 203.174 447.259 202.704C447.074 202.479 446.89 202.315 446.727 202.233C446.849 200.596 447.115 198.918 447.136 197.404C447.136 196.974 447.136 196.565 447.074 196.176C446.624 192.022 443.862 186.906 438.644 182.998C438.541 182.916 438.46 182.855 438.357 182.793C437.968 182.527 437.6 182.282 437.232 182.057C433.078 179.704 430.397 181.156 429.579 183.898C429.517 184.124 429.456 184.349 429.415 184.574C429.169 185.986 429.006 187.643 429.006 189.26C429.006 190.221 429.047 191.183 429.149 192.084C428.985 191.981 428.821 191.94 428.617 191.94C428.228 191.94 428.064 192.452 428.064 193.148C428.064 194.703 428.944 197.302 430.172 198.284C430.356 198.407 430.459 198.427 430.52 198.448C430.929 200.924 432.055 203.563 433.651 205.855L434.776 207.451C434.715 208.577 434.51 210.766 433.773 212.137C433.589 212.137 427.798 211.544 425.179 211.892C424.258 212.014 423.419 213.651 422.703 215.759C417.997 208.147 415.05 199.368 415.07 191.511C415.111 176.777 425.527 170.843 438.357 178.251L438.316 178.23Z" fill="#25437F"/>
<path d="M447.034 196.177C446.583 192.023 443.821 186.907 438.603 182.999C438.501 182.917 438.419 182.856 438.316 182.794C437.928 182.528 437.559 182.283 437.15 182.037C437.109 182.037 437.089 181.996 437.048 181.976C433.037 179.704 430.356 181.157 429.538 183.899C429.476 184.124 429.415 184.349 429.374 184.575C429.129 185.987 428.965 187.644 428.965 189.261C428.965 190.222 429.006 191.184 429.129 192.084C429.129 192.084 429.108 192.084 429.088 192.084C429.231 193.374 429.517 194.54 429.947 195.359C429.947 195.359 430.029 195.277 430.152 195.133C430.274 194.99 430.438 194.765 430.602 194.479C431.257 193.455 432.157 191.573 432.178 188.954C432.178 188.585 432.178 188.176 432.116 187.787C432.259 188.176 435.022 195.461 443.78 200.883L444.783 205.406L445.11 206.818L445.171 206.9C445.294 206.531 445.969 204.526 446.481 202.152C446.808 200.617 447.074 198.919 447.074 197.425C447.074 196.996 447.074 196.586 447.013 196.197L447.034 196.177Z" fill="#33AA94"/>
<path d="M405.922 78.5364C406.802 79.0479 407.498 80.2757 407.498 81.2784C407.498 82.2811 406.802 82.6903 405.902 82.1787L341.28 44.8749C340.42 44.3838 339.725 43.156 339.725 42.1533C339.725 41.1507 340.42 40.7414 341.3 41.2325L405.922 78.5364Z" fill="#100C41"/>
<path d="M387.302 77.0631C388.161 77.5542 388.857 78.7615 388.857 79.7642C388.857 80.7669 388.161 81.1762 387.281 80.685L341.26 54.1242C340.401 53.6331 339.705 52.4053 339.705 51.4027C339.705 50.4 340.401 50.0112 341.281 50.5023L387.302 77.0631Z" fill="#100C41"/>
<path d="M405.922 182.508C406.802 183.02 407.498 184.247 407.498 185.25C407.498 186.253 406.802 186.662 405.902 186.15L341.28 148.847C340.42 148.355 339.725 147.128 339.725 146.125C339.725 145.122 340.42 144.713 341.3 145.204L405.922 182.508Z" fill="#254DA1"/>
<path d="M387.302 181.014C388.161 181.505 388.857 182.712 388.857 183.715C388.857 184.718 388.161 185.127 387.281 184.636L341.26 158.075C340.401 157.584 339.705 156.356 339.705 155.354C339.705 154.351 340.401 153.962 341.281 154.453L387.302 181.014Z" fill="#254DA1"/>
<path d="M387.095 201.97C389.837 200.374 393.623 200.599 397.797 203.013C406.105 207.802 412.817 219.425 412.776 228.981C412.776 233.728 411.098 237.064 408.397 238.639L405.103 240.563C407.804 238.987 409.482 235.652 409.482 230.904C409.502 221.369 402.811 209.746 394.503 204.937C390.328 202.522 386.522 202.297 383.801 203.893L387.095 201.97Z" fill="#86E563"/>
<path d="M394.502 204.937C402.81 209.725 409.522 221.348 409.481 230.904C409.46 240.44 402.708 244.307 394.4 239.498C386.092 234.71 379.38 223.067 379.4 213.531C379.421 203.995 386.194 200.148 394.502 204.937Z" fill="#2AB774"/>
<path d="M399.904 217.479L403.137 223.065L390.798 230.104L384.803 219.73L388.056 217.868L390.819 222.656L399.904 217.479Z" fill="white"/>
<path d="M387.095 249.95C389.837 248.354 393.623 248.579 397.797 250.994C406.105 255.782 412.817 267.405 412.776 276.961C412.776 281.709 411.098 285.044 408.397 286.62L405.103 288.543C407.804 286.968 409.482 283.632 409.482 278.885C409.502 269.349 402.811 257.726 394.503 252.917C390.328 250.503 386.522 250.278 383.801 251.874L387.095 249.95Z" fill="#FF7363"/>
<path d="M394.502 252.917C402.81 257.705 409.522 269.328 409.481 278.884C409.46 288.42 402.708 292.287 394.4 287.479C386.092 282.69 379.38 271.047 379.4 261.511C379.421 251.975 386.194 248.128 394.502 252.917Z" fill="#FF465C"/>
<path d="M398.738 264.971L401.951 270.557L397.265 273.258L401.93 281.32L398.676 283.183L394.011 275.079L389.325 277.78L386.092 272.173L390.778 269.513L386.133 261.43L389.386 259.568L394.031 267.651L398.738 264.971Z" fill="white"/>
<path d="M320.834 150.321C319.36 145.205 314.388 140.744 306.939 141.092C299.777 141.44 294.498 144.612 292.738 149.953C291.694 153.124 291.94 158.67 293.843 162.66C294.784 164.624 296.585 166.425 298.734 167.919L296.646 175.306C298.509 177.557 306.284 180.278 311.748 179.992C311.748 179.992 312.403 177.414 313.099 174.651C316.741 175.674 319.422 172.687 320.731 168.615C321.632 165.791 321.939 154.311 320.813 150.321H320.834Z" fill="#FF8E54"/>
<path d="M320.832 150.321C319.359 145.205 314.386 140.744 306.938 141.092C306.815 141.092 306.692 141.113 306.569 141.133L292.409 151.303C291.795 154.536 292.184 159.181 293.862 162.66C294.803 164.624 296.604 166.425 298.752 167.919L296.665 175.306C298.527 177.557 306.303 180.278 311.767 179.992C311.767 179.992 312.422 177.414 313.117 174.651C314.427 175.02 315.614 174.856 316.678 174.303C315.614 173.874 314.775 172.769 313.936 171.234C312.606 168.799 317.046 167.244 317.271 164.788C317.496 162.353 315.941 158.117 318.827 156.132C320.32 155.109 320.914 153.329 321.139 151.815C321.057 151.242 320.955 150.73 320.832 150.3V150.321Z" fill="#FF5F4D"/>
<path d="M308.8 410.24C342.557 410.24 369.923 392.852 369.923 371.402C369.923 349.952 342.557 332.563 308.8 332.563C275.043 332.563 247.678 349.952 247.678 371.402C247.678 392.852 275.043 410.24 308.8 410.24Z" fill="#CBDCEB"/>
<path d="M336.67 172.318L339.289 170.313L342.686 163.191C342.686 163.191 344.548 162.414 344.998 162.271C345.469 162.107 349.009 162.885 349.009 162.885C349.009 162.885 350.707 160.879 351.178 160.572C351.649 160.265 353.49 158.26 354.268 158.71C355.046 159.181 354.882 159.938 354.432 160.572C353.961 161.186 352.426 162.741 352.426 162.741L350.728 166.916L350.892 168.471C350.892 168.471 351.812 168.471 352.119 169.392C352.426 170.313 352.426 171.254 351.342 171.561C350.257 171.868 349.336 172.338 349.336 172.338C349.336 172.338 347.167 173.894 345.94 174.344C344.712 174.814 343.32 175.121 343.32 175.121L342.543 176.983L336.67 172.338V172.318Z" fill="#FF8E54"/>
<path d="M352.119 169.372C352.119 169.372 352.078 169.331 352.078 169.29C351.444 169.29 350.687 169.372 350.237 169.556C349.377 169.924 348.129 171.664 347.638 172.032C347.147 172.4 344.159 173.771 342.809 172.523C341.806 171.602 339.596 171.111 338.512 170.907L336.67 172.319L342.543 176.964L343.32 175.101C343.32 175.101 344.712 174.795 345.94 174.324C347.167 173.853 349.336 172.319 349.336 172.319C349.336 172.319 350.257 171.848 351.342 171.541C352.426 171.234 352.426 170.313 352.119 169.372Z" fill="#FF5F4D"/>
<path d="M333.764 173.506L337.058 170.804C337.058 170.804 342.583 171.991 343.197 176.636L340.496 179.481L333.764 173.506Z" fill="#F9FBFC"/>
<path d="M315.941 188.137L333.887 171.542C333.887 171.542 341.97 171.992 342.85 178.724L324.904 199.351C324.904 199.351 315.941 197.55 315.941 188.137Z" fill="#253C72"/>
<path d="M324.905 199.35L342.851 178.723C342.606 176.882 341.808 175.511 340.784 174.488C334.748 183 323.718 192.352 323.718 192.352L322.225 198.368C323.739 199.125 324.905 199.37 324.905 199.37V199.35Z" fill="#252F4C"/>
<path d="M282.034 363.624L281.481 371.134C281.399 372.341 282.075 373.467 283.18 373.937C284.203 374.367 285.697 374.695 287.661 374.388C291.958 373.733 293.943 371.42 294.598 370.09C295.253 368.76 303.868 362.806 302.865 359.838C301.208 356.871 298.24 359.838 295.253 359.838C292.265 359.838 285.983 358.345 282.013 363.645L282.034 363.624Z" fill="#171E26"/>
<path d="M284.019 248.686C284.019 248.686 282.034 299.291 283.037 315.17C283.037 315.17 279.067 354.868 281.052 364.281C281.052 364.281 287.989 369.233 293.943 365.263C295.437 364.772 295.437 362.787 295.437 362.787C295.437 362.787 299.407 325.585 300.389 314.167C301.372 302.749 309.311 268.514 307.838 261.086C306.344 253.638 296.931 243.222 284.019 248.686Z" fill="#171E26"/>
<path d="M316.022 374.204C316.022 374.204 313.3 382.635 315.285 384.62C317.27 386.605 319.746 387.096 321.567 386.523C323.389 385.95 325.128 385.111 325.128 385.111L325.701 383.372L326.356 384.538C326.356 384.538 327.338 384.374 328.668 383.638C329.998 382.901 333.804 381.407 335.359 380.404C336.935 379.422 339.738 377.683 339.984 375.534C340.148 373.386 332.454 374.122 330.387 374.204C328.32 374.286 326.99 373.468 326.253 373.468C325.517 373.468 317.495 374.45 317.495 374.45" fill="#171E26"/>
<path d="M328.566 247.764C328.566 247.764 330.633 255.315 330.633 270.539C330.633 285.764 329.303 324.111 329.303 324.111C329.303 324.111 328.648 363.134 327.973 373.058C327.973 373.058 323.348 379.013 315.408 374.388C311.439 369.764 312.769 366.449 312.769 366.449C312.769 366.449 307.469 342.63 309.454 320.796C309.454 320.796 302.169 276.473 300.859 271.194C299.55 265.915 276.468 263.623 285.471 237.799L328.546 247.764H328.566Z" fill="#1F2F3F"/>
<path d="M315.94 271.215C315.94 271.215 326.602 275.88 325.272 291.207C323.941 306.534 321.281 316.54 322.611 325.851C323.941 335.182 325.947 340.502 324.617 351.839C323.532 361.047 319.808 369.826 322.755 376.005C326.151 375.432 328.014 373.038 328.014 373.038C328.668 363.114 329.344 324.091 329.344 324.091C329.344 324.091 330.674 285.723 330.674 270.519C330.674 263.971 330.285 258.855 329.855 255.131L313.301 262.559L315.961 271.215H315.94Z" fill="#25437F"/>
<path d="M333.191 199.022C333.335 195.728 331.759 192.597 329.017 190.776C322.96 186.745 314.713 181.608 309.393 178.805C302.763 175.306 295.908 171.622 292.245 171.275C282.034 170.333 275.875 179.828 276.837 192.31C277.43 199.902 279.435 208.353 282.198 217.03C283.364 220.733 284.162 227.282 284.469 233.298C284.408 236.203 284.162 239.498 283.364 241.421C281.707 245.391 280.049 261.27 280.049 261.27C280.049 261.27 291.304 272.852 305.853 273.835C320.402 274.817 326.029 271.85 326.029 271.85L327.012 265.24L328.997 271.195C328.997 271.195 331.636 270.213 331.964 267.552C332.271 265.158 329.61 244.757 329.078 240.787C329.917 232.54 331.575 220.406 332.086 214.901C332.557 209.827 332.946 204.015 333.171 199.043L333.191 199.022Z" fill="#25437F"/>
<path d="M296.912 171.355C296.912 171.355 301.7 175.489 313.118 177.146L314.837 181.259C314.837 181.259 310.479 182.426 304.851 181.771C299.224 181.116 294.599 176.635 294.108 175.652L293.617 174.67L296.932 171.355H296.912Z" fill="#F9FBFC"/>
<path d="M290.283 149.932C290.283 149.932 290.283 142.279 298.611 139.946C306.94 137.613 307.942 138.616 310.275 136.938C312.608 135.281 315.616 134.933 319.934 136.263C324.272 137.593 324.926 141.931 323.596 145.921C322.266 149.912 321.591 152.244 318.256 153.922C314.92 155.58 315.595 159.591 315.595 159.591C315.595 159.591 316.271 163.929 313.938 165.586L311.933 160.593C311.933 160.593 310.275 166.261 308.597 168.246C306.94 170.252 303.256 171.254 299.593 171.254C295.931 171.254 291.265 162.251 289.935 159.263C288.605 156.255 291.265 153.595 291.265 153.595C291.265 153.595 289.608 152.265 290.262 149.932H290.283Z" fill="#25437F"/>
<path d="M319.933 199.248C316.597 191.247 304.606 193.252 288.604 187.257C280.91 184.371 279.846 179.951 280.828 176.125C277.8 179.951 276.306 185.701 276.818 192.311C277.411 199.903 279.416 208.354 282.179 217.03C283.345 220.734 284.143 227.282 284.45 233.298C284.389 236.204 284.143 239.498 283.345 241.422C281.688 245.392 280.03 261.271 280.03 261.271C280.03 261.271 291.285 272.853 305.834 273.835C313.958 274.388 319.278 273.712 322.429 272.996C324.721 256.319 314.469 248.134 311.952 240.562C309.292 232.561 323.289 207.249 319.953 199.248H319.933Z" fill="#252F4C"/>
<path d="M317.047 139.271C315.533 136.489 312.566 136.448 310.295 136.918C310.295 136.918 310.295 136.918 310.274 136.918C307.941 138.576 306.939 137.594 298.61 139.926C290.282 142.259 290.282 149.912 290.282 149.912C289.607 152.245 291.285 153.575 291.285 153.575C291.285 153.575 288.624 156.235 289.954 159.243C290.855 161.269 293.29 166.037 295.909 168.922C301.066 168.022 303.317 163.786 302.396 161.024C301.066 157.033 305.506 160.573 306.857 157.975C308.207 155.355 302.396 153.473 308.166 148.152C313.937 142.812 319.708 144.162 317.047 139.271Z" fill="#252F4C"/>
<path d="M381.488 227.569L384.292 226.934C384.292 226.934 388.957 223.23 389.612 223.026C390.267 222.821 395.915 218.585 396.467 219.547C397.02 220.529 396.385 221.389 395.567 221.921C394.748 222.453 393.132 223.19 393.132 223.19L391.72 225.256C391.72 225.256 392.62 226.709 392.661 227.548C392.702 228.387 392.579 229.553 392.579 229.553C392.579 229.553 393.152 231.027 392.375 232.398C391.597 233.769 389.817 234.69 388.63 234.567C387.463 234.444 384.783 234.239 384.783 234.239L382.962 234.485L381.488 227.548V227.569Z" fill="#FF8E54"/>
<path d="M392.375 232.438C392.825 231.661 392.804 230.863 392.743 230.31C392.047 231.067 391.065 231.988 390.308 232.07C388.978 232.234 387.3 233.4 386.134 231.579C384.967 229.737 382.634 228.243 382.634 228.243L381.57 228.059L382.941 234.525L384.763 234.28C384.763 234.28 387.443 234.484 388.61 234.607C389.776 234.73 391.577 233.809 392.354 232.438H392.375Z" fill="#FF5F4D"/>
<path d="M378.604 227.119L382.062 226.525C382.062 226.525 384.599 228.06 384.865 231.559C384.927 234.751 383.719 235.897 383.719 235.897L380.916 236.245L378.624 227.119H378.604Z" fill="#CBDCEB"/>
<path d="M328.657 191.083C328.657 191.083 332.259 191.738 335.001 197.918C337.743 204.097 346.91 225.297 349.161 227.057C351.412 228.796 378.648 225.686 378.648 225.686C378.648 225.686 384.03 229.165 382.761 233.625C381.492 237.636 379.692 237.227 379.692 237.227C379.692 237.227 352.947 243.448 347.626 243.959C342.306 244.471 340.055 242.281 338.704 241.422C337.354 240.542 326.406 219.363 324.135 215.843C321.863 212.324 315.929 199.964 320.308 195.462C324.687 190.96 328.657 191.083 328.657 191.083Z" fill="#25437F"/>
<path d="M379.691 237.227C379.691 237.227 381.471 237.657 382.76 233.625C383.026 232.684 382.985 231.804 382.78 230.986C379.691 231.948 375.291 233.216 370.769 234.239C362.359 236.122 351.534 238.127 343.962 235.569C336.371 233.012 328.574 214.452 325.771 204.261C324.338 199.064 324.768 194.787 325.546 191.82C324.072 192.413 322.251 193.457 320.328 195.442C315.949 199.944 321.883 212.303 324.154 215.823C326.426 219.342 337.373 240.521 338.724 241.401C340.074 242.281 342.325 244.471 347.646 243.939C352.966 243.427 379.711 237.206 379.711 237.206L379.691 237.227Z" fill="#252F4C"/>
<path d="M127.936 123.183L128.488 314.04L237.207 251.26L236.675 60.4026L127.936 123.183Z" fill="#CBDCEB"/>
<path d="M142.156 131.184L138.391 128.994L138.943 319.851L142.688 322.021L142.156 131.184Z" fill="#BDC5CB"/>
<path d="M250.875 68.4034L247.13 66.2139L138.391 128.994L142.156 131.184L250.875 68.4034Z" fill="white"/>
<path d="M142.156 131.184L142.688 322.021L251.428 259.262L250.876 68.4043L142.156 131.184Z" fill="#EAF1F7"/>
<path d="M227.753 109.331V112.073L164.461 148.62V145.878L227.753 109.331Z" fill="#A6D0F4"/>
<path d="M200.372 136.097V138.839L164.501 159.547L164.48 156.805L200.372 136.097Z" fill="#A6D0F4"/>
<path d="M222.698 176.818V179.54L164.645 213.058V210.337L222.698 176.818Z" fill="#A6D0F4"/>
<path d="M200.477 177.535L200.497 180.256L164.605 200.965V198.243L200.477 177.535Z" fill="#A6D0F4"/>
<path d="M210.031 161.061V163.783L164.583 190.036L164.562 187.294L210.031 161.061Z" fill="#A6D0F4"/>
<path d="M180.996 159.402V162.144L164.523 171.639V168.918L180.996 159.402Z" fill="#A6D0F4"/>
<path d="M181.997 221.263C192.085 215.431 201.642 216.925 205.591 226.113C210.522 237.592 204.916 256.95 193.027 270.312L190.264 263.887C198.327 254.495 202.071 241.194 198.654 233.254C195.871 226.788 189.139 225.724 182.018 229.837C180.278 230.84 178.518 232.149 176.8 233.766L174.037 227.34C176.656 224.823 179.357 222.777 181.997 221.263Z" fill="#100C41"/>
<path d="M174.036 227.362L176.799 233.787C176.369 234.197 175.939 234.626 175.51 235.056C166.342 244.49 161.881 258.977 165.503 267.449C165.647 267.756 165.769 268.042 165.933 268.329C165.994 268.431 166.035 268.533 166.097 268.636C168.757 273.301 173.811 274.447 179.439 272.176C180.319 271.828 181.219 271.398 182.119 270.866C182.365 270.723 182.61 270.58 182.835 270.436C183.265 270.17 183.613 269.945 183.94 269.72L184.084 269.618C184.8 269.106 185.516 268.554 186.253 267.94C186.335 267.858 186.437 267.776 186.519 267.694C186.785 267.469 187.051 267.224 187.317 266.978C187.419 266.896 187.521 266.794 187.603 266.692C187.951 266.364 188.299 266.016 188.647 265.669C189.199 265.096 189.731 264.502 190.243 263.909L193.005 270.334C192.473 270.928 191.941 271.521 191.409 272.073C190.918 272.585 190.427 273.056 189.936 273.526C189.793 273.67 189.65 273.792 189.506 273.915C189.138 274.263 188.749 274.611 188.36 274.938C188.238 275.061 188.115 275.163 187.972 275.266C186.948 276.146 185.925 276.944 184.902 277.66C184.82 277.721 184.738 277.783 184.657 277.824C184.186 278.151 183.715 278.458 183.265 278.744L183.101 278.847C182.774 279.051 182.467 279.235 182.14 279.42C181.383 279.849 180.625 280.259 179.868 280.606C179.295 280.873 178.763 281.098 178.231 281.323C169.637 284.72 161.963 282.571 158.526 274.59C153.369 262.599 159.712 242.034 172.706 228.651C173.136 228.201 173.566 227.792 174.016 227.362H174.036Z" fill="#B0BEC5"/>
<path d="M233.502 229.039V230.43C233.502 231.249 234.382 231.76 235.098 231.351L241.646 227.586C241.974 227.402 242.178 227.054 242.178 226.665V225.273C242.178 224.455 241.298 223.943 240.582 224.353L234.034 228.118C233.707 228.302 233.502 228.65 233.502 229.039Z" fill="#B0BEC5"/>
<path d="M212.773 247.802V249.193C212.773 250.012 213.653 250.523 214.37 250.114L241.647 234.48C241.974 234.296 242.179 233.948 242.179 233.559V232.168C242.179 231.349 241.299 230.838 240.582 231.247L213.305 246.881C212.978 247.065 212.773 247.413 212.773 247.802Z" fill="#B0BEC5"/>
<g opacity="0.53">
<path d="M224.008 255.149V256.541C224.008 257.359 224.888 257.871 225.604 257.461L241.647 248.274C241.974 248.089 242.179 247.742 242.179 247.353V245.961C242.179 245.143 241.299 244.631 240.583 245.041L224.54 254.228C224.212 254.413 224.008 254.76 224.008 255.149Z" fill="#B0BEC5"/>
</g>
<path d="M216.988 252.284V253.676C216.988 254.494 217.868 255.006 218.584 254.596L241.626 241.377C241.953 241.193 242.158 240.845 242.158 240.457V239.065C242.158 238.247 241.278 237.735 240.562 238.144L217.52 251.363C217.193 251.547 216.988 251.895 216.988 252.284Z" fill="#B0BEC5"/>
</g>
<defs>
<linearGradient id="paint0_linear_763_4455" x1="181.731" y1="465.447" x2="433.813" y2="465.447" gradientUnits="userSpaceOnUse">
<stop stop-color="white"/>
<stop offset="1" stop-color="#CBDCEB"/>
</linearGradient>
<linearGradient id="paint1_linear_763_4455" x1="278.318" y1="292.252" x2="386.914" y2="591.501" gradientUnits="userSpaceOnUse">
<stop stop-color="white"/>
<stop offset="1" stop-color="#CBDCEB"/>
</linearGradient>
<clipPath id="clip0_763_4455">
<rect width="580" height="538.44" fill="white"/>
</clipPath>
</defs>
</svg>
