<svg width="24" height="24" viewBox="0 0 24 24" fill="none" xmlns="http://www.w3.org/2000/svg">
<g clip-path="url(#clip0_1540_1189)">
<path d="M11.6805 3.96045C12.4999 3.96045 13.3403 3.98153 14.1549 4.01603L15.1171 4.06203L16.038 4.11666L16.9005 4.17512L17.6883 4.23645C18.5432 4.30188 19.3476 4.66669 19.96 5.2667C20.5725 5.8667 20.9537 6.66347 21.0367 7.51682L21.075 7.92412L21.1469 8.7962C21.214 9.69991 21.2638 10.6851 21.2638 11.6271C21.2638 12.5692 21.214 13.5543 21.1469 14.458L21.075 15.3301C21.0626 15.47 21.0501 15.6052 21.0367 15.7374C20.9537 16.5909 20.5723 17.3878 19.9597 17.9878C19.347 18.5879 18.5424 18.9526 17.6873 19.0178L16.9015 19.0782L16.039 19.1376L15.1171 19.1922L14.1549 19.2382C13.3306 19.274 12.5056 19.2926 11.6805 19.2938C10.8554 19.2926 10.0304 19.274 9.20609 19.2382L8.24392 19.1922L7.32296 19.1376L6.46046 19.0782L5.67271 19.0178C4.81783 18.9524 4.01341 18.5875 3.40095 17.9875C2.7885 17.3875 2.40726 16.5908 2.32429 15.7374L2.28596 15.3301L2.21408 14.458C2.14081 13.5161 2.10181 12.5719 2.09717 11.6271C2.09717 10.6851 2.147 9.69991 2.21408 8.7962L2.28596 7.92412C2.29842 7.7842 2.31088 7.64907 2.32429 7.51682C2.40723 6.66362 2.78833 5.86697 3.40059 5.26699C4.01284 4.667 4.81704 4.3021 5.67175 4.23645L6.45854 4.17512L7.32104 4.11666L8.24296 4.06203L9.20513 4.01603C10.0298 3.98022 10.8551 3.96169 11.6805 3.96045ZM11.6805 5.87712C10.8899 5.87712 10.0763 5.8982 9.28467 5.93078L8.34742 5.97582L7.44754 6.02853L6.60229 6.08603L5.82796 6.14641C5.42098 6.17528 5.03738 6.34732 4.74513 6.63202C4.45289 6.91672 4.27088 7.2957 4.23138 7.70178C4.11925 8.86041 4.01383 10.3027 4.01383 11.6271C4.01383 12.9515 4.11925 14.3938 4.23138 15.5525C4.31283 16.3881 4.976 17.0379 5.82796 17.1078L6.60229 17.1672L7.44754 17.2247L8.34742 17.2784L9.28467 17.3235C10.0763 17.356 10.8899 17.3771 11.6805 17.3771C12.4711 17.3771 13.2848 17.356 14.0763 17.3235L15.0136 17.2784L15.9135 17.2257L16.7587 17.1682L17.533 17.1078C17.94 17.0789 18.3236 16.9069 18.6159 16.6222C18.9081 16.3375 19.0901 15.9585 19.1296 15.5525C19.2418 14.3938 19.3472 12.9515 19.3472 11.6271C19.3472 10.3027 19.2418 8.86041 19.1296 7.70178C19.0901 7.2957 18.9081 6.91672 18.6159 6.63202C18.3236 6.34732 17.94 6.17528 17.533 6.14641L16.7587 6.08699L15.9135 6.02949L15.0136 5.97582L14.0763 5.93078C13.2782 5.89644 12.4794 5.87855 11.6805 5.87712ZM9.76383 9.30316C9.76377 9.20949 9.78659 9.11723 9.83031 9.0344C9.87403 8.95156 9.93732 8.88066 10.0147 8.82786C10.092 8.77506 10.1811 8.74195 10.2742 8.73142C10.3673 8.72089 10.4615 8.73326 10.5487 8.76745L10.6263 8.80578L14.6513 11.1288C14.7315 11.175 14.7993 11.2399 14.849 11.318C14.8987 11.396 14.9288 11.4849 14.9368 11.5771C14.9448 11.6693 14.9304 11.7621 14.8949 11.8475C14.8594 11.933 14.8038 12.0086 14.7328 12.0679L14.6513 12.1255L10.6263 14.4494C10.5452 14.4964 10.4539 14.5228 10.3602 14.5264C10.2665 14.53 10.1734 14.5106 10.089 14.47C10.0045 14.4294 9.93124 14.3687 9.87557 14.2933C9.81991 14.2179 9.78352 14.13 9.76958 14.0373L9.76383 13.9511V9.30316Z" fill="white"/>
</g>
<defs>
<clipPath id="clip0_1540_1189">
<rect width="23" height="23" fill="white" transform="translate(0.180664 0.127197)"/>
</clipPath>
</defs>
</svg>
