<svg width="499" height="511" viewBox="0 0 499 511" fill="none" xmlns="http://www.w3.org/2000/svg">
<g clip-path="url(#clip0_1324_3055)">
<path d="M248.673 510.312C386.011 510.312 497.345 440.115 497.345 353.524C497.345 266.933 386.011 196.736 248.673 196.736C111.335 196.736 0 266.933 0 353.524C0 440.115 111.335 510.312 248.673 510.312Z" fill="#313131"/>
<path d="M142.297 476.414C189.932 476.414 228.548 453.713 228.548 425.709C228.548 397.705 189.932 375.004 142.297 375.004C94.6625 375.004 56.0469 397.705 56.0469 425.709C56.0469 453.713 94.6625 476.414 142.297 476.414Z" fill="white"/>
<path d="M476.866 203.236C473.9 208.532 467.356 215.874 462.757 223.545C457.159 232.9 453.119 245.451 453.012 265.091C448.971 261.185 444.641 257.345 440.053 253.613C439.967 253.537 439.87 253.449 439.784 253.384C439.484 243.109 440.365 231.467 442.696 217.877C446.038 198.356 457.911 179.646 469.226 178.475C479.777 177.37 484.29 190.008 476.866 203.247V203.236Z" fill="#E0E0E0"/>
<path d="M471.525 186.517C457.944 197.557 444.555 226.367 445.737 258.854C445.275 258.416 444.824 257.968 444.351 257.53C443.577 225.142 457.052 196.496 470.687 185.444C470.977 185.204 471.396 185.247 471.633 185.543C471.869 185.849 471.826 186.276 471.536 186.517H471.525Z" fill="white"/>
<path d="M491.147 227.408C489.116 234.203 476.211 241.359 467.937 252.705C463.285 259.106 460.276 265.562 458.729 270.847C455.914 267.882 452.948 264.96 449.832 262.083C451.111 243.744 458.621 232.058 465.273 223.753C467.637 220.788 474.137 216.673 476.759 215.82C488.407 212.045 493.586 219.212 491.147 227.397V227.408Z" fill="#EBEBEB"/>
<path d="M481.82 224.541C473.632 228.239 458.31 241.632 454.85 266.887C454.452 266.482 454.055 266.099 453.657 265.705C457.364 240.582 472.332 227.32 481.272 223.272C481.637 223.108 482.024 223.272 482.164 223.633C482.325 223.972 482.164 224.388 481.831 224.541H481.82Z" fill="white"/>
<path d="M19.0736 334.256L26.9282 338.873L39.8545 331.269V111.258L48.472 106.192L33.6868 87.1859L25.8322 82.5684L10.4561 119.312L18.3107 123.929L19.0736 123.48V334.256Z" fill="#3ECF7A"/>
<path opacity="0.7" d="M19.0736 334.256L26.9282 338.873L39.8545 331.269V111.258L48.472 106.192L33.6868 87.1859L25.8322 82.5684L10.4561 119.312L18.3107 123.929L19.0736 123.48V334.256Z" fill="#33AA94"/>
<path d="M26.9281 338.873L39.8544 331.268V111.258L48.4719 106.192L33.6867 87.1855L18.3105 123.929L26.9281 118.863V338.873Z" fill="#3ECF7A"/>
<path opacity="0.5" d="M26.9281 338.873L39.8544 331.268V111.258L48.4719 106.192L33.6867 87.1855L18.3105 123.929L26.9281 118.863V338.873Z" fill="#3ECF7A"/>
<path d="M19.0732 334.256L26.9279 338.874V118.863L19.0732 123.481V334.256Z" fill="#33AA94"/>
<path opacity="0.3" d="M19.0732 334.256L26.9279 338.874V118.863L19.0732 123.481V334.256Z" fill="#33AA94"/>
<path d="M62.3972 311.102L68.2855 314.56L77.9668 308.87V179.809L84.4353 176.013L73.3464 159.906L67.4581 156.448L55.9395 185.849L61.8277 189.307L62.3972 188.968V311.102Z" fill="#B9B9B9"/>
<path d="M61.8277 189.307L73.3464 159.906L67.4581 156.448L55.9395 185.849L61.8277 189.307Z" fill="#B9B9B9"/>
<path d="M68.2859 314.56L77.9672 308.87V179.81L84.4357 176.013L73.3468 159.906L61.8281 189.307L68.2859 185.51V314.56Z" fill="#EBEBEB"/>
<path d="M361.033 451.739L317.473 384.14L343.325 368.941L386.886 436.541L361.033 451.739Z" fill="#455A64"/>
<path d="M317.472 384.139L274.428 358.809L300.28 343.61L343.325 368.941L317.472 384.139Z" fill="#37474F"/>
<path d="M300.291 343.611L265.112 289.087L275.46 283.003L236.101 271.7L228.934 310.358L239.26 304.285L274.45 358.809L300.291 343.611Z" fill="#455A64"/>
<path d="M102.11 415.052C102.734 413.98 102.723 412.295 102.497 411.124C102.132 409.209 101.176 407.48 100.38 405.708C97.2214 398.683 97.5653 391.21 99.4027 383.714C100.219 380.377 103.561 378.801 106.376 377.062C112.103 373.527 121.559 367.586 121.559 367.586L107.838 346.468C98.9621 356.348 87.927 367.575 87.927 367.575L86.2937 369.282C85.9176 369.741 85.692 370.299 85.3589 370.77C84.9183 371.372 84.2307 371.875 83.7042 372.389C82.6082 373.451 81.5014 374.523 80.4054 375.584C79.4384 376.525 78.4391 377.51 78.0093 378.79C77.2034 381.187 78.6002 383.692 79.3524 386.111C80.5773 390.039 80.126 394.262 80.2335 398.387C80.2657 399.504 80.3302 400.62 80.5988 401.703C81.0931 403.727 82.2428 405.511 83.5322 407.13C86.4549 410.818 90.1942 413.838 94.3955 415.895C95.7708 416.573 97.3611 416.781 98.8976 416.606C99.9614 416.485 101.519 416.059 102.121 415.041L102.11 415.052Z" fill="#FFA8A7"/>
<path d="M76.2259 377.991C75.4952 379.074 75.1943 380.136 74.9042 381.383C74.6141 382.631 77.3648 387.544 77.5797 390.027C77.7946 392.5 77.526 393.288 77.526 396.494C77.526 400.05 76.4408 403.716 81.8563 410.751C87.347 417.875 94.1808 420.14 98.1887 420.807C100.295 421.157 103.916 421.015 106.441 419.932C106.914 419.724 107.698 418.291 107.075 417.306C105.549 414.898 76.2151 377.991 76.2151 377.991H76.2259Z" fill="#263238"/>
<path d="M101.155 381.011C101.348 381.876 100.746 382.894 100.252 384.743C99.7901 386.472 99.4462 389.809 99.9083 392.687C100.306 395.181 100.843 397.654 101.466 400.094C101.724 401.112 102.294 403.836 104.658 405.926C105.743 406.889 106.968 408.093 107.86 410.073C109.095 412.798 108.257 417.087 105.99 418.17C103.626 419.297 99.0272 419.462 96.5021 418.783C93.6976 418.039 91.0651 416.628 88.5937 415.107C83.9519 412.251 79.0521 404.591 78.8372 400.335C78.6331 396.079 79.3745 392.971 79.0629 389.754C78.7513 386.537 75.5815 381.099 76.2154 377.981C76.7419 375.88 79.0199 373.68 79.9117 372.958C81.7062 371.503 83.6725 369.785 84.6181 368.625C85.6388 367.367 86.8208 366.995 87.9383 367.586L86.305 369.293C85.2843 373.199 85.4025 374.02 85.5529 375.759C85.757 378.068 86.5414 379.053 86.8745 380.858C87.6804 378.265 87.6697 376.175 89.4426 375.716C90.4096 375.464 91.4304 375.42 94.7184 376.788C98.0064 378.156 100.983 380.246 101.144 381.011H101.155Z" fill="#455A64"/>
<path d="M105.797 407.02C105.539 407.283 105.174 407.425 104.507 407.316C103.959 407.228 103.132 406.616 102.648 405.85C102.176 405.084 101.939 403.3 101.81 402.545C101.81 402.545 100.725 401.32 96.8354 401.32C92.5804 401.32 90.152 402.075 90.152 402.075C90.152 402.075 90.4099 403.727 90.4314 404.373C90.4851 405.893 89.9263 407.458 88.7229 407.863C86.6061 408.585 83.3826 406.134 82.2221 404.712C80.7393 402.884 79.9764 400.444 79.4499 398.475C79.3317 398.026 79.1168 397.184 78.9341 395.63C78.8374 397.063 78.7622 398.595 78.8482 400.324C79.0523 404.58 83.9628 412.251 88.6047 415.096C91.0761 416.617 93.7086 418.017 96.513 418.772C99.0489 419.451 103.637 419.286 106.001 418.159C108.268 417.076 109.106 412.787 107.871 410.062C107.28 408.749 106.538 407.786 105.797 406.999V407.02Z" fill="#37474F"/>
<path d="M101.144 402.37C101.563 403.191 102.24 403.924 103.111 404.197C103.111 404.175 103.111 404.154 103.111 404.132C102.025 402.479 101.66 400.838 101.467 400.094C100.833 397.654 100.306 395.181 99.9085 392.686C99.6721 391.22 99.6506 389.634 99.7366 388.2C99.7366 388.2 99.7366 388.2 99.7258 388.2C99.3605 388.66 99.4572 389.612 99.4357 390.159C99.3068 393.124 99.7796 396.166 100.166 399.098C100.306 400.171 100.639 401.385 101.133 402.359L101.144 402.37Z" fill="#37474F"/>
<path d="M83.511 374.753C83.3928 373.057 83.6077 371.12 83.9838 369.347C84.2309 369.085 84.4566 368.844 84.6285 368.625C85.6493 367.367 86.8312 366.995 87.9487 367.586L86.3155 369.293C86.1435 370.31 85.6385 372.4 86.0146 375.015C86.3907 377.63 86.5519 379.053 86.8849 380.858C87.6801 386.833 87.2073 389.109 88.5612 394.514C89.9043 399.919 92.2252 403.005 91.6235 403.574C91.011 404.143 89.3456 404.121 87.5296 400.072C85.7137 396.024 84.8971 388.354 84.9293 384.557C84.9616 380.76 83.8011 378.582 83.5325 374.753H83.511Z" fill="#37474F"/>
<path d="M90.7217 402.808C90.8184 402.841 90.9366 402.841 91.0333 402.808C94.7403 401.56 96.9753 401.374 101.112 402.895C101.402 402.983 101.703 402.852 101.811 402.567C101.907 402.283 101.768 401.965 101.488 401.856C97.1257 400.258 94.6436 400.433 90.7002 401.757C90.4208 401.856 90.2596 402.162 90.3563 402.458C90.41 402.644 90.5605 402.764 90.7217 402.819V402.808Z" fill="#263238"/>
<path d="M89.0017 397.961C89.0984 397.994 89.2059 397.994 89.3133 397.961C93.2245 396.856 95.6851 396.79 100.015 398.475C100.338 398.595 100.628 398.442 100.735 398.147C100.843 397.851 100.703 397.523 100.413 397.414C95.8356 395.641 93.1493 395.696 89.0125 396.877C88.7116 396.965 88.5397 397.271 88.6256 397.578C88.6794 397.775 88.8298 397.917 89.0017 397.972V397.961Z" fill="#263238"/>
<path d="M87.5086 392.916C87.616 392.96 87.7342 392.971 87.8524 392.949C92.2364 392.051 95.1268 392.227 99.7579 394.437C100.048 394.579 100.435 394.448 100.575 394.13C100.714 393.813 100.575 393.441 100.274 393.299C95.3955 390.979 92.2579 390.771 87.6053 391.712C87.2722 391.778 87.0573 392.106 87.1218 392.445C87.1648 392.664 87.3152 392.828 87.5086 392.905V392.916Z" fill="#263238"/>
<path d="M87.2611 388.365C87.3578 388.409 87.476 388.42 87.5942 388.398C91.9137 387.61 94.6967 387.829 99.1989 390.094C99.489 390.236 99.8543 390.116 100.005 389.809C100.155 389.503 100.026 389.142 99.7361 388.989C95.0083 386.614 91.9567 386.352 87.3793 387.183C87.057 387.238 86.8313 387.566 86.8958 387.894C86.928 388.113 87.0785 388.277 87.2611 388.354V388.365Z" fill="#263238"/>
<path d="M86.9494 384.119C87.0461 384.163 87.1643 384.174 87.2825 384.152C91.602 383.397 94.8685 384.086 99.3707 386.384C99.6608 386.537 100.026 386.417 100.177 386.111C100.327 385.804 100.209 385.443 99.9079 385.29C95.1909 382.883 91.6558 382.139 87.0784 382.948C86.756 383.003 86.5304 383.32 86.5841 383.66C86.6163 383.878 86.7668 384.043 86.9494 384.119Z" fill="#263238"/>
<path d="M188.941 238.886C188.941 238.886 186.76 260.234 187.35 266.875C188.135 275.793 188.21 278.955 188.661 287.939C190.187 318.095 190.875 324.343 184.471 331.324C179.797 336.433 169.707 342.408 164.7 344.946C145.004 354.914 108.428 376.733 108.428 376.733C108.428 376.733 104.044 376.908 98.8328 369.927C93.9438 363.384 94.9646 359.685 94.9646 359.685C94.9646 359.685 103.399 348.951 115.66 333.567C127.812 318.324 141.383 312.788 141.383 312.788L131.756 239.542L188.919 238.886H188.941Z" fill="#455A64"/>
<path d="M134.313 258.822L141.405 312.788C141.405 312.788 131.358 316.891 120.817 327.746C125.975 340.066 131.1 352.431 131.1 352.431C131.1 352.431 130.445 358.143 130.724 363.69C142.017 357.18 155.298 349.706 164.711 344.936C165.667 344.454 166.806 343.841 168.063 343.141C167.934 336.937 167.279 328.84 166.194 318.784C164.904 306.825 163.002 285.794 163.002 285.794C179.561 276.898 178.647 269.042 179.55 261.044L134.302 258.833L134.313 258.822Z" fill="#37474F"/>
<path d="M180.023 448.643C180.023 448.643 170.987 443.117 170.116 427.602C169.235 411.976 168.752 393.747 168.752 393.747L140.267 394.196L150.732 431.453L151.517 434.057C151.517 434.057 148.927 448.534 160.102 449.89C165.829 450.58 180.023 448.643 180.023 448.643Z" fill="#FFA8A7"/>
<path d="M148.433 448.326C148.497 449.737 148.916 450.853 149.475 452.122C150.023 453.381 155.535 455.788 157.308 457.779C159.07 459.771 159.35 460.624 161.402 463.382C163.68 466.435 165.098 470.319 174.253 472.77C183.537 475.254 189.457 473.667 193.336 471.577C195.378 470.483 196.699 468.218 196.699 468.218C196.699 468.218 197.731 462.911 194.84 461.981C191.939 461.051 148.433 448.304 148.433 448.304V448.326Z" fill="#263238"/>
<path d="M171.825 434.386C172.545 435.009 172.674 436.268 173.436 438.193C174.146 439.988 175.983 443.084 178.218 445.251C188.823 455.504 196.119 457.057 197 464.367C197.323 467.036 194.228 470.844 182.849 472.07C177.036 472.693 167.903 469.356 165.002 465.833C162.1 462.31 160.747 459.136 158.426 456.576C156.105 454.015 149.883 451.433 148.443 448.337C147.552 446.181 148.1 442.767 148.411 441.553C149.024 439.113 149.615 436.333 149.679 434.692C149.754 432.93 149.421 431.683 150.754 431.453L151.56 434.145C153.182 438.193 153.805 438.806 155.052 440.207C156.706 442.056 158.007 442.384 159.446 443.719C158.479 440.962 157.125 439.167 158.372 437.592C159.049 436.738 159.887 436.016 163.594 435.009C167.301 434.003 171.191 433.828 171.835 434.375L171.825 434.386Z" fill="#455A64"/>
<path d="M182.924 472.048C177.111 472.671 167.978 469.334 165.077 465.811C164.024 464.541 163.186 463.305 162.423 462.145C162.638 462.353 162.842 462.583 163.035 462.758C163.465 463.13 163.895 463.491 164.346 463.841C166.065 465.176 168.053 466.434 170.234 466.73C172.179 466.992 176.961 467.791 178.326 465.756C179.099 464.607 178.573 462.889 177.552 461.62C177.122 461.084 175.843 459.825 175.843 459.825C175.843 459.825 178.379 457.166 181.323 455.788C185.138 454.015 185.503 454.398 185.503 454.398C186.094 454.945 187.147 455.81 188.05 456.149C188.952 456.488 190.134 456.882 190.962 456.773C191.424 456.707 191.735 456.63 192.015 456.521C194.744 458.425 196.882 460.329 197.086 464.344C197.086 467.036 194.314 470.822 182.935 472.048H182.924Z" fill="#37474F"/>
<path d="M175.221 441.52C175.221 441.52 175.221 441.53 175.221 441.541C175.328 442.198 175.844 442.865 176.209 443.402C177.993 446.039 180.346 448.336 182.56 450.601C183.355 451.411 184.257 452.549 184.537 453.654C184.655 454.114 184.623 454.694 184.838 455.12C185.074 455.58 185.203 455.678 185.697 455.722C186.299 455.777 186.954 455.438 187.212 454.88C187.406 454.453 187.266 453.982 187.201 453.545C187.158 453.249 187.094 452.965 187.019 452.68C184.461 450.744 181.507 448.413 178.229 445.251C177.09 444.146 176.059 442.811 175.221 441.52Z" fill="#37474F"/>
<path d="M152.635 440.71C151.453 439.331 150.389 437.526 149.572 435.742C149.615 435.359 149.647 434.998 149.669 434.692C149.744 432.93 149.411 431.683 150.743 431.453L151.549 434.145C152.054 435.13 152.946 437.263 154.945 439.266C156.943 441.268 157.996 442.373 159.436 443.719C163.938 448.337 165.002 450.602 169.623 454.366C174.243 458.13 178.219 459.235 178.057 460.132C177.896 461.029 176.446 462.113 172.287 459.848C168.129 457.572 162.52 451.51 160.113 448.227C157.706 444.945 155.321 443.828 152.635 440.71Z" fill="#37474F"/>
<path d="M175.596 459.902C175.703 459.891 175.821 459.847 175.907 459.76C179.099 456.97 181.269 455.843 185.997 455.624C186.319 455.602 186.566 455.328 186.556 455C186.545 454.672 186.266 454.42 185.943 454.431C180.936 454.661 178.529 455.886 175.134 458.863C174.887 459.081 174.865 459.453 175.069 459.705C175.198 459.858 175.392 459.935 175.585 459.913L175.596 459.902Z" fill="#263238"/>
<path d="M172.212 456.794C172.32 456.773 172.427 456.729 172.513 456.652C175.78 453.687 178.133 452.429 183.129 451.969C183.494 451.925 183.699 451.641 183.677 451.302C183.645 450.962 183.355 450.722 183.022 450.744C177.767 451.236 175.189 452.593 171.718 455.733C171.471 455.952 171.449 456.346 171.664 456.598C171.804 456.762 172.019 456.827 172.212 456.794Z" fill="#263238"/>
<path d="M168.161 453.742C168.279 453.72 168.398 453.666 168.494 453.578C172.051 450.252 174.823 448.774 180.314 448.184C180.668 448.151 180.937 447.812 180.905 447.44C180.862 447.068 180.539 446.805 180.174 446.838C174.393 447.472 171.374 449.059 167.602 452.582C167.334 452.834 167.312 453.261 167.559 453.534C167.721 453.709 167.946 453.786 168.161 453.742Z" fill="#263238"/>
<path d="M164.754 449.967C164.872 449.945 164.99 449.89 165.076 449.803C168.59 446.575 171.265 445.164 176.67 444.616C177.014 444.584 177.283 444.255 177.25 443.894C177.218 443.533 176.896 443.26 176.541 443.303C170.879 443.872 167.934 445.393 164.206 448.818C163.937 449.059 163.916 449.486 164.163 449.748C164.313 449.923 164.539 449.989 164.754 449.956V449.967Z" fill="#263238"/>
<path d="M161.359 446.017C161.477 445.995 161.595 445.951 161.692 445.864C165.292 442.734 168.698 441.542 174.113 441.137C174.468 441.115 174.737 440.798 174.715 440.425C174.694 440.064 174.382 439.791 174.017 439.813C168.333 440.229 164.658 441.531 160.843 444.846C160.575 445.087 160.542 445.503 160.768 445.776C160.919 445.951 161.144 446.028 161.359 446.006V446.017Z" fill="#263238"/>
<path d="M185.911 238.885C185.911 238.885 189.994 252.705 183.741 263.865C175.488 278.582 163.046 282.336 158.447 283.331C158.447 283.331 163.304 320.392 165.077 333.5C166.205 341.904 167 350.92 168.375 378.537C169.256 396.154 170.417 420.675 170.417 420.675C170.417 420.675 167.193 424.45 158.565 424.92C150.549 425.358 147.938 423.553 147.938 423.553C147.938 423.553 135.99 387.543 134.131 373.417C132.831 363.58 133.787 353.24 133.787 353.24C133.787 347.156 116.369 311.157 113.361 294.24C110.352 277.324 111.104 264.303 117.369 239.706L185.911 238.874V238.885Z" fill="#455A64"/>
<path d="M202.2 63.9883C203.533 60.9793 206.466 54.7423 206.455 50.475C206.445 45.2994 204.22 45.8246 204.22 45.8246C205.134 41.5463 203.103 39.8941 202.147 39.8722C202.147 39.8722 202.437 38.1324 202.018 36.6224C201.609 35.1124 199.74 35.4407 198.332 36.8522C197.204 37.9792 196.602 41.2618 196.602 41.2618C196.602 41.2618 197.096 37.7823 195.667 37.5415C194.238 37.3008 192.605 38.1215 191.681 40.7804C191.068 42.5639 190.929 45.376 188.06 51.6348C185.191 57.8936 185.481 56.69 184.514 52.5649C183.536 48.4398 181.946 46.9407 180.001 47.0064C178.432 47.0611 179.292 51.9631 179.152 56.4602C179.023 60.6401 179.292 62.6862 180.764 67.3803C182.247 72.0744 184.621 73.4531 185.481 76.1777C187.458 82.4584 195.485 116.05 195.485 116.05C195.485 116.05 193.894 120.919 189.779 131.292C187.125 137.989 183.375 149.817 178.293 152.925C173.737 170.476 183.418 188.617 192.455 191.44C193.593 188.869 204.962 160.89 214.245 134.827C215.75 130.614 218.543 121.062 218.672 117.659C218.801 114.256 217.533 110.908 216.255 107.176C214.858 103.106 204.478 81.3642 202.254 74.8318C200.685 70.2252 201.287 67.0083 202.2 64.0102" fill="#FFA8A7"/>
<path d="M186.76 82.5238C194.313 85.5329 202.286 80.0837 203.393 77.7969C203.393 77.7969 212.698 96.5077 215.9 104.484C219.758 114.102 220.187 116.181 217.426 126.171C213.944 138.777 191.67 195.587 191.67 195.587C174.833 182.73 171.19 160.037 178.658 152.323C178.658 152.323 181.065 149.839 184.879 141.829C188.694 133.82 195.141 116.006 195.141 116.006L186.76 82.5238Z" fill="#E0E0E0"/>
<path d="M188.049 51.635C188.812 50.0375 189.51 48.4072 190.123 46.744C190.735 45.0808 191.176 43.341 191.584 41.6231C192.003 39.9818 192.906 38.1983 194.55 37.7606C194.936 37.6621 195.388 37.6621 195.732 37.7606C196.065 37.8591 196.247 38.2639 196.344 38.6579C196.527 39.4676 196.484 40.3757 196.387 41.2183C196.376 41.3386 196.451 41.4481 196.57 41.459C196.677 41.4699 196.785 41.3934 196.806 41.2839C197.021 40.2773 197.3 39.2597 197.698 38.3187C198.063 37.3558 198.751 36.6227 199.643 36.174C200.492 35.6816 201.641 35.7582 201.781 36.7758C202.028 37.7387 202.028 38.811 201.899 39.8068C201.878 39.949 201.974 40.0803 202.114 40.1022H202.136C202.576 40.1241 203.06 40.4852 203.382 40.901C203.715 41.3277 203.941 41.842 204.07 42.3781C204.328 43.4614 204.242 44.6322 204.027 45.7592C204.005 45.8686 204.08 45.989 204.188 46.0109H204.263H204.274C204.951 45.9124 205.585 46.5908 205.821 47.3239C206.111 48.068 206.208 48.8995 206.262 49.7202C206.38 51.3724 206.09 53.0137 205.66 54.6222C204.8 57.8282 203.522 60.9248 202.2 63.9776C203.597 60.9576 205.048 57.9376 205.939 54.6988C206.38 53.0903 206.702 51.4053 206.606 49.6983C206.563 48.8558 206.466 48.0023 206.165 47.1817C205.907 46.4048 205.23 45.4747 204.166 45.5951L204.414 45.8467C204.661 44.6869 204.768 43.4614 204.5 42.2687C204.36 41.6778 204.123 41.087 203.747 40.5946C203.361 40.1131 202.866 39.6645 202.146 39.5989L202.383 39.8943C202.533 38.811 202.555 37.7278 202.297 36.6445C202.211 36.0756 201.695 35.4628 201.072 35.3862C200.459 35.2877 199.901 35.4737 199.417 35.7254C198.439 36.1959 197.633 37.115 197.268 38.1326C196.86 39.1284 196.591 40.1569 196.376 41.2073L196.795 41.273C196.892 40.3648 196.935 39.4566 196.709 38.5484C196.591 38.1217 196.387 37.5746 195.85 37.3886C195.355 37.2463 194.915 37.2792 194.453 37.3886C192.583 37.9247 191.691 39.8505 191.283 41.5247C190.875 43.2644 190.488 44.9714 189.94 46.6564C189.392 48.3415 188.747 49.9937 188.038 51.6132L188.049 51.635Z" fill="#F28F8F"/>
<path d="M204.145 45.5518C202.877 45.9566 202.147 47.1383 201.803 48.2763C201.62 48.8453 201.566 49.4909 201.513 50.0489C201.427 50.607 201.255 51.165 201.051 51.7121C200.234 53.9005 199.17 56.0014 198.074 58.0803C199.245 56.0451 200.384 53.999 201.298 51.8106C201.523 51.2635 201.728 50.7054 201.835 50.1036C201.921 49.5018 201.985 48.9547 202.179 48.4076C202.533 47.3572 203.275 46.3396 204.285 46.077L204.145 45.5518Z" fill="#F28F8F"/>
<path d="M202.146 39.5987C201.233 39.5659 200.588 40.299 200.245 40.9446C199.879 41.623 199.654 42.3452 199.482 43.0673C199.224 44.5336 198.88 45.9232 198.418 47.3238C197.967 48.7134 197.472 50.0921 196.871 51.427L194.99 55.3989L196.989 51.4927C197.634 50.1687 198.171 48.8009 198.665 47.4222C199.159 46.0435 199.568 44.5883 199.858 43.1767C200.04 42.4765 200.277 41.7981 200.631 41.1963C200.975 40.5944 201.502 40.1021 202.103 40.1568L202.136 39.6097L202.146 39.5987Z" fill="#F28F8F"/>
<path d="M196.333 41.1748C195.678 43.1225 194.915 45.0373 194.12 46.9412C193.314 48.8342 192.497 50.7381 191.53 52.5435C192.583 50.7709 193.475 48.9108 194.367 47.0506C195.248 45.1796 196.086 43.2975 196.838 41.3608L196.333 41.1748Z" fill="#F28F8F"/>
<path d="M184.492 52.5654C185.126 55.2352 185.223 56.6577 185.997 55.651C184.578 58.1458 183.622 58.671 183.794 57.2486C183.966 55.8261 184.149 54.6115 184.181 53.0578C184.213 51.6463 183.676 50.0706 183.568 49.7861C183.923 50.5411 184.235 51.4493 184.492 52.5654Z" fill="#F28F8F"/>
<path d="M188.447 60.8925C190.252 60.2906 192.186 60.1265 194.002 60.783C194.12 60.8268 193.97 61.0128 193.873 61.0019C191.369 60.6517 188.318 61.166 186.652 63.2887C186.169 63.9015 185.803 64.6127 185.427 65.3021C185.331 65.4771 185.137 65.685 184.965 65.5756C184.858 65.499 184.847 65.3349 184.868 65.2036C185.105 63.0371 186.469 61.549 188.447 60.8925Z" fill="#F28F8F"/>
<path d="M155.772 156.262C143.963 157.29 137.279 160.934 133.433 158.669C127.587 155.233 124.955 160.124 124.955 160.124C124.955 160.124 116.724 174.579 120.055 192.239C121.538 200.095 121.259 214.714 120.818 218.533C119.292 231.619 117.133 238.633 114.532 250.472C114.532 250.472 118.884 263.121 152.548 265.332C174.296 266.754 187.76 259.106 187.76 259.106C187.76 259.106 191.94 214.243 192.509 197.918C193.422 171.603 178.755 153.526 178.39 153.1C178.283 152.968 178.003 153.023 178.003 153.023C171.008 156.12 166.495 155.343 155.782 156.273L155.772 156.262Z" fill="#F0F0F0"/>
<path d="M159.683 171.745L163.057 169.086L170.159 173.146L172.899 166.285L175.843 169.152L171.921 178.278L159.683 171.745Z" fill="#3ECF7A"/>
<path opacity="0.2" d="M159.683 171.745L163.057 169.086L170.159 173.146L172.899 166.285L175.843 169.152L171.921 178.278L159.683 171.745Z" fill="black"/>
<path d="M141.192 113.479C141.192 113.479 138.184 113.719 136.55 117.724C134.982 121.565 136.131 125.023 140.15 135.877C142.729 142.869 145.329 145.768 146.543 147.661C147.757 149.554 149.917 149.915 149.917 149.915L148.907 141.37L148.048 135.428C148.048 135.428 152.367 130.614 152.378 126.281C152.389 120.711 149.992 117.79 149.992 117.79L141.203 113.468L141.192 113.479Z" fill="#263238"/>
<path d="M141.192 113.479C141.568 108.588 147.038 102.274 158.546 100.535C167.969 99.1122 173.599 102.077 177.64 107.209C182.12 112.899 179.961 120.011 179.961 120.011L150.003 120.876L141.203 113.468L141.192 113.479Z" fill="#263238"/>
<path d="M142.632 142.815C146.21 144.5 148.499 141.786 148.499 141.786L147.037 158.834C151.722 165.421 164.702 167.117 170.161 174.492C171.59 170.225 171.676 161.843 170.333 159.02L170.934 152.126C170.934 152.126 173.008 151.678 174.867 150.967C178.542 149.555 182.668 146.896 183.334 140.867C184.162 133.339 182.066 126.183 178.746 115.69C178.101 113.665 177.016 111.488 175.071 110.733C170.225 108.84 166.25 112.615 160.039 115.788C157.46 117.101 151.035 118.195 149.24 117.539C151.808 118.36 152.958 124.159 149.949 127.726C149.928 128.032 150.884 132.179 149.477 133.109C147.908 134.16 147.328 131.348 145.329 129.706C143.492 128.185 139.183 127.562 137.754 131.939C136.593 135.473 138.527 140.9 142.621 142.815H142.632Z" fill="#FFA8A7"/>
<path d="M158.019 150.769C153.635 148.647 150.97 145.474 149.724 141.469C150.024 144.751 152.936 151.59 157.686 153.571C162.102 155.42 167.303 155.682 170.634 155.442L170.924 152.126C165.863 152.586 160.963 152.181 158.019 150.758V150.769Z" fill="#F28F8F"/>
<path d="M164.305 124.826L159.717 125.679C159.523 124.355 160.383 123.086 161.651 122.845C162.919 122.604 164.101 123.491 164.305 124.826Z" fill="#263238"/>
<path d="M176.382 118.479L173.051 121.85C172.095 120.941 172.063 119.453 172.987 118.512C173.911 117.582 175.426 117.56 176.382 118.468V118.479Z" fill="#263238"/>
<path d="M168.237 124.432L172.32 136.129L178.069 132.408C174.942 128.655 171.665 125.996 168.237 124.432Z" fill="#F28F8F"/>
<path d="M172.536 139.936C172.546 139.871 172.482 139.816 172.31 139.772C171.955 139.696 171.547 139.86 171.193 139.893C170.548 139.958 169.882 139.991 169.248 139.827C168.753 139.707 168.345 139.542 167.905 139.28C167.7 139.159 167.528 139.028 167.335 138.875C167.109 138.7 166.937 138.459 166.647 138.448C166.4 138.448 166.25 138.525 166.142 138.744C166.089 138.853 166.121 139.105 166.185 139.203C166.626 139.86 167.475 140.396 168.216 140.604C169.441 140.943 170.473 140.987 171.536 140.615C172.31 140.352 172.482 140.133 172.514 139.925L172.536 139.936Z" fill="#B16668"/>
<path d="M164.83 128.645C164.873 129.673 164.088 130.538 163.078 130.581C162.068 130.625 161.219 129.826 161.176 128.798C161.134 127.769 161.918 126.905 162.928 126.861C163.938 126.817 164.787 127.616 164.83 128.645Z" fill="#263238"/>
<path d="M177.767 124.169C177.81 125.198 177.026 126.062 176.016 126.106C175.006 126.15 174.157 125.351 174.114 124.322C174.071 123.294 174.855 122.429 175.865 122.386C176.875 122.342 177.724 123.141 177.767 124.169Z" fill="#263238"/>
<path d="M170.159 174.502C170.159 174.502 167.043 170.289 165.582 168.9C164.131 167.51 158.909 165.694 153.805 162.138C148.701 158.582 147.358 155.157 147.358 155.157L147.573 152.596C147.573 152.596 147.036 152.126 146.198 153.931C144.897 156.732 141.459 158.735 141.459 158.735C141.459 158.735 142.448 164.994 147.648 169.852C153.945 175.739 161.327 177.927 161.327 177.927C161.327 177.927 163.132 173.474 164.292 172.062C165.893 170.103 168.579 172.828 170.17 174.513L170.159 174.502Z" fill="#E0E0E0"/>
<path d="M170.159 174.502C170.159 174.502 170.75 170.18 170.933 167.663C171.244 163.276 170.331 159.03 170.331 159.03L170.868 152.826C170.868 152.826 172.953 154.785 173.802 155.496C174.651 156.207 175.414 156.656 175.414 156.656C175.414 156.656 177.079 158.91 177.896 163.998C178.863 170.049 177.713 175.454 177.713 175.454C177.713 175.454 174.758 170.016 173.49 169.349C172.222 168.67 171.535 171.789 170.17 174.513L170.159 174.502Z" fill="#E0E0E0"/>
<path d="M169.277 179.361C169.89 195.248 168.923 211.519 166.397 228.151C166.397 228.151 169.89 235.449 175.262 242.113C175.262 242.113 180.538 233.863 180.613 226.619C179.549 193.355 172.834 178.813 172.834 178.813L169.266 179.35L169.277 179.361Z" fill="#3ECF7A"/>
<path opacity="0.2" d="M169.277 179.361C169.89 195.248 168.923 211.519 166.397 228.151C166.397 228.151 169.89 235.449 175.262 242.113C175.262 242.113 180.538 233.863 180.613 226.619C179.549 193.355 172.834 178.813 172.834 178.813L169.266 179.35L169.277 179.361Z" fill="black"/>
<path d="M167.461 172.14C169.202 170.039 171.738 170.892 171.738 170.892C171.738 170.892 173.156 172.698 173.554 174.798C173.951 176.899 172.844 178.825 172.844 178.825C172.06 179.536 171.029 179.635 169.277 179.361C169.277 179.361 167.612 178.344 167.139 176.888C166.666 175.433 167.45 172.14 167.45 172.14H167.461Z" fill="#3ECF7A"/>
<path d="M123.451 75.8494C122.44 72.7091 120.173 66.1876 120.635 61.9531C121.194 56.8104 123.354 57.5654 123.354 57.5654C122.892 53.2105 125.094 51.788 126.04 51.8755C126.04 51.8755 125.943 50.1139 126.502 48.6586C127.072 47.2033 128.887 47.7395 130.145 49.2932C131.155 50.5406 131.413 53.867 131.413 53.867C131.413 53.867 131.284 50.3546 132.734 50.2671C134.185 50.1795 135.721 51.1752 136.355 53.9217C136.785 55.7599 136.624 58.572 138.816 65.1044C141.019 71.6367 140.847 70.4112 142.244 66.4174C143.64 62.4236 145.392 61.0996 147.315 61.3732C148.873 61.592 147.498 66.3737 147.165 70.8708C146.853 75.0397 146.37 77.053 144.414 81.5502C142.448 86.0583 139.944 87.1634 138.805 89.7895C136.183 95.8185 124.321 125.526 124.321 125.526C124.321 125.526 127.19 137.825 130.564 148.471C132.337 154.085 134.11 155.999 136.527 159.391C139.224 177.336 129.887 194.57 120.592 196.386C119.733 193.705 109.794 161.317 104.862 143.744C103.647 139.433 100.907 130.789 101.122 127.386C101.337 123.983 103.282 120.81 104.948 117.243C106.763 113.348 119.367 92.8532 122.258 86.6054C124.299 82.1958 124.041 78.935 123.44 75.8494" fill="#FFA8A7"/>
<path d="M138.816 65.1156C138.225 63.4524 137.698 61.7564 137.268 60.0276C136.828 58.3097 136.581 56.5261 136.355 54.7754C136.119 53.1013 135.409 51.2193 133.808 50.6175C133.432 50.4752 132.981 50.4205 132.626 50.4971C132.293 50.5628 132.068 50.9348 131.928 51.3287C131.659 52.1165 131.606 53.0247 131.616 53.8782C131.616 53.9985 131.52 54.097 131.401 54.097C131.294 54.097 131.197 54.0095 131.187 53.9001C131.079 52.8715 130.907 51.832 130.606 50.8473C130.338 49.8515 129.747 49.0418 128.898 48.5057C128.103 47.9257 126.953 47.871 126.706 48.8668C126.362 49.7968 126.255 50.8582 126.276 51.8649C126.276 52.0071 126.169 52.1275 126.029 52.1275H126.007C125.567 52.0946 125.051 52.401 124.686 52.784C124.31 53.167 124.03 53.6593 123.848 54.1846C123.472 55.235 123.439 56.4058 123.547 57.5437C123.547 57.6641 123.472 57.7626 123.353 57.7735H123.278H123.267C122.601 57.5985 121.903 58.2003 121.591 58.9115C121.226 59.6227 121.043 60.4324 120.904 61.2421C120.613 62.8725 120.732 64.5357 120.979 66.177C121.505 69.4596 122.451 72.6765 123.439 75.8606C122.365 72.7093 121.237 69.5471 120.689 66.2317C120.42 64.5794 120.28 62.8725 120.549 61.1874C120.689 60.3558 120.861 59.5133 121.247 58.7364C121.591 57.9924 122.354 57.1389 123.396 57.3796L123.128 57.5985C123.01 56.4167 123.02 55.1912 123.418 54.0314C123.611 53.4514 123.912 52.9043 124.342 52.4557C124.772 52.018 125.32 51.6241 126.04 51.646L125.771 51.9086C125.739 50.8144 125.836 49.7312 126.201 48.6917C126.341 48.1336 126.921 47.5865 127.544 47.5756C128.156 47.5537 128.694 47.7944 129.156 48.0899C130.08 48.6698 130.778 49.6655 131.036 50.7159C131.337 51.7554 131.498 52.8059 131.595 53.8672L131.165 53.8891C131.165 52.9809 131.219 52.0728 131.53 51.1865C131.692 50.7707 131.96 50.2564 132.508 50.1251C133.013 50.0375 133.454 50.1251 133.894 50.2783C135.7 51.0114 136.376 53.0247 136.613 54.7426C136.838 56.5152 137.043 58.255 137.408 59.9947C137.773 61.7236 138.246 63.4415 138.783 65.1265L138.816 65.1156Z" fill="#F28F8F"/>
<path d="M123.44 57.3135C124.655 57.8606 125.256 59.108 125.482 60.2788C125.611 60.8696 125.589 61.5043 125.589 62.0732C125.611 62.6313 125.729 63.2112 125.869 63.7802C126.449 66.0452 127.287 68.2555 128.158 70.4329C127.201 68.2883 126.288 66.1218 125.611 63.8568C125.45 63.2878 125.299 62.7079 125.256 62.0951C125.235 61.4824 125.235 60.9353 125.095 60.3772C124.848 59.294 124.225 58.2107 123.247 57.8277L123.44 57.3244V57.3135Z" fill="#F28F8F"/>
<path d="M126.051 51.6137C126.964 51.6793 127.534 52.4781 127.802 53.1565C128.103 53.8677 128.243 54.6118 128.339 55.3449C128.447 56.833 128.64 58.2555 128.952 59.6889C129.253 61.1223 129.607 62.5447 130.059 63.9343L131.509 68.0814L129.93 63.9781C129.425 62.5994 129.027 61.177 128.683 59.7436C128.329 58.3211 128.082 56.833 127.942 55.3887C127.834 54.6774 127.663 53.9662 127.383 53.3316C127.104 52.6969 126.631 52.1498 126.029 52.1389L126.062 51.5918L126.051 51.6137Z" fill="#F28F8F"/>
<path d="M131.67 53.8125C132.121 55.8149 132.68 57.8063 133.271 59.7868C133.873 61.7564 134.485 63.7369 135.259 65.6408C134.399 63.7697 133.701 61.8111 133.013 59.8744C132.336 57.9157 131.692 55.9571 131.154 53.9547L131.67 53.8234V53.8125Z" fill="#F28F8F"/>
<path d="M142.244 66.4177C141.341 69 141.083 70.4115 140.428 69.3283C141.577 71.9653 142.469 72.589 142.448 71.1556C142.426 69.7222 142.373 68.4967 142.502 66.9429C142.62 65.5314 143.318 64.0323 143.447 63.7588C143.017 64.47 142.62 65.3454 142.233 66.4177H142.244Z" fill="#F28F8F"/>
<path d="M137.452 74.2735C135.722 73.4748 133.81 73.1028 131.94 73.5623C131.822 73.5951 131.94 73.7921 132.037 73.7921C134.562 73.7155 137.538 74.558 138.978 76.8449C139.397 77.5124 139.687 78.2564 139.988 78.9786C140.063 79.1646 140.235 79.3944 140.418 79.3069C140.536 79.2522 140.558 79.088 140.558 78.9458C140.558 76.7683 139.354 75.138 137.452 74.2626V74.2735Z" fill="#F28F8F"/>
<path d="M121.333 87.5791C124.019 93.3674 131.326 97.8536 135.366 98.1053L125.706 126.182C125.706 126.182 128.285 136.03 130.069 143.186C131.992 150.944 134.786 158.472 137.923 159.369C137.923 159.369 143.382 178.43 138.224 189.898C130.542 206.978 121.161 208.926 121.161 208.926C121.161 208.926 113.07 180.958 107.751 162.554C102.433 144.149 100.885 137.453 99.886 130.111C99.3057 125.843 100.488 121.477 105.28 113.533C110.072 105.59 121.344 87.59 121.344 87.59L121.333 87.5791Z" fill="#E0E0E0"/>
<path d="M215.536 18.459L215.654 34.7954L198.655 44.9276L198.634 28.3943L215.536 18.459Z" fill="#1B7942"/>
<path opacity="0.2" d="M215.536 18.459L215.654 34.7954L198.655 44.9276L198.634 28.3943L215.536 18.459Z" fill="#3ECF7A"/>
<path d="M456.807 450.93L327.866 251.261L370.062 226.455L499.003 426.113L456.807 450.93Z" fill="#3ECF7A"/>
<path opacity="0.2" d="M456.807 450.93L327.866 251.261L370.062 226.455L499.003 426.113L456.807 450.93Z" fill="white"/>
<path d="M327.865 251.261L257.593 209.911L299.789 185.105L370.061 226.455L327.865 251.261Z" fill="#3ECF7A"/>
<path d="M299.81 185.105L198.635 28.3944L215.537 18.4591L151.281 0L139.58 63.1133L156.439 53.2108L257.614 209.911L299.81 185.105Z" fill="#3ECF7A"/>
<path opacity="0.2" d="M299.81 185.105L198.635 28.3944L215.537 18.4591L151.281 0L139.58 63.1133L156.439 53.2108L257.614 209.911L299.81 185.105Z" fill="white"/>
<path d="M139.579 63.1134V79.6577L152.14 72.2719L248.115 220.886L319.483 262.848L431.49 436.038L456.805 450.93L327.865 251.261L257.592 209.911L156.438 53.2109L139.579 63.1134Z" fill="#3ECF7A"/>
<path opacity="0.2" d="M139.579 63.1134V79.6577L152.14 72.2719L248.115 220.886L319.483 262.848L431.49 436.038L456.805 450.93L327.865 251.261L257.592 209.911L156.438 53.2109L139.579 63.1134Z" fill="black"/>
<path opacity="0.2" d="M152.14 72.2719L156.438 53.2109L139.579 63.1134V79.6577L152.14 72.2719Z" fill="black"/>
<path opacity="0.5" d="M360.002 87.0651L426.46 126.128L393.236 63.9775L360.002 87.0651Z" fill="#3ECF7A"/>
<path opacity="0.3" d="M360.002 115.481L426.46 154.544L393.236 92.3828L360.002 115.481Z" fill="#3ECF7A"/>
<path opacity="0.1" d="M360.002 143.898L426.46 182.961L393.236 120.8L360.002 143.898Z" fill="#3ECF7A"/>
<path d="M308.577 37.2902L274.322 57.4672C273.645 57.8611 273.097 58.824 273.097 60.6951V102.242C273.097 103.073 273.645 104.014 274.322 104.397L279.189 107.209C279.866 107.603 280.962 107.592 281.639 107.199L315.894 87.0215C316.571 86.6276 317.119 85.6538 317.119 84.8659V42.236C317.119 41.4372 316.571 40.4853 315.894 40.0914L311.027 37.2793C310.35 36.8854 309.254 36.8963 308.577 37.2902Z" fill="#3ECF7A"/>
<path opacity="0.15" d="M281.649 107.198C280.993 107.581 279.811 107.592 279.199 107.209L274.342 104.386C273.665 104.003 273.106 103.084 273.106 102.231V60.684C273.106 59.1958 273.386 58.7144 273.536 58.3643L280.789 62.6207C280.649 62.8942 280.424 63.2444 280.424 63.8462V106.476C280.424 107.22 280.929 107.625 281.649 107.198Z" fill="black"/>
<path d="M269.755 91.2343C268.992 90.7638 263.136 87.4046 262.942 87.2952C262.373 86.945 262.18 86.0915 262.695 85.5226L273.097 73.377L280.414 77.6553L269.529 89.4945C269.024 90.0416 269.228 90.8622 269.733 91.2452L269.755 91.2343Z" fill="#3ECF7A"/>
<path d="M315.905 41.5136L281.65 61.6906C280.973 62.0845 280.425 63.0583 280.425 63.8462V77.6549L269.54 89.4832C268.831 90.2492 269.357 91.3105 270.239 91.3871L280.425 90.6321V106.476C280.425 107.275 280.973 107.592 281.65 107.198L315.905 87.0213C316.582 86.6274 317.13 85.6535 317.13 84.8657V42.2358C317.13 41.437 316.582 41.1197 315.905 41.5136Z" fill="#FAFAFA"/>
<path d="M316.055 42.6845V84.8659C316.055 85.2707 315.712 85.8725 315.368 86.0804L281.499 106.039V90.6432V89.4724L280.35 89.56L270.303 90.304L270.282 90.2931C270.282 90.2931 270.292 90.2603 270.324 90.2384L281.209 78.4101L281.499 78.0928V63.8573C281.499 63.4524 281.843 62.8506 282.187 62.6427L316.055 42.6845ZM316.442 41.3496C316.281 41.3496 316.088 41.4043 315.894 41.5247L281.639 61.7017C280.962 62.0956 280.414 63.0694 280.414 63.8573V77.666L269.529 89.4943C268.82 90.2603 269.347 91.3216 270.228 91.3982L280.414 90.6432V106.487C280.414 107.045 280.693 107.374 281.091 107.374C281.252 107.374 281.446 107.319 281.639 107.198L315.894 87.0214C316.571 86.6275 317.119 85.6537 317.119 84.8659V42.2359C317.119 41.6779 316.84 41.3496 316.442 41.3496Z" fill="#3ECF7A"/>
<path d="M309.554 53.4181C308.007 52.7616 306.212 53.4947 305.568 55.0704L294.07 82.9396L291.33 80.226C290.138 79.0333 288.204 79.0661 287.032 80.2916C285.861 81.5171 285.893 83.4757 287.097 84.6684L293.028 90.5443C293.598 91.1132 294.35 91.4196 295.145 91.4196C295.349 91.4196 295.543 91.3977 295.747 91.354C296.735 91.1461 297.552 90.4567 297.949 89.5157L311.177 57.4667C311.821 55.891 311.101 54.0746 309.554 53.4072V53.4181Z" fill="#3ECF7A"/>
</g>
<defs>
<clipPath id="clip0_1324_3055">
<rect width="499" height="510.312" fill="white"/>
</clipPath>
</defs>
</svg>
