<svg width="500" height="387" viewBox="0 0 500 387" fill="none" xmlns="http://www.w3.org/2000/svg">
<g clip-path="url(#clip0_698_3993)">
<path d="M443.92 275H263.17C259.94 275 257.31 272.37 257.31 269.14V5.86C257.31 2.63 259.94 0 263.17 0H443.92C447.15 0 449.78 2.63 449.78 5.86V269.13C449.78 272.36 447.15 274.99 443.92 274.99V275ZM263.17 0.25C260.08 0.25 257.56 2.77 257.56 5.86V269.13C257.56 272.22 260.08 274.74 263.17 274.74H443.92C447.01 274.74 449.53 272.22 449.53 269.13V5.86C449.53 2.77 447.01 0.25 443.92 0.25H263.17Z" fill="#F0F0F0"/>
<path d="M235.49 275H54.7496C51.5196 275 48.8896 272.37 48.8896 269.14V5.86C48.8896 2.63 51.5196 0 54.7496 0H235.5C238.73 0 241.36 2.63 241.36 5.86V269.13C241.36 272.36 238.73 274.99 235.5 274.99L235.49 275ZM54.7496 0.25C51.6596 0.25 49.1396 2.77 49.1396 5.86V269.13C49.1396 272.22 51.6596 274.74 54.7496 274.74H235.5C238.59 274.74 241.11 272.22 241.11 269.13V5.86C241.11 2.77 238.59 0.25 235.5 0.25H54.7496Z" fill="#F0F0F0"/>
<path d="M500 336.07H0V336.32H500V336.07Z" fill="#E0E0E0"/>
<path d="M458.56 234.35H448.07V336.06H458.56V234.35Z" fill="#E0E0E0"/>
<path d="M425.5 234.35H415.01V336.06H425.5V234.35Z" fill="#F0F0F0"/>
<path d="M297.45 234.35H286.96V336.06H297.45V234.35Z" fill="#E0E0E0"/>
<path d="M264.4 234.35H253.91V336.06H264.4V234.35Z" fill="#F0F0F0"/>
<path d="M253.91 234.35V252.3H458.56V234.35H253.91Z" fill="#F0F0F0"/>
<path d="M458.55 234.35H415.05V252.3H458.55V234.35Z" fill="#E0E0E0"/>
<path d="M467.69 379.87C467.69 383.37 371.1 386.2 251.95 386.2C132.8 386.2 36.21 383.36 36.21 379.87C36.21 376.38 132.8 373.54 251.95 373.54C371.1 373.54 467.69 376.38 467.69 379.87Z" fill="#F5F5F5"/>
<path d="M251 322.65C251 322.65 243.21 310.41 224.3 299.29C210.94 291.43 203.16 269.25 203.16 269.25C203.16 269.25 228.75 270.36 239.87 285.94C250.99 301.51 250.99 322.65 250.99 322.65H251Z" fill="#33AA94"/>
<g opacity="0.2">
<path d="M251 322.65C251 322.65 243.21 310.41 224.3 299.29C210.94 291.43 203.16 269.25 203.16 269.25C203.16 269.25 228.75 270.36 239.87 285.94C250.99 301.51 250.99 322.65 250.99 322.65H251Z" fill="black"/>
</g>
<path opacity="0.2" d="M251.09 322.98C250.92 322.98 250.77 322.87 250.72 322.7C247.12 309.12 239.25 299.27 233.27 293.4C226.8 287.04 221.12 283.86 221.06 283.83C220.88 283.73 220.81 283.5 220.91 283.31C221.01 283.13 221.24 283.06 221.43 283.16C221.49 283.19 227.26 286.42 233.8 292.86C239.84 298.8 247.81 308.76 251.45 322.5C251.5 322.7 251.38 322.91 251.18 322.97C251.15 322.97 251.11 322.98 251.08 322.98H251.09Z" fill="black"/>
<path d="M247.65 322.38C247.65 322.38 245.43 317.93 235.41 319.04C225.4 320.15 219.84 325.71 202.04 315.7C202.04 315.7 215.39 304.58 229.85 306.8C244.31 309.03 245.42 314.59 247.65 322.37V322.38Z" fill="#33AA94"/>
<g opacity="0.2">
<path d="M247.65 322.38C247.65 322.38 245.43 317.93 235.41 319.04C225.4 320.15 219.84 325.71 202.04 315.7C202.04 315.7 215.39 304.58 229.85 306.8C244.31 309.03 245.42 314.59 247.65 322.37V322.38Z" fill="black"/>
</g>
<path opacity="0.2" d="M247.7 322.76C247.57 322.76 247.45 322.7 247.38 322.58C247.34 322.51 242.86 315.47 235.65 314.16C223.06 311.87 214.49 315.9 214.41 315.94C214.22 316.03 213.99 315.95 213.9 315.76C213.81 315.57 213.89 315.34 214.08 315.25C214.17 315.21 222.94 311.07 235.79 313.41C243.33 314.78 247.84 321.87 248.03 322.17C248.14 322.35 248.09 322.58 247.91 322.69C247.85 322.73 247.78 322.75 247.71 322.75L247.7 322.76Z" fill="black"/>
<path d="M252.02 321.3C252.02 321.3 251.15 316.4 259.84 311.31C268.54 306.22 276.32 307.36 284.62 288.7C284.62 288.7 267.27 287.75 257 298.17C246.73 308.59 249.16 313.72 252.02 321.29V321.3Z" fill="#33AA94"/>
<g opacity="0.2">
<path d="M252.02 321.3C252.02 321.3 251.15 316.4 259.84 311.31C268.54 306.22 276.32 307.36 284.62 288.7C284.62 288.7 267.27 287.75 257 298.17C246.73 308.59 249.16 313.72 252.02 321.29V321.3Z" fill="black"/>
</g>
<path opacity="0.2" d="M251.98 321.71C251.78 321.71 251.62 321.56 251.6 321.36C251.57 321.01 250.95 312.63 256.18 307.02C265.09 297.48 274.6 295.55 274.69 295.53C274.89 295.49 275.1 295.62 275.14 295.83C275.18 296.04 275.04 296.24 274.84 296.28C274.75 296.3 265.47 298.19 256.74 307.54C251.74 312.9 252.35 321.21 252.36 321.29C252.38 321.5 252.22 321.68 252.01 321.7C252 321.7 251.99 321.7 251.98 321.7V321.71Z" fill="black"/>
<path d="M250.18 381.82C230.29 381.82 217.63 378.65 219.66 364.64C220.95 355.75 227.89 347.03 232.78 341.86C233.47 341.13 234.12 340.47 234.7 339.89C236.52 338.1 237.74 337.06 237.74 337.06L237.8 336.74L238.15 334.77L238.55 332.51L239.46 327.34L239.78 325.53L250.18 325.08L261.03 325.53L261.28 327.34L261.67 330.18L262.3 334.77L262.57 336.74L262.61 337.06C262.61 337.06 263.84 338.09 265.65 339.89C266.24 340.47 266.89 341.13 267.58 341.86C272.47 347.04 279.41 355.75 280.7 364.64C282.73 378.65 270.07 381.82 250.18 381.82Z" fill="#33AA94"/>
<path d="M264.881 327.35H235.271V321.02H264.881V327.35Z" fill="#33AA94"/>
<g opacity="0.4">
<path d="M264.881 327.35H235.271V321.02H264.881V327.35Z" fill="white"/>
</g>
<g opacity="0.3">
<path d="M262.57 336.75H237.81L238.15 334.78H262.3L262.57 336.75Z" fill="black"/>
</g>
<g opacity="0.3">
<path d="M267.58 341.86H232.79C233.48 341.13 234.13 340.47 234.71 339.89H265.65C266.24 340.47 266.89 341.13 267.58 341.86Z" fill="black"/>
</g>
<path d="M355.989 106.07C352.419 113.12 348.619 119.88 344.399 126.56C342.289 129.89 340.099 133.2 337.699 136.48C336.489 138.12 335.239 139.75 333.859 141.39C333.169 142.21 332.449 143.04 331.639 143.88C330.819 144.72 329.959 145.56 328.779 146.49C328.179 146.95 327.509 147.44 326.529 147.97C326.029 148.23 325.439 148.51 324.629 148.75C323.829 148.98 322.779 149.2 321.369 149.06C321.019 149.02 320.669 148.97 320.299 148.87C320.099 148.82 319.969 148.79 319.719 148.7C319.459 148.61 319.209 148.51 318.959 148.4C318.369 148.12 318.249 148.02 317.989 147.86L317.639 147.62L317.429 147.46L317.029 147.13L316.749 146.87C316.539 146.68 316.429 146.55 316.279 146.4C315.739 145.83 315.359 145.36 314.989 144.9C313.579 143.1 312.499 141.45 311.399 139.76C309.219 136.42 307.209 133.09 305.249 129.72C301.319 123 297.609 116.22 294.069 109.3L300.359 105.35L314.299 123.67C316.619 126.7 318.939 129.73 321.259 132.63C322.409 134.06 323.629 135.5 324.689 136.65C324.939 136.92 325.199 137.17 325.339 137.28C325.359 137.29 325.409 137.34 325.389 137.31V137.29C325.389 137.29 325.299 137.21 325.249 137.18L325.179 137.13L324.979 136.99C324.819 136.89 324.799 136.87 324.319 136.63C324.129 136.54 323.929 136.46 323.729 136.4C323.529 136.34 323.469 136.32 323.319 136.28C323.059 136.22 322.839 136.18 322.599 136.15C321.669 136.06 321.109 136.2 320.759 136.29C320.419 136.39 320.259 136.46 320.179 136.49C320.039 136.55 320.139 136.46 320.289 136.31C320.589 136 321.069 135.46 321.539 134.87C322.009 134.27 322.519 133.62 323.009 132.92C323.999 131.53 324.989 130.03 325.949 128.49C327.889 125.41 329.779 122.19 331.639 118.93C333.509 115.67 335.339 112.37 337.169 109.06L342.659 99.1602L355.959 106.1L355.989 106.07Z" fill="#FF8B7B"/>
<path d="M346.57 86.8L329.5 114.9L344.8 127.82L350.06 104.08L346.57 86.8Z" fill="#33AA94"/>
<path opacity="0.3" d="M346.03 87.6101L329.5 114.9L344.8 127.82L350.06 104.08L346.03 87.6101Z" fill="black"/>
<path d="M367.74 354.67V372.04L360.72 372.6L357.28 356.34L367.74 354.67Z" fill="#FF8B7B"/>
<path d="M362.76 370.97C362.76 370.97 360.55 366.73 359.25 367.19C357.95 367.64 357.42 372.78 357.42 372.78C357.42 372.78 350.35 375.14 348.37 375.27C346.39 375.4 344.79 376.51 344.54 380.37H368.69C368.69 380.37 368.53 371.66 368.48 370.16C368.43 368.66 366.31 370.53 366.31 370.53L362.76 370.96V370.97Z" fill="#33AA94"/>
<g opacity="0.2">
<path d="M362.76 370.97C362.76 370.97 360.55 366.73 359.25 367.19C357.95 367.64 357.42 372.78 357.42 372.78C357.42 372.78 350.35 375.14 348.37 375.27C346.39 375.4 344.79 376.51 344.54 380.37H368.69C368.69 380.37 368.53 371.66 368.48 370.16C368.43 368.66 366.31 370.53 366.31 370.53L362.76 370.96V370.97Z" fill="white"/>
</g>
<path d="M368.42 373.47C366.73 374.5 365.94 376.55 367.11 378.56C367.24 378.78 366.93 378.98 366.8 378.75C365.52 376.55 366.31 374.28 368.18 373.13C368.38 373.01 368.62 373.34 368.42 373.46V373.47Z" fill="white"/>
<path d="M368.46 378.98C362.15 379.05 355.83 379.11 349.52 379.18C348.05 379.2 346.58 379.21 345.12 379.23C344.87 379.23 344.82 378.85 345.07 378.85C351.38 378.78 357.7 378.72 364.01 378.65C365.48 378.63 366.95 378.62 368.41 378.6C368.66 378.6 368.71 378.98 368.46 378.98Z" fill="white"/>
<path d="M358.46 374.29C357.47 373.11 356.02 372.78 354.94 373.67C354.76 373.82 354.53 373.48 354.7 373.34C355.94 372.32 357.64 372.76 358.77 374.1C358.94 374.3 358.63 374.49 358.46 374.29Z" fill="white"/>
<path d="M356.46 374.92C355.47 373.74 354.02 373.41 352.94 374.3C352.76 374.45 352.53 374.11 352.7 373.97C353.94 372.95 355.64 373.39 356.77 374.73C356.94 374.93 356.63 375.12 356.46 374.92Z" fill="white"/>
<path d="M354.39 375.55C353.4 374.37 351.95 374.04 350.87 374.93C350.69 375.08 350.46 374.74 350.63 374.6C351.87 373.58 353.57 374.02 354.7 375.36C354.87 375.56 354.56 375.75 354.39 375.55Z" fill="white"/>
<path d="M371.95 182.49C371.75 185.59 372.18 195.11 371.76 200.22C370.97 209.96 369.91 222.59 369.07 235.24C368.09 249.89 367.39 264.56 367.74 274.74C368.64 300.88 368.44 360.12 368.44 360.12H357.1C357.1 360.12 343.78 301.24 341.29 274.74C339.21 252.77 340.31 196.17 340.66 182.49H371.95Z" fill="#263238"/>
<path opacity="0.2" d="M371.75 200.22C370.96 209.96 369.9 222.59 369.06 235.24C363.48 218.72 368.66 193.76 368.66 193.76L371.75 200.22Z" fill="black"/>
<path d="M369.42 360.53H356.11L355.14 356.28L370.04 355.76L369.42 360.53Z" fill="#33AA94"/>
<path d="M383.65 276.47C389.13 302.51 409.37 359.33 409.37 359.33L420.64 358.05C420.64 358.05 412.43 299.69 408.59 273.82C405.12 250.48 402.94 197.2 402.16 181.34L364.52 182.5C365.72 196.13 379.1 254.87 383.65 276.47Z" fill="#263238"/>
<path d="M419.689 354.67V372.04L412.669 372.6L409.229 356.34L419.689 354.67Z" fill="#FF8B7B"/>
<path d="M414.709 370.97C414.709 370.97 412.499 366.73 411.199 367.19C409.899 367.64 409.369 372.78 409.369 372.78C409.369 372.78 402.299 375.14 400.319 375.27C398.339 375.4 396.739 376.51 396.489 380.37H420.639C420.639 380.37 420.479 371.66 420.429 370.16C420.389 368.67 418.259 370.53 418.259 370.53L414.709 370.96V370.97Z" fill="#33AA94"/>
<g opacity="0.2">
<path d="M414.709 370.97C414.709 370.97 412.499 366.73 411.199 367.19C409.899 367.64 409.369 372.78 409.369 372.78C409.369 372.78 402.299 375.14 400.319 375.27C398.339 375.4 396.739 376.51 396.489 380.37H420.639C420.639 380.37 420.479 371.66 420.429 370.16C420.389 368.67 418.259 370.53 418.259 370.53L414.709 370.96V370.97Z" fill="white"/>
</g>
<path d="M420.37 373.47C418.68 374.5 417.89 376.55 419.06 378.56C419.19 378.78 418.88 378.98 418.75 378.75C417.47 376.55 418.26 374.28 420.13 373.13C420.33 373.01 420.57 373.34 420.37 373.46V373.47Z" fill="white"/>
<path d="M420.409 378.98C414.099 379.05 407.779 379.11 401.469 379.18C399.999 379.2 398.529 379.21 397.069 379.23C396.819 379.23 396.769 378.85 397.019 378.85C403.329 378.78 409.649 378.72 415.959 378.65C417.429 378.63 418.899 378.62 420.359 378.6C420.609 378.6 420.659 378.98 420.409 378.98Z" fill="white"/>
<path d="M410.409 374.29C409.419 373.11 407.969 372.78 406.889 373.67C406.709 373.82 406.479 373.48 406.649 373.34C407.889 372.32 409.589 372.76 410.719 374.1C410.889 374.3 410.579 374.49 410.409 374.29Z" fill="white"/>
<path d="M408.409 374.92C407.419 373.74 405.969 373.41 404.889 374.3C404.709 374.45 404.479 374.11 404.649 373.97C405.889 372.95 407.589 373.39 408.709 374.73C408.879 374.93 408.569 375.12 408.399 374.92H408.409Z" fill="white"/>
<path d="M406.339 375.55C405.349 374.37 403.899 374.04 402.819 374.93C402.639 375.08 402.409 374.74 402.579 374.6C403.819 373.58 405.519 374.02 406.649 375.36C406.819 375.56 406.509 375.75 406.339 375.55Z" fill="white"/>
<path d="M421.659 358.34L408.439 359.84L406.989 355.74L421.739 353.53L421.659 358.34Z" fill="#33AA94"/>
<path d="M339.159 186.15L403.659 183.91C404.069 174.92 396.219 132.54 403.069 90.0701C403.759 85.8101 400.759 81.8301 396.469 81.3001C393.649 80.9501 390.249 80.6201 386.519 80.4401C378.599 80.0601 370.549 79.8501 363.579 80.4901C358.739 80.9301 347.659 82.9101 345.659 88.4101C343.929 93.1701 341.119 171.81 339.159 186.15Z" fill="#33AA94"/>
<path d="M301.16 111.15L300.56 104.67C300.56 104.67 301.69 101.57 300.68 99.6698C297.82 94.2798 291.68 92.5598 291.15 94.0698C291.06 94.3298 287.83 102.12 287.83 102.12L295.54 112L301.17 111.15H301.16Z" fill="#FF8B7B"/>
<path d="M290.319 108.17L298.319 109.83C299.679 110.11 300.619 108.84 300.199 107.28L295.059 88.4498C294.779 87.4198 293.959 86.5798 293.059 86.3898L285.059 84.7298C283.699 84.4498 282.759 85.7198 283.179 87.2798L288.319 106.11C288.599 107.14 289.419 107.98 290.319 108.17Z" fill="black"/>
<g opacity="0.2">
<path d="M290.319 108.17L298.319 109.83C299.679 110.11 300.619 108.84 300.199 107.28L295.059 88.4498C294.779 87.4198 293.959 86.5798 293.059 86.3898L285.059 84.7298C283.699 84.4498 282.759 85.7198 283.179 87.2798L288.319 106.11C288.599 107.14 289.419 107.98 290.319 108.17Z" fill="white"/>
</g>
<path d="M289.51 108L297.51 109.66C298.87 109.94 299.81 108.67 299.39 107.11L294.25 88.2799C293.97 87.2499 293.15 86.4099 292.25 86.2199L284.25 84.5599C282.89 84.2799 281.95 85.5499 282.37 87.1099L287.51 105.94C287.79 106.97 288.61 107.81 289.51 108Z" fill="black"/>
<g opacity="0.2">
<path d="M288.339 96.6098C288.549 97.7498 289.409 98.8198 290.249 98.9998C291.099 99.1798 291.609 98.3898 291.409 97.2498C291.199 96.1098 290.339 95.0398 289.499 94.8598C288.649 94.6798 288.139 95.4698 288.339 96.6098Z" fill="white"/>
</g>
<path d="M283.199 90.9099C283.199 90.9099 288.239 91.9599 288.279 93.1099C288.329 94.4799 286.099 94.0899 284.439 94.0299C282.579 93.9699 282.419 90.9699 283.199 90.8999V90.9099Z" fill="#FF8B7B"/>
<path d="M284.329 93.5598C284.329 93.5598 283.349 94.9998 283.749 96.8998C284.149 98.7998 286.569 104.61 288.439 100.81C291.259 95.0798 285.459 93.6798 284.339 93.5598H284.329Z" fill="#FF8B7B"/>
<path d="M291.41 88.9099C291.53 89.5499 292.01 90.1499 292.49 90.2499C292.97 90.3499 293.26 89.9099 293.14 89.2699C293.02 88.6299 292.54 88.0299 292.06 87.9299C291.58 87.8299 291.29 88.2699 291.41 88.9099Z" fill="black"/>
<g opacity="0.2">
<path d="M291.41 88.9099C291.53 89.5499 292.01 90.1499 292.49 90.2499C292.97 90.3499 293.26 89.9099 293.14 89.2699C293.02 88.6299 292.54 88.0299 292.06 87.9299C291.58 87.8299 291.29 88.2699 291.41 88.9099Z" fill="white"/>
</g>
<path d="M359.81 39.8901C364.09 38.8401 368.66 39.4901 372.35 41.9101C374.76 43.4901 376.76 45.7401 376.4 48.7701C375.56 55.8501 372.38 67.5101 372.38 67.5101L349.58 53.5901C349.58 53.5901 348.57 47.6301 351.48 43.8901C352.99 41.9401 356.66 40.6701 359.82 39.8901H359.81Z" fill="black"/>
<path d="M361.02 75.26C361.02 75.26 361.04 75.32 361.05 75.35L362.16 79.42C362.25 80.25 362.27 81.08 362.21 81.89C362.16 82.57 362.06 83.23 361.92 83.87C361.03 85.11 360.63 87.9 363.82 87.89C367.85 87.89 375.19 81.95 375.44 80.17C373.54 74.68 371.93 68.26 372.19 63L367.63 68L361.01 75.25L361.02 75.26Z" fill="#FF8B7B"/>
<g opacity="0.2">
<path d="M361.06 75.3502L362.17 79.4202C364.68 78.2502 367.3 75.7502 367.88 73.0702C368.29 71.1302 367.4 69.3302 366.62 69.2402L361.06 75.3502Z" fill="black"/>
</g>
<path d="M350.8 66.8802C351.04 67.7702 351.32 68.6402 351.61 69.5002C354.21 77.1002 363.61 77.7202 369.41 72.0602C369.41 72.0502 369.41 72.0402 369.43 72.0402C369.94 71.5402 370.43 70.9902 370.88 70.3802C374.56 65.4702 373.6 61.7202 372.97 53.2002C372.35 44.6902 363.2 39.4402 355.51 43.8502C348.41 47.9302 348.34 58.0102 350.8 66.8702V66.8802Z" fill="#FF8B7B"/>
<path d="M356.4 68.2801C356.26 68.2801 356.18 68.2801 356.17 68.2801C356.03 68.2701 355.93 68.1401 355.94 68.0001C355.95 67.8601 356.08 67.7601 356.22 67.7701C356.36 67.7801 359.7 68.0601 360.21 64.2601C360.23 64.1201 360.36 64.0201 360.5 64.0401C360.64 64.0601 360.74 64.1901 360.72 64.3301C360.23 68.0101 357.27 68.2801 356.41 68.2801H356.4Z" fill="black"/>
<path d="M373.07 54.0001C373.07 54.0001 370.5 54.1401 370.4 56.3401C370.3 58.5401 370.53 58.8301 370.53 58.8301L367.5 59.4801C367.5 59.4801 368.3 51.0801 366.09 51.2001C363.88 51.3201 366.26 47.5301 364.93 46.9901C361.79 45.7201 353.24 45.6801 349.97 50.8501C349.97 50.8501 350.82 45.7701 354.86 43.0101C358.9 40.2501 367.06 39.6401 370.38 43.6301C373.7 47.6201 373.07 54.0101 373.07 54.0101V54.0001Z" fill="black"/>
<path d="M377.36 58.3502C377.03 60.6302 375.69 62.5402 374.16 63.6602C371.86 65.3302 369.72 63.5102 369.53 60.8202C369.36 58.4002 370.36 54.6102 373.07 54.0102C375.74 53.4102 377.73 55.7502 377.36 58.3602" fill="#FF8B7B"/>
<path d="M360.39 58.9902C360.48 59.6602 360.2 60.2402 359.77 60.3002C359.33 60.3602 358.91 59.8702 358.82 59.2002C358.73 58.5302 359.01 57.9502 359.44 57.8902C359.88 57.8302 360.3 58.3202 360.39 58.9902Z" fill="black"/>
<path d="M353.069 59.8901C353.159 60.5601 352.879 61.1401 352.449 61.2001C352.009 61.2601 351.589 60.7701 351.499 60.1001C351.409 59.4301 351.689 58.8501 352.119 58.7901C352.559 58.7301 352.979 59.2201 353.069 59.8901Z" fill="black"/>
<path d="M350.24 57.3502C350.36 57.3302 350.46 57.2602 350.51 57.1402C350.72 56.6102 351.03 56.2602 351.43 56.0902C352.09 55.8102 352.82 56.1102 352.82 56.1102C352.99 56.1802 353.19 56.1102 353.26 55.9302C353.33 55.7602 353.26 55.5602 353.08 55.4902C353.04 55.4702 352.09 55.0802 351.16 55.4702C350.58 55.7102 350.15 56.1902 349.87 56.8902C349.8 57.0602 349.89 57.2602 350.06 57.3302C350.12 57.3502 350.18 57.3602 350.23 57.3502H350.24Z" fill="black"/>
<path d="M361.99 56.0001C361.99 56.0001 362.09 55.9701 362.13 55.9501C362.28 55.8501 362.33 55.6401 362.22 55.4801C362.2 55.4401 361.62 54.5901 360.63 54.4101C360.02 54.3001 359.39 54.4601 358.77 54.8901C358.62 55.0001 358.58 55.2101 358.69 55.3601C358.8 55.5101 359.01 55.5501 359.16 55.4401C359.62 55.1201 360.07 54.9901 360.5 55.0701C361.21 55.2001 361.65 55.8501 361.66 55.8501C361.73 55.9601 361.86 56.0101 361.99 56.0001Z" fill="black"/>
<path d="M355.88 58.6201C355.88 58.6201 354.92 62.0401 353.3 64.2901C353.12 64.5401 356.2 65.0601 356.2 65.0601L355.88 58.6201Z" fill="#FF5652"/>
<path d="M361.709 78.6201C361.709 78.6201 361.709 78.6101 361.709 78.6001C361.709 78.6001 361.709 78.6001 361.699 78.6201H361.709Z" fill="black"/>
<path d="M393.42 190.17C393.42 190.17 393.58 190.51 393.87 191.06C396.08 194.05 398.6 196.8 401.39 199.25C404.43 198.05 406.86 190.75 407.06 189.82C407.25 188.89 403.27 182.54 403.27 182.54C403.27 182.54 396.17 183.81 390.94 188.28C388.32 190.52 396.18 187.83 396.18 187.83L393.43 190.17H393.42Z" fill="#FF8B7B"/>
<path d="M372.779 57.9198C372.769 58.0198 372.109 63.8898 370.869 72.6398C369.919 79.3798 368.629 87.8098 367.019 96.6498C362.059 123.95 356.679 141.75 351.029 149.57C348.309 153.33 344.949 155.22 341.029 155.22C340.839 155.22 340.629 155.22 340.439 155.21C335.969 155 330.759 152.39 324.929 147.45C320.299 143.52 315.269 138.13 309.969 131.41C300.959 119.98 294.199 108.52 294.139 108.41C294.029 108.23 294.089 107.99 294.269 107.88C294.449 107.78 294.689 107.84 294.799 108.02C294.859 108.13 301.589 119.56 310.579 130.94C322.409 145.95 332.749 154.07 340.469 154.44C344.379 154.62 347.729 152.84 350.409 149.13C354.689 143.19 358.969 130.86 362.949 113.06V113.01C363.809 102.21 358.879 85.2098 355.239 74.3098C355.599 74.5098 355.939 74.7198 356.439 74.9698C359.629 84.7098 363.459 98.8498 363.789 109.16C364.619 105.19 365.459 100.98 366.259 96.5198C367.789 88.0998 369.039 80.0399 369.969 73.4798C371.289 64.2298 372.009 57.9598 372.019 57.8498C372.039 57.6398 372.219 57.4898 372.439 57.5098C372.639 57.5298 372.799 57.7198 372.779 57.9298V57.9198Z" fill="black"/>
<path opacity="0.9" d="M295.529 109.23C297.499 112.47 303.299 121.72 310.579 130.94C322.399 145.95 332.739 154.07 340.469 154.44C344.369 154.62 347.719 152.84 350.409 149.12C354.699 143.18 358.969 130.86 362.949 113.05V113C363.809 102.21 358.879 85.1999 355.239 74.2999C355.589 74.4999 355.939 74.7099 356.439 74.9599C358.039 79.8299 359.789 85.7999 361.189 91.8399C362.579 97.8799 363.619 104 363.789 109.15C364.629 105.18 365.459 100.96 366.269 96.5099C367.789 88.0899 369.049 80.0299 369.979 73.4599C371.299 64.2099 372.019 57.9399 372.029 57.8299C372.049 57.6199 372.229 57.4699 372.439 57.4999C372.649 57.5199 372.799 57.7099 372.779 57.9099C372.779 58.0099 372.109 63.8899 370.869 72.6299C369.919 79.3699 368.629 87.7999 367.019 96.6399C362.059 123.93 356.679 141.74 351.029 149.56C348.309 153.32 344.959 155.21 341.029 155.21C340.829 155.21 340.629 155.21 340.439 155.2C335.969 154.99 330.759 152.38 324.929 147.44C320.289 143.52 315.269 138.12 309.959 131.4C302.149 121.49 296.029 111.56 294.509 109.02L295.529 109.23Z" fill="white"/>
<path d="M372.539 59.2899C373.191 59.2899 373.719 58.7616 373.719 58.1099C373.719 57.4582 373.191 56.9299 372.539 56.9299C371.888 56.9299 371.359 57.4582 371.359 58.1099C371.359 58.7616 371.888 59.2899 372.539 59.2899Z" fill="black"/>
<path d="M372.539 59.2899C373.191 59.2899 373.719 58.7616 373.719 58.1099C373.719 57.4582 373.191 56.9299 372.539 56.9299C371.888 56.9299 371.359 57.4582 371.359 58.1099C371.359 58.7616 371.888 59.2899 372.539 59.2899Z" fill="black"/>
<path opacity="0.9" d="M372.539 59.2899C373.191 59.2899 373.719 58.7616 373.719 58.1099C373.719 57.4582 373.191 56.9299 372.539 56.9299C371.888 56.9299 371.359 57.4582 371.359 58.1099C371.359 58.7616 371.888 59.2899 372.539 59.2899Z" fill="white"/>
<path d="M376.139 50.54C372.699 51.07 368.419 50.69 364.039 49.83C362.909 49.61 361.779 49.36 360.649 49.08C359.349 48.76 358.019 48.53 356.679 48.47C350.059 48.18 351.179 50.85 349.559 53.59C349.559 53.59 336.069 49.97 336.069 45.15C336.069 44.67 336.199 44.17 336.499 43.66C338.429 40.34 343.859 41.39 349.259 43.32C353.639 34.2 371.759 36.94 375.449 42.26C377.709 45.53 376.139 50.54 376.139 50.54Z" fill="#33AA94"/>
<path opacity="0.5" d="M364.039 49.8301C362.909 49.6101 361.779 49.3601 360.649 49.0801C359.349 48.7601 358.019 48.5301 356.679 48.4701C350.059 48.1801 351.179 50.8501 349.559 53.5901C349.559 53.5901 336.069 49.9701 336.069 45.1501C336.069 44.6701 336.199 44.1701 336.499 43.6601C338.429 40.3401 343.859 41.3901 349.259 43.3201C349.259 43.3101 349.259 43.3101 349.259 43.3001C355.049 45.4901 361.099 48.6201 364.029 49.8301H364.039Z" fill="black"/>
<path d="M402.05 89.0801C404.95 97.0501 407.65 105.03 410.22 113.1C411.49 117.14 412.75 121.19 413.93 125.28C415.12 129.38 416.27 133.47 417.27 137.82C417.52 138.93 417.76 140.02 417.97 141.28C418.08 141.87 418.19 142.62 418.26 143.41C418.28 143.84 418.31 144.3 418.31 144.69L418.28 145.76C418.11 148.4 417.72 150.55 417.32 152.75C416.52 157.09 415.49 161.24 414.44 165.38C412.29 173.64 409.83 181.74 407.06 189.79L400.32 188.16L403.83 163.28C404.41 159.17 404.92 155.04 405.31 151.06C405.49 149.1 405.63 147.06 405.58 145.5L405.55 144.99L405.51 144.7C405.46 144.45 405.41 144.15 405.31 143.72C405.13 142.92 404.87 141.96 404.61 141.03C403.51 137.23 402.21 133.26 400.92 129.33L396.91 117.48L388.85 93.7001L402.06 89.0701L402.05 89.0801Z" fill="#FF8B7B"/>
<path d="M400.959 83.5201C400.959 83.5201 404.459 86.2401 406.519 93.3301C408.569 100.41 412.909 112 412.909 112L393.649 120.6C393.649 120.6 384.009 99.7001 384.659 92.0901C385.199 85.7801 393.599 80.6401 400.959 83.5301V83.5201Z" fill="#33AA94"/>
<path opacity="0.3" d="M400.959 83.5201C400.959 83.5201 404.459 86.2401 406.519 93.3301C408.569 100.41 412.909 112 412.909 112L393.649 120.6C393.649 120.6 384.009 99.7001 384.659 92.0901C385.199 85.7801 393.599 80.6401 400.959 83.5301V83.5201Z" fill="black"/>
<path d="M410.16 182.32C410.16 182.32 406.33 178.09 401.75 178.42C400.94 179.09 401.07 180.39 401.21 181.69C401.21 181.69 405.95 182.49 408.5 185.51C408.5 185.51 410.66 183.85 410.15 182.32H410.16Z" fill="#263238"/>
<path d="M407.009 185.11L405.969 184.72C404.919 184.33 404.549 182.74 405.129 181.15C405.719 179.57 407.039 178.6 408.089 178.99L409.329 179.47L409.059 180.12L407.199 184.62L406.999 185.1L407.009 185.11Z" fill="#263238"/>
<path d="M407.009 185.11C405.959 184.72 405.589 183.12 406.169 181.54C406.759 179.96 408.079 178.99 409.129 179.38C410.179 179.77 410.549 181.37 409.969 182.95C409.389 184.53 408.059 185.5 407.009 185.11Z" fill="#263238"/>
<path d="M407.59 184.19C406.91 183.94 406.66 182.89 407.04 181.86C407.42 180.83 408.29 180.2 408.97 180.45C409.65 180.7 409.9 181.75 409.52 182.78C409.14 183.81 408.27 184.44 407.59 184.19Z" fill="white"/>
<path d="M193.79 131.6C193.79 132.78 193.771 133.99 193.691 135.28C193.661 135.93 193.601 136.61 193.521 137.35C193.431 138.08 193.301 138.87 193.061 139.87C192.931 140.37 192.761 140.95 192.461 141.68C192.121 142.41 191.781 143.34 190.461 144.83C189.771 145.56 188.751 146.47 187.051 147.15C186.621 147.31 186.16 147.45 185.701 147.55C185.241 147.66 184.65 147.74 184.12 147.76C183.63 147.78 183.201 147.76 182.741 147.71C182.321 147.67 182.001 147.61 181.641 147.52C180.351 147.2 179.611 146.81 179.021 146.48C178.491 146.18 178.05 145.88 177.73 145.64C177.07 145.15 176.651 144.76 176.271 144.4C175.891 144.04 175.591 143.73 175.311 143.42H175.301C174.741 142.8 174.291 142.26 173.861 141.73C172.601 140.15 171.54 138.68 170.54 137.23C170.24 136.77 169.931 136.31 169.631 135.85C167.151 132.03 164.871 128.28 162.721 124.47C158.391 116.86 154.421 109.24 150.771 101.32L167.391 93.2C171.191 100.42 174.921 107.83 178.641 115.08C178.671 114.16 178.7 113.25 178.73 112.33C178.96 103.88 179.091 95.33 179.391 86.81L188.071 86.01C189.861 94.53 191.22 103.04 192.29 111.67C192.85 116 193.241 120.34 193.551 124.78C193.701 127.01 193.781 129.26 193.801 131.61L193.79 131.6Z" fill="#263238"/>
<path opacity="0.2" d="M175.3 143.4C174.74 142.79 174.29 142.25 173.86 141.72C172.6 140.14 171.54 138.67 170.54 137.22L168.87 109.01L175.3 143.4Z" fill="black"/>
<path d="M179.44 87.9301L177.14 81.3301C177.14 81.3301 175.86 78.1901 176.83 76.2001C179.56 70.5501 185.8 68.5501 186.41 70.0801C186.51 70.3401 190.13 78.2201 190.13 78.2201L188.01 86.1301C185.4 88.4601 182.57 89.2701 179.45 87.9201L179.44 87.9301Z" fill="#B55B52"/>
<path d="M187.79 84.53L179.63 86.54C178.24 86.88 177.23 85.61 177.61 83.99L182.17 64.45C182.42 63.38 183.23 62.48 184.15 62.26L192.31 60.25C193.7 59.91 194.71 61.18 194.33 62.8L189.77 82.34C189.52 83.41 188.71 84.31 187.79 84.53Z" fill="black"/>
<g opacity="0.2">
<path d="M187.79 84.53L179.63 86.54C178.24 86.88 177.23 85.61 177.61 83.99L182.17 64.45C182.42 63.38 183.23 62.48 184.15 62.26L192.31 60.25C193.7 59.91 194.71 61.18 194.33 62.8L189.77 82.34C189.52 83.41 188.71 84.31 187.79 84.53Z" fill="white"/>
</g>
<path d="M188.61 84.3301L180.45 86.3401C179.06 86.6801 178.05 85.4101 178.43 83.7901L182.99 64.2501C183.24 63.1801 184.05 62.2801 184.97 62.0601L193.13 60.0501C194.52 59.7101 195.53 60.9801 195.15 62.6001L190.59 82.1401C190.34 83.2101 189.53 84.1101 188.61 84.3301Z" fill="black"/>
<g opacity="0.2">
<path d="M189.38 72.5901C189.21 73.7701 188.37 74.9001 187.5 75.1101C186.64 75.3201 186.07 74.5401 186.25 73.3601C186.42 72.1801 187.26 71.0501 188.13 70.8401C189 70.6301 189.56 71.4101 189.38 72.5901Z" fill="white"/>
</g>
<path d="M194.45 66.54C194.45 66.54 189.31 67.81 189.31 69C189.31 70.41 191.59 69.92 193.29 69.8C195.2 69.67 195.25 66.58 194.45 66.54Z" fill="#B55B52"/>
<path d="M193.39 69.3C193.39 69.3 194.45 70.74 194.12 72.71C193.78 74.68 191.52 80.74 189.46 76.91C186.34 71.13 192.25 69.47 193.4 69.3H193.39Z" fill="#B55B52"/>
<path d="M185.94 64.79C185.84 65.45 185.37 66.09 184.88 66.21C184.39 66.33 184.08 65.89 184.18 65.23C184.28 64.57 184.75 63.93 185.24 63.81C185.73 63.69 186.04 64.13 185.94 64.79Z" fill="black"/>
<g opacity="0.2">
<path d="M185.94 64.79C185.84 65.45 185.37 66.09 184.88 66.21C184.39 66.33 184.08 65.89 184.18 65.23C184.28 64.57 184.75 63.93 185.24 63.81C185.73 63.69 186.04 64.13 185.94 64.79Z" fill="white"/>
</g>
<path d="M162.11 361.69L164.22 372.35H169.85L170.6 361.69H162.11Z" fill="#B55B52"/>
<path d="M169.111 371C169.111 371 170.181 369.68 171.531 370.13C172.891 370.58 174.661 372.8 174.661 372.8C174.661 372.8 182.011 375.16 183.991 375.28C185.971 375.4 187.711 376.52 188.461 380.37H164.391C164.391 380.37 163.441 371.69 163.301 370.2C163.151 368.71 165.511 370.57 165.511 370.57L169.111 371Z" fill="#33AA94"/>
<path d="M187.75 379.22C186.3 379.21 184.86 379.19 183.41 379.18C177.09 379.12 170.77 379.05 164.44 378.98C164.2 378.98 164.2 378.6 164.44 378.61C164.87 378.61 165.3 378.61 165.72 378.62C165.72 378.61 165.72 378.58 165.73 378.57C166.64 376.56 165.59 374.51 163.77 373.48C163.56 373.37 163.75 373.04 163.95 373.16C165.92 374.27 166.99 376.47 166.09 378.62C166.98 378.63 167.87 378.64 168.76 378.65C175.07 378.71 181.4 378.78 187.72 378.85C187.96 378.85 187.96 379.23 187.72 379.22H187.75Z" fill="black"/>
<path d="M173.811 374.31C174.651 373.13 176.061 372.8 177.251 373.69C177.441 373.83 177.631 373.51 177.441 373.37C176.081 372.35 174.441 372.79 173.491 374.13C173.351 374.33 173.671 374.51 173.811 374.32V374.31Z" fill="white"/>
<path d="M175.88 374.94C176.72 373.76 178.13 373.43 179.32 374.32C179.51 374.46 179.7 374.14 179.51 374C178.15 372.98 176.51 373.42 175.56 374.76C175.42 374.96 175.74 375.14 175.88 374.95V374.94Z" fill="white"/>
<path d="M178.021 375.56C178.861 374.38 180.271 374.05 181.461 374.94C181.651 375.08 181.841 374.76 181.651 374.62C180.291 373.6 178.651 374.04 177.701 375.38C177.561 375.58 177.881 375.76 178.021 375.57V375.56Z" fill="white"/>
<path d="M111.7 361.77L112.86 372.35H118.5L120.19 361.77H111.7Z" fill="#B55B52"/>
<path d="M117.76 371C117.76 371 118.83 369.68 120.18 370.13C121.54 370.58 123.31 372.8 123.31 372.8C123.31 372.8 130.66 375.16 132.64 375.28C134.62 375.4 136.36 376.52 137.11 380.37H113.04C113.04 380.37 112.09 371.69 111.95 370.2C111.8 368.71 114.16 370.57 114.16 370.57L117.76 371Z" fill="#33AA94"/>
<path d="M136.4 379.22C134.95 379.21 133.51 379.19 132.06 379.18C125.74 379.12 119.42 379.05 113.09 378.98C112.85 378.98 112.85 378.6 113.09 378.61C113.52 378.61 113.95 378.61 114.37 378.62C114.37 378.61 114.37 378.58 114.38 378.57C115.29 376.56 114.24 374.51 112.42 373.48C112.21 373.37 112.4 373.04 112.6 373.16C114.57 374.27 115.64 376.47 114.74 378.62C115.63 378.63 116.52 378.64 117.41 378.65C123.72 378.71 130.05 378.78 136.37 378.85C136.61 378.85 136.61 379.23 136.37 379.22H136.4Z" fill="black"/>
<path d="M122.46 374.31C123.3 373.13 124.71 372.8 125.9 373.69C126.09 373.83 126.28 373.51 126.09 373.37C124.73 372.35 123.09 372.79 122.14 374.13C122 374.33 122.32 374.51 122.46 374.32V374.31Z" fill="white"/>
<path d="M124.53 374.94C125.37 373.76 126.78 373.43 127.97 374.32C128.16 374.46 128.35 374.14 128.16 374C126.8 372.98 125.16 373.42 124.21 374.76C124.07 374.96 124.39 375.14 124.53 374.95V374.94Z" fill="white"/>
<path d="M126.67 375.56C127.51 374.38 128.92 374.05 130.11 374.94C130.3 375.08 130.49 374.76 130.3 374.62C128.94 373.6 127.3 374.04 126.35 375.38C126.21 375.58 126.53 375.76 126.67 375.57V375.56Z" fill="white"/>
<path d="M160.23 362.07H172.66C173.74 346.06 176.78 293 174.37 266.75C176.1 230.32 170.53 181.96 170.53 181.96H131.14C131.14 181.96 134.03 214.32 146.98 266.22C146.89 307.34 156.93 348.45 160.22 362.07H160.23Z" fill="#33AA94"/>
<path opacity="0.2" d="M144.87 257.49C151.99 228.4 145.74 190.69 145.74 190.69L139.6 233.77L144.88 257.49H144.87Z" fill="black"/>
<path d="M158.75 361.75L159.67 366.48L173.92 366.42L173.93 361.69L158.75 361.75Z" fill="#263238"/>
<path d="M109.92 362.53H122.35C126.78 346.06 137.56 293 138.99 266.75C146.03 230.32 147.52 181.96 147.52 181.96H108.13C108.13 181.96 106.3 214.32 111.68 266.22C105.59 307.34 109.63 348.45 109.92 362.53Z" fill="#33AA94"/>
<path d="M108.84 361.74L108.81 366.43H123.18L123.93 361.74H108.84Z" fill="#263238"/>
<path d="M175.7 187.89C148.38 198.4 103.87 190.78 103.87 190.78C104.4 177.43 104.87 150.96 104.68 128.97C104.64 125.31 104.59 121.77 104.52 118.44C104.4 112.4 104.19 107.05 103.91 102.83C103.41 95.34 107.48 88.36 114.89 87.12C117.14 86.74 119.57 86.41 122.1 86.13C122.71 86.07 123.31 86.01 123.93 85.94C130.95 85.25 138.65 84.95 145.68 85.15C146.03 85.15 146.38 85.16 146.73 85.17C146.92 85.18 147.11 85.18 147.3 85.19C147.6 85.2 147.91 85.21 148.2 85.23C151.34 85.35 154.3 85.59 156.96 85.94C163.01 86.72 168.37 91.49 168.47 97.59C168.73 113.64 172.74 180.98 175.7 187.88V187.89Z" fill="#263238"/>
<path d="M139.62 95.41C130.93 94.04 126.44 88.68 123.92 85.96C130.94 85.27 138.64 84.97 145.67 85.17C152.49 92.93 147.69 96.67 139.61 95.41H139.62Z" fill="#263238"/>
<path opacity="0.9" d="M139.62 95.41C130.93 94.04 126.44 88.68 123.92 85.96C130.94 85.27 138.64 84.97 145.67 85.17C152.49 92.93 147.69 96.67 139.61 95.41H139.62Z" fill="white"/>
<path d="M140.411 42.3399C135.911 41.7799 131.321 42.9899 127.851 45.8999C125.581 47.7999 123.811 50.3399 124.541 53.3899C126.251 60.5199 130.881 72.0399 130.881 72.0399L152.621 55.7999C152.621 55.7999 152.821 48.8999 149.411 45.4299C147.631 43.6199 143.741 42.7599 140.421 42.3399H140.411Z" fill="black"/>
<path d="M126.61 47.05C126.61 47.05 125.02 45.1 122.97 46.3C120.92 47.5 123.48 48.35 123.48 48.35C123.48 48.35 120.95 50.74 122.17 51.77C123.39 52.8 125.79 49.97 125.79 49.97L126.61 47.05Z" fill="black"/>
<path d="M143.39 78.5999C143.39 78.5999 143.38 78.6699 143.36 78.6999L142.71 82.9899C142.71 83.8499 142.79 84.6999 142.95 85.5199C143.08 86.2099 143.26 86.8699 143.48 87.5099C144.53 88.6699 145.28 91.4699 142.02 91.8399C137.91 92.3099 129.7 87.5099 129.23 85.7199C130.52 79.8899 131.39 72.7599 130.5 67.4199L135.75 71.9799L143.38 78.5899L143.39 78.5999Z" fill="#B55B52"/>
<g opacity="0.2">
<path d="M143.36 78.6999L142.71 82.9899C140.01 82.0999 137.04 79.8599 136.12 77.1899C135.47 75.2599 136.16 73.3099 136.95 73.1199L143.36 78.6999Z" fill="black"/>
</g>
<path d="M152.82 68.8198C152.68 69.7498 152.5 70.6798 152.31 71.5898C150.57 79.6598 141.04 81.4098 134.44 76.3298C134.43 76.3198 134.43 76.3098 134.42 76.3098C133.84 75.8598 133.27 75.3598 132.74 74.7898C128.4 70.2098 128.93 66.2698 128.55 57.4998C128.17 48.7298 136.88 42.2798 145.27 45.8698C153.01 49.1898 154.28 59.4798 152.82 68.8198Z" fill="#B55B52"/>
<path d="M152.821 68.82C152.681 69.75 152.501 70.68 152.311 71.59C150.571 79.66 141.041 81.41 134.441 76.33C134.431 76.32 134.431 76.31 134.421 76.31C131.611 73.31 130.661 69.81 132.881 64.02L134.831 65.35C134.831 65.35 135.241 66.52 138.281 67.02C141.311 67.52 142.681 65.61 147.121 66.8C147.121 66.8 149.731 65.46 151.621 66.35C153.071 67.04 152.761 67.77 152.821 68.82Z" fill="black"/>
<path d="M146.87 70.5499C146.78 71.4499 146.11 72.1199 145.36 72.0499C144.61 71.9799 144.08 71.1899 144.16 70.2899C144.25 69.3899 144.92 68.7199 145.67 68.7899C146.42 68.8599 146.95 69.6499 146.87 70.5499Z" fill="white"/>
<path d="M145.831 44.9299C141.371 42.5999 132.971 42.9399 130.051 47.4099C127.141 51.8799 128.541 58.3299 128.541 58.3299C128.541 58.3299 129.711 58.2599 130.601 58.8699C131.091 59.1699 131.331 59.4399 131.601 59.7399C132.501 60.7599 133.461 61.1399 134.611 61.8299C134.211 59.4099 133.641 54.7399 135.331 54.6299C137.601 54.4899 134.721 50.8999 136.021 50.1899C139.081 48.5199 147.801 47.4599 151.761 52.3399C151.761 52.3399 150.291 47.2499 145.831 44.9199V44.9299Z" fill="black"/>
<path d="M137.761 42.6199C137.761 42.6199 142.621 38.2299 145.911 39.3099C148.951 40.3099 150.811 38.5099 151.611 35.6899C151.611 35.6899 153.701 40.0199 151.761 43.4999C151.761 43.4999 155.041 41.6199 155.471 38.9499C155.471 38.9499 157.091 44.2399 155.131 47.6599C153.161 51.0799 149.381 50.3399 149.381 50.3399L137.761 42.6099V42.6199Z" fill="black"/>
<path d="M124.68 63.2798C125.28 65.5698 126.89 67.3598 128.58 68.3198C131.13 69.7498 133.1 67.6398 132.96 64.8698C132.84 62.3798 131.37 58.6298 128.53 58.3298C125.73 58.0398 123.98 60.6698 124.67 63.2798" fill="#B55B52"/>
<path d="M131.26 68.27C131.26 68.83 130.81 69.28 130.25 69.28C129.69 69.28 129.24 68.83 129.24 68.27C129.24 67.71 129.69 67.26 130.25 67.26C130.81 67.26 131.26 67.71 131.26 68.27Z" fill="white"/>
<path d="M142.05 59.95C142.04 60.64 142.39 61.21 142.84 61.22C143.29 61.22 143.67 60.68 143.68 59.98C143.69 59.29 143.34 58.72 142.89 58.71C142.44 58.71 142.06 59.25 142.05 59.95Z" fill="black"/>
<path d="M149.62 60C149.61 60.69 149.96 61.26 150.41 61.27C150.86 61.27 151.24 60.73 151.25 60.03C151.26 59.34 150.91 58.77 150.46 58.76C150.01 58.76 149.63 59.3 149.62 60Z" fill="black"/>
<path d="M151.76 57.46C151.64 57.46 151.52 57.39 151.46 57.28C151.18 56.77 150.83 56.45 150.4 56.32C149.69 56.12 148.99 56.5 148.98 56.51C148.82 56.6 148.6 56.55 148.51 56.38C148.41 56.21 148.47 56 148.64 55.9C148.68 55.88 149.6 55.36 150.6 55.65C151.22 55.83 151.72 56.26 152.09 56.95C152.18 57.12 152.12 57.33 151.95 57.42C151.9 57.45 151.84 57.46 151.78 57.46H151.76Z" fill="black"/>
<path d="M139.991 57.2698C139.931 57.2698 139.881 57.2498 139.831 57.2298C139.651 57.1298 139.571 56.9098 139.671 56.7198C139.691 56.6798 140.221 55.6598 141.301 55.3298C141.971 55.1198 142.681 55.2198 143.421 55.6298C143.601 55.7298 143.671 55.9598 143.571 56.1398C143.471 56.3198 143.241 56.3898 143.061 56.2898C142.511 55.9898 141.991 55.9098 141.531 56.0498C140.761 56.2798 140.351 57.0598 140.351 57.0698C140.281 57.1998 140.151 57.2798 140.011 57.2698H139.991Z" fill="black"/>
<path d="M146.65 59.74C146.65 59.74 147.12 62 148.89 63.54C150.66 65.08 147.1 66.35 147.1 66.35L146.65 59.74Z" fill="#A02724"/>
<path opacity="0.2" d="M118.13 106.71L104.67 128.98C104.63 125.32 104.58 121.78 104.51 118.45L118.13 106.71Z" fill="black"/>
<path d="M104.91 160.93L99.5102 168.34C92.1802 164.1 85.2502 159.56 78.4402 154.25C76.7402 152.92 75.0402 151.55 73.3702 150C71.6802 148.44 70.0302 146.87 68.2702 144.6C67.8302 144.02 67.3802 143.37 66.9202 142.6C66.4702 141.8 65.9702 140.86 65.5702 139.4C65.4702 139.06 65.3702 138.61 65.3102 138.15C65.2402 137.75 65.2002 137.13 65.2002 136.59C65.2002 136.33 65.2202 135.98 65.2602 135.64C65.3002 135.31 65.3402 134.98 65.4102 134.64C65.4902 134.27 65.6002 133.9 65.7302 133.54L65.9202 133.01L66.0502 132.71L66.3302 132.12L66.5702 131.69L66.8002 131.29L67.0002 130.97C67.2702 130.54 67.4802 130.23 67.7102 129.89C68.5702 128.69 69.3102 127.76 70.0602 126.87C70.8102 125.98 71.5402 125.13 72.2702 124.31C75.2002 121.07 78.1502 118.09 81.1102 115.13C84.1002 112.21 87.0802 109.3 90.1502 106.5C96.2402 100.86 102.42 95.3999 108.88 90.1699L120.83 104.3C114.8 109.71 108.54 115 102.36 120.26L93.1102 128.14C90.0402 130.74 86.9902 133.38 84.1602 135.98C83.4702 136.61 82.7902 137.23 82.1802 137.84C82.6702 138.5 83.2302 139.19 83.7902 139.86C84.9802 141.26 86.2802 142.7 87.6202 144.12C93.0302 149.8 99.0402 155.39 104.91 160.93Z" fill="#263238"/>
<path d="M101.75 157.89C101.75 157.89 110.49 158.4 112.02 159.53C113.55 160.66 108.51 170.78 106.01 172.69C103.51 174.59 104.04 170.81 104.04 170.81C104.04 170.81 99.7105 171.22 97.2605 168.92C94.8205 166.62 95.0905 160.19 101.75 157.89Z" fill="#B55B52"/>
</g>
<defs>
<clipPath id="clip0_698_3993">
<rect width="500" height="386.21" fill="white"/>
</clipPath>
</defs>
</svg>
