<svg width="242" height="79" viewBox="0 0 242 79" fill="none" xmlns="http://www.w3.org/2000/svg">
<g clip-path="url(#clip0_680_3867)">
<path d="M11.4534 0.0769196C7.93515 0.526283 5.49103 1.6223 3.55109 3.62801C1.93995 5.30491 0.986413 7.24486 0.306884 10.2479L0.0548007 11.3439L0.0219203 36.5194L0 61.7058H10.3573H20.7147V69.9917V78.2666L24.2 78.2228C28.047 78.1789 28.2662 78.146 29.8116 77.4117C30.9186 76.8747 31.8721 75.9321 32.3872 74.8361C33.0668 73.4113 33.0996 73.1044 33.0996 67.153V61.7935L33.3298 61.7387C33.8011 61.6072 35.5766 60.6975 36.4754 60.1056C37.6919 59.3165 39.325 58.0671 40.7608 56.8395C42.2952 55.5353 46.197 51.6225 47.3369 50.2525C48.6959 48.6194 50.2413 46.2191 49.7262 46.5479C49.6604 46.5918 49.2987 46.8329 48.948 47.0631C48.0493 47.6549 46.7121 48.2577 45.4188 48.6523C43.1611 49.3428 43.8515 49.3209 27.4442 49.3209H12.4946V24.6605V0.000198364L12.1438 0.0111618C11.9466 0.0221176 11.6397 0.0550003 11.4534 0.0769196Z" fill="black"/>
<path d="M20.8461 28.4087L20.879 47.1834L23.2903 47.2821C26.1947 47.4026 32.5297 47.2053 32.7379 46.9861C33.0229 46.7012 33.1215 43.731 33.1763 32.9571L33.2311 22.0189L39.9935 22.0628C47.3039 22.0956 47.3916 22.1066 49.6165 22.7533C53.2005 23.7945 55.9296 26.0194 57.1461 28.9019C58.9107 33.0996 58.0229 38.766 54.6911 44.5749C51.1948 50.6468 45.8682 56.094 38.9085 60.6973L37.2096 61.8262L38.7441 61.7604C46.449 61.4426 50.0111 60.9055 53.4635 59.5574C62.5714 56.0063 68.8187 47.7205 70.2106 37.3741C70.4627 35.5218 70.4518 32.2886 70.2106 30.4363C69.564 25.6467 67.624 21.2408 64.6867 17.9198C61.3987 14.2043 56.5105 11.5301 50.855 10.3683C47.5999 9.69972 48.0163 9.72164 33.8339 9.6778L20.8242 9.63396L20.8461 28.4087Z" fill="black"/>
<path d="M171.571 17.8212C171.877 19.0158 171.91 19.5529 171.91 22.7423C171.899 26.8633 171.779 28.0689 170.431 37.9769C169.269 46.5477 169.181 47.9397 169.773 49.0905C170.321 50.1755 171.329 50.5701 173.554 50.5811H175.089L175.056 47.1286C175.012 42.4377 175.209 39.8182 176.185 32.2228C176.7 28.2333 177.051 25.2741 177.182 23.8712L177.248 23.0163L178.092 22.7532C181.435 21.7011 184.372 22.534 185.556 24.8795C186.4 26.5783 186.334 29.1649 185.369 31.0501C184.756 32.2886 183.681 33.5599 182.596 34.371C181.435 35.2369 179.747 35.8068 178.07 35.9164L176.996 35.9821L177.073 36.7603C177.116 37.1878 177.16 37.5604 177.182 37.5823C177.281 37.6919 179.243 37.8015 180.076 37.7467C182.037 37.6152 183.572 37.2206 185.117 36.4425C187.43 35.2807 188.953 33.7134 190.093 31.335C191.496 28.4306 191.474 25.0439 190.027 22.5998C189.83 22.26 189.293 21.6024 188.833 21.1421C188.186 20.4845 187.813 20.2105 187.079 19.8598C185.72 19.2022 184.679 19.0268 182.651 19.1035C180.558 19.1912 179.056 19.5419 177.445 20.3311L176.722 20.6818L176.404 20.1447C175.582 18.7747 174.113 17.9308 171.976 17.591L171.494 17.5143L171.571 17.8212Z" fill="black"/>
<path d="M92.0211 18.9174C92.0759 19.1476 92.1087 20.5505 92.0978 22.0301C92.0868 25.6798 91.758 29.4501 90.9141 35.7303C89.9715 42.7338 89.7523 45.1012 89.9496 46.3616L90.0373 46.9644L89.4235 47.5453C88.6892 48.2139 88.196 48.9482 87.9 49.7702C87.7904 50.099 87.7137 50.373 87.7247 50.395C87.7466 50.4059 88.3384 50.3182 89.0509 50.1977C92.2183 49.6606 96.0105 49.6606 100.833 50.2086C101.995 50.3402 103.266 50.4169 103.814 50.395C104.636 50.3511 104.866 50.2963 105.579 49.9456C106.828 49.3318 107.771 48.1701 108.286 46.6356C108.538 45.8684 108.845 44.3888 108.735 44.3888C108.702 44.3888 108.1 44.5313 107.409 44.7067C105.009 45.3095 101.841 45.6602 97.6546 45.7698L95.068 45.8465L95.1557 44.5422C95.331 41.6378 95.7256 38.2621 96.6682 31.675C97.5559 25.4716 97.6874 24.2112 97.6326 22.5781C97.5778 21.0875 97.3806 20.419 96.8106 19.8162C96.2188 19.2024 94.6624 18.7092 92.854 18.5667L91.9443 18.49L92.0211 18.9174Z" fill="black"/>
<path d="M157.607 26.5893C157.607 26.6441 157.53 27.1812 157.442 27.784C157.015 30.6336 155.404 35.4999 152.751 41.9555C152.203 43.2926 151.721 44.3557 151.677 44.3119C151.601 44.2242 151.316 41.2211 150.921 36.1137C150.581 31.8064 150.285 30.0966 149.661 28.6499C148.861 26.8305 147.315 26.5017 144.575 27.5758C144.181 27.7402 143.808 27.9046 143.764 27.9484C143.709 27.9922 143.797 28.2772 143.939 28.5731C144.301 29.2746 145.003 31.2912 145.003 31.6091C145.003 31.8502 143.961 35.0067 143.249 36.9357C142.712 38.4044 140.257 44.5092 140.224 44.4653C140.169 44.4105 139.862 41.1883 139.632 38.2509C139.161 32.2557 138.931 30.5898 138.361 29.0663C137.813 27.6086 137.221 27.1045 135.939 26.9949C135.095 26.9291 134.24 27.1154 132.979 27.6306L132.201 27.9594L132.618 28.8581C133.615 30.9844 134.36 34.4587 135.358 41.6486C136.191 47.5999 136.64 50.0112 136.969 50.2523C137.44 50.614 139.128 50.603 140.114 50.2304L140.662 50.0331L141.55 47.9507C143.096 44.3338 146.121 37.9002 146.219 38.0098C146.252 38.0537 146.537 39.8621 146.844 42.0322C147.151 44.2023 147.589 46.9095 147.808 48.0383C148.159 49.8577 148.236 50.1208 148.466 50.2742C149.036 50.6359 150.932 50.5592 151.842 50.1317C152.083 50.0112 152.247 49.8139 152.39 49.4522C152.828 48.3891 153.913 46.0765 155.722 42.361C159.349 34.8971 160.456 32.1681 160.632 30.2391C160.698 29.5705 160.676 29.428 160.413 28.891C160.095 28.2443 159.459 27.6086 158.506 26.9949C157.848 26.5674 157.607 26.4578 157.607 26.5893Z" fill="black"/>
<path d="M238.931 26.8744C238.931 27.9704 238.186 30.9515 237.123 34.0752C236.268 36.607 235.534 38.536 234.131 41.9775L233.068 44.5531L232.991 44.0051C232.947 43.6982 232.794 41.9227 232.629 40.0594C232.092 33.4833 232.004 32.5956 231.807 31.4009C231.456 29.3842 230.843 27.8827 230.163 27.4005C229.319 26.7977 227.785 26.8634 226.009 27.5758L225.034 27.9594L225.45 28.8582C225.68 29.3514 225.998 30.1843 226.163 30.7104L226.459 31.664L225.998 33.0669C224.836 36.5631 221.757 44.4654 221.603 44.312C221.559 44.2681 221.395 42.6899 221.242 40.8266C220.441 31.3352 220.42 31.2036 219.861 29.4281C219.477 28.2444 219.017 27.5539 218.392 27.247C217.8 26.9621 216.77 26.8963 215.937 27.1155C215.213 27.3018 213.843 27.806 213.69 27.9485C213.635 27.9923 213.745 28.3211 213.92 28.6718C214.939 30.6995 215.663 34.0204 216.748 41.6487C217.351 45.9341 217.636 47.7096 217.964 49.244C218.206 50.3948 218.315 50.4716 219.861 50.4606C220.748 50.4606 221.132 50.4058 221.537 50.2414L222.074 50.0222L222.754 48.3782C223.96 45.5066 227.511 37.8674 227.598 37.9551C227.62 37.977 227.861 39.5443 228.135 41.4404C228.804 46.1094 229.374 49.3756 229.615 49.9564C229.769 50.3072 230.36 50.5264 231.182 50.5264C231.895 50.5264 233.035 50.2852 233.374 50.0551C233.473 49.9784 233.977 49.0139 234.481 47.8959C234.975 46.778 236.202 44.1914 237.199 42.1419C240.948 34.4588 242 31.7955 242 29.998C242 29.0445 241.781 28.617 240.904 27.795C240.301 27.247 239.238 26.5236 239.019 26.5236C238.964 26.5236 238.931 26.6881 238.931 26.8744Z" fill="black"/>
<path d="M118.315 27.0059C116.101 27.7293 114.293 29.165 112.824 31.3571C111.224 33.7573 110.424 36.3001 110.292 39.4566C110.117 43.764 111.224 46.789 113.723 48.7727C115.301 50.0222 116.759 50.5264 118.819 50.5264C121.603 50.5264 123.993 49.6167 125.911 47.8411C127.927 45.9779 129.374 43.194 130.119 39.7854C130.338 38.7661 130.36 38.3387 130.36 36.059C130.36 33.7464 130.338 33.3957 130.119 32.6065C129.44 30.1624 127.927 28.2444 126.228 27.6635C125.494 27.4114 124.069 27.4114 123.028 27.6635C122.612 27.7731 121.713 28.1238 121.033 28.4526C120.08 28.9239 119.619 29.2308 118.995 29.8117C117.723 30.9954 116.737 32.4092 116.003 34.0861C115.564 35.0726 115.531 34.8972 115.915 33.582C116.562 31.3242 117.964 29.2966 119.893 27.8169C120.299 27.5101 120.299 27.3018 119.882 27.0278C119.444 26.7429 119.104 26.7429 118.315 27.0059ZM123.51 30.5789C124.826 31.2475 125.406 33.0449 125.417 36.4974C125.428 38.6675 125.319 39.632 124.869 41.3746C124.31 43.5448 123.488 45.2326 122.458 46.3615C121.779 47.0958 121.044 47.5233 120.2 47.6548C117.636 48.0603 116.288 46.3177 115.948 42.1638C115.696 39.1388 116.288 36.5193 117.789 33.9217C118.819 32.1352 119.904 31.0283 121.055 30.5789C121.811 30.2939 122.951 30.2939 123.51 30.5789Z" fill="black"/>
<path d="M199.311 27.0059C197.097 27.7293 195.288 29.165 193.82 31.3571C192.22 33.7573 191.42 36.3001 191.288 39.4566C191.113 43.7859 192.253 46.8438 194.773 48.8275C196.33 50.0332 197.776 50.5264 199.815 50.5264C202.599 50.5264 204.988 49.6167 206.906 47.8411C208.923 45.9779 210.37 43.194 211.115 39.7854C211.334 38.7661 211.356 38.3387 211.356 36.059C211.356 33.7464 211.334 33.3957 211.115 32.6065C210.435 30.1624 208.923 28.2444 207.224 27.6635C206.49 27.4114 205.065 27.4114 204.024 27.6635C203.607 27.7731 202.708 28.1238 202.029 28.4526C201.075 28.9239 200.615 29.2308 199.99 29.8117C198.719 30.9954 197.733 32.4092 196.998 34.0861C196.56 35.0726 196.527 34.8972 196.911 33.582C197.557 31.3242 198.96 29.2966 200.889 27.8169C201.295 27.5101 201.295 27.3018 200.878 27.0278C200.44 26.7429 200.1 26.7429 199.311 27.0059ZM204.506 30.5789C205.821 31.2475 206.402 33.0449 206.413 36.4974C206.424 39.2813 206.084 41.2212 205.196 43.4352C204.659 44.7504 204.177 45.5724 203.454 46.3615C202.774 47.0958 202.04 47.5233 201.196 47.6548C199.07 47.9836 197.744 46.778 197.185 44.0051C196.461 40.3663 196.998 37.0015 198.785 33.9217C199.815 32.1352 200.9 31.0283 202.051 30.5789C202.807 30.2939 203.947 30.2939 204.506 30.5789Z" fill="black"/>
</g>
<defs>
<clipPath id="clip0_680_3867">
<rect width="242" height="78.2554" fill="white"/>
</clipPath>
</defs>
</svg>
