<svg width="85" height="85" viewBox="0 0 85 85" fill="none" xmlns="http://www.w3.org/2000/svg">
<path d="M46.1406 7.08688C48.7251 7.07696 51.3096 7.10293 53.8933 7.16479L54.5804 7.18959C55.3737 7.21792 56.1564 7.25334 57.1021 7.29584C60.8704 7.47292 63.4416 8.06792 65.6977 8.94271C68.0352 9.84229 70.0044 11.0606 71.9735 13.0298C73.774 14.7992 75.1675 16.9396 76.0571 19.3021C76.9319 21.5581 77.5269 24.1329 77.7039 27.9013C77.7464 28.8433 77.7819 29.6296 77.8102 30.4229L77.8314 31.11C77.8944 33.6926 77.9215 36.2759 77.9129 38.8592L77.9164 41.5013V46.1408C77.9252 48.7253 77.898 51.3098 77.835 53.8935L77.8137 54.5806C77.7854 55.374 77.75 56.1567 77.7075 57.1023C77.5304 60.8706 76.9283 63.4419 76.0571 65.6979C75.1704 68.0629 73.7766 70.205 71.9735 71.9738C70.2026 73.7741 68.0611 75.1675 65.6977 76.0573C63.4416 76.9321 60.8704 77.5271 57.1021 77.7042C56.1564 77.7467 55.3737 77.7821 54.5804 77.8104L53.8933 77.8317C51.3096 77.8946 48.7251 77.9218 46.1406 77.9131L43.4985 77.9167H38.8625C36.278 77.9254 33.6935 77.8982 31.1098 77.8352L30.4227 77.814C29.5819 77.7835 28.7414 77.7481 27.901 77.7077C24.1327 77.5306 21.5614 76.9286 19.3018 76.0573C16.9384 75.1696 14.7977 73.7758 13.0296 71.9738C11.227 70.2039 9.83223 68.0622 8.94247 65.6979C8.06768 63.4419 7.47268 60.8706 7.2956 57.1023C7.25615 56.2619 7.22074 55.4214 7.18935 54.5806L7.17164 53.8935C7.10634 51.3098 7.07683 48.7254 7.0831 46.1408V38.8592C7.07321 36.2759 7.09919 33.6926 7.16102 31.11L7.18581 30.4229C7.21414 29.6296 7.24956 28.8433 7.29206 27.9013C7.46914 24.1294 8.06414 21.5617 8.93893 19.3021C9.82921 16.9384 11.2267 14.7987 13.0331 13.0333C14.8 11.2297 16.9394 9.8337 19.3018 8.94271C21.5614 8.06792 24.1291 7.47292 27.901 7.29584L30.4227 7.18959L31.1098 7.17188C33.6923 7.10661 36.2756 7.0771 38.8589 7.08334L46.1406 7.08688ZM42.4998 24.7952C40.1534 24.762 37.8239 25.1955 35.6466 26.0704C33.4692 26.9454 31.4875 28.2444 29.8165 29.8919C28.1455 31.5394 26.8187 33.5025 25.913 35.6673C25.0074 37.832 24.541 40.1552 24.541 42.5018C24.541 44.8483 25.0074 47.1715 25.913 49.3363C26.8187 51.501 28.1455 53.4642 29.8165 55.1117C31.4875 56.7592 33.4692 58.0582 35.6466 58.9331C37.8239 59.808 40.1534 60.2415 42.4998 60.2083C47.1963 60.2083 51.7005 58.3426 55.0215 55.0217C58.3424 51.7007 60.2081 47.1965 60.2081 42.5C60.2081 37.8035 58.3424 33.2993 55.0215 29.9783C51.7005 26.6574 47.1963 24.7952 42.4998 24.7952ZM42.4998 31.8785C43.9111 31.8525 45.3136 32.108 46.6251 32.6301C47.9366 33.1522 49.131 33.9304 50.1384 34.9192C51.1458 35.9081 51.946 37.0877 52.4924 38.3893C53.0387 39.6909 53.3203 41.0884 53.3205 42.5C53.3207 43.9116 53.0397 45.3091 52.4938 46.6109C51.9478 47.9127 51.148 49.0926 50.1409 50.0818C49.1338 51.071 47.9397 51.8495 46.6284 52.3721C45.317 52.8946 43.9147 53.1505 42.5033 53.125C39.6854 53.125 36.9829 52.0056 34.9903 50.013C32.9977 48.0204 31.8783 45.3179 31.8783 42.5C31.8783 39.6821 32.9977 36.9796 34.9903 34.987C36.9829 32.9944 39.6854 31.875 42.5033 31.875L42.4998 31.8785ZM61.0935 19.4827C59.951 19.5284 58.8704 20.0145 58.0782 20.8391C57.2859 21.6636 56.8435 22.7628 56.8435 23.9063C56.8435 25.0497 57.2859 26.1489 58.0782 26.9734C58.8704 27.798 59.951 28.2841 61.0935 28.3298C62.2677 28.3298 63.3937 27.8634 64.2239 27.0331C65.0542 26.2029 65.5206 25.0768 65.5206 23.9027C65.5206 22.7286 65.0542 21.6025 64.2239 20.7723C63.3937 19.9421 62.2677 19.4756 61.0935 19.4756V19.4827Z" fill="#3ECF7A"/>
</svg>
