<svg width="85" height="85" viewBox="0 0 85 85" fill="none" xmlns="http://www.w3.org/2000/svg">
<path d="M15.9378 21.25C19.8498 21.25 23.0212 18.0787 23.0212 14.1667C23.0212 10.2547 19.8498 7.08337 15.9378 7.08337C12.0258 7.08337 8.85449 10.2547 8.85449 14.1667C8.85449 18.0787 12.0258 21.25 15.9378 21.25Z" stroke="white" stroke-width="4"/>
<path d="M8.85449 31.875H23.0212V76.1458H8.85449V31.875ZM37.1878 48.6979V76.1458H49.5837V51.3542C49.5837 46.9271 52.2399 43.3854 56.667 43.3854C61.0941 43.3854 63.7503 47.8125 63.7503 51.3542V76.1458H76.1462V48.6979C76.1462 43.3854 69.9482 31.875 56.667 31.875C43.3857 31.875 37.1878 43.3854 37.1878 48.6979Z" stroke="white" stroke-width="4" stroke-linejoin="round"/>
</svg>
